<svg width="501" height="499" viewBox="0 0 501 499" fill="none" xmlns="http://www.w3.org/2000/svg">
<rect x="275.144" width="6.08109" height="6.06996" rx="1.34409" fill="white"/>
<rect x="299.468" width="6.08109" height="6.06996" rx="1.34409" fill="white"/>
<rect x="323.792" width="6.08109" height="6.06996" rx="1.34409" fill="white"/>
<rect x="348.117" width="6.08109" height="6.06996" rx="1.34409" fill="white"/>
<rect x="372.441" width="6.08109" height="6.06996" rx="1.34409" fill="white"/>
<rect x="396.765" width="6.08109" height="6.06996" rx="1.34409" fill="white"/>
<rect x="421.09" width="6.0811" height="6.06996" rx="1.34409" fill="white"/>
<rect x="445.414" width="6.08109" height="6.06996" rx="1.34409" fill="white"/>
<rect x="469.738" width="6.0811" height="6.06996" rx="1.34409" fill="white"/>
<rect x="494.062" width="6.08109" height="6.06996" rx="1.34409" fill="white"/>
<rect x="275.144" y="24.2798" width="6.08109" height="6.06996" rx="1.34409" fill="white"/>
<rect x="299.468" y="24.2798" width="6.08109" height="6.06996" rx="1.34409" fill="white"/>
<rect x="323.792" y="24.2798" width="6.08109" height="6.06996" rx="1.34409" fill="white"/>
<rect x="348.117" y="24.2798" width="6.08109" height="6.06996" rx="1.34409" fill="white"/>
<rect x="372.441" y="24.2798" width="6.08109" height="6.06996" rx="1.34409" fill="white"/>
<rect x="396.765" y="24.2798" width="6.08109" height="6.06996" rx="1.34409" fill="white"/>
<rect x="421.09" y="24.2798" width="6.0811" height="6.06996" rx="1.34409" fill="white"/>
<rect x="445.414" y="24.2798" width="6.08109" height="6.06996" rx="1.34409" fill="white"/>
<rect x="469.738" y="24.2798" width="6.0811" height="6.06996" rx="1.34409" fill="white"/>
<rect x="494.062" y="24.2798" width="6.08109" height="6.06996" rx="1.34409" fill="white"/>
<rect x="275.144" y="48.5597" width="6.08109" height="6.06996" rx="1.34409" fill="white"/>
<rect x="299.468" y="48.5597" width="6.08109" height="6.06996" rx="1.34409" fill="white"/>
<rect x="323.792" y="48.5597" width="6.08109" height="6.06996" rx="1.34409" fill="white"/>
<rect x="348.117" y="48.5597" width="6.08109" height="6.06996" rx="1.34409" fill="white"/>
<rect x="372.441" y="48.5597" width="6.08109" height="6.06996" rx="1.34409" fill="white"/>
<rect x="396.765" y="48.5597" width="6.08109" height="6.06996" rx="1.34409" fill="white"/>
<rect x="421.09" y="48.5597" width="6.0811" height="6.06996" rx="1.34409" fill="white"/>
<rect x="445.414" y="48.5597" width="6.08109" height="6.06996" rx="1.34409" fill="white"/>
<rect x="469.738" y="48.5597" width="6.0811" height="6.06996" rx="1.34409" fill="white"/>
<rect x="494.062" y="48.5597" width="6.08109" height="6.06996" rx="1.34409" fill="white"/>
<rect x="275.144" y="72.8395" width="6.08109" height="6.06995" rx="1.34409" fill="white"/>
<rect x="299.468" y="72.8395" width="6.08109" height="6.06995" rx="1.34409" fill="white"/>
<rect x="323.792" y="72.8395" width="6.08109" height="6.06995" rx="1.34409" fill="white"/>
<rect x="348.117" y="72.8395" width="6.08109" height="6.06995" rx="1.34409" fill="white"/>
<rect x="372.441" y="72.8395" width="6.08109" height="6.06995" rx="1.34409" fill="white"/>
<rect x="396.765" y="72.8395" width="6.08109" height="6.06995" rx="1.34409" fill="white"/>
<rect x="421.09" y="72.8395" width="6.0811" height="6.06995" rx="1.34409" fill="white"/>
<rect x="445.414" y="72.8395" width="6.08109" height="6.06995" rx="1.34409" fill="white"/>
<rect x="469.738" y="72.8395" width="6.0811" height="6.06995" rx="1.34409" fill="white"/>
<rect x="494.062" y="72.8395" width="6.08109" height="6.06995" rx="1.34409" fill="white"/>
<rect x="275.144" y="97.1194" width="6.08109" height="6.06996" rx="1.34409" fill="white"/>
<rect x="299.468" y="97.1194" width="6.08109" height="6.06996" rx="1.34409" fill="white"/>
<rect x="323.792" y="97.1194" width="6.08109" height="6.06996" rx="1.34409" fill="white"/>
<rect x="348.117" y="97.1194" width="6.08109" height="6.06996" rx="1.34409" fill="white"/>
<rect x="372.441" y="97.1194" width="6.08109" height="6.06996" rx="1.34409" fill="white"/>
<rect x="396.765" y="97.1194" width="6.08109" height="6.06996" rx="1.34409" fill="white"/>
<rect x="421.09" y="97.1194" width="6.0811" height="6.06996" rx="1.34409" fill="white"/>
<rect x="445.414" y="97.1194" width="6.08109" height="6.06996" rx="1.34409" fill="white"/>
<rect x="469.738" y="97.1194" width="6.0811" height="6.06996" rx="1.34409" fill="white"/>
<rect x="494.062" y="97.1194" width="6.08109" height="6.06996" rx="1.34409" fill="white"/>
<rect x="275.144" y="121.399" width="6.08109" height="6.06996" rx="1.34409" fill="white"/>
<rect x="299.468" y="121.399" width="6.08109" height="6.06996" rx="1.34409" fill="white"/>
<rect x="323.792" y="121.399" width="6.08109" height="6.06996" rx="1.34409" fill="white"/>
<rect x="348.117" y="121.399" width="6.08109" height="6.06996" rx="1.34409" fill="white"/>
<rect x="372.441" y="121.399" width="6.08109" height="6.06996" rx="1.34409" fill="white"/>
<rect x="396.765" y="121.399" width="6.08109" height="6.06996" rx="1.34409" fill="white"/>
<rect x="421.09" y="121.399" width="6.0811" height="6.06996" rx="1.34409" fill="white"/>
<rect x="445.414" y="121.399" width="6.08109" height="6.06996" rx="1.34409" fill="white"/>
<rect x="469.738" y="121.399" width="6.0811" height="6.06996" rx="1.34409" fill="white"/>
<rect x="494.062" y="121.399" width="6.08109" height="6.06996" rx="1.34409" fill="white"/>
<rect x="275.144" y="145.679" width="6.08109" height="6.06996" rx="1.34409" fill="white"/>
<rect x="275.144" y="169.096" width="6.08109" height="6.06996" rx="1.34409" fill="white"/>
<rect x="275.144" y="192.513" width="6.08109" height="6.06996" rx="1.34409" fill="white"/>
<rect x="275.144" y="215.93" width="6.08109" height="6.06996" rx="1.34409" fill="white"/>
<rect x="299.468" y="145.679" width="6.08109" height="6.06996" rx="1.34409" fill="white"/>
<rect x="299.468" y="169.096" width="6.08109" height="6.06996" rx="1.34409" fill="white"/>
<rect x="299.468" y="192.513" width="6.08109" height="6.06996" rx="1.34409" fill="white"/>
<rect x="299.468" y="215.93" width="6.08109" height="6.06996" rx="1.34409" fill="white"/>
<rect x="323.792" y="145.679" width="6.08109" height="6.06996" rx="1.34409" fill="white"/>
<rect x="323.792" y="169.096" width="6.08109" height="6.06996" rx="1.34409" fill="white"/>
<rect x="323.792" y="192.513" width="6.08109" height="6.06996" rx="1.34409" fill="white"/>
<rect x="323.792" y="215.93" width="6.08109" height="6.06996" rx="1.34409" fill="white"/>
<rect x="348.117" y="145.679" width="6.08109" height="6.06996" rx="1.34409" fill="white"/>
<rect x="348.117" y="169.096" width="6.08109" height="6.06996" rx="1.34409" fill="white"/>
<rect x="348.117" y="192.513" width="6.08109" height="6.06996" rx="1.34409" fill="white"/>
<rect x="348.117" y="215.93" width="6.08109" height="6.06996" rx="1.34409" fill="white"/>
<rect x="372.441" y="145.679" width="6.08109" height="6.06996" rx="1.34409" fill="white"/>
<rect x="372.441" y="169.096" width="6.08109" height="6.06996" rx="1.34409" fill="white"/>
<rect x="372.441" y="192.513" width="6.08109" height="6.06996" rx="1.34409" fill="white"/>
<rect x="372.441" y="215.93" width="6.08109" height="6.06996" rx="1.34409" fill="white"/>
<rect x="396.765" y="145.679" width="6.08109" height="6.06996" rx="1.34409" fill="white"/>
<rect x="396.765" y="169.096" width="6.08109" height="6.06996" rx="1.34409" fill="white"/>
<rect x="396.765" y="192.513" width="6.08109" height="6.06996" rx="1.34409" fill="white"/>
<rect x="396.765" y="215.93" width="6.08109" height="6.06996" rx="1.34409" fill="white"/>
<rect x="421.09" y="145.679" width="6.0811" height="6.06996" rx="1.34409" fill="white"/>
<rect x="421.09" y="169.096" width="6.0811" height="6.06996" rx="1.34409" fill="white"/>
<rect x="421.09" y="192.513" width="6.0811" height="6.06996" rx="1.34409" fill="white"/>
<rect x="421.09" y="215.93" width="6.0811" height="6.06996" rx="1.34409" fill="white"/>
<rect x="445.414" y="145.679" width="6.08109" height="6.06996" rx="1.34409" fill="white"/>
<rect x="445.414" y="169.096" width="6.08109" height="6.06996" rx="1.34409" fill="white"/>
<rect x="445.414" y="192.513" width="6.08109" height="6.06996" rx="1.34409" fill="white"/>
<rect x="445.414" y="215.93" width="6.08109" height="6.06996" rx="1.34409" fill="white"/>
<rect x="469.738" y="145.679" width="6.0811" height="6.06996" rx="1.34409" fill="white"/>
<rect x="469.738" y="169.096" width="6.0811" height="6.06996" rx="1.34409" fill="white"/>
<rect x="469.738" y="192.513" width="6.0811" height="6.06996" rx="1.34409" fill="white"/>
<rect x="469.738" y="215.93" width="6.0811" height="6.06996" rx="1.34409" fill="white"/>
<rect x="494.062" y="145.679" width="6.08109" height="6.06996" rx="1.34409" fill="white"/>
<rect x="494.062" y="169.096" width="6.08109" height="6.06996" rx="1.34409" fill="white"/>
<rect x="494.062" y="192.513" width="6.08109" height="6.06996" rx="1.34409" fill="white"/>
<rect x="494.062" y="215.93" width="6.08109" height="6.06996" rx="1.34409" fill="white"/>
<rect x="0.782227" y="277" width="6.08109" height="6.06996" rx="1.34409" fill="white"/>
<rect x="25.1067" y="277" width="6.08109" height="6.06996" rx="1.34409" fill="white"/>
<rect x="49.4312" y="277" width="6.08109" height="6.06996" rx="1.34409" fill="white"/>
<rect x="73.7552" y="277" width="6.08109" height="6.06996" rx="1.34409" fill="white"/>
<rect x="98.0797" y="277" width="6.08109" height="6.06996" rx="1.34409" fill="white"/>
<rect x="122.404" y="277" width="6.08109" height="6.06996" rx="1.34409" fill="white"/>
<rect x="146.729" y="277" width="6.0811" height="6.06996" rx="1.34409" fill="white"/>
<rect x="171.053" y="277" width="6.08109" height="6.06996" rx="1.34409" fill="white"/>
<rect x="195.377" y="277" width="6.0811" height="6.06996" rx="1.34409" fill="white"/>
<rect x="219.701" y="277" width="6.08109" height="6.06996" rx="1.34409" fill="white"/>
<rect x="0.782227" y="301.28" width="6.08109" height="6.06996" rx="1.34409" fill="white"/>
<rect x="25.1067" y="301.28" width="6.08109" height="6.06996" rx="1.34409" fill="white"/>
<rect x="49.4312" y="301.28" width="6.08109" height="6.06996" rx="1.34409" fill="white"/>
<rect x="73.7552" y="301.28" width="6.08109" height="6.06996" rx="1.34409" fill="white"/>
<rect x="98.0797" y="301.28" width="6.08109" height="6.06996" rx="1.34409" fill="white"/>
<rect x="122.404" y="301.28" width="6.08109" height="6.06996" rx="1.34409" fill="white"/>
<rect x="146.729" y="301.28" width="6.0811" height="6.06996" rx="1.34409" fill="white"/>
<rect x="171.053" y="301.28" width="6.08109" height="6.06996" rx="1.34409" fill="white"/>
<rect x="195.377" y="301.28" width="6.0811" height="6.06996" rx="1.34409" fill="white"/>
<rect x="219.701" y="301.28" width="6.08109" height="6.06996" rx="1.34409" fill="white"/>
<rect x="0.782227" y="325.56" width="6.08109" height="6.06996" rx="1.34409" fill="white"/>
<rect x="25.1067" y="325.56" width="6.08109" height="6.06996" rx="1.34409" fill="white"/>
<rect x="49.4312" y="325.56" width="6.08109" height="6.06996" rx="1.34409" fill="white"/>
<rect x="73.7552" y="325.56" width="6.08109" height="6.06996" rx="1.34409" fill="white"/>
<rect x="98.0797" y="325.56" width="6.08109" height="6.06996" rx="1.34409" fill="white"/>
<rect x="122.404" y="325.56" width="6.08109" height="6.06996" rx="1.34409" fill="white"/>
<rect x="146.729" y="325.56" width="6.0811" height="6.06996" rx="1.34409" fill="white"/>
<rect x="171.053" y="325.56" width="6.08109" height="6.06996" rx="1.34409" fill="white"/>
<rect x="195.377" y="325.56" width="6.0811" height="6.06996" rx="1.34409" fill="white"/>
<rect x="219.701" y="325.56" width="6.08109" height="6.06996" rx="1.34409" fill="white"/>
<rect x="0.782227" y="349.839" width="6.08109" height="6.06995" rx="1.34409" fill="white"/>
<rect x="25.1067" y="349.839" width="6.08109" height="6.06995" rx="1.34409" fill="white"/>
<rect x="49.4312" y="349.839" width="6.08109" height="6.06995" rx="1.34409" fill="white"/>
<rect x="73.7552" y="349.839" width="6.08109" height="6.06995" rx="1.34409" fill="white"/>
<rect x="98.0797" y="349.839" width="6.08109" height="6.06995" rx="1.34409" fill="white"/>
<rect x="122.404" y="349.839" width="6.08109" height="6.06995" rx="1.34409" fill="white"/>
<rect x="146.729" y="349.839" width="6.0811" height="6.06995" rx="1.34409" fill="white"/>
<rect x="171.053" y="349.839" width="6.08109" height="6.06995" rx="1.34409" fill="white"/>
<rect x="195.377" y="349.839" width="6.0811" height="6.06995" rx="1.34409" fill="white"/>
<rect x="219.701" y="349.839" width="6.08109" height="6.06995" rx="1.34409" fill="white"/>
<rect x="0.782227" y="374.119" width="6.08109" height="6.06996" rx="1.34409" fill="white"/>
<rect x="25.1067" y="374.119" width="6.08109" height="6.06996" rx="1.34409" fill="white"/>
<rect x="49.4312" y="374.119" width="6.08109" height="6.06996" rx="1.34409" fill="white"/>
<rect x="73.7552" y="374.119" width="6.08109" height="6.06996" rx="1.34409" fill="white"/>
<rect x="98.0797" y="374.119" width="6.08109" height="6.06996" rx="1.34409" fill="white"/>
<rect x="122.404" y="374.119" width="6.08109" height="6.06996" rx="1.34409" fill="white"/>
<rect x="146.729" y="374.119" width="6.0811" height="6.06996" rx="1.34409" fill="white"/>
<rect x="171.053" y="374.119" width="6.08109" height="6.06996" rx="1.34409" fill="white"/>
<rect x="195.377" y="374.119" width="6.0811" height="6.06996" rx="1.34409" fill="white"/>
<rect x="219.701" y="374.119" width="6.08109" height="6.06996" rx="1.34409" fill="white"/>
<rect x="0.782227" y="398.399" width="6.08109" height="6.06996" rx="1.34409" fill="white"/>
<rect x="25.1067" y="398.399" width="6.08109" height="6.06996" rx="1.34409" fill="white"/>
<rect x="49.4312" y="398.399" width="6.08109" height="6.06996" rx="1.34409" fill="white"/>
<rect x="73.7552" y="398.399" width="6.08109" height="6.06996" rx="1.34409" fill="white"/>
<rect x="98.0797" y="398.399" width="6.08109" height="6.06996" rx="1.34409" fill="white"/>
<rect x="122.404" y="398.399" width="6.08109" height="6.06996" rx="1.34409" fill="white"/>
<rect x="146.729" y="398.399" width="6.0811" height="6.06996" rx="1.34409" fill="white"/>
<rect x="171.053" y="398.399" width="6.08109" height="6.06996" rx="1.34409" fill="white"/>
<rect x="195.377" y="398.399" width="6.0811" height="6.06996" rx="1.34409" fill="white"/>
<rect x="219.701" y="398.399" width="6.08109" height="6.06996" rx="1.34409" fill="white"/>
<rect x="0.782227" y="422.679" width="6.08109" height="6.06996" rx="1.34409" fill="white"/>
<rect x="0.782227" y="446.096" width="6.08109" height="6.06996" rx="1.34409" fill="white"/>
<rect x="0.782227" y="469.513" width="6.08109" height="6.06996" rx="1.34409" fill="white"/>
<rect x="0.782227" y="492.93" width="6.08109" height="6.06996" rx="1.34409" fill="white"/>
<rect x="25.1067" y="422.679" width="6.08109" height="6.06996" rx="1.34409" fill="white"/>
<rect x="25.1067" y="446.096" width="6.08109" height="6.06996" rx="1.34409" fill="white"/>
<rect x="25.1067" y="469.513" width="6.08109" height="6.06996" rx="1.34409" fill="white"/>
<rect x="25.1067" y="492.93" width="6.08109" height="6.06996" rx="1.34409" fill="white"/>
<rect x="49.4312" y="422.679" width="6.08109" height="6.06996" rx="1.34409" fill="white"/>
<rect x="49.4312" y="446.096" width="6.08109" height="6.06996" rx="1.34409" fill="white"/>
<rect x="49.4312" y="469.513" width="6.08109" height="6.06996" rx="1.34409" fill="white"/>
<rect x="49.4312" y="492.93" width="6.08109" height="6.06996" rx="1.34409" fill="white"/>
<rect x="73.7552" y="422.679" width="6.08109" height="6.06996" rx="1.34409" fill="white"/>
<rect x="73.7552" y="446.096" width="6.08109" height="6.06996" rx="1.34409" fill="white"/>
<rect x="73.7552" y="469.513" width="6.08109" height="6.06996" rx="1.34409" fill="white"/>
<rect x="73.7552" y="492.93" width="6.08109" height="6.06996" rx="1.34409" fill="white"/>
<rect x="98.0797" y="422.679" width="6.08109" height="6.06996" rx="1.34409" fill="white"/>
<rect x="98.0797" y="446.096" width="6.08109" height="6.06996" rx="1.34409" fill="white"/>
<rect x="98.0797" y="469.513" width="6.08109" height="6.06996" rx="1.34409" fill="white"/>
<rect x="98.0797" y="492.93" width="6.08109" height="6.06996" rx="1.34409" fill="white"/>
<rect x="122.404" y="422.679" width="6.08109" height="6.06996" rx="1.34409" fill="white"/>
<rect x="122.404" y="446.096" width="6.08109" height="6.06996" rx="1.34409" fill="white"/>
<rect x="122.404" y="469.513" width="6.08109" height="6.06996" rx="1.34409" fill="white"/>
<rect x="122.404" y="492.93" width="6.08109" height="6.06996" rx="1.34409" fill="white"/>
<rect x="146.729" y="422.679" width="6.0811" height="6.06996" rx="1.34409" fill="white"/>
<rect x="146.729" y="446.096" width="6.0811" height="6.06996" rx="1.34409" fill="white"/>
<rect x="146.729" y="469.513" width="6.0811" height="6.06996" rx="1.34409" fill="white"/>
<rect x="146.729" y="492.93" width="6.0811" height="6.06996" rx="1.34409" fill="white"/>
<rect x="171.053" y="422.679" width="6.08109" height="6.06996" rx="1.34409" fill="white"/>
<rect x="171.053" y="446.096" width="6.08109" height="6.06996" rx="1.34409" fill="white"/>
<rect x="171.053" y="469.513" width="6.08109" height="6.06996" rx="1.34409" fill="white"/>
<rect x="171.053" y="492.93" width="6.08109" height="6.06996" rx="1.34409" fill="white"/>
<rect x="195.377" y="422.679" width="6.0811" height="6.06996" rx="1.34409" fill="white"/>
<rect x="195.377" y="446.096" width="6.0811" height="6.06996" rx="1.34409" fill="white"/>
<rect x="195.377" y="469.513" width="6.0811" height="6.06996" rx="1.34409" fill="white"/>
<rect x="195.377" y="492.93" width="6.0811" height="6.06996" rx="1.34409" fill="white"/>
<rect x="219.701" y="422.679" width="6.08109" height="6.06996" rx="1.34409" fill="white"/>
<rect x="219.701" y="446.096" width="6.08109" height="6.06996" rx="1.34409" fill="white"/>
<rect x="219.701" y="469.513" width="6.08109" height="6.06996" rx="1.34409" fill="white"/>
<rect x="219.701" y="492.93" width="6.08109" height="6.06996" rx="1.34409" fill="white"/>
</svg>
