<svg width="157" height="40" viewBox="0 0 157 40" fill="none" xmlns="http://www.w3.org/2000/svg">
<g filter="url(#filter0_d_203_252)">
<path d="M25.1656 17.9688H16.4764C16.3686 17.9689 16.2654 18.0117 16.1892 18.0879C16.113 18.1641 16.0702 18.2674 16.0702 18.3752V22.6235C16.0702 22.8477 16.2522 23.0301 16.4762 23.0301H19.8661V28.3084C19.8661 28.3084 19.1049 28.5679 17.0006 28.5679C14.518 28.5679 11.0498 27.6607 11.0498 20.0345C11.0498 12.4067 14.6613 11.4032 18.0516 11.4032C20.9863 11.4032 22.2507 11.9198 23.055 12.1688C23.3079 12.2463 23.5418 11.9947 23.5418 11.7703L24.511 7.6654C24.511 7.56047 24.4755 7.43414 24.3558 7.34838C24.0291 7.11531 22.036 6 17.0004 6C11.1999 6 5.24942 8.46793 5.24942 20.332C5.24942 32.1964 12.062 33.9643 17.803 33.9643C22.5562 33.9643 25.4396 31.933 25.4396 31.933C25.5587 31.8675 25.5714 31.7014 25.5714 31.6251V18.3752C25.5714 18.1512 25.3896 17.9688 25.1656 17.9688ZM69.9233 7.485C69.9233 7.25899 69.7441 7.07657 69.5199 7.07657H64.6272C64.5738 7.07678 64.521 7.08751 64.4717 7.10815C64.4224 7.12879 64.3777 7.15893 64.3401 7.19686C64.3024 7.23479 64.2726 7.27975 64.2524 7.32919C64.2321 7.37863 64.2218 7.43157 64.222 7.485L64.2232 16.9402H56.5971V7.4852C56.5971 7.25919 56.4171 7.07677 56.1933 7.07677H51.3006C51.1929 7.07736 51.0898 7.12071 51.014 7.1973C50.9382 7.27389 50.8959 7.37744 50.8964 7.4852V33.0871C50.8964 33.3131 51.078 33.4967 51.3006 33.4967H56.1931C56.4169 33.4967 56.5967 33.3131 56.5967 33.0871V22.1362H64.223L64.2097 33.0869C64.2097 33.3129 64.3913 33.4965 64.6149 33.4965H69.5193C69.7433 33.4965 69.9225 33.3129 69.9229 33.0869V7.4852L69.9233 7.485ZM34.3823 10.908C34.3823 9.14636 32.9697 7.72251 31.2273 7.72251C29.4864 7.72251 28.0728 9.14616 28.0728 10.908C28.0728 12.6676 29.4864 14.0953 31.2273 14.0953C32.9697 14.0953 34.3823 12.6676 34.3823 10.908ZM33.994 27.6996V15.8818C33.9944 15.7741 33.9519 15.6706 33.876 15.5941C33.8001 15.5177 33.697 15.4745 33.5892 15.474H28.7121C28.4883 15.474 28.2883 15.7048 28.2883 15.9292V32.8607C28.2883 33.3583 28.5983 33.5062 28.9997 33.5062H33.3937C33.876 33.5062 33.994 33.2695 33.994 32.8526V27.6996ZM88.6227 15.4742H83.7675C83.5447 15.4742 83.3635 15.6576 83.3635 15.8834V28.437C83.3635 28.437 82.1302 29.3394 80.3794 29.3394C78.6289 29.3394 78.1643 28.5449 78.1643 26.8309V15.8836C78.1643 15.6576 77.9833 15.474 77.7605 15.474H72.833C72.6106 15.474 72.4284 15.6576 72.4284 15.8836V27.6599C72.4284 32.7511 75.2662 33.9968 79.1699 33.9968C82.3723 33.9968 84.9543 32.2277 84.9543 32.2277C84.9543 32.2277 85.0774 33.1599 85.1328 33.2705C85.1885 33.3809 85.3334 33.4921 85.49 33.4921L88.6249 33.4784C88.8473 33.4784 89.0295 33.2945 89.0295 33.0697L89.0279 15.8834C89.0283 15.7755 88.9859 15.6717 88.9099 15.595C88.8339 15.5183 88.7306 15.4748 88.6227 15.4742ZM99.8091 29.3491C98.1251 29.2978 96.9827 28.5336 96.9827 28.5336V20.4258C96.9827 20.4258 98.1098 19.735 99.4922 19.6115C101.241 19.455 102.925 19.983 102.925 24.1539C102.925 28.552 102.165 29.4201 99.8091 29.3491ZM101.724 14.9243C98.9666 14.9243 97.0909 16.1546 97.0909 16.1546V7.485C97.0913 7.43166 97.0811 7.37878 97.061 7.32938C97.0409 7.27997 97.0113 7.23501 96.9738 7.19708C96.9363 7.15914 96.8917 7.12897 96.8426 7.10829C96.7934 7.08761 96.7407 7.07683 96.6873 7.07657H91.7807C91.7273 7.0768 91.6745 7.08756 91.6253 7.10822C91.5761 7.12888 91.5314 7.15904 91.4939 7.19697C91.4563 7.2349 91.4266 7.27986 91.4064 7.32928C91.3863 7.3787 91.376 7.43162 91.3763 7.485V33.0869C91.3763 33.3129 91.5575 33.4965 91.7813 33.4965H95.1856C95.3389 33.4965 95.455 33.4178 95.5407 33.2792C95.6253 33.1416 95.7474 32.0987 95.7474 32.0987C95.7474 32.0987 97.7536 34 101.552 34C106.01 34 108.567 31.7383 108.567 23.8468C108.567 15.9553 104.484 14.9243 101.724 14.9243ZM48.0758 15.4298H44.4058L44.4001 10.5813C44.4001 10.3979 44.3057 10.3061 44.0934 10.3061H39.0921C38.8976 10.3061 38.7933 10.3916 38.7933 10.5785V15.589C38.7933 15.589 36.287 16.194 36.1175 16.2428C36.033 16.2673 35.9587 16.3187 35.9059 16.389C35.853 16.4594 35.8245 16.5451 35.8245 16.6331V19.7817C35.8245 20.0081 36.0053 20.1907 36.2291 20.1907H38.7933V27.7652C38.7933 33.3912 42.7395 33.9439 45.4026 33.9439C46.6194 33.9439 48.075 33.553 48.3153 33.4644C48.4606 33.411 48.5449 33.2606 48.5449 33.0972L48.549 29.6336C48.549 29.4078 48.3583 29.225 48.1434 29.225C47.9295 29.225 47.3826 29.3119 46.8192 29.3119C45.0166 29.3119 44.4058 28.4737 44.4058 27.3889L44.4056 20.1909H48.0758C48.1292 20.1907 48.1821 20.1799 48.2315 20.1592C48.2808 20.1385 48.3255 20.1083 48.3631 20.0703C48.4007 20.0323 48.4304 19.9872 48.4506 19.9377C48.4708 19.8882 48.4809 19.8351 48.4806 19.7817V15.838C48.4806 15.612 48.2996 15.4298 48.0758 15.4298Z" fill="white"/>
<path d="M136.193 5C127.906 5 121.193 11.7125 121.193 20C121.193 26.6375 125.487 32.2438 131.449 34.2313C132.199 34.3625 132.481 33.9125 132.481 33.5188C132.481 33.1625 132.462 31.9813 132.462 30.725C128.693 31.4188 127.718 29.8062 127.418 28.9625C127.249 28.5312 126.518 27.2 125.881 26.8437C125.356 26.5625 124.606 25.8687 125.862 25.85C127.043 25.8312 127.887 26.9375 128.168 27.3875C129.518 29.6562 131.674 29.0188 132.537 28.625C132.668 27.65 133.062 26.9937 133.493 26.6187C130.156 26.2437 126.668 24.95 126.668 19.2125C126.668 17.5812 127.249 16.2312 128.206 15.1812C128.056 14.8062 127.531 13.2687 128.356 11.2062C128.356 11.2062 129.612 10.8125 132.481 12.7438C133.681 12.4063 134.956 12.2375 136.231 12.2375C137.506 12.2375 138.781 12.4063 139.981 12.7438C142.849 10.7938 144.106 11.2062 144.106 11.2062C144.931 13.2687 144.406 14.8062 144.256 15.1812C145.212 16.2312 145.793 17.5625 145.793 19.2125C145.793 24.9687 142.287 26.2437 138.949 26.6187C139.493 27.0875 139.962 27.9875 139.962 29.3938C139.962 31.4 139.943 33.0125 139.943 33.5188C139.943 33.9125 140.224 34.3813 140.974 34.2313C143.952 33.2262 146.54 31.3125 148.373 28.7595C150.206 26.2066 151.193 23.1429 151.193 20C151.193 11.7125 144.481 5 136.193 5Z" fill="white"/>
</g>
<defs>
<filter id="filter0_d_203_252" x="0.076355" y="-0.5" width="157" height="40" filterUnits="userSpaceOnUse" color-interpolation-filters="sRGB">
<feFlood flood-opacity="0" result="BackgroundImageFix"/>
<feColorMatrix in="SourceAlpha" type="matrix" values="0 0 0 0 0 0 0 0 0 0 0 0 0 0 0 0 0 0 127 0" result="hardAlpha"/>
<feOffset/>
<feGaussianBlur stdDeviation="2.5"/>
<feComposite in2="hardAlpha" operator="out"/>
<feColorMatrix type="matrix" values="0 0 0 0 1 0 0 0 0 1 0 0 0 0 1 0 0 0 1 0"/>
<feBlend mode="normal" in2="BackgroundImageFix" result="effect1_dropShadow_203_252"/>
<feBlend mode="normal" in="SourceGraphic" in2="effect1_dropShadow_203_252" result="shape"/>
</filter>
</defs>
</svg>
