<svg width="148" height="31" viewBox="0 0 148 31" fill="none" xmlns="http://www.w3.org/2000/svg">
<path d="M20.1656 13.9688H11.4764C11.3686 13.9689 11.2654 14.0117 11.1892 14.0879C11.113 14.1641 11.0702 14.2674 11.0702 14.3752V18.6235C11.0702 18.8477 11.2522 19.0301 11.4762 19.0301H14.8661V24.3084C14.8661 24.3084 14.1049 24.5679 12.0006 24.5679C9.51798 24.5679 6.04976 23.6607 6.04976 16.0345C6.04976 8.40673 9.66125 7.40321 13.0516 7.40321C15.9863 7.40321 17.2507 7.9198 18.055 8.16881C18.3079 8.2463 18.5418 7.99467 18.5418 7.77027L19.511 3.6654C19.511 3.56047 19.4755 3.43414 19.3558 3.34838C19.0291 3.11531 17.036 2 12.0004 2C6.19989 2 0.24942 4.46793 0.24942 16.332C0.24942 28.1964 7.06195 29.9643 12.803 29.9643C17.5562 29.9643 20.4396 27.933 20.4396 27.933C20.5587 27.8675 20.5714 27.7014 20.5714 27.6251V14.3752C20.5714 14.1512 20.3896 13.9688 20.1656 13.9688ZM64.9233 3.485C64.9233 3.25899 64.7441 3.07657 64.5199 3.07657H59.6272C59.5738 3.07678 59.521 3.08751 59.4717 3.10815C59.4224 3.12879 59.3777 3.15893 59.3401 3.19686C59.3024 3.23479 59.2726 3.27975 59.2524 3.32919C59.2321 3.37863 59.2218 3.43157 59.222 3.485L59.2232 12.9402H51.5971V3.4852C51.5971 3.25919 51.4171 3.07677 51.1933 3.07677H46.3006C46.1929 3.07736 46.0898 3.12071 46.014 3.1973C45.9382 3.27389 45.8959 3.37744 45.8964 3.4852V29.0871C45.8964 29.3131 46.078 29.4967 46.3006 29.4967H51.1931C51.4169 29.4967 51.5967 29.3131 51.5967 29.0871V18.1362H59.223L59.2097 29.0869C59.2097 29.3129 59.3913 29.4965 59.6149 29.4965H64.5193C64.7433 29.4965 64.9225 29.3129 64.9229 29.0869V3.4852L64.9233 3.485ZM29.3823 6.90801C29.3823 5.14636 27.9697 3.72251 26.2273 3.72251C24.4864 3.72251 23.0728 5.14616 23.0728 6.90801C23.0728 8.66765 24.4864 10.0953 26.2273 10.0953C27.9697 10.0953 29.3823 8.66765 29.3823 6.90801ZM28.994 23.6996V11.8818C28.9944 11.7741 28.9519 11.6706 28.876 11.5941C28.8001 11.5177 28.697 11.4745 28.5892 11.474H23.7121C23.4883 11.474 23.2883 11.7048 23.2883 11.9292V28.8607C23.2883 29.3583 23.5983 29.5062 23.9997 29.5062H28.3937C28.876 29.5062 28.994 29.2695 28.994 28.8526V23.6996ZM83.6227 11.4742H78.7675C78.5447 11.4742 78.3635 11.6576 78.3635 11.8834V24.437C78.3635 24.437 77.1302 25.3394 75.3794 25.3394C73.6289 25.3394 73.1643 24.5449 73.1643 22.8309V11.8836C73.1643 11.6576 72.9833 11.474 72.7605 11.474H67.833C67.6106 11.474 67.4284 11.6576 67.4284 11.8836V23.6599C67.4284 28.7511 70.2662 29.9968 74.1699 29.9968C77.3723 29.9968 79.9543 28.2277 79.9543 28.2277C79.9543 28.2277 80.0774 29.1599 80.1328 29.2705C80.1885 29.3809 80.3334 29.4921 80.49 29.4921L83.6249 29.4784C83.8473 29.4784 84.0295 29.2945 84.0295 29.0697L84.0279 11.8834C84.0283 11.7755 83.9859 11.6717 83.9099 11.595C83.8339 11.5183 83.7306 11.4748 83.6227 11.4742ZM94.8091 25.3491C93.1251 25.2978 91.9827 24.5336 91.9827 24.5336V16.4258C91.9827 16.4258 93.1098 15.735 94.4922 15.6115C96.2406 15.455 97.9253 15.983 97.9253 20.1539C97.9253 24.552 97.165 25.4201 94.8091 25.3491ZM96.7241 10.9243C93.9666 10.9243 92.0909 12.1546 92.0909 12.1546V3.485C92.0913 3.43166 92.0811 3.37878 92.061 3.32938C92.0409 3.27997 92.0113 3.23501 91.9738 3.19708C91.9363 3.15914 91.8917 3.12897 91.8426 3.10829C91.7934 3.08761 91.7407 3.07683 91.6873 3.07657H86.7807C86.7273 3.0768 86.6745 3.08756 86.6253 3.10822C86.5761 3.12888 86.5314 3.15904 86.4939 3.19697C86.4563 3.2349 86.4266 3.27986 86.4064 3.32928C86.3863 3.3787 86.376 3.43162 86.3763 3.485V29.0869C86.3763 29.3129 86.5575 29.4965 86.7813 29.4965H90.1856C90.3389 29.4965 90.455 29.4178 90.5407 29.2792C90.6253 29.1416 90.7474 28.0987 90.7474 28.0987C90.7474 28.0987 92.7536 30 96.5515 30C101.01 30 103.567 27.7383 103.567 19.8468C103.567 11.9553 99.4836 10.9243 96.7241 10.9243ZM43.0758 11.4298H39.4058L39.4001 6.58131C39.4001 6.39788 39.3057 6.30606 39.0934 6.30606H34.0921C33.8976 6.30606 33.7933 6.39162 33.7933 6.57848V11.589C33.7933 11.589 31.287 12.194 31.1175 12.2428C31.033 12.2673 30.9587 12.3187 30.9059 12.389C30.853 12.4594 30.8245 12.5451 30.8245 12.6331V15.7817C30.8245 16.0081 31.0053 16.1907 31.2291 16.1907H33.7933V23.7652C33.7933 29.3912 37.7395 29.9439 40.4026 29.9439C41.6194 29.9439 43.075 29.553 43.3153 29.4644C43.4606 29.411 43.5449 29.2606 43.5449 29.0972L43.549 25.6336C43.549 25.4078 43.3583 25.225 43.1434 25.225C42.9295 25.225 42.3826 25.3119 41.8192 25.3119C40.0166 25.3119 39.4058 24.4737 39.4058 23.3889L39.4056 16.1909H43.0758C43.1292 16.1907 43.1821 16.1799 43.2315 16.1592C43.2808 16.1385 43.3255 16.1083 43.3631 16.0703C43.4007 16.0323 43.4304 15.9872 43.4506 15.9377C43.4708 15.8882 43.4809 15.8351 43.4806 15.7817V11.838C43.4806 11.612 43.2996 11.4298 43.0758 11.4298Z" fill="white" fill-opacity="0.5"/>
<path d="M131.193 1C122.906 1 116.193 7.7125 116.193 16C116.193 22.6375 120.487 28.2438 126.449 30.2313C127.199 30.3625 127.481 29.9125 127.481 29.5188C127.481 29.1625 127.462 27.9813 127.462 26.725C123.693 27.4188 122.718 25.8062 122.418 24.9625C122.249 24.5312 121.518 23.2 120.881 22.8437C120.356 22.5625 119.606 21.8687 120.862 21.85C122.043 21.8312 122.887 22.9375 123.168 23.3875C124.518 25.6562 126.674 25.0188 127.537 24.625C127.668 23.65 128.062 22.9937 128.493 22.6187C125.156 22.2437 121.668 20.95 121.668 15.2125C121.668 13.5812 122.249 12.2312 123.206 11.1812C123.056 10.8062 122.531 9.26875 123.356 7.20625C123.356 7.20625 124.612 6.8125 127.481 8.74375C128.681 8.40625 129.956 8.2375 131.231 8.2375C132.506 8.2375 133.781 8.40625 134.981 8.74375C137.849 6.79375 139.106 7.20625 139.106 7.20625C139.931 9.26875 139.406 10.8062 139.256 11.1812C140.212 12.2312 140.793 13.5625 140.793 15.2125C140.793 20.9687 137.287 22.2437 133.949 22.6187C134.493 23.0875 134.962 23.9875 134.962 25.3938C134.962 27.4 134.943 29.0125 134.943 29.5188C134.943 29.9125 135.224 30.3813 135.974 30.2313C138.952 29.2262 141.54 27.3125 143.373 24.7595C145.206 22.2066 146.193 19.1429 146.193 16C146.193 7.7125 139.481 1 131.193 1Z" fill="white" fill-opacity="0.5"/>
</svg>
