<svg width="148" height="31" viewBox="0 0 148 31" fill="none" xmlns="http://www.w3.org/2000/svg">
<path d="M20.1657 13.9688H11.4765C11.3687 13.9689 11.2654 14.0117 11.1893 14.0879C11.1131 14.1641 11.0703 14.2674 11.0703 14.3752V18.6235C11.0703 18.8477 11.2523 19.0301 11.4763 19.0301H14.8662V24.3084C14.8662 24.3084 14.105 24.5679 12.0007 24.5679C9.51807 24.5679 6.04985 23.6607 6.04985 16.0345C6.04985 8.40673 9.66134 7.40321 13.0517 7.40321C15.9863 7.40321 17.2508 7.9198 18.0551 8.16881C18.308 8.2463 18.5419 7.99467 18.5419 7.77027L19.5111 3.6654C19.5111 3.56047 19.4755 3.43414 19.3559 3.34838C19.0292 3.11531 17.0361 2 12.0005 2C6.19999 2 0.249512 4.46793 0.249512 16.332C0.249512 28.1964 7.06205 29.9643 12.8031 29.9643C17.5563 29.9643 20.4397 27.933 20.4397 27.933C20.5588 27.8675 20.5715 27.7014 20.5715 27.6251V14.3752C20.5715 14.1512 20.3897 13.9688 20.1657 13.9688ZM64.9234 3.485C64.9234 3.25899 64.7442 3.07657 64.52 3.07657H59.6273C59.5739 3.07678 59.521 3.08751 59.4718 3.10815C59.4225 3.12879 59.3778 3.15893 59.3401 3.19686C59.3025 3.23479 59.2727 3.27975 59.2525 3.32919C59.2322 3.37863 59.2219 3.43157 59.2221 3.485L59.2233 12.9402H51.5972V3.4852C51.5972 3.25919 51.4172 3.07677 51.1934 3.07677H46.3007C46.193 3.07736 46.0899 3.12071 46.0141 3.1973C45.9383 3.27389 45.896 3.37744 45.8965 3.4852V29.0871C45.8965 29.3131 46.0781 29.4967 46.3007 29.4967H51.1932C51.417 29.4967 51.5968 29.3131 51.5968 29.0871V18.1362H59.2231L59.2098 29.0869C59.2098 29.3129 59.3914 29.4965 59.615 29.4965H64.5194C64.7434 29.4965 64.9226 29.3129 64.923 29.0869V3.4852L64.9234 3.485ZM29.3824 6.90801C29.3824 5.14636 27.9698 3.72251 26.2273 3.72251C24.4865 3.72251 23.0729 5.14616 23.0729 6.90801C23.0729 8.66765 24.4865 10.0953 26.2273 10.0953C27.9698 10.0953 29.3824 8.66765 29.3824 6.90801ZM28.9941 23.6996V11.8818C28.9945 11.7741 28.952 11.6706 28.8761 11.5941C28.8002 11.5177 28.6971 11.4745 28.5893 11.474H23.7122C23.4884 11.474 23.2884 11.7048 23.2884 11.9292V28.8607C23.2884 29.3583 23.5984 29.5062 23.9998 29.5062H28.3938C28.8761 29.5062 28.9941 29.2695 28.9941 28.8526V23.6996ZM83.6227 11.4742H78.7676C78.5448 11.4742 78.3636 11.6576 78.3636 11.8834V24.437C78.3636 24.437 77.1303 25.3394 75.3795 25.3394C73.6289 25.3394 73.1644 24.5449 73.1644 22.8309V11.8836C73.1644 11.6576 72.9834 11.474 72.7606 11.474H67.833C67.6107 11.474 67.4284 11.6576 67.4284 11.8836V23.6599C67.4284 28.7511 70.2663 29.9968 74.17 29.9968C77.3724 29.9968 79.9544 28.2277 79.9544 28.2277C79.9544 28.2277 80.0774 29.1599 80.1329 29.2705C80.1886 29.3809 80.3335 29.4921 80.4901 29.4921L83.625 29.4784C83.8473 29.4784 84.0296 29.2945 84.0296 29.0697L84.028 11.8834C84.0284 11.7755 83.986 11.6717 83.91 11.595C83.834 11.5183 83.7307 11.4748 83.6227 11.4742ZM94.8091 25.3491C93.1252 25.2978 91.9828 24.5336 91.9828 24.5336V16.4258C91.9828 16.4258 93.1099 15.735 94.4923 15.6115C96.2407 15.455 97.9254 15.983 97.9254 20.1539C97.9254 24.552 97.1651 25.4201 94.8091 25.3491ZM96.7242 10.9243C93.9667 10.9243 92.091 12.1546 92.091 12.1546V3.485C92.0914 3.43166 92.0812 3.37878 92.0611 3.32938C92.041 3.27997 92.0114 3.23501 91.9739 3.19708C91.9364 3.15914 91.8918 3.12897 91.8427 3.10829C91.7935 3.08761 91.7407 3.07683 91.6874 3.07657H86.7808C86.7274 3.0768 86.6746 3.08756 86.6254 3.10822C86.5762 3.12888 86.5315 3.15904 86.494 3.19697C86.4564 3.2349 86.4267 3.27986 86.4065 3.32928C86.3864 3.3787 86.3761 3.43162 86.3764 3.485V29.0869C86.3764 29.3129 86.5576 29.4965 86.7814 29.4965H90.1857C90.339 29.4965 90.4551 29.4178 90.5408 29.2792C90.6254 29.1416 90.7475 28.0987 90.7475 28.0987C90.7475 28.0987 92.7537 30 96.5516 30C101.01 30 103.568 27.7383 103.568 19.8468C103.568 11.9553 99.4837 10.9243 96.7242 10.9243ZM43.0759 11.4298H39.4058L39.4002 6.58131C39.4002 6.39788 39.3058 6.30606 39.0935 6.30606H34.0922C33.8977 6.30606 33.7934 6.39162 33.7934 6.57848V11.589C33.7934 11.589 31.2871 12.194 31.1176 12.2428C31.0331 12.2673 30.9588 12.3187 30.906 12.389C30.8531 12.4594 30.8246 12.5451 30.8246 12.6331V15.7817C30.8246 16.0081 31.0054 16.1907 31.2292 16.1907H33.7934V23.7652C33.7934 29.3912 37.7396 29.9439 40.4027 29.9439C41.6195 29.9439 43.0751 29.553 43.3154 29.4644C43.4607 29.411 43.545 29.2606 43.545 29.0972L43.5491 25.6336C43.5491 25.4078 43.3584 25.225 43.1435 25.225C42.9296 25.225 42.3827 25.3119 41.8193 25.3119C40.0167 25.3119 39.4058 24.4737 39.4058 23.3889L39.4056 16.1909H43.0759C43.1293 16.1907 43.1822 16.1799 43.2315 16.1592C43.2809 16.1385 43.3256 16.1083 43.3632 16.0703C43.4008 16.0323 43.4305 15.9872 43.4507 15.9377C43.4708 15.8882 43.481 15.8351 43.4807 15.7817V11.838C43.4807 11.612 43.2996 11.4298 43.0759 11.4298Z" fill="black" fill-opacity="0.5"/>
<path d="M131.193 1C122.906 1 116.193 7.7125 116.193 16C116.193 22.6375 120.487 28.2438 126.449 30.2313C127.199 30.3625 127.481 29.9125 127.481 29.5188C127.481 29.1625 127.462 27.9813 127.462 26.725C123.693 27.4188 122.718 25.8062 122.418 24.9625C122.249 24.5312 121.518 23.2 120.881 22.8437C120.356 22.5625 119.606 21.8687 120.862 21.85C122.043 21.8312 122.887 22.9375 123.168 23.3875C124.518 25.6562 126.674 25.0188 127.537 24.625C127.668 23.65 128.062 22.9937 128.493 22.6187C125.156 22.2437 121.668 20.95 121.668 15.2125C121.668 13.5812 122.249 12.2312 123.206 11.1812C123.056 10.8062 122.531 9.26875 123.356 7.20625C123.356 7.20625 124.612 6.8125 127.481 8.74375C128.681 8.40625 129.956 8.2375 131.231 8.2375C132.506 8.2375 133.781 8.40625 134.981 8.74375C137.849 6.79375 139.106 7.20625 139.106 7.20625C139.931 9.26875 139.406 10.8062 139.256 11.1812C140.212 12.2312 140.793 13.5625 140.793 15.2125C140.793 20.9687 137.287 22.2437 133.949 22.6187C134.493 23.0875 134.962 23.9875 134.962 25.3938C134.962 27.4 134.943 29.0125 134.943 29.5188C134.943 29.9125 135.224 30.3813 135.974 30.2313C138.952 29.2262 141.54 27.3125 143.373 24.7595C145.206 22.2066 146.193 19.1429 146.193 16C146.193 7.7125 139.481 1 131.193 1Z" fill="black" fill-opacity="0.5"/>
</svg>
