<svg width="157" height="40" viewBox="0 0 157 40" fill="none" xmlns="http://www.w3.org/2000/svg">
<g filter="url(#filter0_d_209_322)">
<path d="M25.1657 17.9688H16.4765C16.3687 17.9689 16.2654 18.0117 16.1893 18.0879C16.1131 18.1641 16.0703 18.2674 16.0703 18.3752V22.6235C16.0703 22.8477 16.2523 23.0301 16.4763 23.0301H19.8662V28.3084C19.8662 28.3084 19.105 28.5679 17.0007 28.5679C14.5181 28.5679 11.0499 27.6607 11.0499 20.0345C11.0499 12.4067 14.6613 11.4032 18.0517 11.4032C20.9863 11.4032 22.2508 11.9198 23.0551 12.1688C23.308 12.2463 23.5419 11.9947 23.5419 11.7703L24.5111 7.6654C24.5111 7.56047 24.4755 7.43414 24.3559 7.34838C24.0292 7.11531 22.0361 6 17.0005 6C11.2 6 5.24951 8.46793 5.24951 20.332C5.24951 32.1964 12.062 33.9643 17.8031 33.9643C22.5563 33.9643 25.4397 31.933 25.4397 31.933C25.5588 31.8675 25.5715 31.7014 25.5715 31.6251V18.3752C25.5715 18.1512 25.3897 17.9688 25.1657 17.9688ZM69.9234 7.485C69.9234 7.25899 69.7442 7.07657 69.52 7.07657H64.6273C64.5739 7.07678 64.521 7.08751 64.4718 7.10815C64.4225 7.12879 64.3778 7.15893 64.3401 7.19686C64.3025 7.23479 64.2727 7.27975 64.2525 7.32919C64.2322 7.37863 64.2219 7.43157 64.2221 7.485L64.2233 16.9402H56.5972V7.4852C56.5972 7.25919 56.4172 7.07677 56.1934 7.07677H51.3007C51.193 7.07736 51.0899 7.12071 51.0141 7.1973C50.9383 7.27389 50.896 7.37744 50.8965 7.4852V33.0871C50.8965 33.3131 51.0781 33.4967 51.3007 33.4967H56.1932C56.417 33.4967 56.5968 33.3131 56.5968 33.0871V22.1362H64.2231L64.2098 33.0869C64.2098 33.3129 64.3914 33.4965 64.615 33.4965H69.5194C69.7434 33.4965 69.9226 33.3129 69.923 33.0869V7.4852L69.9234 7.485ZM34.3824 10.908C34.3824 9.14636 32.9698 7.72251 31.2273 7.72251C29.4865 7.72251 28.0729 9.14616 28.0729 10.908C28.0729 12.6676 29.4865 14.0953 31.2273 14.0953C32.9698 14.0953 34.3824 12.6676 34.3824 10.908ZM33.9941 27.6996V15.8818C33.9945 15.7741 33.952 15.6706 33.8761 15.5941C33.8002 15.5177 33.6971 15.4745 33.5893 15.474H28.7122C28.4884 15.474 28.2884 15.7048 28.2884 15.9292V32.8607C28.2884 33.3583 28.5984 33.5062 28.9998 33.5062H33.3938C33.8761 33.5062 33.9941 33.2695 33.9941 32.8526V27.6996ZM88.6227 15.4742H83.7676C83.5448 15.4742 83.3636 15.6576 83.3636 15.8834V28.437C83.3636 28.437 82.1303 29.3394 80.3795 29.3394C78.6289 29.3394 78.1644 28.5449 78.1644 26.8309V15.8836C78.1644 15.6576 77.9834 15.474 77.7606 15.474H72.833C72.6107 15.474 72.4284 15.6576 72.4284 15.8836V27.6599C72.4284 32.7511 75.2663 33.9968 79.17 33.9968C82.3724 33.9968 84.9544 32.2277 84.9544 32.2277C84.9544 32.2277 85.0774 33.1599 85.1329 33.2705C85.1886 33.3809 85.3335 33.4921 85.4901 33.4921L88.625 33.4784C88.8473 33.4784 89.0296 33.2945 89.0296 33.0697L89.028 15.8834C89.0284 15.7755 88.986 15.6717 88.91 15.595C88.834 15.5183 88.7307 15.4748 88.6227 15.4742ZM99.8091 29.3491C98.1252 29.2978 96.9828 28.5336 96.9828 28.5336V20.4258C96.9828 20.4258 98.1099 19.735 99.4923 19.6115C101.241 19.455 102.925 19.983 102.925 24.1539C102.925 28.552 102.165 29.4201 99.8091 29.3491ZM101.724 14.9243C98.9667 14.9243 97.091 16.1546 97.091 16.1546V7.485C97.0914 7.43166 97.0812 7.37878 97.0611 7.32938C97.041 7.27997 97.0114 7.23501 96.9739 7.19708C96.9364 7.15914 96.8918 7.12897 96.8427 7.10829C96.7935 7.08761 96.7407 7.07683 96.6874 7.07657H91.7808C91.7274 7.0768 91.6746 7.08756 91.6254 7.10822C91.5762 7.12888 91.5315 7.15904 91.494 7.19697C91.4564 7.2349 91.4267 7.27986 91.4065 7.32928C91.3864 7.3787 91.3761 7.43162 91.3764 7.485V33.0869C91.3764 33.3129 91.5576 33.4965 91.7814 33.4965H95.1857C95.339 33.4965 95.4551 33.4178 95.5408 33.2792C95.6254 33.1416 95.7475 32.0987 95.7475 32.0987C95.7475 32.0987 97.7537 34 101.552 34C106.01 34 108.568 31.7383 108.568 23.8468C108.568 15.9553 104.484 14.9243 101.724 14.9243ZM48.0759 15.4298H44.4058L44.4002 10.5813C44.4002 10.3979 44.3058 10.3061 44.0935 10.3061H39.0922C38.8977 10.3061 38.7934 10.3916 38.7934 10.5785V15.589C38.7934 15.589 36.2871 16.194 36.1176 16.2428C36.0331 16.2673 35.9588 16.3187 35.906 16.389C35.8531 16.4594 35.8246 16.5451 35.8246 16.6331V19.7817C35.8246 20.0081 36.0054 20.1907 36.2292 20.1907H38.7934V27.7652C38.7934 33.3912 42.7396 33.9439 45.4027 33.9439C46.6195 33.9439 48.0751 33.553 48.3154 33.4644C48.4607 33.411 48.545 33.2606 48.545 33.0972L48.5491 29.6336C48.5491 29.4078 48.3584 29.225 48.1435 29.225C47.9296 29.225 47.3827 29.3119 46.8193 29.3119C45.0167 29.3119 44.4058 28.4737 44.4058 27.3889L44.4056 20.1909H48.0759C48.1293 20.1907 48.1822 20.1799 48.2315 20.1592C48.2809 20.1385 48.3256 20.1083 48.3632 20.0703C48.4008 20.0323 48.4305 19.9872 48.4507 19.9377C48.4708 19.8882 48.481 19.8351 48.4807 19.7817V15.838C48.4807 15.612 48.2996 15.4298 48.0759 15.4298Z" fill="black"/>
<path d="M136.193 5C127.906 5 121.193 11.7125 121.193 20C121.193 26.6375 125.487 32.2438 131.449 34.2313C132.199 34.3625 132.481 33.9125 132.481 33.5188C132.481 33.1625 132.462 31.9813 132.462 30.725C128.693 31.4188 127.718 29.8062 127.418 28.9625C127.249 28.5312 126.518 27.2 125.881 26.8437C125.356 26.5625 124.606 25.8687 125.862 25.85C127.043 25.8312 127.887 26.9375 128.168 27.3875C129.518 29.6562 131.674 29.0188 132.537 28.625C132.668 27.65 133.062 26.9937 133.493 26.6187C130.156 26.2437 126.668 24.95 126.668 19.2125C126.668 17.5812 127.249 16.2312 128.206 15.1812C128.056 14.8062 127.531 13.2687 128.356 11.2062C128.356 11.2062 129.612 10.8125 132.481 12.7438C133.681 12.4063 134.956 12.2375 136.231 12.2375C137.506 12.2375 138.781 12.4063 139.981 12.7438C142.849 10.7938 144.106 11.2062 144.106 11.2062C144.931 13.2687 144.406 14.8062 144.256 15.1812C145.212 16.2312 145.793 17.5625 145.793 19.2125C145.793 24.9687 142.287 26.2437 138.949 26.6187C139.493 27.0875 139.962 27.9875 139.962 29.3938C139.962 31.4 139.943 33.0125 139.943 33.5188C139.943 33.9125 140.224 34.3813 140.974 34.2313C143.952 33.2262 146.54 31.3125 148.373 28.7595C150.206 26.2066 151.193 23.1429 151.193 20C151.193 11.7125 144.481 5 136.193 5Z" fill="black"/>
</g>
<defs>
<filter id="filter0_d_209_322" x="0.076416" y="-0.5" width="157" height="40" filterUnits="userSpaceOnUse" color-interpolation-filters="sRGB">
<feFlood flood-opacity="0" result="BackgroundImageFix"/>
<feColorMatrix in="SourceAlpha" type="matrix" values="0 0 0 0 0 0 0 0 0 0 0 0 0 0 0 0 0 0 127 0" result="hardAlpha"/>
<feOffset/>
<feGaussianBlur stdDeviation="2.5"/>
<feComposite in2="hardAlpha" operator="out"/>
<feColorMatrix type="matrix" values="0 0 0 0 0 0 0 0 0 0 0 0 0 0 0 0 0 0 1 0"/>
<feBlend mode="normal" in2="BackgroundImageFix" result="effect1_dropShadow_209_322"/>
<feBlend mode="normal" in="SourceGraphic" in2="effect1_dropShadow_209_322" result="shape"/>
</filter>
</defs>
</svg>
