<svg width="155" height="47" viewBox="0 0 155 47" fill="none" xmlns="http://www.w3.org/2000/svg">
<g filter="url(#filter0_d_203_261)">
<path d="M11.4229 11.6044C9.25818 12.5111 6.87883 15.0695 6.12729 18.2833C5.17538 22.3539 9.13593 24.0758 9.46104 23.512C9.84334 22.8487 8.75136 22.6245 8.52654 20.5122C8.23603 17.7841 9.50435 14.7359 11.1007 13.3984C11.397 13.1497 11.3831 13.4958 11.3831 14.1354C11.3831 15.2794 11.3199 25.5494 11.3199 27.6928C11.3199 30.5928 11.2001 31.5087 10.9848 32.4138C10.7671 33.3307 10.4165 33.9504 10.6819 34.1891C10.9786 34.456 12.2455 33.8209 12.9788 32.7975C13.8582 31.57 14.1661 30.0955 14.2214 28.4949C14.2881 26.5649 14.2852 23.5024 14.2881 21.7557C14.2906 20.1538 14.3151 15.4628 14.26 12.6427C14.2465 11.9506 12.3282 11.225 11.4229 11.6044ZM88.2849 25.1771C88.215 26.6849 87.8812 27.8633 87.467 28.6946C86.6651 30.304 85.0012 30.8036 84.2947 28.4903C83.9097 27.2292 83.8916 25.1232 84.1683 23.3634C84.4501 21.5708 85.237 20.2169 86.5398 20.339C87.8249 20.4598 88.4264 22.1154 88.2849 25.1771ZM66.6214 34.5316C66.604 37.0368 66.2096 39.2332 65.3642 39.8714C64.1649 40.776 62.5531 40.0972 62.8869 38.2692C63.1821 36.6516 64.5789 34.9995 66.6249 32.9809C66.6249 32.9809 66.629 33.4413 66.6214 34.5316ZM66.294 25.1624C66.2206 26.5357 65.8646 27.9151 65.4761 28.6946C64.6742 30.304 62.9984 30.8071 62.3038 28.4903C61.8289 26.9072 61.9426 24.8588 62.1774 23.5679C62.4824 21.893 63.2217 20.3392 64.5489 20.3392C65.8394 20.3392 66.4759 21.755 66.294 25.1624ZM53.7445 25.1416C53.6657 26.5958 53.3821 27.8115 52.9268 28.6946C52.103 30.293 50.4731 30.7998 49.7545 28.4903C49.2363 26.825 49.4126 24.5544 49.6281 23.3277C49.948 21.5074 50.7491 20.2169 51.9996 20.3392C53.2841 20.4648 53.9084 22.1156 53.7445 25.1416ZM111.255 26.8403C110.941 26.8403 110.798 27.164 110.679 27.7085C110.268 29.6032 109.836 30.0307 109.279 30.0307C108.656 30.0307 108.097 29.0929 107.953 27.2152C107.84 25.7386 107.858 23.0205 108.002 20.3166C108.032 19.7611 107.879 19.2114 106.389 18.6701C105.748 18.4372 104.816 18.0943 104.351 19.2145C103.04 22.3794 102.527 24.892 102.407 25.9122C102.4 25.9651 102.336 25.9761 102.324 25.8526C102.247 25.0351 102.076 23.5495 102.054 20.4285C102.05 19.8195 101.921 19.3013 101.249 18.8769C100.813 18.6014 99.4883 18.1144 99.0115 18.694C98.5984 19.1677 98.1197 20.4428 97.6226 21.9546C97.2186 23.1833 96.9372 24.0142 96.9372 24.0142C96.9372 24.0142 96.9426 20.6993 96.9473 19.4418C96.9494 18.9675 96.6241 18.8094 96.5259 18.7808C96.0845 18.6527 95.2143 18.4387 94.845 18.4387C94.3892 18.4387 94.2777 18.6931 94.2777 19.0645C94.2777 19.1132 94.2058 23.4289 94.2058 26.4466C94.2058 26.5778 94.2058 26.7208 94.2064 26.8729C93.9545 28.2599 93.137 30.1426 92.2481 30.1426C91.3579 30.1426 90.9381 29.3556 90.9381 25.7579C90.9381 23.6591 91.0011 22.7463 91.032 21.2283C91.05 20.3539 91.0848 19.6826 91.0828 19.5303C91.0761 19.063 90.2684 18.8274 89.8924 18.7404C89.5146 18.6527 89.1864 18.6186 88.9301 18.6333C88.5673 18.654 88.3105 18.8917 88.3105 19.219C88.3105 19.3948 88.3126 19.7284 88.3126 19.7284C87.8454 18.994 87.0938 18.483 86.5938 18.3349C85.247 17.935 83.8417 18.2893 82.7816 19.7727C81.9391 20.9511 81.4313 22.2861 81.2313 24.2038C81.0852 25.606 81.1329 27.0276 81.3927 28.2301C81.0788 29.5868 80.4964 30.1426 79.8584 30.1426C78.9322 30.1426 78.2608 28.6312 78.3387 26.0167C78.3901 24.2971 78.7343 23.0903 79.1103 21.3444C79.2707 20.6001 79.1404 20.2105 78.8136 19.8371C78.5138 19.4946 77.875 19.3195 76.9571 19.5346C76.3031 19.6882 75.368 19.8533 74.5124 19.9801C74.5124 19.9801 74.5642 19.7739 74.6065 19.4109C74.829 17.5067 72.7597 17.6611 72.0993 18.2692C71.7054 18.6324 71.4371 19.0607 71.3353 19.8307C71.1737 21.0528 72.1704 21.6293 72.1704 21.6293C71.8436 23.1261 71.0419 25.0813 70.2143 26.4951C69.7711 27.2525 69.4321 27.8138 68.9943 28.4103C68.98 26.0163 68.9956 23.6222 69.0411 21.2285C69.0592 20.3541 69.0942 19.7006 69.0923 19.5481C69.0873 19.2066 68.8878 19.0773 68.4728 18.914C68.1056 18.7694 67.6717 18.6695 67.2214 18.6343C66.6533 18.5904 66.311 18.8914 66.3201 19.2478C66.3217 19.3152 66.3217 19.7284 66.3217 19.7284C65.8545 18.994 65.1029 18.483 64.603 18.3349C63.2561 17.935 61.8508 18.2893 60.7908 19.7727C59.9485 20.9511 59.3969 22.605 59.2404 24.1893C59.095 25.6657 59.1217 26.9203 59.3202 27.9775C59.1062 29.0359 58.4904 30.1428 57.7943 30.1428C56.9042 30.1428 56.3978 29.3556 56.3978 25.7579C56.3978 23.6591 56.4608 22.7463 56.4918 21.2283C56.5099 20.3541 56.5445 19.6826 56.5426 19.5303C56.536 19.063 55.7281 18.8276 55.352 18.7404C54.9587 18.6492 54.6191 18.6161 54.3582 18.6353C54.0143 18.6608 53.7723 18.9689 53.7723 19.1987V19.7284C53.305 18.994 52.5535 18.483 52.0535 18.3349C50.7066 17.935 49.3092 18.2951 48.2413 19.7727C47.5451 20.736 46.9813 21.8039 46.6912 24.1682C46.6072 24.8513 46.5702 25.4914 46.5751 26.0892C46.2975 27.7875 45.0708 29.7447 44.0677 29.7447C43.4807 29.7447 42.9214 28.6059 42.9214 26.1793C42.9214 22.9469 43.1216 18.3444 43.1556 17.901C43.1556 17.901 44.4231 17.8794 44.6684 17.8765C45.3008 17.8695 45.8733 17.8846 46.7156 17.8413C47.1379 17.82 47.5449 16.3038 47.1089 16.1163C46.9112 16.0314 45.5148 15.9572 44.9612 15.9454C44.4958 15.935 43.1999 15.8389 43.1999 15.8389C43.1999 15.8389 43.3162 12.784 43.3433 12.4614C43.3661 12.1922 43.018 12.0538 42.8187 11.9699C42.3334 11.7648 41.8993 11.6663 41.3848 11.5603C40.6737 11.4136 40.3513 11.5571 40.2883 12.157C40.1934 13.0677 40.1442 15.7351 40.1442 15.7351C39.6225 15.7351 37.8401 15.6331 37.3184 15.6331C36.8335 15.6331 36.3101 17.7184 36.9806 17.7441C37.7518 17.774 39.096 17.8001 39.987 17.8266C39.987 17.8266 39.9472 22.5049 39.9472 23.9496C39.9472 24.1029 39.948 24.2511 39.9489 24.3947C39.4584 26.9506 37.7311 28.3314 37.7311 28.3314C38.102 26.6404 37.3443 25.3704 35.9794 24.2954C35.4765 23.8994 34.4838 23.1495 33.3731 22.3278C33.3731 22.3278 34.0163 21.6937 34.587 20.4181C34.991 19.5143 35.0086 18.4806 34.0163 18.2524C32.3769 17.8753 31.0253 19.0794 30.6221 20.3649C30.3096 21.3607 30.4762 22.0994 31.0883 22.8669C31.1328 22.9231 31.1815 22.9805 31.2312 23.0381C30.8614 23.7513 30.3529 24.7117 29.9223 25.4564C28.7271 27.5243 27.8243 29.1596 27.142 29.1596C26.5966 29.1596 26.6039 27.499 26.6039 25.9444C26.6039 24.6041 26.7029 22.5891 26.7821 20.5031C26.8082 19.8131 26.463 19.42 25.8849 19.064C25.5335 18.8477 24.7836 18.4225 24.3493 18.4225C23.6991 18.4225 21.8234 18.511 20.0514 23.6373C19.828 24.2834 19.3892 25.4607 19.3892 25.4607L19.4271 19.2961C19.4271 19.1515 19.35 19.0118 19.1737 18.9163C18.8751 18.7541 18.0775 18.4225 17.3683 18.4225C17.0305 18.4225 16.8616 18.5796 16.8616 18.8929L16.7999 28.5376C16.7999 29.2704 16.819 30.1254 16.8915 30.4992C16.9636 30.8734 17.0807 31.178 17.2253 31.3591C17.3701 31.54 17.5373 31.6782 17.8131 31.735C18.0699 31.7878 19.4756 31.9683 19.5487 31.4312C19.6361 30.7872 19.6397 30.091 20.3777 27.4939C21.5269 23.4504 23.025 21.4778 23.7295 20.777C23.8528 20.6548 23.9933 20.6473 23.9865 20.8477C23.9566 21.7341 23.8507 23.9496 23.7797 25.831C23.5888 30.8672 24.5049 31.8006 25.8142 31.8006C26.8159 31.8006 28.2278 30.8054 29.7412 28.2862C30.5845 26.8823 31.4239 25.476 32.2594 24.0675C32.718 24.492 33.2329 24.9489 33.7471 25.4371C34.9427 26.5718 35.3352 27.6501 35.0747 28.6729C34.8758 29.4547 34.1255 30.2605 32.7905 29.4774C32.4013 29.2489 32.2352 29.0721 31.844 28.8146C31.6338 28.6764 31.3129 28.6349 31.1204 28.78C30.6206 29.1567 30.3347 29.6362 30.1714 30.2296C30.0127 30.8071 30.591 31.1123 31.1906 31.3794C31.7068 31.6092 32.8164 31.8174 33.5238 31.8411C36.2807 31.9333 38.4893 30.51 40.0268 26.8385C40.3019 30.0093 41.4731 31.8036 43.508 31.8036C44.8686 31.8036 46.2326 30.045 46.8292 28.315C47.0003 29.0201 47.2539 29.6335 47.5813 30.1521C49.1493 32.6365 52.1911 32.1019 53.719 29.9921C54.1914 29.3403 54.2633 29.1061 54.2633 29.1061C54.4863 31.098 56.0905 31.794 57.0088 31.794C58.0376 31.794 59.0995 31.3077 59.844 29.6318C59.9313 29.8137 60.0266 29.9876 60.1306 30.1521C61.6985 32.6365 64.7405 32.1019 66.2685 29.9921C66.3406 29.8931 66.4032 29.8036 66.4577 29.7228L66.5024 31.0313L65.0957 32.3216C62.7377 34.4827 60.9466 36.1217 60.8148 38.0307C60.647 40.4648 62.62 41.3695 64.1148 41.488C65.6993 41.6138 67.0588 40.7377 67.893 39.5117C68.6273 38.4323 69.1081 36.1095 69.0726 33.8155C69.0587 32.8968 69.0353 31.7287 69.0173 30.4766C69.8451 29.5154 70.7777 28.3003 71.6364 26.8784C72.5721 25.3287 73.575 23.2476 74.0885 21.6278C74.0885 21.6278 74.9598 21.6355 75.8897 21.5746C76.1871 21.5551 76.2726 21.616 76.2175 21.8338C76.1512 22.0974 75.0427 26.3727 76.0545 29.2207C76.7467 31.1705 78.3076 31.7975 79.233 31.7975C80.3165 31.7975 81.3527 30.9795 81.9081 29.7648C81.9752 29.9001 82.045 30.0311 82.1215 30.1523C83.6894 32.6367 86.7206 32.0986 88.2594 29.9921C88.6066 29.5168 88.8037 29.1061 88.8037 29.1061C89.1338 31.1678 90.7371 31.8046 91.6555 31.8046C92.612 31.8046 93.5199 31.4123 94.2564 29.6695C94.2874 30.437 94.3357 31.0644 94.4122 31.2621C94.4588 31.3833 94.7306 31.535 94.9283 31.6084C95.8036 31.9328 96.6958 31.7795 97.0261 31.7128C97.2548 31.6664 97.4332 31.4828 97.4577 31.0091C97.5219 29.7648 97.4826 27.6743 97.8597 26.1205C98.4927 23.5132 99.0834 22.5018 99.3636 22.0012C99.5204 21.7204 99.6972 21.6742 99.7036 21.9712C99.7169 22.5721 99.7467 24.336 99.992 26.7065C100.172 28.4495 100.413 29.4799 100.598 29.8063C101.126 30.7387 101.777 30.7828 102.308 30.7828C102.646 30.7828 103.352 30.6896 103.289 30.0962C103.258 29.8069 103.312 28.0191 103.936 25.4504C104.344 23.7728 105.023 22.2573 105.269 21.703C105.359 21.4987 105.401 21.6597 105.4 21.6912C105.348 22.8464 105.232 26.625 105.703 28.6917C106.341 31.4913 108.186 31.8046 108.829 31.8046C110.202 31.8046 111.325 30.7603 111.703 28.0123C111.795 27.3509 111.66 26.8403 111.255 26.8403Z" fill="white"/>
<path d="M128.499 5.5H141.099C145.899 5.5 149.799 9.4 149.799 14.2V26.8C149.799 29.1074 148.882 31.3203 147.251 32.9518C145.619 34.5834 143.406 35.5 141.099 35.5H128.499C123.699 35.5 119.799 31.6 119.799 26.8V14.2C119.799 11.8926 120.716 9.67974 122.347 8.04817C123.979 6.4166 126.192 5.5 128.499 5.5ZM128.199 8.5C126.767 8.5 125.393 9.06893 124.381 10.0816C123.368 11.0943 122.799 12.4678 122.799 13.9V27.1C122.799 30.085 125.214 32.5 128.199 32.5H141.399C142.831 32.5 144.205 31.9311 145.217 30.9184C146.23 29.9057 146.799 28.5322 146.799 27.1V13.9C146.799 10.915 144.384 8.5 141.399 8.5H128.199ZM142.674 10.75C143.171 10.75 143.648 10.9475 144 11.2992C144.351 11.6508 144.549 12.1277 144.549 12.625C144.549 13.1223 144.351 13.5992 144 13.9508C143.648 14.3025 143.171 14.5 142.674 14.5C142.177 14.5 141.7 14.3025 141.348 13.9508C140.996 13.5992 140.799 13.1223 140.799 12.625C140.799 12.1277 140.996 11.6508 141.348 11.2992C141.7 10.9475 142.177 10.75 142.674 10.75ZM134.799 13C136.788 13 138.696 13.7902 140.102 15.1967C141.509 16.6032 142.299 18.5109 142.299 20.5C142.299 22.4891 141.509 24.3968 140.102 25.8033C138.696 27.2098 136.788 28 134.799 28C132.81 28 130.902 27.2098 129.496 25.8033C128.089 24.3968 127.299 22.4891 127.299 20.5C127.299 18.5109 128.089 16.6032 129.496 15.1967C130.902 13.7902 132.81 13 134.799 13ZM134.799 16C133.605 16 132.461 16.4741 131.617 17.318C130.773 18.1619 130.299 19.3065 130.299 20.5C130.299 21.6935 130.773 22.8381 131.617 23.682C132.461 24.5259 133.605 25 134.799 25C135.992 25 137.137 24.5259 137.981 23.682C138.825 22.8381 139.299 21.6935 139.299 20.5C139.299 19.3065 138.825 18.1619 137.981 17.318C137.137 16.4741 135.992 16 134.799 16Z" fill="white"/>
</g>
<defs>
<filter id="filter0_d_203_261" x="0.923584" y="0" width="154" height="47" filterUnits="userSpaceOnUse" color-interpolation-filters="sRGB">
<feFlood flood-opacity="0" result="BackgroundImageFix"/>
<feColorMatrix in="SourceAlpha" type="matrix" values="0 0 0 0 0 0 0 0 0 0 0 0 0 0 0 0 0 0 127 0" result="hardAlpha"/>
<feOffset/>
<feGaussianBlur stdDeviation="2.5"/>
<feComposite in2="hardAlpha" operator="out"/>
<feColorMatrix type="matrix" values="0 0 0 0 1 0 0 0 0 1 0 0 0 0 1 0 0 0 1 0"/>
<feBlend mode="normal" in2="BackgroundImageFix" result="effect1_dropShadow_203_261"/>
<feBlend mode="normal" in="SourceGraphic" in2="effect1_dropShadow_203_261" result="shape"/>
</filter>
</defs>
</svg>
