<svg width="145" height="37" viewBox="0 0 145 37" fill="none" xmlns="http://www.w3.org/2000/svg">
<path d="M6.42288 6.60439C4.25818 7.51113 1.87883 10.0695 1.12729 13.2833C0.175378 17.3539 4.13593 19.0758 4.46104 18.512C4.84334 17.8487 3.75136 17.6245 3.52654 15.5122C3.23603 12.7841 4.50435 9.73591 6.10067 8.39839C6.39697 8.14974 6.38309 8.49578 6.38309 9.13542C6.38309 10.2794 6.31989 20.5494 6.31989 22.6928C6.31989 25.5928 6.20013 26.5087 5.98484 27.4138C5.76707 28.3307 5.41647 28.9504 5.6819 29.1891C5.97862 29.456 7.24549 28.8209 7.97879 27.7975C8.85818 26.57 9.16609 25.0955 9.22141 23.4949C9.28813 21.5649 9.28523 18.5024 9.28813 16.7557C9.29062 15.1538 9.31507 10.4628 9.25995 7.6427C9.24649 6.95063 7.32816 6.22499 6.42288 6.60439ZM83.2849 20.1771C83.215 21.6849 82.8812 22.8633 82.467 23.6946C81.6651 25.304 80.0012 25.8036 79.2947 23.4903C78.9097 22.2292 78.8916 20.1232 79.1683 18.3634C79.4501 16.5708 80.237 15.2169 81.5398 15.339C82.8249 15.4598 83.4264 17.1154 83.2849 20.1771ZM61.6214 29.5316C61.604 32.0368 61.2096 34.2332 60.3642 34.8714C59.1649 35.776 57.5531 35.0972 57.8869 33.2692C58.1821 31.6516 59.5789 29.9995 61.6249 27.9809C61.6249 27.9809 61.629 28.4413 61.6214 29.5316ZM61.294 20.1624C61.2206 21.5357 60.8646 22.9151 60.4761 23.6946C59.6742 25.304 57.9984 25.8071 57.3038 23.4903C56.8289 21.9072 56.9426 19.8588 57.1774 18.5679C57.4824 16.893 58.2217 15.3392 59.5489 15.3392C60.8394 15.3392 61.4759 16.755 61.294 20.1624ZM48.7445 20.1416C48.6657 21.5958 48.3821 22.8115 47.9268 23.6946C47.103 25.293 45.4731 25.7998 44.7545 23.4903C44.2363 21.825 44.4126 19.5544 44.6281 18.3277C44.948 16.5074 45.7491 15.2169 46.9996 15.3392C48.2841 15.4648 48.9084 17.1156 48.7445 20.1416ZM106.255 21.8403C105.941 21.8403 105.798 22.164 105.679 22.7085C105.268 24.6032 104.836 25.0307 104.279 25.0307C103.656 25.0307 103.097 24.0929 102.953 22.2152C102.84 20.7386 102.858 18.0205 103.002 15.3166C103.032 14.7611 102.879 14.2114 101.389 13.6701C100.748 13.4372 99.8156 13.0943 99.3515 14.2145C98.0405 17.3794 97.5274 19.892 97.4066 20.9122C97.4004 20.9651 97.3356 20.9761 97.3244 20.8526C97.2473 20.0351 97.0755 18.5495 97.054 15.4285C97.0498 14.8195 96.9209 14.3013 96.2488 13.8769C95.8126 13.6014 94.4883 13.1144 94.0115 13.694C93.5984 14.1677 93.1197 15.4428 92.6226 16.9546C92.2186 18.1833 91.9372 19.0142 91.9372 19.0142C91.9372 19.0142 91.9426 15.6993 91.9473 14.4418C91.9494 13.9675 91.6241 13.8094 91.5259 13.7808C91.0845 13.6527 90.2143 13.4387 89.845 13.4387C89.3892 13.4387 89.2777 13.6931 89.2777 14.0645C89.2777 14.1132 89.2058 18.4289 89.2058 21.4466C89.2058 21.5778 89.2058 21.7208 89.2064 21.8729C88.9545 23.2599 88.137 25.1426 87.2481 25.1426C86.3579 25.1426 85.9381 24.3556 85.9381 20.7579C85.9381 18.6591 86.0011 17.7463 86.032 16.2283C86.05 15.3539 86.0848 14.6826 86.0828 14.5303C86.0761 14.063 85.2684 13.8274 84.8924 13.7404C84.5146 13.6527 84.1864 13.6186 83.9301 13.6333C83.5673 13.654 83.3105 13.8917 83.3105 14.219C83.3105 14.3948 83.3126 14.7284 83.3126 14.7284C82.8454 13.994 82.0938 13.483 81.5938 13.3349C80.247 12.935 78.8417 13.2893 77.7816 14.7727C76.9391 15.9511 76.4313 17.2861 76.2313 19.2038C76.0852 20.606 76.1329 22.0276 76.3927 23.2301C76.0788 24.5868 75.4964 25.1426 74.8584 25.1426C73.9322 25.1426 73.2608 23.6312 73.3387 21.0167C73.3901 19.2971 73.7343 18.0903 74.1103 16.3444C74.2707 15.6001 74.1404 15.2105 73.8136 14.8371C73.5138 14.4946 72.875 14.3195 71.9571 14.5346C71.3031 14.6882 70.368 14.8533 69.5124 14.9801C69.5124 14.9801 69.5642 14.7739 69.6065 14.4109C69.829 12.5067 67.7597 12.6611 67.0993 13.2692C66.7054 13.6324 66.4371 14.0607 66.3353 14.8307C66.1737 16.0528 67.1704 16.6293 67.1704 16.6293C66.8436 18.1261 66.0419 20.0813 65.2143 21.4951C64.7711 22.2525 64.4321 22.8138 63.9943 23.4103C63.98 21.0163 63.9956 18.6222 64.0411 16.2285C64.0592 15.3541 64.0942 14.7006 64.0923 14.5481C64.0873 14.2066 63.8878 14.0773 63.4728 13.914C63.1056 13.7694 62.6717 13.6695 62.2214 13.6343C61.6533 13.5904 61.311 13.8914 61.3201 14.2478C61.3217 14.3152 61.3217 14.7284 61.3217 14.7284C60.8545 13.994 60.1029 13.483 59.603 13.3349C58.2561 12.935 56.8508 13.2893 55.7908 14.7727C54.9485 15.9511 54.3969 17.605 54.2404 19.1893C54.095 20.6657 54.1217 21.9203 54.3202 22.9775C54.1062 24.0359 53.4904 25.1428 52.7943 25.1428C51.9042 25.1428 51.3978 24.3556 51.3978 20.7579C51.3978 18.6591 51.4608 17.7463 51.4918 16.2283C51.5099 15.3541 51.5445 14.6826 51.5426 14.5303C51.536 14.063 50.7281 13.8276 50.352 13.7404C49.9587 13.6492 49.6191 13.6161 49.3582 13.6353C49.0143 13.6608 48.7723 13.9689 48.7723 14.1987V14.7284C48.305 13.994 47.5535 13.483 47.0535 13.3349C45.7066 12.935 44.3092 13.2951 43.2413 14.7727C42.5451 15.736 41.9813 16.8039 41.6912 19.1682C41.6072 19.8513 41.5702 20.4914 41.5751 21.0892C41.2975 22.7875 40.0708 24.7447 39.0677 24.7447C38.4807 24.7447 37.9214 23.6059 37.9214 21.1793C37.9214 17.9469 38.1216 13.3444 38.1556 12.901C38.1556 12.901 39.4231 12.8794 39.6684 12.8765C40.3008 12.8695 40.8733 12.8846 41.7156 12.8413C42.1379 12.82 42.5449 11.3038 42.1089 11.1163C41.9112 11.0314 40.5148 10.9572 39.9612 10.9454C39.4958 10.935 38.1999 10.8389 38.1999 10.8389C38.1999 10.8389 38.3162 7.78402 38.3433 7.4614C38.3661 7.19224 38.018 7.05382 37.8187 6.9699C37.3334 6.76477 36.8993 6.66635 36.3848 6.56026C35.6737 6.41355 35.3512 6.55715 35.2883 7.15701C35.1934 8.06769 35.1442 10.7351 35.1442 10.7351C34.6225 10.7351 32.8401 10.6331 32.3184 10.6331C31.8335 10.6331 31.3101 12.7184 31.9806 12.7441C32.7518 12.774 34.096 12.8001 34.987 12.8266C34.987 12.8266 34.9472 17.5049 34.9472 18.9496C34.9472 19.1029 34.948 19.2511 34.9489 19.3947C34.4584 21.9506 32.7311 23.3314 32.7311 23.3314C33.102 21.6404 32.3443 20.3704 30.9794 19.2954C30.4765 18.8994 29.4838 18.1495 28.3731 17.3278C28.3731 17.3278 29.0163 16.6937 29.587 15.4181C29.991 14.5143 30.0086 13.4806 29.0163 13.2524C27.3769 12.8753 26.0253 14.0794 25.6221 15.3649C25.3096 16.3607 25.4762 17.0994 26.0883 17.8669C26.1328 17.9231 26.1815 17.9805 26.2312 18.0381C25.8614 18.7513 25.3529 19.7117 24.9223 20.4564C23.7271 22.5243 22.8243 24.1596 22.142 24.1596C21.5966 24.1596 21.6039 22.499 21.6039 20.9444C21.6039 19.6041 21.7029 17.5891 21.7821 15.5031C21.8082 14.8131 21.463 14.42 20.8849 14.064C20.5335 13.8477 19.7836 13.4225 19.3493 13.4225C18.6991 13.4225 16.8234 13.511 15.0514 18.6373C14.828 19.2834 14.3892 20.4607 14.3892 20.4607L14.4271 14.2961C14.4271 14.1515 14.35 14.0118 14.1737 13.9163C13.8751 13.7541 13.0775 13.4225 12.3683 13.4225C12.0305 13.4225 11.8616 13.5796 11.8616 13.8929L11.7999 23.5376C11.7999 24.2704 11.819 25.1254 11.8915 25.4992C11.9636 25.8734 12.0807 26.178 12.2253 26.3591C12.3701 26.54 12.5373 26.6782 12.8131 26.735C13.0699 26.7878 14.4756 26.9683 14.5487 26.4312C14.6361 25.7872 14.6397 25.091 15.3777 22.4939C16.5269 18.4504 18.025 16.4778 18.7295 15.777C18.8528 15.6548 18.9933 15.6473 18.9865 15.8477C18.9566 16.7341 18.8507 18.9496 18.7797 20.831C18.5888 25.8672 19.5049 26.8006 20.8142 26.8006C21.8159 26.8006 23.2278 25.8054 24.7412 23.2862C25.5845 21.8823 26.4239 20.476 27.2594 19.0675C27.718 19.492 28.2329 19.9489 28.7471 20.4371C29.9427 21.5718 30.3352 22.6501 30.0747 23.6729C29.8758 24.4547 29.1255 25.2605 27.7905 24.4774C27.4013 24.2489 27.2352 24.0721 26.844 23.8146C26.6338 23.6764 26.3129 23.6349 26.1204 23.78C25.6206 24.1567 25.3347 24.6362 25.1714 25.2296C25.0127 25.8071 25.591 26.1123 26.1906 26.3794C26.7068 26.6092 27.8164 26.8174 28.5238 26.8411C31.2807 26.9333 33.4893 25.51 35.0268 21.8385C35.3019 25.0093 36.4731 26.8036 38.508 26.8036C39.8686 26.8036 41.2326 25.045 41.8292 23.315C42.0003 24.0201 42.2539 24.6335 42.5813 25.1521C44.1493 27.6365 47.1911 27.1019 48.719 24.9921C49.1914 24.3403 49.2633 24.1061 49.2633 24.1061C49.4863 26.098 51.0905 26.794 52.0088 26.794C53.0376 26.794 54.0995 26.3077 54.844 24.6318C54.9313 24.8137 55.0266 24.9876 55.1306 25.1521C56.6985 27.6365 59.7405 27.1019 61.2685 24.9921C61.3406 24.8931 61.4032 24.8036 61.4577 24.7228L61.5024 26.0313L60.0957 27.3216C57.7377 29.4827 55.9466 31.1217 55.8148 33.0307C55.647 35.4648 57.62 36.3695 59.1148 36.488C60.6993 36.6138 62.0588 35.7377 62.893 34.5117C63.6273 33.4323 64.1081 31.1095 64.0726 28.8155C64.0587 27.8968 64.0353 26.7287 64.0173 25.4766C64.8451 24.5154 65.7777 23.3003 66.6364 21.8784C67.5721 20.3287 68.575 18.2476 69.0885 16.6278C69.0885 16.6278 69.9598 16.6355 70.8897 16.5746C71.1871 16.5551 71.2727 16.616 71.2175 16.8338C71.1512 17.0974 70.0427 21.3727 71.0545 24.2207C71.7467 26.1705 73.3076 26.7975 74.233 26.7975C75.3165 26.7975 76.3527 25.9795 76.9081 24.7648C76.9752 24.9001 77.045 25.0311 77.1215 25.1523C78.6894 27.6367 81.7206 27.0986 83.2594 24.9921C83.6066 24.5168 83.8037 24.1061 83.8037 24.1061C84.1338 26.1678 85.7371 26.8046 86.6555 26.8046C87.612 26.8046 88.5199 26.4123 89.2563 24.6695C89.2874 25.437 89.3357 26.0644 89.4122 26.2621C89.4588 26.3833 89.7306 26.535 89.9283 26.6084C90.8036 26.9328 91.6958 26.7795 92.0261 26.7128C92.2548 26.6664 92.4332 26.4828 92.4577 26.0091C92.5219 24.7648 92.4826 22.6743 92.8597 21.1205C93.4927 18.5132 94.0834 17.5018 94.3636 17.0012C94.5204 16.7204 94.6972 16.6742 94.7036 16.9712C94.7169 17.5721 94.7467 19.336 94.9921 21.7065C95.1723 23.4495 95.4127 24.4799 95.5977 24.8063C96.1257 25.7387 96.7773 25.7828 97.3082 25.7828C97.646 25.7828 98.3521 25.6896 98.2889 25.0962C98.258 24.8069 98.3119 23.0191 98.9362 20.4504C99.3438 18.7728 100.023 17.2573 100.269 16.703C100.359 16.4987 100.401 16.6597 100.4 16.6912C100.348 17.8464 100.232 21.625 100.703 23.6917C101.341 26.4913 103.186 26.8046 103.829 26.8046C105.202 26.8046 106.325 25.7603 106.703 23.0123C106.795 22.3509 106.66 21.8403 106.255 21.8403Z" fill="black" fill-opacity="0.5"/>
<path d="M123.499 0.5H136.099C140.899 0.5 144.799 4.4 144.799 9.2V21.8C144.799 24.1074 143.882 26.3203 142.251 27.9518C140.619 29.5834 138.406 30.5 136.099 30.5H123.499C118.699 30.5 114.799 26.6 114.799 21.8V9.2C114.799 6.89262 115.715 4.67974 117.347 3.04817C118.979 1.4166 121.191 0.5 123.499 0.5ZM123.199 3.5C121.767 3.5 120.393 4.06893 119.38 5.08162C118.368 6.09432 117.799 7.46783 117.799 8.9V22.1C117.799 25.085 120.214 27.5 123.199 27.5H136.399C137.831 27.5 139.205 26.9311 140.217 25.9184C141.23 24.9057 141.799 23.5322 141.799 22.1V8.9C141.799 5.915 139.384 3.5 136.399 3.5H123.199ZM137.674 5.75C138.171 5.75 138.648 5.94754 139 6.29917C139.351 6.65081 139.549 7.12772 139.549 7.625C139.549 8.12228 139.351 8.59919 139 8.95082C138.648 9.30246 138.171 9.5 137.674 9.5C137.177 9.5 136.7 9.30246 136.348 8.95082C135.996 8.59919 135.799 8.12228 135.799 7.625C135.799 7.12772 135.996 6.65081 136.348 6.29917C136.7 5.94754 137.177 5.75 137.674 5.75ZM129.799 8C131.788 8 133.696 8.79018 135.102 10.1967C136.509 11.6032 137.299 13.5109 137.299 15.5C137.299 17.4891 136.509 19.3968 135.102 20.8033C133.696 22.2098 131.788 23 129.799 23C127.81 23 125.902 22.2098 124.496 20.8033C123.089 19.3968 122.299 17.4891 122.299 15.5C122.299 13.5109 123.089 11.6032 124.496 10.1967C125.902 8.79018 127.81 8 129.799 8ZM129.799 11C128.605 11 127.461 11.4741 126.617 12.318C125.773 13.1619 125.299 14.3065 125.299 15.5C125.299 16.6935 125.773 17.8381 126.617 18.682C127.461 19.5259 128.605 20 129.799 20C130.992 20 132.137 19.5259 132.981 18.682C133.825 17.8381 134.299 16.6935 134.299 15.5C134.299 14.3065 133.825 13.1619 132.981 12.318C132.137 11.4741 130.992 11 129.799 11Z" fill="black" fill-opacity="0.5"/>
</svg>
