<svg width="133" height="41" viewBox="0 0 133 41" fill="none" xmlns="http://www.w3.org/2000/svg">
<g filter="url(#filter0_d_1_176)">
<path d="M125.875 31.4057C125.339 31.4108 124.826 31.6282 124.45 32.0102C124.073 32.3923 123.863 32.9078 123.866 33.4442C123.868 33.9806 124.083 34.4942 124.463 34.8726C124.844 35.251 125.358 35.4634 125.894 35.4634C126.431 35.4634 126.945 35.251 127.326 34.8726C127.706 34.4942 127.921 33.9806 127.923 33.4442C127.926 32.9078 127.716 32.3923 127.339 32.0102C126.963 31.6282 126.45 31.4108 125.914 31.4057H125.875ZM125.875 35.2311C125.523 35.237 125.177 35.1384 124.882 34.9478C124.586 34.7572 124.353 34.4832 124.213 34.1604C124.073 33.8376 124.032 33.4805 124.095 33.1343C124.158 32.7881 124.322 32.4683 124.567 32.2154C124.811 31.9625 125.125 31.7878 125.469 31.7134C125.813 31.639 126.171 31.6683 126.499 31.7975C126.826 31.9267 127.108 32.1501 127.308 32.4394C127.508 32.7286 127.618 33.0708 127.624 33.4226V33.4525C127.634 33.914 127.46 34.3606 127.141 34.6939C126.822 35.0273 126.383 35.2202 125.921 35.2302H125.875L125.875 35.2311ZM118.087 30.8514H113.678V23.9472C113.678 22.3009 113.649 20.1815 111.385 20.1815C109.089 20.1815 108.738 21.9753 108.738 23.8274V30.8509H104.329V16.6532H108.561V18.5935H108.621C109.044 17.8693 109.656 17.2735 110.392 16.8697C111.127 16.4658 111.958 16.2689 112.796 16.3001C117.265 16.3001 118.089 19.2392 118.089 23.0628L118.087 30.8514ZM99.3546 14.7125C98.8486 14.7126 98.3539 14.5626 97.9331 14.2816C97.5124 14.0005 97.1844 13.601 96.9907 13.1336C96.7969 12.6661 96.7462 12.1517 96.8448 11.6554C96.9434 11.1591 97.187 10.7032 97.5447 10.3453C97.9025 9.98748 98.3583 9.74374 98.8546 9.64493C99.3508 9.54612 99.8653 9.5967 100.333 9.79025C100.8 9.98381 101.2 10.3117 101.481 10.7323C101.762 11.153 101.912 11.6476 101.913 12.1536C101.913 12.4896 101.846 12.8223 101.718 13.1327C101.589 13.4431 101.401 13.7252 101.164 13.9628C100.926 14.2004 100.644 14.3889 100.334 14.5176C100.023 14.6462 99.6906 14.7124 99.3546 14.7125V14.7125ZM101.559 30.8514H97.1457V16.6532H101.559V30.8514ZM120.285 5.5016H94.9303C94.3549 5.4951 93.8003 5.71735 93.3886 6.11948C92.9769 6.52162 92.7417 7.07076 92.7347 7.64623V33.1058C92.7415 33.6815 92.9766 34.231 93.3882 34.6336C93.7999 35.0361 94.3546 35.2588 94.9303 35.2527H120.285C120.862 35.2599 121.418 35.0379 121.831 34.6353C122.244 34.2328 122.481 33.6827 122.489 33.1058V7.64439C122.481 7.06778 122.244 6.51802 121.831 6.11589C121.417 5.71376 120.861 5.49216 120.285 5.49976V5.5016ZM80.7354 20.08C78.531 20.08 77.2084 21.5519 77.2084 23.6965C77.2084 25.8411 78.5306 27.3144 80.7354 27.3144C82.9402 27.3144 84.2655 25.8448 84.2655 23.6965C84.2655 21.5482 82.9424 20.08 80.7354 20.08V20.08ZM88.3242 30.8431H84.2655V28.9603H84.2053C83.6962 29.6451 83.0357 30.2032 82.2755 30.5909C81.5153 30.9787 80.6758 31.1857 79.8224 31.1958C75.5864 31.1958 72.7961 28.1387 72.7961 23.8154C72.7961 19.8449 75.2654 16.199 79.3246 16.199C81.1491 16.199 82.8534 16.6982 83.8531 18.0819H83.911V9.89786H88.3238L88.3242 30.8431ZM67.1356 22.0956C67.144 21.7379 67.0797 21.3823 66.9467 21.0502C66.8136 20.7181 66.6145 20.4164 66.3614 20.1635C66.1084 19.9106 65.8066 19.7117 65.4744 19.5789C65.1422 19.4461 64.7865 19.382 64.4288 19.3907C63.6585 19.3428 62.9002 19.5995 62.3175 20.1055C61.7347 20.6115 61.3741 21.3262 61.3134 22.0956H67.1356ZM70.8701 28.3871C70.1375 29.2755 69.2165 29.9899 68.1737 30.4784C67.131 30.967 65.9927 31.2175 64.8412 31.2119C60.4326 31.2119 56.9029 28.2691 56.9029 23.7121C56.9029 19.1551 60.4321 16.2137 64.8412 16.2137C68.9619 16.2137 71.5461 19.1528 71.5461 23.7121V25.0944H61.3134C61.4408 25.8784 61.8472 26.5898 62.4578 27.0978C63.0683 27.6057 63.8419 27.8759 64.6359 27.8585C65.2635 27.8547 65.88 27.6939 66.4295 27.3909C66.979 27.0878 67.444 26.6522 67.7822 26.1236L70.8701 28.3871ZM27.0434 16.6495H31.2771V18.5898H31.3373C31.7601 17.8653 32.3719 17.2693 33.1071 16.8653C33.8423 16.4614 34.6734 16.2648 35.5117 16.2964C39.9824 16.2964 40.8053 19.2378 40.8053 23.0591V30.845H36.3967V23.9422C36.3967 22.2945 36.3663 20.1765 34.1005 20.1765C31.8089 20.1765 31.4553 21.9707 31.4553 23.8223V30.8431H27.0466L27.0434 16.6495ZM43.0409 9.89924H47.4495V22.4203L52.446 16.6417H57.8512L52.0648 23.2148L57.7295 30.8518H52.1884L47.5083 23.8338H47.4505V30.8509H43.0418L43.0409 9.89924ZM20.1902 16.6482H24.5989V30.8459H20.1902V16.6482ZM22.3946 9.58971C22.9004 9.5898 23.3948 9.73987 23.8153 10.0209C24.2358 10.302 24.5636 10.7015 24.7571 11.1688C24.9506 11.6361 25.0011 12.1503 24.9024 12.6464C24.8037 13.1425 24.5601 13.5981 24.2024 13.9558C23.8447 14.3134 23.389 14.5569 22.8929 14.6556C22.3968 14.7542 21.8826 14.7035 21.4153 14.51C20.948 14.3164 20.5486 13.9886 20.2676 13.568C19.9866 13.1474 19.8366 12.653 19.8366 12.1472C19.8366 11.8113 19.9028 11.4787 20.0314 11.1684C20.1599 10.8581 20.3483 10.5761 20.5859 10.3386C20.8234 10.1011 21.1054 9.91275 21.4157 9.78426C21.7261 9.65576 22.0587 9.58965 22.3946 9.58971V9.58971ZM5.07635 9.90245H9.66549V26.6186H18.1613V30.8537H5.07635V9.90245ZM126.197 33.5632C126.272 33.5639 126.347 33.5492 126.417 33.5198C126.486 33.4904 126.549 33.4471 126.601 33.3924C126.653 33.3378 126.694 33.273 126.72 33.2021C126.746 33.1312 126.757 33.0558 126.753 32.9804C126.753 32.5671 126.503 32.3696 125.992 32.3696H125.165V34.5335H125.476V33.5903H125.858L125.867 33.6017L126.46 34.5335H126.792L126.154 33.5691L126.197 33.5632ZM125.837 33.3464H125.477V32.6148H125.934C126.17 32.6148 126.439 32.6534 126.439 32.9625C126.439 33.3179 126.167 33.3464 125.835 33.3464" fill="white"/>
</g>
<defs>
<filter id="filter0_d_1_176" x="0.076355" y="0.499573" width="132.847" height="39.9638" filterUnits="userSpaceOnUse" color-interpolation-filters="sRGB">
<feFlood flood-opacity="0" result="BackgroundImageFix"/>
<feColorMatrix in="SourceAlpha" type="matrix" values="0 0 0 0 0 0 0 0 0 0 0 0 0 0 0 0 0 0 127 0" result="hardAlpha"/>
<feOffset/>
<feGaussianBlur stdDeviation="2.5"/>
<feComposite in2="hardAlpha" operator="out"/>
<feColorMatrix type="matrix" values="0 0 0 0 1 0 0 0 0 1 0 0 0 0 1 0 0 0 1 0"/>
<feBlend mode="normal" in2="BackgroundImageFix" result="effect1_dropShadow_1_176"/>
<feBlend mode="normal" in="SourceGraphic" in2="effect1_dropShadow_1_176" result="shape"/>
</filter>
</defs>
</svg>
