<svg width="123" height="31" viewBox="0 0 123 31" fill="none" xmlns="http://www.w3.org/2000/svg">
<g clip-path="url(#clip0_1_176)">
<path d="M120.875 26.4057C120.339 26.4108 119.826 26.6282 119.45 27.0102C119.073 27.3923 118.863 27.9078 118.866 28.4442C118.868 28.9806 119.083 29.4942 119.463 29.8726C119.844 30.251 120.358 30.4634 120.894 30.4634C121.431 30.4634 121.945 30.251 122.326 29.8726C122.706 29.4942 122.921 28.9806 122.923 28.4442C122.926 27.9078 122.716 27.3923 122.339 27.0102C121.963 26.6282 121.45 26.4108 120.914 26.4057H120.875ZM120.875 30.2311C120.523 30.237 120.177 30.1384 119.882 29.9478C119.586 29.7572 119.353 29.4832 119.213 29.1604C119.073 28.8376 119.032 28.4805 119.095 28.1343C119.158 27.7881 119.322 27.4683 119.567 27.2154C119.811 26.9625 120.125 26.7878 120.469 26.7134C120.813 26.639 121.171 26.6683 121.499 26.7975C121.826 26.9267 122.108 27.1501 122.308 27.4394C122.508 27.7286 122.618 28.0708 122.624 28.4226V28.4525C122.634 28.914 122.46 29.3606 122.141 29.6939C121.822 30.0273 121.383 30.2202 120.921 30.2302H120.875L120.875 30.2311ZM113.087 25.8514H108.678V18.9472C108.678 17.3009 108.649 15.1815 106.385 15.1815C104.089 15.1815 103.738 16.9753 103.738 18.8274V25.8509H99.329V11.6532H103.561V13.5935H103.621C104.044 12.8693 104.656 12.2735 105.392 11.8697C106.127 11.4658 106.958 11.2689 107.796 11.3001C112.265 11.3001 113.089 14.2392 113.089 18.0628L113.087 25.8514ZM94.3546 9.71248C93.8486 9.71257 93.3539 9.56261 92.9331 9.28157C92.5124 9.00052 92.1844 8.60101 91.9907 8.13356C91.7969 7.66611 91.7462 7.15171 91.8448 6.65541C91.9434 6.15911 92.187 5.70321 92.5447 5.34534C92.9025 4.98748 93.3583 4.74374 93.8546 4.64493C94.3508 4.54612 94.8653 4.5967 95.3328 4.79025C95.8003 4.98381 96.1999 5.31165 96.4811 5.73233C96.7623 6.153 96.9124 6.64762 96.9125 7.15362C96.9126 7.4896 96.8465 7.82229 96.718 8.13271C96.5895 8.44314 96.4011 8.72521 96.1635 8.96282C95.926 9.20043 95.644 9.38893 95.3336 9.51756C95.0232 9.64619 94.6906 9.71242 94.3546 9.71248V9.71248ZM96.5589 25.8514H92.1457V11.6532H96.5589V25.8514ZM115.285 0.501599H89.9303C89.3549 0.495105 88.8003 0.717345 88.3886 1.11948C87.9769 1.52162 87.7417 2.07076 87.7347 2.64623V28.1058C87.7415 28.6815 87.9766 29.231 88.3882 29.6336C88.7999 30.0361 89.3546 30.2588 89.9303 30.2527H115.285C115.862 30.2599 116.418 30.0379 116.831 29.6353C117.244 29.2328 117.481 28.6827 117.489 28.1058V2.64439C117.481 2.06778 117.244 1.51802 116.831 1.11589C116.417 0.713763 115.861 0.492157 115.285 0.499762V0.501599ZM75.7354 15.08C73.531 15.08 72.2084 16.5519 72.2084 18.6965C72.2084 20.8411 73.5306 22.3144 75.7354 22.3144C77.9402 22.3144 79.2655 20.8448 79.2655 18.6965C79.2655 16.5482 77.9424 15.08 75.7354 15.08V15.08ZM83.3242 25.8431H79.2655V23.9603H79.2053C78.6962 24.6451 78.0357 25.2032 77.2755 25.5909C76.5153 25.9787 75.6758 26.1857 74.8224 26.1958C70.5864 26.1958 67.7961 23.1387 67.7961 18.8154C67.7961 14.8449 70.2654 11.199 74.3246 11.199C76.1491 11.199 77.8534 11.6982 78.8531 13.0819H78.911V4.89786H83.3238L83.3242 25.8431ZM62.1356 17.0956C62.144 16.7379 62.0797 16.3823 61.9467 16.0502C61.8136 15.7181 61.6145 15.4164 61.3614 15.1635C61.1084 14.9106 60.8066 14.7117 60.4744 14.5789C60.1422 14.4461 59.7865 14.382 59.4288 14.3907C58.6585 14.3428 57.9002 14.5995 57.3175 15.1055C56.7347 15.6115 56.3741 16.3262 56.3134 17.0956H62.1356ZM65.8701 23.3871C65.1375 24.2755 64.2165 24.9899 63.1737 25.4784C62.131 25.967 60.9927 26.2175 59.8412 26.2119C55.4326 26.2119 51.9029 23.2691 51.9029 18.7121C51.9029 14.1551 55.4321 11.2137 59.8412 11.2137C63.9619 11.2137 66.5461 14.1528 66.5461 18.7121V20.0944H56.3134C56.4408 20.8784 56.8472 21.5898 57.4578 22.0978C58.0683 22.6057 58.8419 22.8759 59.6359 22.8585C60.2635 22.8547 60.88 22.6939 61.4295 22.3909C61.979 22.0878 62.444 21.6522 62.7822 21.1236L65.8701 23.3871ZM22.0434 11.6495H26.2771V13.5898H26.3373C26.7601 12.8653 27.3719 12.2693 28.1071 11.8653C28.8423 11.4614 29.6734 11.2648 30.5117 11.2964C34.9824 11.2964 35.8053 14.2378 35.8053 18.0591V25.845H31.3967V18.9422C31.3967 17.2945 31.3663 15.1765 29.1005 15.1765C26.8089 15.1765 26.4553 16.9707 26.4553 18.8223V25.8431H22.0466L22.0434 11.6495ZM38.0409 4.89924H42.4495V17.4203L47.446 11.6417H52.8512L47.0648 18.2148L52.7295 25.8518H47.1884L42.5083 18.8338H42.4505V25.8509H38.0418L38.0409 4.89924ZM15.1902 11.6482H19.5989V25.8459H15.1902V11.6482ZM17.3946 4.58971C17.9004 4.5898 18.3948 4.73987 18.8153 5.02095C19.2358 5.30202 19.5636 5.70148 19.7571 6.16881C19.9506 6.63613 20.0011 7.15034 19.9024 7.64641C19.8037 8.14249 19.5601 8.59814 19.2024 8.95577C18.8447 9.31339 18.389 9.55692 17.8929 9.65557C17.3968 9.75421 16.8826 9.70354 16.4153 9.50995C15.948 9.31637 15.5486 8.98857 15.2676 8.568C14.9866 8.14744 14.8366 7.653 14.8366 7.14719C14.8366 6.8113 14.9028 6.4787 15.0314 6.16838C15.1599 5.85806 15.3483 5.57611 15.5859 5.33862C15.8234 5.10113 16.1054 4.91275 16.4157 4.78426C16.7261 4.65576 17.0587 4.58965 17.3946 4.58971V4.58971ZM0.076355 4.90245H4.66549V21.6186H13.1613V25.8537H0.076355V4.90245ZM121.197 28.5632C121.272 28.5639 121.347 28.5492 121.417 28.5198C121.486 28.4904 121.549 28.4471 121.601 28.3924C121.653 28.3378 121.694 28.273 121.72 28.2021C121.746 28.1312 121.757 28.0558 121.753 27.9804C121.753 27.5671 121.503 27.3696 120.992 27.3696H120.165V29.5335H120.476V28.5903H120.858L120.867 28.6017L121.46 29.5335H121.792L121.154 28.5691L121.197 28.5632ZM120.837 28.3464H120.477V27.6148H120.934C121.17 27.6148 121.439 27.6534 121.439 27.9625C121.439 28.3179 121.167 28.3464 120.835 28.3464" fill="white" fill-opacity="0.5"/>
</g>
<defs>
<clipPath id="clip0_1_176">
<rect width="122.847" height="30" fill="white" transform="translate(0.076355 0.5)"/>
</clipPath>
</defs>
</svg>
