<svg width="250" height="182" viewBox="0 0 250 182" fill="none" xmlns="http://www.w3.org/2000/svg">
<path d="M62.5 181.818C45.2652 181.818 30.5379 175.852 18.3182 163.92C6.09849 151.989 -0.00756872 137.405 7.04067e-06 120.17C7.04067e-06 105.398 4.45076 92.2348 13.3523 80.6818C22.2538 69.1288 33.9015 61.7424 48.2955 58.5227C53.0303 41.0985 62.5 26.9886 76.7046 16.1932C90.9091 5.39773 107.008 0 125 0C147.159 0 165.958 7.7197 181.398 23.1591C196.837 38.5985 204.553 57.3939 204.545 79.5454C217.614 81.0606 228.458 86.697 237.08 96.4545C245.701 106.212 250.008 117.621 250 130.682C250 144.886 245.027 156.962 235.08 166.909C225.133 176.856 213.061 181.826 198.864 181.818H62.5Z" fill="#F2F2F2"/>
</svg>
