<svg width="25" height="25" viewBox="0 0 25 25" fill="none" xmlns="http://www.w3.org/2000/svg">
<path d="M5.05068 10.0609L7.38522 11.0475C7.66457 10.4894 7.95389 9.95133 8.25319 9.43316C8.55249 8.91499 8.88172 8.39682 9.24088 7.87864L7.5648 7.5498L5.05068 10.0609ZM9.30075 12.5422L12.7128 15.9203C13.5508 15.6014 14.4487 15.1131 15.4065 14.4554C16.3642 13.7978 17.2621 13.0504 18.1002 12.2134C19.4969 10.8183 20.5894 9.26874 21.3775 7.56475C22.1657 5.86076 22.5099 4.2913 22.4101 2.85636C20.9735 2.75672 19.3971 3.1005 17.6812 3.88772C15.9652 4.67495 14.4088 5.7661 13.0121 7.16118C12.174 7.99822 11.4258 8.89506 10.7673 9.85168C10.1089 10.8083 9.62 11.7051 9.30075 12.5422ZM14.6283 10.599C14.1694 10.1407 13.9399 9.57765 13.9399 8.91C13.9399 8.24236 14.1694 7.67935 14.6283 7.22096C15.0872 6.76258 15.6559 6.53339 16.3343 6.53339C17.0127 6.53339 17.5814 6.76258 18.0403 7.22096C18.4992 7.67935 18.7287 8.24236 18.7287 8.91C18.7287 9.57765 18.4992 10.1407 18.0403 10.599C17.5814 11.0574 17.0127 11.2866 16.3343 11.2866C15.6559 11.2866 15.0872 11.0574 14.6283 10.599ZM15.197 20.1952L17.7111 17.684L17.3819 16.01C16.8631 16.3687 16.3443 16.6925 15.8255 16.9815C15.3067 17.2705 14.768 17.5545 14.2093 17.8335L15.197 20.1952ZM24.5651 0.674063C24.9442 3.08555 24.7097 5.43228 23.8617 7.71422C23.0137 9.99617 21.5521 12.1735 19.477 14.2462L20.0756 17.2057C20.1554 17.6043 20.1354 17.993 20.0157 18.3716C19.896 18.7503 19.6964 19.0791 19.4171 19.3581L14.3889 24.3804L11.8747 18.4912L6.75669 13.3792L0.860473 10.8681L5.85879 5.84582C6.13814 5.5668 6.47236 5.3675 6.86145 5.24793C7.25054 5.12835 7.64462 5.10842 8.04368 5.18814L11.0068 5.78603C13.0819 3.71334 15.2568 2.24851 17.5315 1.39153C19.8062 0.534556 22.1507 0.295399 24.5651 0.674063ZM2.98551 17.1758C3.68387 16.4783 4.53688 16.1245 5.54453 16.1146C6.55217 16.1046 7.40518 16.4484 8.10354 17.1459C8.80191 17.8435 9.14611 18.6955 9.13613 19.7019C9.12615 20.7084 8.77198 21.5604 8.07361 22.2579C7.57478 22.7562 6.74173 23.1846 5.57445 23.5434C4.40718 23.9021 2.79595 24.221 0.740753 24.5C1.0201 22.4472 1.33935 20.8379 1.69851 19.672C2.05768 18.5061 2.48667 17.6741 2.98551 17.1758ZM4.69152 18.8499C4.49198 19.0492 4.29245 19.4129 4.09292 19.9411C3.89338 20.4692 3.75371 21.0023 3.6739 21.5404C4.21264 21.4607 4.74639 21.3262 5.27515 21.1369C5.80392 20.9475 6.16807 20.7532 6.3676 20.5539C6.60704 20.3148 6.73674 20.0258 6.75669 19.687C6.77664 19.3482 6.6669 19.0592 6.42746 18.82C6.18802 18.5809 5.8987 18.4663 5.55949 18.4763C5.22028 18.4862 4.93096 18.6108 4.69152 18.8499Z" fill="#FF8900"/>
</svg>
