<svg width="24" height="24" viewBox="0 0 24 24" fill="none" xmlns="http://www.w3.org/2000/svg">
<path d="M20.3831 8.82759L15.1724 3.61686L16.9195 1.86973C17.3895 1.39974 17.967 1.16475 18.652 1.16475C19.3369 1.16475 19.914 1.39974 20.3831 1.86973L22.1303 3.61686C22.6003 4.08685 22.8352 4.66432 22.8352 5.34927C22.8352 6.03423 22.6003 6.61129 22.1303 7.08046L20.3831 8.82759ZM0.950192 23.0498V17.8391L6.46743 12.3218L0 5.7931L5.7931 0L12.2912 6.52874L15.1724 3.61686L20.3831 8.82759L17.5019 11.7088L23.9693 18.2376L18.2069 24L11.6782 17.5019L6.16092 23.0498H0.950192ZM8.21456 10.5747L10.5441 8.24521L9.0728 6.77395L7.60153 8.21456L5.88506 6.49808L7.32567 5.02682L5.76245 3.49425L3.4636 5.82376L8.21456 10.5747ZM18.1762 20.5364L20.5057 18.2069L18.9425 16.6743L17.5019 18.1149L15.7548 16.3985L17.2261 14.9272L15.7241 13.4559L13.3946 15.7854L18.1762 20.5364ZM3.4023 20.5977H5.11877L16.9195 8.82759L15.1724 7.08046L3.4023 18.8812V20.5977Z" fill="white"/>
</svg>
