<svg width="1440" height="5455" viewBox="0 0 1440 5455" fill="none" xmlns="http://www.w3.org/2000/svg">
<path d="M71.5 4452.5C-1.5 4581.5 25.6109 5448.37 993 5414" stroke="white" stroke-width="4" stroke-linecap="round" stroke-dasharray="10 10"/>
<path d="M1360.5 3961C1362.5 4077 1376.27 4230.63 1203 4413.5C941.5 4689.5 347 3880 71.0045 4453" stroke="white" stroke-width="4" stroke-linecap="round" stroke-dasharray="10 10"/>
<path d="M84.9266 3026.38C55.5011 3148.5 118.493 3696.5 455.501 3696.5C792.509 3696.5 1360.5 3387 1360.5 3958.5" stroke="white" stroke-width="4" stroke-linecap="round" stroke-dasharray="10 10"/>
<path d="M1380.5 1915.5C1380.5 2106.5 974 2391.5 671 2416C267.427 2448.63 84.5037 2929.5 84.5037 3030.5" stroke="white" stroke-width="4" stroke-linecap="round" stroke-dasharray="10 10"/>
<path d="M1380.5 1915C1380.5 1428 742.174 1447.28 495.5 1608C153.995 1830.5 -90.1234 1130.86 205.999 1054C506.5 976 1535.5 1609.5 1414 640.5" stroke="white" stroke-width="4" stroke-linecap="round" stroke-dasharray="10 10"/>
<path d="M1414 642.5C1414 513 1201.77 455.703 1023.01 531.001C858.007 600.501 404.202 749.408 330.999 499.001" stroke="white" stroke-width="4" stroke-linecap="round" stroke-dasharray="10 10"/>
<path d="M1172.5 183.5C1129 246 896.278 399.046 823.004 307C743 206.5 951.504 87.9998 940.004 279C926.481 503.601 285 253.5 331.007 499" stroke="white" stroke-width="4" stroke-linecap="round" stroke-dasharray="10 10"/>
<path d="M1185 147.498L1188.64 148.588C1188.97 147.71 1189.31 146.859 1189.67 146.036C1190.03 145.214 1190.44 144.386 1190.89 143.554L1188.34 143.338L1185 147.498ZM1191.74 150.506L1197.38 154.99C1198.58 154.376 1199.84 153.5 1201.16 152.362C1202.48 151.223 1203.7 149.96 1204.81 148.573C1206.66 146.262 1208.04 143.77 1208.93 141.098C1209.83 138.426 1210.09 136.026 1209.7 133.899C1207.54 133.986 1205.25 134.758 1202.82 136.214C1200.39 137.671 1198.25 139.555 1196.39 141.865C1195.28 143.252 1194.31 144.713 1193.49 146.249C1192.66 147.785 1192.08 149.204 1191.74 150.506ZM1199.37 146.732C1198.61 146.123 1198.17 145.321 1198.06 144.325C1197.95 143.329 1198.2 142.45 1198.81 141.69C1199.42 140.93 1200.23 140.495 1201.24 140.384C1202.26 140.273 1203.14 140.521 1203.9 141.131C1204.66 141.74 1205.09 142.543 1205.2 143.54C1205.31 144.537 1205.06 145.415 1204.45 146.173C1203.85 146.933 1203.04 147.368 1202.02 147.479C1201.01 147.59 1200.13 147.341 1199.37 146.732ZM1201.79 160.964L1205.13 156.804L1204.36 154.359C1203.65 154.979 1202.93 155.547 1202.2 156.063C1201.47 156.579 1200.72 157.091 1199.93 157.601L1201.79 160.964ZM1212.56 130.288C1213.52 133.826 1213.55 137.368 1212.66 140.914C1211.77 144.46 1209.95 147.949 1207.19 151.381L1208.57 155.702C1208.76 156.284 1208.79 156.868 1208.67 157.453C1208.56 158.037 1208.31 158.561 1207.94 159.023L1201.27 167.344L1196.56 158.965L1188.09 152.172L1178.88 149.389L1185.51 141.073C1185.88 140.611 1186.35 140.259 1186.91 140.017C1187.47 139.774 1188.05 139.68 1188.66 139.734L1193.18 140.141C1195.93 136.707 1198.93 134.164 1202.19 132.512C1205.44 130.86 1208.89 130.119 1212.56 130.288ZM1183.09 158.458C1184.01 157.302 1185.23 156.634 1186.73 156.455C1188.23 156.275 1189.56 156.649 1190.71 157.574C1191.87 158.501 1192.52 159.717 1192.67 161.222C1192.82 162.726 1192.43 164.056 1191.51 165.21C1190.84 166.036 1189.67 166.812 1187.99 167.539C1186.31 168.265 1183.96 169.005 1180.94 169.759C1181.02 166.649 1181.23 164.194 1181.58 162.394C1181.92 160.594 1182.42 159.282 1183.09 158.458ZM1185.9 160.677C1185.64 161.007 1185.4 161.583 1185.19 162.405C1184.98 163.227 1184.86 164.045 1184.83 164.86C1185.62 164.653 1186.39 164.364 1187.15 163.994C1187.91 163.624 1188.42 163.275 1188.68 162.946C1189 162.55 1189.15 162.097 1189.12 161.588C1189.1 161.079 1188.88 160.666 1188.49 160.348C1188.09 160.03 1187.64 159.906 1187.14 159.976C1186.63 160.046 1186.22 160.28 1185.9 160.677Z" fill="#FF8900"/>
</svg>
