<svg width="250" height="196" viewBox="0 0 250 196" fill="none" xmlns="http://www.w3.org/2000/svg">
<path d="M62.4999 195.431C45.2651 195.431 30.5378 189.018 18.3181 176.193C6.09843 163.368 -0.00762975 147.693 -5.39945e-05 129.167C-5.39945e-05 113.289 4.4507 99.1403 13.3522 86.7223C22.2537 74.3043 33.9015 66.365 48.2954 62.9042C53.0303 44.1754 62.4999 29.0092 76.7045 17.4055C90.909 5.80185 107.008 0 125 0C147.159 0 165.958 8.29766 181.398 24.893C196.837 41.4883 204.553 61.6909 204.545 85.5009C217.614 87.1295 228.458 93.1878 237.079 103.676C245.701 114.164 250.008 126.427 250 140.466C250 155.734 245.026 168.714 235.079 179.405C225.133 190.097 213.061 195.439 198.864 195.431H62.4999Z" fill="#F2F2F2"/>
</svg>
