<svg width="1294" height="5477" viewBox="0 0 1294 5477" fill="none" xmlns="http://www.w3.org/2000/svg">
<path d="M1061 3009C1609 3186 1227.61 4079.89 1202.5 4243C1152 4571 1124.5 4926 1216.5 5475" stroke="white" stroke-width="4" stroke-linecap="round" stroke-dasharray="10 10"/>
<path d="M1061.5 3008.5C-316 2488 1215.5 1513.5 1269 649" stroke="white" stroke-width="4" stroke-linecap="round" stroke-dasharray="10 10"/>
<path d="M1268 642.5C1268 513 1055.77 455.703 877.008 531.001C712.008 600.501 258.203 749.408 185 499.001" stroke="white" stroke-width="4" stroke-linecap="round" stroke-dasharray="10 10"/>
<path d="M1026.51 183.5C983.005 246 750.279 399.046 677.005 307C597.002 206.5 805.505 87.9998 794.005 279C780.482 503.601 139.002 253.5 185.009 499" stroke="white" stroke-width="4" stroke-linecap="round" stroke-dasharray="10 10"/>
<path d="M1035.99 153.248L1039.64 154.42C1039.96 153.475 1040.31 152.561 1040.67 151.677C1041.03 150.793 1041.43 149.903 1041.88 149.009L1039.33 148.776L1035.99 153.248ZM1042.74 156.481L1048.38 161.301C1049.58 160.641 1050.84 159.7 1052.16 158.476C1053.48 157.252 1054.69 155.895 1055.8 154.404C1057.66 151.919 1059.03 149.241 1059.93 146.369C1060.83 143.496 1061.08 140.917 1060.7 138.631C1058.54 138.724 1056.24 139.554 1053.81 141.12C1051.38 142.686 1049.24 144.71 1047.39 147.193C1046.28 148.684 1045.31 150.255 1044.48 151.906C1043.66 153.557 1043.08 155.082 1042.74 156.481ZM1050.36 152.425C1049.6 151.77 1049.17 150.908 1049.06 149.837C1048.95 148.766 1049.2 147.822 1049.81 147.005C1050.42 146.188 1051.23 145.721 1052.24 145.601C1053.25 145.482 1054.14 145.749 1054.9 146.404C1055.66 147.059 1056.09 147.922 1056.2 148.994C1056.31 150.066 1056.06 151.009 1055.45 151.824C1054.84 152.641 1054.03 153.108 1053.02 153.228C1052.01 153.347 1051.12 153.08 1050.36 152.425ZM1052.78 167.722L1056.12 163.25L1055.36 160.622C1054.64 161.289 1053.92 161.9 1053.19 162.454C1052.47 163.009 1051.71 163.56 1050.92 164.107L1052.78 167.722ZM1063.55 134.75C1064.51 138.553 1064.55 142.36 1063.66 146.171C1062.77 149.983 1060.95 153.733 1058.19 157.421L1059.57 162.067C1059.75 162.692 1059.79 163.319 1059.67 163.948C1059.55 164.577 1059.31 165.139 1058.94 165.636L1052.27 174.58L1047.55 165.573L1039.08 158.272L1029.88 155.281L1036.51 146.342C1036.88 145.846 1037.34 145.467 1037.91 145.206C1038.47 144.946 1039.05 144.845 1039.66 144.902L1044.17 145.34C1046.93 141.649 1049.93 138.915 1053.18 137.14C1056.43 135.364 1059.89 134.568 1063.55 134.75ZM1034.08 165.028C1035.01 163.786 1036.22 163.068 1037.72 162.875C1039.23 162.683 1040.55 163.084 1041.71 164.079C1042.86 165.075 1043.52 166.382 1043.67 167.999C1043.82 169.616 1043.43 171.045 1042.5 172.287C1041.84 173.174 1040.67 174.008 1038.99 174.789C1037.31 175.57 1034.96 176.366 1031.94 177.175C1032.02 173.832 1032.23 171.194 1032.57 169.259C1032.92 167.324 1033.42 165.914 1034.08 165.028ZM1036.9 167.414C1036.64 167.769 1036.4 168.388 1036.19 169.271C1035.98 170.154 1035.86 171.034 1035.82 171.91C1036.61 171.687 1037.39 171.377 1038.15 170.98C1038.9 170.582 1039.42 170.206 1039.68 169.853C1040 169.427 1040.14 168.94 1040.12 168.393C1040.09 167.846 1039.88 167.402 1039.48 167.06C1039.09 166.719 1038.64 166.585 1038.13 166.66C1037.63 166.736 1037.22 166.987 1036.9 167.414Z" fill="#FF8900"/>
</svg>
