<svg width="170" height="153" viewBox="0 0 170 153" fill="none" xmlns="http://www.w3.org/2000/svg">
<g filter="url(#filter0_b_139_702)">
<circle cx="94.9996" cy="78" r="75" fill="white" fill-opacity="0.5"/>
</g>
<path d="M138.141 102.768C138.815 100.423 140.006 98.7785 141.714 97.8336C143.435 96.9135 145.506 96.8016 147.928 97.498C149.293 97.8904 150.48 98.5023 151.49 99.3336C152.499 100.165 153.21 101.202 153.623 102.444C154.036 103.687 154.024 105.067 153.587 106.586C153.178 108.008 152.488 109.141 151.517 109.986C150.565 110.836 149.454 111.37 148.185 111.587C146.934 111.811 145.656 111.734 144.349 111.358C143.983 111.253 143.712 111.04 143.534 110.718C143.35 110.416 143.316 110.063 143.433 109.659L146.243 99.8852C144.853 99.6521 143.662 99.8506 142.669 100.481C141.676 101.111 140.962 102.185 140.525 103.704C140.293 104.511 140.168 105.235 140.151 105.875C140.127 106.534 140.177 107.194 140.3 107.853C140.332 108.029 140.321 108.213 140.266 108.405C140.177 108.713 139.994 108.951 139.716 109.121C139.439 109.291 139.136 109.329 138.81 109.235C138.387 109.114 138.103 108.761 137.958 108.179C137.751 107.308 137.647 106.476 137.645 105.685C137.644 104.894 137.809 103.922 138.141 102.768ZM145.931 109.004C146.889 109.217 147.749 109.194 148.511 108.934C149.267 108.694 149.88 108.298 150.351 107.746C150.84 107.201 151.179 106.601 151.367 105.947C151.555 105.294 151.587 104.606 151.461 103.883C151.356 103.166 151.046 102.505 150.533 101.899C150.021 101.294 149.302 100.827 148.377 100.499L145.931 109.004Z" fill="#0D0D0D"/>
<path d="M140.747 88.2448C140.963 86.2565 141.607 84.4957 142.678 82.9624C142.954 82.6503 143.3 82.517 143.718 82.5623C144.036 82.5969 144.302 82.7364 144.517 82.9811C144.732 83.2257 144.821 83.517 144.784 83.855C144.765 84.034 144.706 84.2086 144.607 84.3789C144.259 84.9849 143.971 85.5974 143.743 86.2164C143.515 86.8354 143.358 87.5426 143.271 88.3379C143.032 90.5449 143.618 91.7251 145.03 91.8784C145.487 91.9281 145.863 91.7074 146.158 91.2163C146.45 90.7451 146.808 89.9491 147.232 88.8283C147.637 87.6854 148.032 86.7425 148.414 85.9994C148.794 85.2763 149.313 84.6687 149.97 84.1767C150.645 83.7068 151.479 83.5259 152.473 83.6338C153.865 83.785 154.944 84.4051 155.711 85.4943C156.476 86.6033 156.757 88.0924 156.554 89.9614C156.388 91.4924 155.983 92.9069 155.339 94.205C155.229 94.4747 155.057 94.6673 154.823 94.7827C154.587 94.918 154.35 94.9727 154.111 94.9468C153.793 94.9123 153.528 94.7627 153.315 94.4982C153.1 94.2536 153.011 93.9623 153.048 93.6243C153.059 93.5249 153.093 93.3978 153.15 93.243C153.633 92.1287 153.935 91.0148 154.056 89.9013C154.172 88.8276 154.065 87.961 153.735 87.3014C153.422 86.6639 152.957 86.3117 152.34 86.2448C151.744 86.18 151.276 86.4108 150.937 86.9373C150.599 87.4638 150.236 88.2996 149.85 89.4446C149.425 90.5854 149.023 91.5074 148.645 92.2106C148.287 92.9161 147.771 93.4938 147.099 93.9438C146.424 94.4138 145.57 94.5926 144.536 94.4803C143.263 94.3421 142.264 93.7206 141.539 92.6159C140.812 91.5311 140.548 90.074 140.747 88.2448Z" fill="#0D0D0D"/>
<path d="M160.624 76.261C160.594 75.8421 160.718 75.4723 160.996 75.1518C161.274 74.8312 161.622 74.656 162.041 74.6261L162.161 74.6175C162.58 74.5877 162.949 74.7117 163.27 74.9896C163.59 75.2675 163.766 75.6159 163.796 76.0348L163.808 76.2144C163.838 76.6333 163.714 77.0031 163.436 77.3237C163.158 77.6442 162.81 77.8195 162.391 77.8493L162.271 77.8579C161.852 77.8878 161.483 77.7637 161.162 77.4858C160.841 77.2079 160.666 76.8595 160.636 76.4406L160.624 76.261ZM142.105 77.6418C142.078 77.2628 142.185 76.9343 142.426 76.6565C142.666 76.3787 142.976 76.2262 143.355 76.1992L156.193 75.2837C156.572 75.2567 156.9 75.3636 157.178 75.6045C157.476 75.8439 157.638 76.1531 157.665 76.5322C157.694 76.9311 157.588 77.2695 157.347 77.5474C157.106 77.8252 156.786 77.9784 156.387 78.0068L143.55 78.9223C143.171 78.9493 142.841 78.8324 142.562 78.5716C142.284 78.3308 142.132 78.0208 142.105 77.6418Z" fill="#0D0D0D"/>
<path d="M132.148 55.7845C131.987 55.4184 131.942 55.0446 132.015 54.6631C132.114 54.2918 132.333 53.9444 132.671 53.6208L146.835 40.9674C147.013 40.8239 147.156 40.728 147.266 40.6797C147.606 40.5084 147.934 40.4843 148.25 40.6074C148.593 40.7407 148.845 40.9904 149.006 41.3566C149.134 41.6495 149.156 41.9461 149.069 42.2463C148.983 42.5465 148.813 42.8068 148.561 43.0271L135.431 54.3077L152.576 52.3058C152.927 52.2604 153.251 52.3256 153.547 52.5014C153.869 52.6875 154.103 52.9452 154.248 53.2748C154.392 53.6043 154.421 53.9415 154.332 54.2864C154.27 54.6415 154.103 54.9333 153.832 55.1617L140.77 66.4456L157.957 64.392C158.29 64.3547 158.597 64.4057 158.877 64.5448C159.156 64.684 159.361 64.9 159.489 65.193C159.65 65.5591 159.66 65.9044 159.519 66.2287C159.404 66.5634 159.168 66.798 158.812 66.9327C158.703 66.981 158.535 67.022 158.309 67.0556L139.41 68.9442C138.943 68.9749 138.535 68.8921 138.187 68.6958C137.865 68.5097 137.623 68.2336 137.462 67.8675C137.301 67.5013 137.262 67.1143 137.345 66.7065C137.454 66.3089 137.667 65.9746 137.985 65.7038L150.046 55.1227L134.096 56.8612C133.682 56.9124 133.287 56.8347 132.912 56.6282C132.564 56.4319 132.309 56.1507 132.148 55.7845Z" fill="#0D0D0D"/>
<path d="M96.0399 137.04C99.2665 136.427 101.013 136.12 101.28 136.12C101.573 136.12 101.853 136.36 102.12 136.84C102.387 137.32 102.52 137.72 102.52 138.04C102.52 139.053 102.213 139.587 101.6 139.64L96.9999 140.2L99.9599 144.76C100.333 145.667 99.7865 146.387 98.3199 146.92C98.0532 147 97.8399 147.04 97.6799 147.04C97.1465 147.04 96.8132 146.907 96.6799 146.64L94.3199 142.12L92.1599 146.64C91.9999 146.853 91.7865 146.96 91.5199 146.96C91.2799 146.96 90.9599 146.92 90.5599 146.84C90.1865 146.76 89.7999 146.52 89.3999 146.12C88.9999 145.72 88.7999 145.413 88.7999 145.2C88.7999 144.96 88.8532 144.773 88.9599 144.64L91.7599 140.2C89.5465 139.907 88.0132 139.72 87.1599 139.64C86.5465 139.613 86.2399 139.173 86.2399 138.32C86.2399 137.84 86.3732 137.36 86.6399 136.88C86.9065 136.373 87.2399 136.12 87.6399 136.12L92.6399 137.04L92.4799 132.28C92.4532 131.827 92.7599 131.507 93.3999 131.32C93.7199 131.213 94.0399 131.16 94.3599 131.16C94.6799 131.16 94.9999 131.213 95.3199 131.32C95.9332 131.507 96.2265 131.827 96.1999 132.28L96.0399 137.04Z" fill="#FF8900"/>
<path d="M96.0399 15.04C99.2665 14.4267 101.013 14.12 101.28 14.12C101.573 14.12 101.853 14.36 102.12 14.84C102.387 15.32 102.52 15.72 102.52 16.04C102.52 17.0533 102.213 17.5867 101.6 17.64L96.9999 18.2L99.9599 22.76C100.333 23.6667 99.7865 24.3867 98.3199 24.92C98.0532 25 97.8399 25.04 97.6799 25.04C97.1465 25.04 96.8132 24.9067 96.6799 24.64L94.3199 20.12L92.1599 24.64C91.9999 24.8533 91.7865 24.96 91.5199 24.96C91.2799 24.96 90.9599 24.92 90.5599 24.84C90.1865 24.76 89.7999 24.52 89.3999 24.12C88.9999 23.72 88.7999 23.4133 88.7999 23.2C88.7999 22.96 88.8532 22.7733 88.9599 22.64L91.7599 18.2C89.5465 17.9067 88.0132 17.72 87.1599 17.64C86.5465 17.6133 86.2399 17.1733 86.2399 16.32C86.2399 15.84 86.3732 15.36 86.6399 14.88C86.9065 14.3733 87.2399 14.12 87.6399 14.12L92.6399 15.04L92.4799 10.28C92.4532 9.82666 92.7599 9.50666 93.3999 9.32C93.7199 9.21333 94.0399 9.16 94.3599 9.16C94.6799 9.16 94.9999 9.21333 95.3199 9.32C95.9332 9.50666 96.2265 9.82666 96.1999 10.28L96.0399 15.04Z" fill="#FF8900"/>
<path d="M51.8487 55.6515C51.2032 56.7103 50.3243 57.5565 49.212 58.1901C48.0929 58.7962 46.8389 59.0857 45.4499 59.0588C44.0543 59.0044 42.6648 58.5555 41.2816 57.7123C39.8984 56.869 38.8714 55.8448 38.2008 54.6395C37.5234 53.4068 37.2064 52.1594 37.2496 50.8975C37.2861 49.608 37.6271 48.4339 38.2726 47.3752C39.2928 45.7016 40.8318 44.6372 42.8896 44.1817L36.6139 40.3559C36.2723 40.1477 36.0582 39.8649 35.9716 39.5076C35.8953 39.1331 35.9561 38.7837 36.1539 38.4592C36.3517 38.1348 36.6378 37.9344 37.0122 37.8582C37.3695 37.7715 37.7104 37.8271 38.0349 38.0249L54.6593 48.1595C54.9837 48.3573 55.1893 48.6349 55.276 48.9922C55.3626 49.3496 55.307 49.6905 55.1092 50.0149C54.9114 50.3394 54.6287 50.5535 54.2609 50.6572C53.9036 50.7439 53.5627 50.6883 53.2382 50.4905L52.5722 50.0845C53.1101 52.1223 52.8689 53.978 51.8487 55.6515ZM49.8744 53.9912C50.3533 53.2057 50.6302 52.3672 50.705 51.476C50.7733 50.5572 50.6784 49.6561 50.4205 48.7728L45.0413 45.4935C44.138 45.6689 43.3021 46.0026 42.5337 46.4945C41.7587 46.959 41.1317 47.584 40.6529 48.3695C39.8825 49.6332 39.6644 50.8939 39.9985 52.1517C40.3326 53.4094 41.234 54.486 42.7026 55.3813C44.1713 56.2766 45.5411 56.5847 46.8122 56.3055C48.0833 56.0263 49.104 55.2549 49.8744 53.9912Z" fill="#0D0D0D"/>
<path d="M43.599 70.8203C43.2473 71.8626 42.694 72.689 41.9391 73.2997C41.1906 73.8915 40.3196 74.2519 39.3262 74.381C38.3392 74.4912 37.334 74.3737 36.3107 74.0283L28.2379 71.3042C27.8779 71.1826 27.6162 70.9572 27.453 70.6277C27.2962 70.2792 27.2785 69.925 27.4 69.5649C27.5215 69.2049 27.747 68.9433 28.0765 68.78C28.406 68.6168 28.7508 68.596 29.1108 68.7175L36.8993 71.3457C39.2112 72.1259 40.7189 71.4737 41.4223 69.3892C41.7421 68.4417 41.7803 67.5153 41.537 66.61C41.3001 65.6857 40.8766 64.7513 40.2666 63.8066L31.7391 60.929C31.379 60.8075 31.1174 60.582 30.9542 60.2525C30.7974 59.9041 30.7797 59.5498 30.9012 59.1898C31.0227 58.8297 31.2482 58.5681 31.5777 58.4049C31.9072 58.2416 32.2519 58.2208 32.612 58.3423L44.8064 62.4573C45.1664 62.5788 45.4375 62.8075 45.6197 63.1434C45.7829 63.4729 45.8038 63.8177 45.6823 64.1777C45.5608 64.5378 45.3321 64.8089 44.9962 64.991C44.6478 65.1479 44.2935 65.1655 43.9335 65.044L42.7681 64.6508C43.321 65.6394 43.6936 66.6306 43.886 67.6243C44.0784 68.618 43.9827 69.6833 43.599 70.8203Z" fill="#0D0D0D"/>
<path d="M41.5095 83.5857C41.7694 85.1037 41.672 86.49 41.2173 87.7447C40.7625 88.9995 39.9977 90.0435 38.923 90.8769C37.8251 91.6939 36.5074 92.2341 34.9698 92.4973C33.4321 92.7606 32.0196 92.688 30.7322 92.2794C29.4217 91.8545 28.3433 91.1261 27.4969 90.0941C26.6506 89.0621 26.0975 87.7872 25.8376 86.2693C25.5811 84.7711 25.6802 83.3946 26.1349 82.1399C26.5897 80.8851 27.3643 79.8394 28.4588 79.0026C29.5335 78.1693 30.8397 77.621 32.3774 77.3577C33.915 77.0944 35.3391 77.1752 36.6496 77.6001C37.9404 78.0284 39.0089 78.7585 39.8552 79.7905C40.7015 80.8225 41.253 82.0876 41.5095 83.5857ZM39.0552 84.006C38.9168 83.1978 38.5979 82.461 38.0985 81.7958C37.5957 81.1108 36.8996 80.601 36.0104 80.2662C35.1177 79.9118 34.0505 79.8409 32.8086 80.0536C31.5863 80.2629 30.6133 80.6831 29.8895 81.3143C29.1622 81.9259 28.6853 82.6365 28.4588 83.4464C28.2091 84.2399 28.1535 85.0408 28.2919 85.849C28.4337 86.677 28.756 87.4334 29.2588 88.1184C29.7385 88.787 30.423 89.2887 31.3122 89.6234C32.2015 89.9581 33.2572 90.0209 34.4794 89.8116C35.7214 89.5989 36.7059 89.1868 37.4332 88.5753C38.1604 87.9638 38.6488 87.2613 38.8985 86.4678C39.1448 85.6545 39.197 84.8339 39.0552 84.006Z" fill="#0D0D0D"/>
<path d="M49.5995 93.9052C49.7681 94.2457 49.7935 94.5902 49.6759 94.9386C49.5582 95.2869 49.3291 95.5454 48.9886 95.714L31.5398 104.352C31.1993 104.521 30.8548 104.546 30.5064 104.429C30.1402 104.32 29.8727 104.095 29.7041 103.755C29.5266 103.396 29.4967 103.043 29.6144 102.695C29.732 102.346 29.9701 102.083 30.3286 101.906L47.7773 93.2674C48.1179 93.0988 48.4668 93.0823 48.824 93.2179C49.1724 93.3355 49.4309 93.5646 49.5995 93.9052Z" fill="#0D0D0D"/>
<path d="M57.1421 105.1C58.1348 106.837 58.655 108.613 58.7026 110.429C58.7229 112.237 58.2582 113.943 57.3084 115.545C56.3314 117.141 54.8967 118.479 53.0042 119.561C51.1117 120.643 49.2389 121.196 47.3858 121.219C45.5055 121.234 43.7999 120.769 42.269 119.824C40.7109 118.872 39.4355 117.528 38.4428 115.792C37.7678 114.611 37.3061 113.481 37.0578 112.402C36.7995 111.306 36.6677 110.149 36.6625 108.931C36.6524 108.43 36.8731 108.05 37.3245 107.792C37.585 107.643 37.874 107.604 38.1915 107.676C38.4917 107.758 38.7311 107.955 38.9098 108.268C39.0091 108.441 39.0637 108.618 39.0737 108.796C39.1111 109.788 39.2341 110.709 39.4427 111.557C39.6513 112.405 40.0286 113.307 40.5746 114.262C41.4283 115.755 42.4705 116.853 43.7011 117.554C44.9044 118.249 46.1982 118.557 47.5824 118.48C48.9393 118.395 50.2949 117.966 51.6491 117.191C53.0034 116.417 54.0699 115.462 54.8485 114.325C55.5999 113.182 55.9903 111.91 56.0197 110.511C56.0218 109.104 55.596 107.655 54.7423 106.161C54.1963 105.207 53.6107 104.424 52.9854 103.814C52.3601 103.204 51.6294 102.631 50.7933 102.095C50.6444 101.996 50.5204 101.86 50.4211 101.686C50.2424 101.374 50.1939 101.067 50.2757 100.767C50.3575 100.467 50.5373 100.237 50.8151 100.079C51.2665 99.8204 51.7056 99.8228 52.1324 100.086C53.1794 100.708 54.1098 101.409 54.9237 102.187C55.7276 102.949 56.4671 103.92 57.1421 105.1Z" fill="#0D0D0D"/>
<mask id="mask0_139_702" style="mask-type:alpha" maskUnits="userSpaceOnUse" x="79" y="64" width="31" height="30">
<rect x="79.9998" y="64" width="30" height="30" fill="#D9D9D9"/>
</mask>
<g mask="url(#mask0_139_702)">
<path d="M87.0623 76.5312L89.4998 77.5624C89.7914 76.9791 90.0935 76.4166 90.406 75.8749C90.7185 75.3333 91.0623 74.7916 91.4373 74.2499L89.6873 73.9062L87.0623 76.5312ZM91.4998 79.1249L95.0623 82.6562C95.9373 82.3229 96.8748 81.8124 97.8748 81.1249C98.8748 80.4374 99.8123 79.6562 100.687 78.7812C102.146 77.3229 103.286 75.7031 104.109 73.9218C104.932 72.1406 105.291 70.4999 105.187 68.9999C103.687 68.8958 102.041 69.2552 100.25 70.0781C98.4581 70.901 96.8331 72.0416 95.3748 73.4999C94.4998 74.3749 93.7185 75.3124 93.031 76.3124C92.3435 77.3124 91.8331 78.2499 91.4998 79.1249ZM97.0623 77.0937C96.5831 76.6145 96.3435 76.026 96.3435 75.3281C96.3435 74.6302 96.5831 74.0416 97.0623 73.5624C97.5414 73.0833 98.1352 72.8437 98.8435 72.8437C99.5518 72.8437 100.146 73.0833 100.625 73.5624C101.104 74.0416 101.344 74.6302 101.344 75.3281C101.344 76.026 101.104 76.6145 100.625 77.0937C100.146 77.5729 99.5518 77.8124 98.8435 77.8124C98.1352 77.8124 97.5414 77.5729 97.0623 77.0937ZM97.656 87.1249L100.281 84.4999L99.9373 82.7499C99.3956 83.1249 98.8539 83.4635 98.3123 83.7656C97.7706 84.0677 97.2081 84.3645 96.6248 84.6562L97.656 87.1249ZM107.437 66.7187C107.833 69.2395 107.588 71.6927 106.703 74.0781C105.817 76.4635 104.291 78.7395 102.125 80.9062L102.75 83.9999C102.833 84.4166 102.812 84.8229 102.687 85.2187C102.562 85.6145 102.354 85.9583 102.062 86.2499L96.8123 91.4999L94.1873 85.3437L88.8435 79.9999L82.6873 77.3749L87.906 72.1249C88.1977 71.8333 88.5466 71.6249 88.9529 71.4999C89.3591 71.3749 89.7706 71.3541 90.1873 71.4374L93.281 72.0624C95.4477 69.8958 97.7185 68.3645 100.094 67.4687C102.469 66.5729 104.916 66.3229 107.437 66.7187ZM84.906 83.9687C85.6352 83.2395 86.5258 82.8697 87.5779 82.8593C88.63 82.8489 89.5206 83.2083 90.2498 83.9374C90.9789 84.6666 91.3383 85.5572 91.3279 86.6093C91.3175 87.6614 90.9477 88.552 90.2185 89.2812C89.6977 89.802 88.8279 90.2499 87.6091 90.6249C86.3904 90.9999 84.7081 91.3333 82.5623 91.6249C82.8539 89.4791 83.1873 87.7968 83.5623 86.5781C83.9373 85.3593 84.3852 84.4895 84.906 83.9687ZM86.6873 85.7187C86.4789 85.927 86.2706 86.3072 86.0623 86.8593C85.8539 87.4114 85.7081 87.9687 85.6248 88.5312C86.1873 88.4479 86.7445 88.3072 87.2966 88.1093C87.8487 87.9114 88.2289 87.7083 88.4373 87.4999C88.6873 87.2499 88.8227 86.9479 88.8435 86.5937C88.8643 86.2395 88.7498 85.9374 88.4998 85.6874C88.2498 85.4374 87.9477 85.3177 87.5935 85.3281C87.2393 85.3385 86.9373 85.4687 86.6873 85.7187Z" fill="#FF8900"/>
</g>
<defs>
<filter id="filter0_b_139_702" x="-30.0004" y="-47" width="250" height="250" filterUnits="userSpaceOnUse" color-interpolation-filters="sRGB">
<feFlood flood-opacity="0" result="BackgroundImageFix"/>
<feGaussianBlur in="BackgroundImageFix" stdDeviation="25"/>
<feComposite in2="SourceAlpha" operator="in" result="effect1_backgroundBlur_139_702"/>
<feBlend mode="normal" in="SourceGraphic" in2="effect1_backgroundBlur_139_702" result="shape"/>
</filter>
</defs>
</svg>
