<svg width="1338" height="912" viewBox="0 0 1338 912" fill="none" xmlns="http://www.w3.org/2000/svg">
<g filter="url(#filter0_d_373_396)">
<path d="M472.49 476.691C472.491 476.848 472.447 477.002 472.363 477.131C472.279 477.26 472.159 477.358 472.021 477.411L469.188 478.518L468.158 481.563C468.108 481.71 468.016 481.837 467.896 481.926C467.777 482.016 467.634 482.064 467.489 482.064C467.343 482.064 467.2 482.016 467.081 481.926C466.961 481.837 466.869 481.71 466.819 481.563L465.788 478.515L462.956 477.411C462.819 477.356 462.701 477.258 462.618 477.129C462.535 477.001 462.49 476.848 462.49 476.691C462.49 476.534 462.535 476.381 462.618 476.252C462.701 476.124 462.819 476.026 462.956 475.971L465.792 474.864L466.819 471.819C466.869 471.672 466.961 471.545 467.081 471.456C467.2 471.366 467.343 471.318 467.489 471.318C467.634 471.318 467.777 471.366 467.896 471.456C468.016 471.545 468.108 471.672 468.158 471.819L469.189 474.867L472.021 475.971C472.159 476.024 472.279 476.121 472.363 476.25C472.447 476.379 472.491 476.533 472.49 476.691Z" fill="white"/>
</g>
<g filter="url(#filter1_d_373_396)">
<path d="M435.268 572.913C435.406 572.966 435.525 573.064 435.609 573.194C435.693 573.323 435.737 573.477 435.735 573.635L435.726 576.875L438.029 578.964C438.14 579.065 438.219 579.201 438.256 579.353C438.293 579.505 438.286 579.665 438.236 579.812C438.185 579.959 438.094 580.086 437.975 580.176C437.855 580.266 437.713 580.315 437.567 580.315L434.55 580.304L432.61 582.781C432.515 582.9 432.388 582.985 432.247 583.025C432.106 583.065 431.957 583.057 431.82 583.003C431.683 582.949 431.565 582.851 431.481 582.723C431.398 582.594 431.353 582.441 431.352 582.285L431.363 579.042L429.058 576.956C428.947 576.854 428.868 576.718 428.831 576.566C428.794 576.414 428.801 576.254 428.852 576.107C428.902 575.96 428.993 575.833 429.113 575.743C429.232 575.653 429.374 575.604 429.52 575.604L432.537 575.615L434.478 573.138C434.572 573.017 434.698 572.93 434.84 572.89C434.981 572.85 435.131 572.858 435.268 572.913Z" fill="white"/>
</g>
<g filter="url(#filter2_d_373_396)">
<path d="M342.362 284.946C342.363 285.103 342.318 285.257 342.234 285.386C342.15 285.515 342.031 285.613 341.893 285.666L339.06 286.773L338.03 289.818C337.979 289.965 337.888 290.092 337.768 290.181C337.648 290.271 337.506 290.319 337.36 290.319C337.214 290.319 337.072 290.271 336.952 290.181C336.833 290.092 336.741 289.965 336.69 289.818L335.66 286.77L332.828 285.666C332.691 285.611 332.573 285.513 332.49 285.384C332.406 285.256 332.362 285.103 332.362 284.946C332.362 284.789 332.406 284.636 332.49 284.507C332.573 284.379 332.691 284.281 332.828 284.226L335.663 283.119L336.69 280.074C336.741 279.927 336.833 279.8 336.952 279.711C337.072 279.621 337.214 279.573 337.36 279.573C337.506 279.573 337.648 279.621 337.768 279.711C337.888 279.8 337.979 279.927 338.03 280.074L339.06 283.122L341.893 284.226C342.031 284.279 342.15 284.376 342.234 284.505C342.318 284.634 342.363 284.788 342.362 284.946Z" fill="white"/>
</g>
<g filter="url(#filter3_d_373_396)">
<path d="M305.14 381.168C305.278 381.221 305.397 381.319 305.481 381.448C305.564 381.578 305.609 381.732 305.607 381.889L305.597 385.129L307.901 387.218C308.012 387.32 308.091 387.456 308.128 387.608C308.165 387.759 308.158 387.919 308.107 388.067C308.057 388.214 307.966 388.341 307.847 388.431C307.727 388.521 307.585 388.569 307.439 388.57L304.422 388.558L302.481 391.036C302.387 391.155 302.26 391.24 302.119 391.279C301.978 391.319 301.829 391.311 301.692 391.257C301.555 391.203 301.437 391.105 301.353 390.977C301.269 390.849 301.224 390.696 301.224 390.539L301.235 387.296L298.93 385.21C298.819 385.108 298.74 384.972 298.703 384.821C298.666 384.669 298.673 384.509 298.723 384.362C298.774 384.214 298.865 384.087 298.984 383.997C299.104 383.907 299.246 383.859 299.392 383.858L302.409 383.87L304.35 381.393C304.443 381.272 304.57 381.185 304.711 381.145C304.853 381.104 305.003 381.112 305.14 381.168Z" fill="white"/>
</g>
<g filter="url(#filter4_d_373_396)">
<path d="M360.562 267.345C360.7 267.398 360.819 267.496 360.903 267.625C360.987 267.755 361.031 267.909 361.029 268.066L361.019 271.306L363.323 273.395C363.434 273.497 363.513 273.633 363.55 273.785C363.587 273.936 363.58 274.097 363.529 274.244C363.479 274.391 363.388 274.518 363.269 274.608C363.149 274.698 363.007 274.746 362.861 274.747L359.844 274.735L357.903 277.213C357.809 277.332 357.682 277.417 357.541 277.457C357.4 277.496 357.251 277.488 357.114 277.434C356.977 277.38 356.859 277.283 356.775 277.154C356.692 277.026 356.646 276.873 356.646 276.716L356.657 273.473L354.352 271.387C354.241 271.285 354.162 271.149 354.125 270.998C354.088 270.846 354.095 270.686 354.146 270.539C354.196 270.392 354.287 270.264 354.406 270.174C354.526 270.085 354.668 270.036 354.814 270.036L357.831 270.047L359.772 267.57C359.865 267.449 359.992 267.362 360.133 267.322C360.275 267.281 360.425 267.289 360.562 267.345Z" fill="white"/>
</g>
<g filter="url(#filter5_d_373_396)">
<path d="M1038 173.052C1038 173.21 1037.96 173.364 1037.87 173.493C1037.79 173.622 1037.67 173.719 1037.53 173.772L1034.7 174.879L1033.67 177.924C1033.62 178.071 1033.53 178.198 1033.41 178.287C1033.29 178.377 1033.14 178.425 1033 178.425C1032.85 178.425 1032.71 178.377 1032.59 178.287C1032.47 178.198 1032.38 178.071 1032.33 177.924L1031.3 174.876L1028.47 173.772C1028.33 173.718 1028.21 173.619 1028.13 173.491C1028.04 173.362 1028 173.209 1028 173.052C1028 172.895 1028.04 172.742 1028.13 172.614C1028.21 172.485 1028.33 172.387 1028.47 172.332L1031.3 171.225L1032.33 168.18C1032.38 168.033 1032.47 167.906 1032.59 167.817C1032.71 167.727 1032.85 167.679 1033 167.679C1033.14 167.679 1033.29 167.727 1033.41 167.817C1033.53 167.906 1033.62 168.033 1033.67 168.18L1034.7 171.228L1037.53 172.332C1037.67 172.385 1037.79 172.483 1037.87 172.612C1037.96 172.741 1038 172.895 1038 173.052Z" fill="white"/>
</g>
<g filter="url(#filter6_d_373_396)">
<path d="M172.872 172.634C172.873 172.791 172.829 172.945 172.745 173.074C172.661 173.203 172.541 173.301 172.403 173.354L169.57 174.461L168.541 177.506C168.49 177.653 168.398 177.779 168.279 177.869C168.159 177.958 168.017 178.006 167.871 178.006C167.725 178.006 167.583 177.958 167.463 177.869C167.343 177.779 167.252 177.653 167.201 177.506L166.171 174.458L163.338 173.354C163.201 173.299 163.083 173.201 163 173.072C162.917 172.943 162.872 172.79 162.872 172.634C162.872 172.477 162.917 172.324 163 172.195C163.083 172.066 163.201 171.968 163.338 171.914L166.174 170.806L167.201 167.762C167.252 167.615 167.343 167.488 167.463 167.398C167.583 167.309 167.725 167.261 167.871 167.261C168.017 167.261 168.159 167.309 168.279 167.398C168.398 167.488 168.49 167.615 168.541 167.762L169.571 170.81L172.403 171.914C172.541 171.966 172.661 172.064 172.745 172.193C172.829 172.322 172.873 172.476 172.872 172.634Z" fill="white"/>
</g>
<g filter="url(#filter7_d_373_396)">
<path d="M17.14 252.184C17.2779 252.237 17.397 252.335 17.4807 252.464C17.5644 252.593 17.6086 252.748 17.6071 252.905L17.5973 256.145L19.901 258.234C20.0119 258.336 20.0911 258.472 20.128 258.623C20.1649 258.775 20.1577 258.935 20.1074 259.082C20.0571 259.23 19.9661 259.357 19.8466 259.447C19.7272 259.537 19.585 259.585 19.4391 259.586L16.4221 259.574L14.4813 262.051C14.3866 262.171 14.2601 262.256 14.119 262.295C13.9779 262.335 13.8289 262.327 13.6919 262.273C13.555 262.219 13.4368 262.121 13.3531 261.993C13.2694 261.865 13.2243 261.712 13.2238 261.555L13.2345 258.312L10.9298 256.226C10.819 256.124 10.7398 255.988 10.7029 255.836C10.666 255.685 10.6732 255.525 10.7235 255.377C10.7738 255.23 10.8648 255.103 10.9842 255.013C11.1037 254.923 11.2459 254.875 11.3917 254.874L14.4087 254.886L16.3495 252.409C16.4432 252.287 16.5697 252.201 16.7113 252.16C16.853 252.12 17.0028 252.128 17.14 252.184Z" fill="white"/>
</g>
<g filter="url(#filter8_d_373_396)">
<path d="M975.627 625.373C975.596 625.527 975.52 625.666 975.412 625.772C975.303 625.878 975.167 625.945 975.021 625.963L972.03 626.366L970.397 629.089C970.317 629.22 970.202 629.322 970.066 629.381C969.931 629.439 969.782 629.452 969.64 629.417C969.498 629.382 969.369 629.302 969.271 629.186C969.172 629.07 969.11 628.924 969.09 628.769L968.716 625.551L966.182 623.798C966.06 623.713 965.966 623.589 965.911 623.443C965.856 623.298 965.844 623.138 965.877 622.985C965.909 622.832 965.984 622.694 966.092 622.588C966.2 622.483 966.335 622.415 966.48 622.394L969.474 621.992L971.104 619.269C971.184 619.137 971.299 619.036 971.435 618.977C971.57 618.918 971.719 618.905 971.861 618.94C972.003 618.975 972.132 619.056 972.23 619.172C972.328 619.288 972.391 619.433 972.41 619.588L972.785 622.806L975.319 624.559C975.442 624.643 975.539 624.767 975.594 624.913C975.649 625.059 975.661 625.22 975.627 625.373Z" fill="white"/>
</g>
<g filter="url(#filter9_d_373_396)">
<path d="M884.907 568.004C885.03 568.089 885.126 568.213 885.181 568.359C885.236 568.505 885.247 568.666 885.213 568.819L884.534 571.976L886.348 574.563C886.435 574.688 886.484 574.84 886.489 574.997C886.494 575.153 886.453 575.308 886.374 575.439C886.295 575.571 886.18 575.673 886.045 575.732C885.909 575.791 885.761 575.805 885.618 575.77L882.679 575.039L880.275 576.991C880.158 577.084 880.017 577.137 879.871 577.142C879.725 577.147 879.582 577.104 879.459 577.018C879.337 576.933 879.242 576.809 879.187 576.664C879.132 576.519 879.12 576.359 879.151 576.206L879.832 573.047L878.016 570.463C877.929 570.337 877.88 570.185 877.875 570.029C877.871 569.872 877.911 569.717 877.99 569.586C878.07 569.455 878.185 569.352 878.32 569.293C878.455 569.234 878.604 569.221 878.746 569.255L881.685 569.987L884.089 568.035C884.206 567.939 884.347 567.885 884.493 567.879C884.64 567.874 884.784 567.917 884.907 568.004Z" fill="white"/>
</g>
<g filter="url(#filter10_d_373_396)">
<path d="M720.097 447.723C720.221 447.808 720.316 447.932 720.371 448.078C720.426 448.224 720.437 448.385 720.403 448.538L719.724 451.695L721.539 454.282C721.626 454.407 721.675 454.559 721.679 454.716C721.684 454.872 721.644 455.027 721.565 455.158C721.485 455.29 721.37 455.392 721.235 455.451C721.1 455.51 720.951 455.524 720.809 455.489L717.87 454.758L715.465 456.71C715.348 456.803 715.208 456.856 715.062 456.861C714.916 456.866 714.772 456.823 714.65 456.737C714.528 456.652 714.433 456.528 714.378 456.383C714.322 456.238 714.31 456.078 714.342 455.925L715.023 452.766L713.207 450.182C713.12 450.056 713.071 449.904 713.066 449.748C713.061 449.591 713.101 449.436 713.181 449.305C713.26 449.174 713.375 449.071 713.51 449.012C713.645 448.953 713.794 448.94 713.936 448.974L716.876 449.706L719.28 447.754C719.396 447.658 719.538 447.604 719.684 447.598C719.83 447.593 719.975 447.636 720.097 447.723Z" fill="white"/>
</g>
<g filter="url(#filter11_d_373_396)">
<path d="M553.199 471.219C553.323 471.304 553.418 471.428 553.473 471.574C553.528 471.72 553.539 471.881 553.505 472.034L552.826 475.191L554.641 477.778C554.728 477.903 554.777 478.055 554.781 478.212C554.786 478.368 554.746 478.523 554.667 478.654C554.587 478.786 554.472 478.888 554.337 478.947C554.202 479.006 554.053 479.02 553.911 478.985L550.972 478.254L548.567 480.206C548.45 480.299 548.31 480.352 548.164 480.357C548.018 480.362 547.874 480.319 547.752 480.233C547.63 480.148 547.535 480.024 547.48 479.879C547.424 479.734 547.412 479.574 547.444 479.421L548.125 476.262L546.309 473.678C546.222 473.552 546.173 473.4 546.168 473.244C546.163 473.087 546.203 472.933 546.283 472.801C546.362 472.67 546.477 472.567 546.612 472.508C546.747 472.449 546.896 472.436 547.038 472.47L549.978 473.202L552.382 471.25C552.498 471.154 552.64 471.1 552.786 471.094C552.932 471.089 553.077 471.132 553.199 471.219Z" fill="white"/>
</g>
<g filter="url(#filter12_d_373_396)">
<path d="M634.233 212.817C634.202 212.971 634.127 213.11 634.018 213.216C633.909 213.321 633.773 213.388 633.627 213.407L630.636 213.81L629.003 216.533C628.923 216.664 628.808 216.766 628.673 216.824C628.537 216.883 628.389 216.896 628.246 216.861C628.104 216.826 627.975 216.745 627.877 216.629C627.779 216.514 627.716 216.368 627.697 216.213L627.322 212.995L624.789 211.242C624.667 211.156 624.572 211.032 624.517 210.887C624.463 210.742 624.451 210.582 624.483 210.429C624.516 210.276 624.591 210.137 624.699 210.032C624.806 209.926 624.942 209.859 625.086 209.838L628.08 209.436L629.711 206.712C629.79 206.581 629.906 206.479 630.041 206.421C630.176 206.362 630.325 206.349 630.467 206.384C630.609 206.419 630.738 206.5 630.836 206.615C630.935 206.731 630.998 206.877 631.017 207.032L631.391 210.25L633.925 212.003C634.049 212.087 634.145 212.211 634.2 212.357C634.255 212.503 634.267 212.663 634.233 212.817Z" fill="white"/>
</g>
<g filter="url(#filter13_d_373_396)">
<path d="M465.951 253.193C466.075 253.278 466.171 253.402 466.225 253.548C466.28 253.694 466.292 253.855 466.258 254.008L465.578 257.165L467.393 259.752C467.48 259.878 467.529 260.029 467.534 260.186C467.538 260.342 467.498 260.497 467.419 260.628C467.339 260.76 467.224 260.862 467.089 260.921C466.954 260.98 466.805 260.994 466.663 260.959L463.724 260.228L461.32 262.18C461.203 262.273 461.062 262.326 460.916 262.331C460.77 262.336 460.626 262.293 460.504 262.207C460.382 262.122 460.287 261.998 460.232 261.853C460.177 261.708 460.164 261.548 460.196 261.395L460.877 258.236L459.061 255.652C458.974 255.526 458.925 255.375 458.92 255.218C458.915 255.061 458.956 254.907 459.035 254.775C459.114 254.644 459.229 254.542 459.364 254.482C459.5 254.423 459.648 254.41 459.791 254.444L462.73 255.176L465.134 253.224C465.25 253.128 465.392 253.074 465.538 253.068C465.685 253.063 465.829 253.107 465.951 253.193Z" fill="white"/>
</g>
<g filter="url(#filter14_d_373_396)">
<path d="M462.243 633.161C462.1 633.125 461.972 633.043 461.874 632.925C461.777 632.807 461.716 632.66 461.701 632.503L461.358 629.284L458.842 627.499C458.721 627.412 458.628 627.287 458.575 627.141C458.521 626.995 458.511 626.835 458.545 626.682C458.579 626.53 458.655 626.392 458.764 626.288C458.873 626.184 459.009 626.118 459.154 626.099L462.151 625.731L463.809 623.026C463.89 622.896 464.007 622.795 464.142 622.738C464.278 622.681 464.427 622.67 464.569 622.707C464.711 622.743 464.839 622.825 464.936 622.942C465.033 623.059 465.094 623.205 465.112 623.361L465.455 626.583L467.971 628.365C468.092 628.452 468.185 628.577 468.238 628.723C468.291 628.869 468.302 629.029 468.268 629.181C468.234 629.334 468.157 629.472 468.049 629.576C467.94 629.68 467.804 629.746 467.659 629.765L464.661 630.133L463.004 632.838C462.924 632.97 462.808 633.072 462.671 633.13C462.535 633.188 462.386 633.198 462.243 633.161Z" fill="white"/>
</g>
<g filter="url(#filter15_d_373_396)">
<path d="M509.005 785.799C508.986 785.643 509.014 785.484 509.083 785.346C509.153 785.207 509.26 785.095 509.392 785.025L512.085 783.569L512.776 780.416C512.81 780.263 512.887 780.126 512.996 780.022C513.106 779.918 513.242 779.852 513.387 779.834C513.531 779.816 513.678 779.845 513.807 779.919C513.935 779.993 514.04 780.107 514.106 780.247L515.461 783.144L518.395 783.885C518.536 783.921 518.664 784.004 518.761 784.122C518.858 784.239 518.919 784.385 518.936 784.541C518.953 784.697 518.925 784.854 518.857 784.993C518.788 785.131 518.681 785.243 518.552 785.315L515.856 786.771L515.167 789.924C515.133 790.076 515.056 790.214 514.947 790.318C514.838 790.422 514.702 790.487 514.557 790.506C514.412 790.524 514.265 790.494 514.137 790.42C514.008 790.347 513.903 790.232 513.837 790.093L512.482 787.195L509.549 786.455C509.406 786.42 509.277 786.338 509.179 786.221C509.082 786.103 509.021 785.956 509.005 785.799Z" fill="white"/>
</g>
<g filter="url(#filter16_d_373_396)">
<path d="M655.004 687.202C654.861 687.167 654.732 687.085 654.635 686.967C654.537 686.849 654.477 686.701 654.461 686.545L654.118 683.326L651.603 681.541C651.481 681.454 651.388 681.329 651.335 681.183C651.282 681.037 651.271 680.877 651.305 680.724C651.339 680.572 651.416 680.434 651.525 680.33C651.633 680.225 651.769 680.159 651.914 680.141L654.912 679.772L656.569 677.068C656.651 676.938 656.767 676.837 656.903 676.78C657.039 676.723 657.187 676.712 657.329 676.748C657.471 676.785 657.599 676.867 657.696 676.984C657.793 677.101 657.855 677.247 657.872 677.403L658.215 680.625L660.731 682.407C660.852 682.494 660.946 682.619 660.999 682.765C661.052 682.911 661.062 683.071 661.028 683.223C660.994 683.376 660.918 683.513 660.809 683.618C660.7 683.722 660.564 683.788 660.419 683.807L657.422 684.175L655.764 686.88C655.684 687.012 655.568 687.114 655.432 687.172C655.296 687.229 655.146 687.24 655.004 687.202Z" fill="white"/>
</g>
<g filter="url(#filter17_d_373_396)">
<path d="M762.31 725.024C762.167 724.988 762.038 724.906 761.941 724.788C761.843 724.67 761.783 724.523 761.767 724.366L761.424 721.147L758.909 719.363C758.787 719.275 758.694 719.15 758.641 719.004C758.588 718.858 758.577 718.698 758.611 718.546C758.645 718.393 758.722 718.256 758.831 718.151C758.939 718.047 759.075 717.981 759.22 717.962L762.218 717.594L763.875 714.89C763.956 714.759 764.073 714.659 764.209 714.602C764.344 714.545 764.493 714.534 764.635 714.57C764.777 714.606 764.905 714.689 765.002 714.806C765.099 714.923 765.161 715.069 765.178 715.224L765.521 718.446L768.037 720.228C768.158 720.315 768.251 720.44 768.305 720.586C768.358 720.732 768.368 720.892 768.334 721.045C768.3 721.197 768.224 721.335 768.115 721.439C768.006 721.544 767.87 721.61 767.725 721.629L764.728 721.997L763.07 724.701C762.99 724.833 762.874 724.935 762.738 724.993C762.601 725.051 762.452 725.062 762.31 725.024Z" fill="white"/>
</g>
<g filter="url(#filter18_d_373_396)">
<path d="M928.582 879.309C928.564 879.153 928.592 878.995 928.661 878.856C928.73 878.717 928.838 878.605 928.97 878.535L931.663 877.079L932.354 873.926C932.388 873.774 932.465 873.636 932.574 873.532C932.683 873.428 932.82 873.363 932.964 873.344C933.109 873.326 933.256 873.356 933.385 873.43C933.513 873.503 933.618 873.618 933.684 873.757L935.039 876.655L937.972 877.395C938.114 877.432 938.242 877.514 938.339 877.632C938.435 877.749 938.496 877.895 938.514 878.051C938.531 878.207 938.503 878.364 938.434 878.503C938.366 878.641 938.259 878.753 938.129 878.825L935.434 880.281L934.745 883.434C934.711 883.587 934.634 883.724 934.525 883.828C934.416 883.932 934.279 883.997 934.135 884.016C933.99 884.034 933.843 884.004 933.714 883.931C933.586 883.857 933.481 883.742 933.415 883.603L932.06 880.705L929.126 879.965C928.984 879.93 928.854 879.848 928.757 879.731C928.659 879.613 928.598 879.466 928.582 879.309Z" fill="white"/>
</g>
<g filter="url(#filter19_d_373_396)">
<path d="M809.071 877.662C809.053 877.506 809.08 877.348 809.149 877.209C809.219 877.07 809.327 876.958 809.458 876.888L812.151 875.432L812.842 872.279C812.877 872.127 812.954 871.989 813.063 871.885C813.172 871.781 813.308 871.716 813.453 871.697C813.598 871.679 813.744 871.709 813.873 871.783C814.002 871.856 814.106 871.971 814.173 872.11L815.528 875.008L818.461 875.748C818.603 875.785 818.731 875.867 818.827 875.985C818.924 876.102 818.985 876.249 819.002 876.404C819.019 876.56 818.991 876.717 818.923 876.856C818.854 876.994 818.748 877.106 818.618 877.178L815.922 878.634L815.234 881.787C815.199 881.94 815.122 882.077 815.013 882.181C814.904 882.285 814.768 882.351 814.623 882.369C814.478 882.387 814.332 882.357 814.203 882.284C814.074 882.21 813.97 882.095 813.903 881.956L812.548 879.058L809.615 878.318C809.472 878.283 809.343 878.201 809.245 878.084C809.148 877.966 809.087 877.819 809.071 877.662Z" fill="white"/>
</g>
<g filter="url(#filter20_d_373_396)">
<path d="M955.07 779.066C954.927 779.03 954.798 778.948 954.701 778.83C954.604 778.712 954.543 778.565 954.527 778.408L954.184 775.189L951.669 773.404C951.548 773.317 951.454 773.192 951.401 773.046C951.348 772.9 951.338 772.74 951.372 772.588C951.405 772.435 951.482 772.298 951.591 772.193C951.7 772.089 951.836 772.023 951.98 772.004L954.978 771.636L956.636 768.931C956.717 768.801 956.833 768.701 956.969 768.644C957.105 768.586 957.254 768.575 957.395 768.612C957.537 768.648 957.665 768.731 957.762 768.848C957.86 768.965 957.921 769.111 957.939 769.266L958.281 772.488L960.797 774.27C960.918 774.357 961.012 774.482 961.065 774.628C961.118 774.774 961.128 774.934 961.094 775.087C961.06 775.239 960.984 775.377 960.875 775.481C960.766 775.586 960.63 775.652 960.486 775.671L957.488 776.039L955.83 778.743C955.75 778.875 955.634 778.977 955.498 779.035C955.362 779.093 955.212 779.104 955.07 779.066Z" fill="white"/>
</g>
<g filter="url(#filter21_d_373_396)">
<path d="M912.424 899.079C912.281 899.044 912.152 898.961 912.055 898.844C911.958 898.726 911.897 898.578 911.881 898.422L911.538 895.202L909.023 893.418C908.902 893.331 908.808 893.206 908.755 893.06C908.702 892.914 908.692 892.754 908.726 892.601C908.759 892.449 908.836 892.311 908.945 892.207C909.054 892.102 909.19 892.036 909.334 892.017L912.332 891.649L913.99 888.945C914.071 888.815 914.187 888.714 914.323 888.657C914.459 888.6 914.608 888.589 914.749 888.625C914.891 888.662 915.019 888.744 915.116 888.861C915.214 888.978 915.275 889.124 915.293 889.28L915.635 892.502L918.151 894.283C918.272 894.371 918.366 894.496 918.419 894.642C918.472 894.788 918.482 894.948 918.448 895.1C918.414 895.253 918.338 895.39 918.229 895.495C918.12 895.599 917.984 895.665 917.84 895.684L914.842 896.052L913.184 898.756C913.104 898.889 912.988 898.991 912.852 899.048C912.716 899.106 912.566 899.117 912.424 899.079Z" fill="white"/>
</g>
<g filter="url(#filter22_d_373_396)">
<path d="M78.7172 559.175C78.7317 559.018 78.7912 558.87 78.8875 558.752C78.9839 558.633 79.1122 558.549 79.2547 558.513L82.1813 557.736L83.5069 554.827C83.5719 554.686 83.6754 554.571 83.8033 554.495C83.9312 554.42 84.0775 554.389 84.2226 554.405C84.3676 554.422 84.5044 554.486 84.6146 554.589C84.7248 554.692 84.8031 554.828 84.839 554.98L85.5614 558.129L88.2684 559.55C88.399 559.62 88.5065 559.732 88.5766 559.869C88.6466 560.007 88.6758 560.164 88.6603 560.32C88.6448 560.476 88.5852 560.623 88.4897 560.741C88.3941 560.86 88.2671 560.944 88.1257 560.982L85.1965 561.759L83.8736 564.668C83.8085 564.809 83.7051 564.924 83.5772 565C83.4493 565.075 83.303 565.106 83.1579 565.09C83.0129 565.073 82.8761 565.009 82.7659 564.906C82.6557 564.804 82.5774 564.667 82.5415 564.515L81.8191 561.367L79.1121 559.945C78.98 559.876 78.871 559.766 78.8003 559.628C78.7295 559.49 78.7005 559.331 78.7172 559.175Z" fill="white"/>
</g>
<g filter="url(#filter23_d_373_396)">
<path d="M125.261 467.761C125.129 467.692 125.02 467.581 124.95 467.443C124.879 467.305 124.851 467.147 124.868 466.99L125.198 463.769L123.115 461.429C123.015 461.315 122.949 461.171 122.928 461.016C122.906 460.861 122.929 460.702 122.994 460.562C123.058 460.421 123.161 460.305 123.289 460.229C123.417 460.154 123.563 460.122 123.708 460.138L126.707 460.495L128.882 458.254C128.988 458.146 129.122 458.076 129.266 458.052C129.411 458.029 129.558 458.054 129.689 458.123C129.82 458.193 129.927 458.304 129.998 458.441C130.068 458.578 130.098 458.735 130.083 458.891L129.751 462.114L131.836 464.452C131.936 464.566 132.001 464.711 132.023 464.866C132.045 465.021 132.022 465.179 131.957 465.32C131.893 465.46 131.789 465.576 131.662 465.652C131.534 465.728 131.388 465.76 131.243 465.744L128.244 465.387L126.069 467.628C125.964 467.737 125.829 467.809 125.685 467.833C125.54 467.857 125.392 467.832 125.261 467.761Z" fill="white"/>
</g>
<g filter="url(#filter24_d_373_396)">
<path d="M189.108 764.725C189.122 764.569 189.182 764.421 189.278 764.302C189.374 764.183 189.503 764.1 189.645 764.063L192.572 763.286L193.897 760.377C193.962 760.237 194.066 760.121 194.194 760.046C194.322 759.971 194.468 759.939 194.613 759.956C194.758 759.973 194.895 760.037 195.005 760.139C195.115 760.242 195.193 760.378 195.229 760.53L195.952 763.679L198.659 765.101C198.789 765.171 198.897 765.282 198.967 765.419C199.037 765.557 199.066 765.714 199.051 765.87C199.035 766.026 198.976 766.173 198.88 766.291C198.784 766.41 198.658 766.494 198.516 766.533L195.587 767.309L194.264 770.219C194.199 770.359 194.096 770.475 193.968 770.55C193.84 770.625 193.693 770.657 193.548 770.64C193.403 770.623 193.266 770.559 193.156 770.457C193.046 770.354 192.968 770.217 192.932 770.066L192.21 766.917L189.502 765.495C189.37 765.427 189.261 765.316 189.191 765.178C189.12 765.04 189.091 764.882 189.108 764.725Z" fill="white"/>
</g>
<g filter="url(#filter25_d_373_396)">
<path d="M72.9228 734.583C72.9372 734.426 72.9968 734.278 73.0931 734.159C73.1895 734.041 73.3178 733.957 73.4603 733.921L76.3869 733.144L77.7125 730.234C77.7775 730.094 77.881 729.978 78.0089 729.903C78.1368 729.828 78.2831 729.796 78.4281 729.813C78.5732 729.83 78.71 729.894 78.8202 729.997C78.9304 730.099 79.0087 730.236 79.0446 730.388L79.7669 733.536L82.474 734.958C82.6046 735.028 82.7121 735.139 82.7821 735.277C82.8522 735.414 82.8814 735.572 82.8659 735.727C82.8503 735.883 82.7908 736.03 82.6952 736.149C82.5997 736.267 82.4727 736.351 82.3313 736.39L79.4021 737.166L78.0792 740.076C78.0141 740.217 77.9107 740.332 77.7828 740.407C77.6548 740.483 77.5085 740.514 77.3635 740.497C77.2185 740.481 77.0817 740.417 76.9715 740.314C76.8613 740.211 76.783 740.075 76.7471 739.923L76.0247 736.774L73.3177 735.352C73.1856 735.284 73.0766 735.173 73.0058 735.035C72.9351 734.897 72.906 734.739 72.9228 734.583Z" fill="white"/>
</g>
<g filter="url(#filter26_d_373_396)">
<path d="M352.3 720.393C352.314 720.236 352.374 720.088 352.47 719.97C352.566 719.851 352.695 719.767 352.837 719.731L355.764 718.954L357.089 716.045C357.155 715.904 357.258 715.789 357.386 715.713C357.514 715.638 357.66 715.607 357.805 715.623C357.95 715.64 358.087 715.704 358.197 715.807C358.307 715.909 358.386 716.046 358.422 716.198L359.144 719.346L361.851 720.768C361.982 720.838 362.089 720.949 362.159 721.087C362.229 721.224 362.258 721.382 362.243 721.538C362.227 721.693 362.168 721.841 362.072 721.959C361.977 722.077 361.85 722.162 361.708 722.2L358.779 722.977L357.456 725.886C357.391 726.027 357.288 726.142 357.16 726.218C357.032 726.293 356.886 726.324 356.74 726.308C356.595 726.291 356.459 726.227 356.348 726.124C356.238 726.021 356.16 725.885 356.124 725.733L355.402 722.584L352.695 721.162C352.563 721.094 352.454 720.983 352.383 720.846C352.312 720.708 352.283 720.549 352.3 720.393Z" fill="white"/>
</g>
<g filter="url(#filter27_d_373_396)">
<path d="M332.459 735.81C332.327 735.742 332.219 735.631 332.148 735.493C332.078 735.354 332.049 735.196 332.066 735.04L332.397 731.819L330.313 729.479C330.213 729.365 330.148 729.22 330.126 729.065C330.104 728.91 330.128 728.752 330.192 728.611C330.257 728.471 330.36 728.355 330.487 728.279C330.615 728.203 330.761 728.171 330.906 728.187L333.905 728.544L336.08 726.303C336.186 726.196 336.321 726.125 336.465 726.102C336.609 726.079 336.756 726.104 336.887 726.173C337.018 726.242 337.126 726.353 337.196 726.491C337.267 726.628 337.297 726.785 337.281 726.941L336.95 730.164L339.034 732.502C339.135 732.616 339.2 732.76 339.221 732.915C339.243 733.07 339.22 733.229 339.156 733.369C339.091 733.51 338.988 733.626 338.86 733.702C338.733 733.777 338.586 733.809 338.441 733.793L335.443 733.436L333.267 735.677C333.162 735.787 333.028 735.859 332.883 735.883C332.738 735.907 332.59 735.881 332.459 735.81Z" fill="white"/>
</g>
<g filter="url(#filter28_d_373_396)">
<path d="M346.505 895.801C346.52 895.644 346.579 895.496 346.676 895.377C346.772 895.258 346.901 895.175 347.043 895.138L349.97 894.362L351.295 891.452C351.36 891.312 351.464 891.196 351.592 891.121C351.72 891.046 351.866 891.014 352.011 891.031C352.156 891.048 352.293 891.112 352.403 891.214C352.513 891.317 352.591 891.454 352.627 891.605L353.35 894.754L356.057 896.176C356.187 896.246 356.295 896.357 356.365 896.495C356.435 896.632 356.464 896.789 356.449 896.945C356.433 897.101 356.374 897.248 356.278 897.367C356.182 897.485 356.055 897.569 355.914 897.608L352.985 898.384L351.662 901.294C351.597 901.434 351.493 901.55 351.365 901.625C351.238 901.7 351.091 901.732 350.946 901.715C350.801 901.698 350.664 901.634 350.554 901.532C350.444 901.429 350.366 901.293 350.33 901.141L349.607 897.992L346.9 896.57C346.768 896.502 346.659 896.391 346.589 896.253C346.518 896.115 346.489 895.957 346.505 895.801Z" fill="white"/>
</g>
<g filter="url(#filter29_d_373_396)">
<path d="M1090.53 240.967C1090.55 240.811 1090.61 240.663 1090.7 240.544C1090.8 240.425 1090.93 240.342 1091.07 240.305L1094 239.528L1095.32 236.619C1095.39 236.479 1095.49 236.363 1095.62 236.288C1095.75 236.212 1095.89 236.181 1096.04 236.198C1096.18 236.214 1096.32 236.278 1096.43 236.381C1096.54 236.484 1096.62 236.62 1096.65 236.772L1097.38 239.921L1100.08 241.343C1100.21 241.413 1100.32 241.524 1100.39 241.661C1100.46 241.799 1100.49 241.956 1100.48 242.112C1100.46 242.268 1100.4 242.415 1100.3 242.533C1100.21 242.652 1100.08 242.736 1099.94 242.775L1097.01 243.551L1095.69 246.461C1095.62 246.601 1095.52 246.717 1095.39 246.792C1095.26 246.867 1095.12 246.899 1094.97 246.882C1094.83 246.865 1094.69 246.801 1094.58 246.699C1094.47 246.596 1094.39 246.459 1094.36 246.307L1093.63 243.159L1090.93 241.737C1090.8 241.669 1090.69 241.558 1090.62 241.42C1090.54 241.282 1090.52 241.124 1090.53 240.967Z" fill="white"/>
</g>
<g filter="url(#filter30_d_373_396)">
<path d="M1186.88 286.528C1186.74 286.459 1186.64 286.348 1186.57 286.21C1186.5 286.072 1186.47 285.913 1186.48 285.757L1186.81 282.536L1184.73 280.196C1184.63 280.082 1184.57 279.937 1184.54 279.782C1184.52 279.627 1184.54 279.469 1184.61 279.328C1184.67 279.188 1184.78 279.072 1184.9 278.996C1185.03 278.92 1185.18 278.888 1185.32 278.905L1188.32 279.261L1190.5 277.02C1190.6 276.913 1190.74 276.843 1190.88 276.819C1191.03 276.796 1191.17 276.821 1191.3 276.89C1191.44 276.96 1191.54 277.07 1191.61 277.208C1191.68 277.345 1191.71 277.502 1191.7 277.658L1191.37 280.881L1193.45 283.219C1193.55 283.333 1193.62 283.477 1193.64 283.632C1193.66 283.788 1193.64 283.946 1193.57 284.087C1193.51 284.227 1193.41 284.343 1193.28 284.419C1193.15 284.495 1193 284.527 1192.86 284.51L1189.86 284.154L1187.68 286.395C1187.58 286.504 1187.45 286.576 1187.3 286.6C1187.16 286.624 1187.01 286.598 1186.88 286.528Z" fill="white"/>
</g>
<g filter="url(#filter31_d_373_396)">
<path d="M1317.11 476.66C1317.12 476.504 1317.18 476.356 1317.28 476.237C1317.37 476.118 1317.5 476.035 1317.65 475.998L1320.57 475.222L1321.9 472.312C1321.96 472.172 1322.07 472.056 1322.19 471.981C1322.32 471.906 1322.47 471.874 1322.61 471.891C1322.76 471.908 1322.89 471.972 1323 472.074C1323.12 472.177 1323.19 472.313 1323.23 472.465L1323.95 475.614L1326.66 477.036C1326.79 477.106 1326.9 477.217 1326.97 477.355C1327.04 477.492 1327.07 477.649 1327.05 477.805C1327.04 477.961 1326.98 478.108 1326.88 478.227C1326.78 478.345 1326.66 478.429 1326.52 478.468L1323.59 479.244L1322.26 482.154C1322.2 482.294 1322.1 482.41 1321.97 482.485C1321.84 482.56 1321.69 482.592 1321.55 482.575C1321.4 482.558 1321.27 482.494 1321.16 482.392C1321.05 482.289 1320.97 482.153 1320.93 482.001L1320.21 478.852L1317.5 477.43C1317.37 477.362 1317.26 477.251 1317.19 477.113C1317.12 476.975 1317.09 476.817 1317.11 476.66Z" fill="white"/>
</g>
<g filter="url(#filter32_d_373_396)">
<path d="M1200.92 446.518C1200.94 446.361 1201 446.213 1201.09 446.094C1201.19 445.976 1201.32 445.892 1201.46 445.855L1204.39 445.079L1205.71 442.169C1205.78 442.029 1205.88 441.913 1206.01 441.838C1206.14 441.763 1206.28 441.731 1206.43 441.748C1206.57 441.765 1206.71 441.829 1206.82 441.931C1206.93 442.034 1207.01 442.171 1207.04 442.323L1207.77 445.471L1210.47 446.893C1210.6 446.963 1210.71 447.074 1210.78 447.212C1210.85 447.349 1210.88 447.506 1210.87 447.662C1210.85 447.818 1210.79 447.965 1210.7 448.084C1210.6 448.202 1210.47 448.286 1210.33 448.325L1207.4 449.101L1206.08 452.011C1206.01 452.151 1205.91 452.267 1205.78 452.342C1205.65 452.418 1205.51 452.449 1205.36 452.432C1205.22 452.416 1205.08 452.352 1204.97 452.249C1204.86 452.146 1204.78 452.01 1204.75 451.858L1204.02 448.709L1201.32 447.287C1201.19 447.219 1201.08 447.108 1201.01 446.97C1200.94 446.832 1200.91 446.674 1200.92 446.518Z" fill="white"/>
</g>
<g filter="url(#filter33_d_373_396)">
<path d="M1297.27 492.078C1297.13 492.01 1297.03 491.898 1296.96 491.76C1296.89 491.622 1296.86 491.464 1296.87 491.307L1297.2 488.087L1295.12 485.746C1295.02 485.632 1294.96 485.488 1294.93 485.333C1294.91 485.178 1294.94 485.019 1295 484.879C1295.06 484.738 1295.17 484.622 1295.3 484.547C1295.42 484.471 1295.57 484.439 1295.71 484.455L1298.71 484.812L1300.89 482.571C1300.99 482.463 1301.13 482.393 1301.27 482.37C1301.42 482.347 1301.56 482.371 1301.69 482.441C1301.83 482.51 1301.93 482.621 1302 482.758C1302.07 482.895 1302.1 483.053 1302.09 483.209L1301.76 486.432L1303.84 488.77C1303.94 488.884 1304.01 489.028 1304.03 489.183C1304.05 489.338 1304.03 489.497 1303.96 489.637C1303.9 489.778 1303.8 489.894 1303.67 489.969C1303.54 490.045 1303.39 490.077 1303.25 490.061L1300.25 489.704L1298.07 491.945C1297.97 492.055 1297.84 492.127 1297.69 492.15C1297.55 492.174 1297.4 492.149 1297.27 492.078Z" fill="white"/>
</g>
<g filter="url(#filter34_d_373_396)">
<path d="M994.643 834.782C994.581 834.639 994.562 834.479 994.588 834.324C994.615 834.17 994.685 834.027 994.79 833.917L996.936 831.641L996.69 828.412C996.679 828.256 996.713 828.1 996.787 827.965C996.862 827.83 996.972 827.722 997.105 827.657C997.237 827.592 997.385 827.571 997.529 827.599C997.673 827.627 997.805 827.701 997.908 827.812L1000.03 830.12L1003.03 829.854C1003.18 829.842 1003.32 829.879 1003.45 829.958C1003.57 830.038 1003.67 830.157 1003.73 830.3C1003.79 830.442 1003.81 830.601 1003.79 830.756C1003.76 830.91 1003.69 831.052 1003.59 831.163L1001.44 833.44L1001.69 836.668C1001.7 836.824 1001.67 836.981 1001.59 837.116C1001.52 837.251 1001.41 837.358 1001.27 837.423C1001.14 837.489 1000.99 837.509 1000.85 837.481C1000.71 837.454 1000.57 837.379 1000.47 837.268L998.352 834.96L995.349 835.226C995.203 835.24 995.057 835.205 994.93 835.125C994.804 835.046 994.704 834.926 994.643 834.782Z" fill="white"/>
</g>
<g filter="url(#filter35_d_373_396)">
<path d="M991.143 730.642C990.997 730.655 990.851 730.619 990.724 730.54C990.598 730.46 990.498 730.339 990.438 730.195L989.19 727.246L986.286 726.38C986.146 726.337 986.021 726.249 985.929 726.128C985.836 726.007 985.781 725.858 985.769 725.701C985.758 725.545 985.791 725.389 985.865 725.254C985.939 725.118 986.049 725.01 986.181 724.945L988.928 723.603L989.731 720.481C989.771 720.33 989.853 720.196 989.966 720.097C990.079 719.998 990.217 719.938 990.362 719.926C990.508 719.914 990.653 719.949 990.779 720.029C990.905 720.108 991.005 720.227 991.067 720.369L992.315 723.321L995.219 724.184C995.359 724.227 995.484 724.315 995.576 724.436C995.669 724.558 995.724 724.706 995.736 724.863C995.747 725.019 995.714 725.175 995.64 725.311C995.566 725.446 995.456 725.554 995.324 725.62L992.577 726.962L991.774 730.083C991.736 730.235 991.655 730.371 991.542 730.471C991.428 730.571 991.289 730.631 991.143 730.642Z" fill="white"/>
</g>
<g filter="url(#filter36_d_373_396)">
<path d="M984.93 858.937C984.784 858.951 984.638 858.915 984.511 858.835C984.385 858.755 984.285 858.635 984.226 858.491L982.977 855.542L980.073 854.676C979.933 854.633 979.808 854.545 979.716 854.424C979.623 854.302 979.568 854.154 979.556 853.997C979.545 853.841 979.578 853.685 979.652 853.549C979.726 853.414 979.836 853.306 979.969 853.24L982.715 851.899L983.518 848.777C983.558 848.626 983.64 848.492 983.753 848.393C983.866 848.294 984.004 848.234 984.149 848.222C984.295 848.209 984.44 848.245 984.566 848.324C984.692 848.404 984.792 848.522 984.854 848.665L986.102 851.617L989.006 852.48C989.146 852.523 989.271 852.611 989.363 852.732C989.456 852.853 989.511 853.002 989.523 853.159C989.534 853.315 989.501 853.471 989.427 853.606C989.353 853.742 989.243 853.85 989.111 853.915L986.364 855.257L985.561 858.379C985.523 858.531 985.442 858.666 985.329 858.767C985.215 858.867 985.076 858.926 984.93 858.937Z" fill="white"/>
</g>
<path d="M1164.38 178.504C1120.88 241.004 888.152 394.05 814.878 302.004C734.874 201.504 943.378 83.004 931.878 274.004C918.355 498.605 276.874 248.504 322.881 494.004" stroke="white" stroke-opacity="0.5" stroke-width="4" stroke-linecap="round" stroke-dasharray="10 10"/>
<path d="M1173.87 148.252L1177.51 149.424C1177.83 148.48 1178.18 147.565 1178.54 146.681C1178.9 145.797 1179.31 144.907 1179.76 144.013L1177.2 143.78L1173.87 148.252ZM1180.61 151.485L1186.25 156.305C1187.45 155.645 1188.71 154.704 1190.03 153.48C1191.35 152.256 1192.56 150.899 1193.68 149.408C1195.53 146.924 1196.91 144.245 1197.8 141.373C1198.7 138.501 1198.95 135.921 1198.57 133.635C1196.41 133.728 1194.12 134.558 1191.69 136.124C1189.26 137.69 1187.12 139.714 1185.26 142.198C1184.15 143.688 1183.18 145.259 1182.36 146.91C1181.53 148.561 1180.95 150.086 1180.61 151.485ZM1188.24 147.429C1187.48 146.774 1187.04 145.912 1186.93 144.841C1186.82 143.771 1187.07 142.826 1187.68 142.009C1188.29 141.193 1189.1 140.725 1190.11 140.605C1191.12 140.486 1192.01 140.753 1192.77 141.408C1193.53 142.063 1193.96 142.926 1194.07 143.998C1194.18 145.07 1193.93 146.013 1193.32 146.828C1192.71 147.645 1191.9 148.113 1190.89 148.232C1189.88 148.351 1189 148.084 1188.24 147.429ZM1190.66 162.727L1193.99 158.255L1193.23 155.626C1192.51 156.293 1191.79 156.904 1191.07 157.458C1190.34 158.013 1189.58 158.564 1188.8 159.111L1190.66 162.727ZM1201.42 129.754C1202.38 133.557 1202.42 137.364 1201.53 141.175C1200.64 144.987 1198.82 148.737 1196.06 152.426L1197.44 157.071C1197.63 157.696 1197.66 158.323 1197.54 158.952C1197.43 159.581 1197.18 160.144 1196.81 160.64L1190.14 169.584L1185.42 160.577L1176.95 153.276L1167.75 150.285L1174.38 141.347C1174.75 140.85 1175.22 140.471 1175.78 140.211C1176.34 139.95 1176.92 139.849 1177.53 139.907L1182.05 140.344C1184.8 136.653 1187.8 133.92 1191.05 132.144C1194.31 130.368 1197.76 129.572 1201.42 129.754ZM1171.95 160.032C1172.88 158.79 1174.1 158.072 1175.6 157.88C1177.1 157.687 1178.43 158.088 1179.58 159.083C1180.74 160.079 1181.39 161.386 1181.54 163.003C1181.69 164.62 1181.3 166.05 1180.37 167.291C1179.71 168.178 1178.54 169.012 1176.86 169.793C1175.18 170.574 1172.83 171.37 1169.81 172.18C1169.89 168.837 1170.1 166.198 1170.45 164.263C1170.79 162.329 1171.29 160.918 1171.95 160.032ZM1174.77 162.418C1174.51 162.773 1174.27 163.392 1174.06 164.275C1173.85 165.158 1173.73 166.038 1173.7 166.914C1174.49 166.691 1175.26 166.381 1176.02 165.984C1176.78 165.586 1177.29 165.21 1177.55 164.857C1177.87 164.431 1178.02 163.945 1177.99 163.397C1177.96 162.85 1177.75 162.406 1177.36 162.064C1176.96 161.723 1176.51 161.59 1176.01 161.665C1175.5 161.74 1175.09 161.991 1174.77 162.418Z" fill="#FF8900"/>
<defs>
<filter id="filter0_d_373_396" x="452.49" y="461.318" width="30" height="30.7454" filterUnits="userSpaceOnUse" color-interpolation-filters="sRGB">
<feFlood flood-opacity="0" result="BackgroundImageFix"/>
<feColorMatrix in="SourceAlpha" type="matrix" values="0 0 0 0 0 0 0 0 0 0 0 0 0 0 0 0 0 0 127 0" result="hardAlpha"/>
<feOffset/>
<feGaussianBlur stdDeviation="5"/>
<feComposite in2="hardAlpha" operator="out"/>
<feColorMatrix type="matrix" values="0 0 0 0 1 0 0 0 0 1 0 0 0 0 1 0 0 0 1 0"/>
<feBlend mode="normal" in2="BackgroundImageFix" result="effect1_dropShadow_373_396"/>
<feBlend mode="normal" in="SourceGraphic" in2="effect1_dropShadow_373_396" result="shape"/>
</filter>
<filter id="filter1_d_373_396" x="418.808" y="562.865" width="29.4715" height="30.1852" filterUnits="userSpaceOnUse" color-interpolation-filters="sRGB">
<feFlood flood-opacity="0" result="BackgroundImageFix"/>
<feColorMatrix in="SourceAlpha" type="matrix" values="0 0 0 0 0 0 0 0 0 0 0 0 0 0 0 0 0 0 127 0" result="hardAlpha"/>
<feOffset/>
<feGaussianBlur stdDeviation="5"/>
<feComposite in2="hardAlpha" operator="out"/>
<feColorMatrix type="matrix" values="0 0 0 0 1 0 0 0 0 1 0 0 0 0 1 0 0 0 1 0"/>
<feBlend mode="normal" in2="BackgroundImageFix" result="effect1_dropShadow_373_396"/>
<feBlend mode="normal" in="SourceGraphic" in2="effect1_dropShadow_373_396" result="shape"/>
</filter>
<filter id="filter2_d_373_396" x="322.362" y="269.573" width="30" height="30.7454" filterUnits="userSpaceOnUse" color-interpolation-filters="sRGB">
<feFlood flood-opacity="0" result="BackgroundImageFix"/>
<feColorMatrix in="SourceAlpha" type="matrix" values="0 0 0 0 0 0 0 0 0 0 0 0 0 0 0 0 0 0 127 0" result="hardAlpha"/>
<feOffset/>
<feGaussianBlur stdDeviation="5"/>
<feComposite in2="hardAlpha" operator="out"/>
<feColorMatrix type="matrix" values="0 0 0 0 1 0 0 0 0 1 0 0 0 0 1 0 0 0 1 0"/>
<feBlend mode="normal" in2="BackgroundImageFix" result="effect1_dropShadow_373_396"/>
<feBlend mode="normal" in="SourceGraphic" in2="effect1_dropShadow_373_396" result="shape"/>
</filter>
<filter id="filter3_d_373_396" x="288.68" y="371.119" width="29.4715" height="30.1852" filterUnits="userSpaceOnUse" color-interpolation-filters="sRGB">
<feFlood flood-opacity="0" result="BackgroundImageFix"/>
<feColorMatrix in="SourceAlpha" type="matrix" values="0 0 0 0 0 0 0 0 0 0 0 0 0 0 0 0 0 0 127 0" result="hardAlpha"/>
<feOffset/>
<feGaussianBlur stdDeviation="5"/>
<feComposite in2="hardAlpha" operator="out"/>
<feColorMatrix type="matrix" values="0 0 0 0 1 0 0 0 0 1 0 0 0 0 1 0 0 0 1 0"/>
<feBlend mode="normal" in2="BackgroundImageFix" result="effect1_dropShadow_373_396"/>
<feBlend mode="normal" in="SourceGraphic" in2="effect1_dropShadow_373_396" result="shape"/>
</filter>
<filter id="filter4_d_373_396" x="344.102" y="257.296" width="29.4715" height="30.1852" filterUnits="userSpaceOnUse" color-interpolation-filters="sRGB">
<feFlood flood-opacity="0" result="BackgroundImageFix"/>
<feColorMatrix in="SourceAlpha" type="matrix" values="0 0 0 0 0 0 0 0 0 0 0 0 0 0 0 0 0 0 127 0" result="hardAlpha"/>
<feOffset/>
<feGaussianBlur stdDeviation="5"/>
<feComposite in2="hardAlpha" operator="out"/>
<feColorMatrix type="matrix" values="0 0 0 0 1 0 0 0 0 1 0 0 0 0 1 0 0 0 1 0"/>
<feBlend mode="normal" in2="BackgroundImageFix" result="effect1_dropShadow_373_396"/>
<feBlend mode="normal" in="SourceGraphic" in2="effect1_dropShadow_373_396" result="shape"/>
</filter>
<filter id="filter5_d_373_396" x="1018" y="157.679" width="30" height="30.7454" filterUnits="userSpaceOnUse" color-interpolation-filters="sRGB">
<feFlood flood-opacity="0" result="BackgroundImageFix"/>
<feColorMatrix in="SourceAlpha" type="matrix" values="0 0 0 0 0 0 0 0 0 0 0 0 0 0 0 0 0 0 127 0" result="hardAlpha"/>
<feOffset/>
<feGaussianBlur stdDeviation="5"/>
<feComposite in2="hardAlpha" operator="out"/>
<feColorMatrix type="matrix" values="0 0 0 0 1 0 0 0 0 1 0 0 0 0 1 0 0 0 1 0"/>
<feBlend mode="normal" in2="BackgroundImageFix" result="effect1_dropShadow_373_396"/>
<feBlend mode="normal" in="SourceGraphic" in2="effect1_dropShadow_373_396" result="shape"/>
</filter>
<filter id="filter6_d_373_396" x="152.872" y="157.261" width="30" height="30.7454" filterUnits="userSpaceOnUse" color-interpolation-filters="sRGB">
<feFlood flood-opacity="0" result="BackgroundImageFix"/>
<feColorMatrix in="SourceAlpha" type="matrix" values="0 0 0 0 0 0 0 0 0 0 0 0 0 0 0 0 0 0 127 0" result="hardAlpha"/>
<feOffset/>
<feGaussianBlur stdDeviation="5"/>
<feComposite in2="hardAlpha" operator="out"/>
<feColorMatrix type="matrix" values="0 0 0 0 1 0 0 0 0 1 0 0 0 0 1 0 0 0 1 0"/>
<feBlend mode="normal" in2="BackgroundImageFix" result="effect1_dropShadow_373_396"/>
<feBlend mode="normal" in="SourceGraphic" in2="effect1_dropShadow_373_396" result="shape"/>
</filter>
<filter id="filter7_d_373_396" x="0.679672" y="242.135" width="29.4715" height="30.1852" filterUnits="userSpaceOnUse" color-interpolation-filters="sRGB">
<feFlood flood-opacity="0" result="BackgroundImageFix"/>
<feColorMatrix in="SourceAlpha" type="matrix" values="0 0 0 0 0 0 0 0 0 0 0 0 0 0 0 0 0 0 127 0" result="hardAlpha"/>
<feOffset/>
<feGaussianBlur stdDeviation="5"/>
<feComposite in2="hardAlpha" operator="out"/>
<feColorMatrix type="matrix" values="0 0 0 0 1 0 0 0 0 1 0 0 0 0 1 0 0 0 1 0"/>
<feBlend mode="normal" in2="BackgroundImageFix" result="effect1_dropShadow_373_396"/>
<feBlend mode="normal" in="SourceGraphic" in2="effect1_dropShadow_373_396" result="shape"/>
</filter>
<filter id="filter8_d_373_396" x="955.859" y="608.921" width="29.7868" height="30.5154" filterUnits="userSpaceOnUse" color-interpolation-filters="sRGB">
<feFlood flood-opacity="0" result="BackgroundImageFix"/>
<feColorMatrix in="SourceAlpha" type="matrix" values="0 0 0 0 0 0 0 0 0 0 0 0 0 0 0 0 0 0 127 0" result="hardAlpha"/>
<feOffset/>
<feGaussianBlur stdDeviation="5"/>
<feComposite in2="hardAlpha" operator="out"/>
<feColorMatrix type="matrix" values="0 0 0 0 1 0 0 0 0 1 0 0 0 0 1 0 0 0 1 0"/>
<feBlend mode="normal" in2="BackgroundImageFix" result="effect1_dropShadow_373_396"/>
<feBlend mode="normal" in="SourceGraphic" in2="effect1_dropShadow_373_396" result="shape"/>
</filter>
<filter id="filter9_d_373_396" x="867.875" y="557.879" width="28.6143" height="29.2635" filterUnits="userSpaceOnUse" color-interpolation-filters="sRGB">
<feFlood flood-opacity="0" result="BackgroundImageFix"/>
<feColorMatrix in="SourceAlpha" type="matrix" values="0 0 0 0 0 0 0 0 0 0 0 0 0 0 0 0 0 0 127 0" result="hardAlpha"/>
<feOffset/>
<feGaussianBlur stdDeviation="5"/>
<feComposite in2="hardAlpha" operator="out"/>
<feColorMatrix type="matrix" values="0 0 0 0 1 0 0 0 0 1 0 0 0 0 1 0 0 0 1 0"/>
<feBlend mode="normal" in2="BackgroundImageFix" result="effect1_dropShadow_373_396"/>
<feBlend mode="normal" in="SourceGraphic" in2="effect1_dropShadow_373_396" result="shape"/>
</filter>
<filter id="filter10_d_373_396" x="703.066" y="437.598" width="28.6143" height="29.2635" filterUnits="userSpaceOnUse" color-interpolation-filters="sRGB">
<feFlood flood-opacity="0" result="BackgroundImageFix"/>
<feColorMatrix in="SourceAlpha" type="matrix" values="0 0 0 0 0 0 0 0 0 0 0 0 0 0 0 0 0 0 127 0" result="hardAlpha"/>
<feOffset/>
<feGaussianBlur stdDeviation="5"/>
<feComposite in2="hardAlpha" operator="out"/>
<feColorMatrix type="matrix" values="0 0 0 0 1 0 0 0 0 1 0 0 0 0 1 0 0 0 1 0"/>
<feBlend mode="normal" in2="BackgroundImageFix" result="effect1_dropShadow_373_396"/>
<feBlend mode="normal" in="SourceGraphic" in2="effect1_dropShadow_373_396" result="shape"/>
</filter>
<filter id="filter11_d_373_396" x="536.168" y="461.094" width="28.6143" height="29.2635" filterUnits="userSpaceOnUse" color-interpolation-filters="sRGB">
<feFlood flood-opacity="0" result="BackgroundImageFix"/>
<feColorMatrix in="SourceAlpha" type="matrix" values="0 0 0 0 0 0 0 0 0 0 0 0 0 0 0 0 0 0 127 0" result="hardAlpha"/>
<feOffset/>
<feGaussianBlur stdDeviation="5"/>
<feComposite in2="hardAlpha" operator="out"/>
<feColorMatrix type="matrix" values="0 0 0 0 1 0 0 0 0 1 0 0 0 0 1 0 0 0 1 0"/>
<feBlend mode="normal" in2="BackgroundImageFix" result="effect1_dropShadow_373_396"/>
<feBlend mode="normal" in="SourceGraphic" in2="effect1_dropShadow_373_396" result="shape"/>
</filter>
<filter id="filter12_d_373_396" x="614.465" y="196.365" width="29.7868" height="30.5154" filterUnits="userSpaceOnUse" color-interpolation-filters="sRGB">
<feFlood flood-opacity="0" result="BackgroundImageFix"/>
<feColorMatrix in="SourceAlpha" type="matrix" values="0 0 0 0 0 0 0 0 0 0 0 0 0 0 0 0 0 0 127 0" result="hardAlpha"/>
<feOffset/>
<feGaussianBlur stdDeviation="5"/>
<feComposite in2="hardAlpha" operator="out"/>
<feColorMatrix type="matrix" values="0 0 0 0 1 0 0 0 0 1 0 0 0 0 1 0 0 0 1 0"/>
<feBlend mode="normal" in2="BackgroundImageFix" result="effect1_dropShadow_373_396"/>
<feBlend mode="normal" in="SourceGraphic" in2="effect1_dropShadow_373_396" result="shape"/>
</filter>
<filter id="filter13_d_373_396" x="448.92" y="243.068" width="28.6143" height="29.2635" filterUnits="userSpaceOnUse" color-interpolation-filters="sRGB">
<feFlood flood-opacity="0" result="BackgroundImageFix"/>
<feColorMatrix in="SourceAlpha" type="matrix" values="0 0 0 0 0 0 0 0 0 0 0 0 0 0 0 0 0 0 127 0" result="hardAlpha"/>
<feOffset/>
<feGaussianBlur stdDeviation="5"/>
<feComposite in2="hardAlpha" operator="out"/>
<feColorMatrix type="matrix" values="0 0 0 0 1 0 0 0 0 1 0 0 0 0 1 0 0 0 1 0"/>
<feBlend mode="normal" in2="BackgroundImageFix" result="effect1_dropShadow_373_396"/>
<feBlend mode="normal" in="SourceGraphic" in2="effect1_dropShadow_373_396" result="shape"/>
</filter>
<filter id="filter14_d_373_396" x="448.525" y="612.686" width="29.7621" height="30.4972" filterUnits="userSpaceOnUse" color-interpolation-filters="sRGB">
<feFlood flood-opacity="0" result="BackgroundImageFix"/>
<feColorMatrix in="SourceAlpha" type="matrix" values="0 0 0 0 0 0 0 0 0 0 0 0 0 0 0 0 0 0 127 0" result="hardAlpha"/>
<feOffset/>
<feGaussianBlur stdDeviation="5"/>
<feComposite in2="hardAlpha" operator="out"/>
<feColorMatrix type="matrix" values="0 0 0 0 1 0 0 0 0 1 0 0 0 0 1 0 0 0 1 0"/>
<feBlend mode="normal" in2="BackgroundImageFix" result="effect1_dropShadow_373_396"/>
<feBlend mode="normal" in="SourceGraphic" in2="effect1_dropShadow_373_396" result="shape"/>
</filter>
<filter id="filter15_d_373_396" x="498.999" y="769.829" width="29.9417" height="30.6821" filterUnits="userSpaceOnUse" color-interpolation-filters="sRGB">
<feFlood flood-opacity="0" result="BackgroundImageFix"/>
<feColorMatrix in="SourceAlpha" type="matrix" values="0 0 0 0 0 0 0 0 0 0 0 0 0 0 0 0 0 0 127 0" result="hardAlpha"/>
<feOffset/>
<feGaussianBlur stdDeviation="5"/>
<feComposite in2="hardAlpha" operator="out"/>
<feColorMatrix type="matrix" values="0 0 0 0 1 0 0 0 0 1 0 0 0 0 1 0 0 0 1 0"/>
<feBlend mode="normal" in2="BackgroundImageFix" result="effect1_dropShadow_373_396"/>
<feBlend mode="normal" in="SourceGraphic" in2="effect1_dropShadow_373_396" result="shape"/>
</filter>
<filter id="filter16_d_373_396" x="641.286" y="666.727" width="29.762" height="30.4972" filterUnits="userSpaceOnUse" color-interpolation-filters="sRGB">
<feFlood flood-opacity="0" result="BackgroundImageFix"/>
<feColorMatrix in="SourceAlpha" type="matrix" values="0 0 0 0 0 0 0 0 0 0 0 0 0 0 0 0 0 0 127 0" result="hardAlpha"/>
<feOffset/>
<feGaussianBlur stdDeviation="5"/>
<feComposite in2="hardAlpha" operator="out"/>
<feColorMatrix type="matrix" values="0 0 0 0 1 0 0 0 0 1 0 0 0 0 1 0 0 0 1 0"/>
<feBlend mode="normal" in2="BackgroundImageFix" result="effect1_dropShadow_373_396"/>
<feBlend mode="normal" in="SourceGraphic" in2="effect1_dropShadow_373_396" result="shape"/>
</filter>
<filter id="filter17_d_373_396" x="748.592" y="704.549" width="29.762" height="30.4972" filterUnits="userSpaceOnUse" color-interpolation-filters="sRGB">
<feFlood flood-opacity="0" result="BackgroundImageFix"/>
<feColorMatrix in="SourceAlpha" type="matrix" values="0 0 0 0 0 0 0 0 0 0 0 0 0 0 0 0 0 0 127 0" result="hardAlpha"/>
<feOffset/>
<feGaussianBlur stdDeviation="5"/>
<feComposite in2="hardAlpha" operator="out"/>
<feColorMatrix type="matrix" values="0 0 0 0 1 0 0 0 0 1 0 0 0 0 1 0 0 0 1 0"/>
<feBlend mode="normal" in2="BackgroundImageFix" result="effect1_dropShadow_373_396"/>
<feBlend mode="normal" in="SourceGraphic" in2="effect1_dropShadow_373_396" result="shape"/>
</filter>
<filter id="filter18_d_373_396" x="918.577" y="863.339" width="29.9417" height="30.6821" filterUnits="userSpaceOnUse" color-interpolation-filters="sRGB">
<feFlood flood-opacity="0" result="BackgroundImageFix"/>
<feColorMatrix in="SourceAlpha" type="matrix" values="0 0 0 0 0 0 0 0 0 0 0 0 0 0 0 0 0 0 127 0" result="hardAlpha"/>
<feOffset/>
<feGaussianBlur stdDeviation="5"/>
<feComposite in2="hardAlpha" operator="out"/>
<feColorMatrix type="matrix" values="0 0 0 0 1 0 0 0 0 1 0 0 0 0 1 0 0 0 1 0"/>
<feBlend mode="normal" in2="BackgroundImageFix" result="effect1_dropShadow_373_396"/>
<feBlend mode="normal" in="SourceGraphic" in2="effect1_dropShadow_373_396" result="shape"/>
</filter>
<filter id="filter19_d_373_396" x="799.065" y="861.692" width="29.9417" height="30.6821" filterUnits="userSpaceOnUse" color-interpolation-filters="sRGB">
<feFlood flood-opacity="0" result="BackgroundImageFix"/>
<feColorMatrix in="SourceAlpha" type="matrix" values="0 0 0 0 0 0 0 0 0 0 0 0 0 0 0 0 0 0 127 0" result="hardAlpha"/>
<feOffset/>
<feGaussianBlur stdDeviation="5"/>
<feComposite in2="hardAlpha" operator="out"/>
<feColorMatrix type="matrix" values="0 0 0 0 1 0 0 0 0 1 0 0 0 0 1 0 0 0 1 0"/>
<feBlend mode="normal" in2="BackgroundImageFix" result="effect1_dropShadow_373_396"/>
<feBlend mode="normal" in="SourceGraphic" in2="effect1_dropShadow_373_396" result="shape"/>
</filter>
<filter id="filter20_d_373_396" x="941.352" y="758.591" width="29.762" height="30.4972" filterUnits="userSpaceOnUse" color-interpolation-filters="sRGB">
<feFlood flood-opacity="0" result="BackgroundImageFix"/>
<feColorMatrix in="SourceAlpha" type="matrix" values="0 0 0 0 0 0 0 0 0 0 0 0 0 0 0 0 0 0 127 0" result="hardAlpha"/>
<feOffset/>
<feGaussianBlur stdDeviation="5"/>
<feComposite in2="hardAlpha" operator="out"/>
<feColorMatrix type="matrix" values="0 0 0 0 1 0 0 0 0 1 0 0 0 0 1 0 0 0 1 0"/>
<feBlend mode="normal" in2="BackgroundImageFix" result="effect1_dropShadow_373_396"/>
<feBlend mode="normal" in="SourceGraphic" in2="effect1_dropShadow_373_396" result="shape"/>
</filter>
<filter id="filter21_d_373_396" x="898.706" y="878.604" width="29.762" height="30.4972" filterUnits="userSpaceOnUse" color-interpolation-filters="sRGB">
<feFlood flood-opacity="0" result="BackgroundImageFix"/>
<feColorMatrix in="SourceAlpha" type="matrix" values="0 0 0 0 0 0 0 0 0 0 0 0 0 0 0 0 0 0 127 0" result="hardAlpha"/>
<feOffset/>
<feGaussianBlur stdDeviation="5"/>
<feComposite in2="hardAlpha" operator="out"/>
<feColorMatrix type="matrix" values="0 0 0 0 1 0 0 0 0 1 0 0 0 0 1 0 0 0 1 0"/>
<feBlend mode="normal" in2="BackgroundImageFix" result="effect1_dropShadow_373_396"/>
<feBlend mode="normal" in="SourceGraphic" in2="effect1_dropShadow_373_396" result="shape"/>
</filter>
<filter id="filter22_d_373_396" x="68.7126" y="544.401" width="29.9518" height="30.6931" filterUnits="userSpaceOnUse" color-interpolation-filters="sRGB">
<feFlood flood-opacity="0" result="BackgroundImageFix"/>
<feColorMatrix in="SourceAlpha" type="matrix" values="0 0 0 0 0 0 0 0 0 0 0 0 0 0 0 0 0 0 127 0" result="hardAlpha"/>
<feOffset/>
<feGaussianBlur stdDeviation="5"/>
<feComposite in2="hardAlpha" operator="out"/>
<feColorMatrix type="matrix" values="0 0 0 0 1 0 0 0 0 1 0 0 0 0 1 0 0 0 1 0"/>
<feBlend mode="normal" in2="BackgroundImageFix" result="effect1_dropShadow_373_396"/>
<feBlend mode="normal" in="SourceGraphic" in2="effect1_dropShadow_373_396" result="shape"/>
</filter>
<filter id="filter23_d_373_396" x="112.92" y="448.044" width="29.1112" height="29.7979" filterUnits="userSpaceOnUse" color-interpolation-filters="sRGB">
<feFlood flood-opacity="0" result="BackgroundImageFix"/>
<feColorMatrix in="SourceAlpha" type="matrix" values="0 0 0 0 0 0 0 0 0 0 0 0 0 0 0 0 0 0 127 0" result="hardAlpha"/>
<feOffset/>
<feGaussianBlur stdDeviation="5"/>
<feComposite in2="hardAlpha" operator="out"/>
<feColorMatrix type="matrix" values="0 0 0 0 1 0 0 0 0 1 0 0 0 0 1 0 0 0 1 0"/>
<feBlend mode="normal" in2="BackgroundImageFix" result="effect1_dropShadow_373_396"/>
<feBlend mode="normal" in="SourceGraphic" in2="effect1_dropShadow_373_396" result="shape"/>
</filter>
<filter id="filter24_d_373_396" x="179.103" y="749.951" width="29.9518" height="30.6931" filterUnits="userSpaceOnUse" color-interpolation-filters="sRGB">
<feFlood flood-opacity="0" result="BackgroundImageFix"/>
<feColorMatrix in="SourceAlpha" type="matrix" values="0 0 0 0 0 0 0 0 0 0 0 0 0 0 0 0 0 0 127 0" result="hardAlpha"/>
<feOffset/>
<feGaussianBlur stdDeviation="5"/>
<feComposite in2="hardAlpha" operator="out"/>
<feColorMatrix type="matrix" values="0 0 0 0 1 0 0 0 0 1 0 0 0 0 1 0 0 0 1 0"/>
<feBlend mode="normal" in2="BackgroundImageFix" result="effect1_dropShadow_373_396"/>
<feBlend mode="normal" in="SourceGraphic" in2="effect1_dropShadow_373_396" result="shape"/>
</filter>
<filter id="filter25_d_373_396" x="62.9182" y="719.809" width="29.9518" height="30.6931" filterUnits="userSpaceOnUse" color-interpolation-filters="sRGB">
<feFlood flood-opacity="0" result="BackgroundImageFix"/>
<feColorMatrix in="SourceAlpha" type="matrix" values="0 0 0 0 0 0 0 0 0 0 0 0 0 0 0 0 0 0 127 0" result="hardAlpha"/>
<feOffset/>
<feGaussianBlur stdDeviation="5"/>
<feComposite in2="hardAlpha" operator="out"/>
<feColorMatrix type="matrix" values="0 0 0 0 1 0 0 0 0 1 0 0 0 0 1 0 0 0 1 0"/>
<feBlend mode="normal" in2="BackgroundImageFix" result="effect1_dropShadow_373_396"/>
<feBlend mode="normal" in="SourceGraphic" in2="effect1_dropShadow_373_396" result="shape"/>
</filter>
<filter id="filter26_d_373_396" x="342.295" y="705.619" width="29.9518" height="30.6931" filterUnits="userSpaceOnUse" color-interpolation-filters="sRGB">
<feFlood flood-opacity="0" result="BackgroundImageFix"/>
<feColorMatrix in="SourceAlpha" type="matrix" values="0 0 0 0 0 0 0 0 0 0 0 0 0 0 0 0 0 0 127 0" result="hardAlpha"/>
<feOffset/>
<feGaussianBlur stdDeviation="5"/>
<feComposite in2="hardAlpha" operator="out"/>
<feColorMatrix type="matrix" values="0 0 0 0 1 0 0 0 0 1 0 0 0 0 1 0 0 0 1 0"/>
<feBlend mode="normal" in2="BackgroundImageFix" result="effect1_dropShadow_373_396"/>
<feBlend mode="normal" in="SourceGraphic" in2="effect1_dropShadow_373_396" result="shape"/>
</filter>
<filter id="filter27_d_373_396" x="320.118" y="716.094" width="29.1112" height="29.7979" filterUnits="userSpaceOnUse" color-interpolation-filters="sRGB">
<feFlood flood-opacity="0" result="BackgroundImageFix"/>
<feColorMatrix in="SourceAlpha" type="matrix" values="0 0 0 0 0 0 0 0 0 0 0 0 0 0 0 0 0 0 127 0" result="hardAlpha"/>
<feOffset/>
<feGaussianBlur stdDeviation="5"/>
<feComposite in2="hardAlpha" operator="out"/>
<feColorMatrix type="matrix" values="0 0 0 0 1 0 0 0 0 1 0 0 0 0 1 0 0 0 1 0"/>
<feBlend mode="normal" in2="BackgroundImageFix" result="effect1_dropShadow_373_396"/>
<feBlend mode="normal" in="SourceGraphic" in2="effect1_dropShadow_373_396" result="shape"/>
</filter>
<filter id="filter28_d_373_396" x="336.501" y="881.026" width="29.9518" height="30.6931" filterUnits="userSpaceOnUse" color-interpolation-filters="sRGB">
<feFlood flood-opacity="0" result="BackgroundImageFix"/>
<feColorMatrix in="SourceAlpha" type="matrix" values="0 0 0 0 0 0 0 0 0 0 0 0 0 0 0 0 0 0 127 0" result="hardAlpha"/>
<feOffset/>
<feGaussianBlur stdDeviation="5"/>
<feComposite in2="hardAlpha" operator="out"/>
<feColorMatrix type="matrix" values="0 0 0 0 1 0 0 0 0 1 0 0 0 0 1 0 0 0 1 0"/>
<feBlend mode="normal" in2="BackgroundImageFix" result="effect1_dropShadow_373_396"/>
<feBlend mode="normal" in="SourceGraphic" in2="effect1_dropShadow_373_396" result="shape"/>
</filter>
<filter id="filter29_d_373_396" x="1080.53" y="226.193" width="29.9518" height="30.6931" filterUnits="userSpaceOnUse" color-interpolation-filters="sRGB">
<feFlood flood-opacity="0" result="BackgroundImageFix"/>
<feColorMatrix in="SourceAlpha" type="matrix" values="0 0 0 0 0 0 0 0 0 0 0 0 0 0 0 0 0 0 127 0" result="hardAlpha"/>
<feOffset/>
<feGaussianBlur stdDeviation="5"/>
<feComposite in2="hardAlpha" operator="out"/>
<feColorMatrix type="matrix" values="0 0 0 0 1 0 0 0 0 1 0 0 0 0 1 0 0 0 1 0"/>
<feBlend mode="normal" in2="BackgroundImageFix" result="effect1_dropShadow_373_396"/>
<feBlend mode="normal" in="SourceGraphic" in2="effect1_dropShadow_373_396" result="shape"/>
</filter>
<filter id="filter30_d_373_396" x="1174.54" y="266.811" width="29.1111" height="29.7979" filterUnits="userSpaceOnUse" color-interpolation-filters="sRGB">
<feFlood flood-opacity="0" result="BackgroundImageFix"/>
<feColorMatrix in="SourceAlpha" type="matrix" values="0 0 0 0 0 0 0 0 0 0 0 0 0 0 0 0 0 0 127 0" result="hardAlpha"/>
<feOffset/>
<feGaussianBlur stdDeviation="5"/>
<feComposite in2="hardAlpha" operator="out"/>
<feColorMatrix type="matrix" values="0 0 0 0 1 0 0 0 0 1 0 0 0 0 1 0 0 0 1 0"/>
<feBlend mode="normal" in2="BackgroundImageFix" result="effect1_dropShadow_373_396"/>
<feBlend mode="normal" in="SourceGraphic" in2="effect1_dropShadow_373_396" result="shape"/>
</filter>
<filter id="filter31_d_373_396" x="1307.1" y="461.886" width="29.9518" height="30.6931" filterUnits="userSpaceOnUse" color-interpolation-filters="sRGB">
<feFlood flood-opacity="0" result="BackgroundImageFix"/>
<feColorMatrix in="SourceAlpha" type="matrix" values="0 0 0 0 0 0 0 0 0 0 0 0 0 0 0 0 0 0 127 0" result="hardAlpha"/>
<feOffset/>
<feGaussianBlur stdDeviation="5"/>
<feComposite in2="hardAlpha" operator="out"/>
<feColorMatrix type="matrix" values="0 0 0 0 1 0 0 0 0 1 0 0 0 0 1 0 0 0 1 0"/>
<feBlend mode="normal" in2="BackgroundImageFix" result="effect1_dropShadow_373_396"/>
<feBlend mode="normal" in="SourceGraphic" in2="effect1_dropShadow_373_396" result="shape"/>
</filter>
<filter id="filter32_d_373_396" x="1190.92" y="431.744" width="29.9518" height="30.6931" filterUnits="userSpaceOnUse" color-interpolation-filters="sRGB">
<feFlood flood-opacity="0" result="BackgroundImageFix"/>
<feColorMatrix in="SourceAlpha" type="matrix" values="0 0 0 0 0 0 0 0 0 0 0 0 0 0 0 0 0 0 127 0" result="hardAlpha"/>
<feOffset/>
<feGaussianBlur stdDeviation="5"/>
<feComposite in2="hardAlpha" operator="out"/>
<feColorMatrix type="matrix" values="0 0 0 0 1 0 0 0 0 1 0 0 0 0 1 0 0 0 1 0"/>
<feBlend mode="normal" in2="BackgroundImageFix" result="effect1_dropShadow_373_396"/>
<feBlend mode="normal" in="SourceGraphic" in2="effect1_dropShadow_373_396" result="shape"/>
</filter>
<filter id="filter33_d_373_396" x="1284.93" y="472.361" width="29.1111" height="29.7979" filterUnits="userSpaceOnUse" color-interpolation-filters="sRGB">
<feFlood flood-opacity="0" result="BackgroundImageFix"/>
<feColorMatrix in="SourceAlpha" type="matrix" values="0 0 0 0 0 0 0 0 0 0 0 0 0 0 0 0 0 0 127 0" result="hardAlpha"/>
<feOffset/>
<feGaussianBlur stdDeviation="5"/>
<feComposite in2="hardAlpha" operator="out"/>
<feColorMatrix type="matrix" values="0 0 0 0 1 0 0 0 0 1 0 0 0 0 1 0 0 0 1 0"/>
<feBlend mode="normal" in2="BackgroundImageFix" result="effect1_dropShadow_373_396"/>
<feBlend mode="normal" in="SourceGraphic" in2="effect1_dropShadow_373_396" result="shape"/>
</filter>
<filter id="filter34_d_373_396" x="984.577" y="817.587" width="29.2206" height="29.9064" filterUnits="userSpaceOnUse" color-interpolation-filters="sRGB">
<feFlood flood-opacity="0" result="BackgroundImageFix"/>
<feColorMatrix in="SourceAlpha" type="matrix" values="0 0 0 0 0 0 0 0 0 0 0 0 0 0 0 0 0 0 127 0" result="hardAlpha"/>
<feOffset/>
<feGaussianBlur stdDeviation="5"/>
<feComposite in2="hardAlpha" operator="out"/>
<feColorMatrix type="matrix" values="0 0 0 0 1 0 0 0 0 1 0 0 0 0 1 0 0 0 1 0"/>
<feBlend mode="normal" in2="BackgroundImageFix" result="effect1_dropShadow_373_396"/>
<feBlend mode="normal" in="SourceGraphic" in2="effect1_dropShadow_373_396" result="shape"/>
</filter>
<filter id="filter35_d_373_396" x="975.767" y="709.923" width="29.9708" height="30.7211" filterUnits="userSpaceOnUse" color-interpolation-filters="sRGB">
<feFlood flood-opacity="0" result="BackgroundImageFix"/>
<feColorMatrix in="SourceAlpha" type="matrix" values="0 0 0 0 0 0 0 0 0 0 0 0 0 0 0 0 0 0 127 0" result="hardAlpha"/>
<feOffset/>
<feGaussianBlur stdDeviation="5"/>
<feComposite in2="hardAlpha" operator="out"/>
<feColorMatrix type="matrix" values="0 0 0 0 1 0 0 0 0 1 0 0 0 0 1 0 0 0 1 0"/>
<feBlend mode="normal" in2="BackgroundImageFix" result="effect1_dropShadow_373_396"/>
<feBlend mode="normal" in="SourceGraphic" in2="effect1_dropShadow_373_396" result="shape"/>
</filter>
<filter id="filter36_d_373_396" x="969.554" y="838.219" width="29.9708" height="30.7211" filterUnits="userSpaceOnUse" color-interpolation-filters="sRGB">
<feFlood flood-opacity="0" result="BackgroundImageFix"/>
<feColorMatrix in="SourceAlpha" type="matrix" values="0 0 0 0 0 0 0 0 0 0 0 0 0 0 0 0 0 0 127 0" result="hardAlpha"/>
<feOffset/>
<feGaussianBlur stdDeviation="5"/>
<feComposite in2="hardAlpha" operator="out"/>
<feColorMatrix type="matrix" values="0 0 0 0 1 0 0 0 0 1 0 0 0 0 1 0 0 0 1 0"/>
<feBlend mode="normal" in2="BackgroundImageFix" result="effect1_dropShadow_373_396"/>
<feBlend mode="normal" in="SourceGraphic" in2="effect1_dropShadow_373_396" result="shape"/>
</filter>
</defs>
</svg>
