<svg width="1440" height="5654" viewBox="0 0 1440 5654" fill="none" xmlns="http://www.w3.org/2000/svg">
<path d="M44.5003 5238C-6.50004 5643.5 1321.5 5289.5 1361 5470" stroke="white" stroke-width="4" stroke-linecap="round" stroke-dasharray="10 10"/>
<path d="M70.4543 4454.87C-22.5 4901.5 70.5 5166 44 5243" stroke="white" stroke-width="4" stroke-linecap="round" stroke-dasharray="10 10"/>
<path d="M1360.5 3961C1362.5 4077 1376.27 4230.63 1203.01 4413.5C941.501 4689.5 238 3829 71.0057 4453" stroke="white" stroke-width="4" stroke-linecap="round" stroke-dasharray="10 10"/>
<path d="M84.9266 3026.38C55.5011 3148.5 118.493 3696.5 455.501 3696.5C792.509 3696.5 1360.5 3387 1360.5 3958.5" stroke="white" stroke-width="4" stroke-linecap="round" stroke-dasharray="10 10"/>
<path d="M1380.5 1915.5C1380.5 2106.5 974.001 2391.5 671.001 2416C267.429 2448.63 84.5049 2929.5 84.5049 3030.5" stroke="white" stroke-width="4" stroke-linecap="round" stroke-dasharray="10 10"/>
<path d="M1380.5 1915C1380.5 1428 742.174 1447.28 495.5 1608C153.995 1830.5 -90.1234 1130.86 205.999 1054C506.5 976 1535.5 1609.5 1414 640.5" stroke="white" stroke-width="4" stroke-linecap="round" stroke-dasharray="10 10"/>
<path d="M1414 642.5C1414 513 1201.77 455.703 1023.01 531.001C858.009 600.501 404.203 749.408 331 499.001" stroke="white" stroke-width="4" stroke-linecap="round" stroke-dasharray="10 10"/>
<path d="M1172.5 183.5C1129.01 246 896.279 399.046 823.005 307C743.002 206.5 951.505 87.9998 940.005 279C926.482 503.601 285.002 253.5 331.009 499" stroke="white" stroke-width="4" stroke-linecap="round" stroke-dasharray="10 10"/>
<path d="M1185 158.541L1188.64 159.713C1188.97 158.768 1189.31 157.854 1189.67 156.97C1190.03 156.086 1190.44 155.196 1190.89 154.302L1188.34 154.069L1185 158.541ZM1191.74 161.774L1197.39 166.593C1198.58 165.934 1199.84 164.993 1201.16 163.769C1202.48 162.545 1203.7 161.187 1204.81 159.697C1206.66 157.212 1208.04 154.534 1208.93 151.662C1209.83 148.789 1210.09 146.21 1209.7 143.924C1207.54 144.017 1205.25 144.847 1202.82 146.413C1200.39 147.979 1198.25 150.003 1196.39 152.486C1195.28 153.977 1194.31 155.548 1193.49 157.199C1192.66 158.85 1192.08 160.375 1191.74 161.774ZM1199.37 157.718C1198.61 157.063 1198.17 156.201 1198.06 155.13C1197.96 154.059 1198.21 153.115 1198.81 152.298C1199.42 151.481 1200.23 151.013 1201.25 150.894C1202.26 150.774 1203.14 151.042 1203.9 151.697C1204.66 152.351 1205.1 153.215 1205.21 154.287C1205.31 155.359 1205.06 156.302 1204.46 157.117C1203.85 157.933 1203.04 158.401 1202.02 158.521C1201.01 158.64 1200.13 158.373 1199.37 157.718ZM1201.79 173.015L1205.13 168.543L1204.36 165.915C1203.65 166.582 1202.93 167.193 1202.2 167.747C1201.47 168.302 1200.72 168.852 1199.93 169.4L1201.79 173.015ZM1212.56 140.043C1213.52 143.846 1213.55 147.653 1212.66 151.464C1211.77 155.275 1209.95 159.025 1207.2 162.714L1208.57 167.36C1208.76 167.985 1208.79 168.612 1208.68 169.241C1208.56 169.869 1208.32 170.432 1207.95 170.929L1201.27 179.873L1196.56 170.866L1188.09 163.565L1178.88 160.574L1185.51 151.635C1185.88 151.138 1186.35 150.76 1186.91 150.499C1187.47 150.239 1188.06 150.137 1188.66 150.195L1193.18 150.633C1195.93 146.942 1198.94 144.208 1202.19 142.433C1205.44 140.657 1208.89 139.86 1212.56 140.043ZM1183.09 170.321C1184.01 169.079 1185.23 168.361 1186.73 168.168C1188.23 167.975 1189.56 168.377 1190.71 169.372C1191.87 170.368 1192.52 171.675 1192.67 173.292C1192.82 174.909 1192.44 176.338 1191.51 177.579C1190.85 178.467 1189.67 179.301 1187.99 180.082C1186.31 180.863 1183.96 181.659 1180.94 182.468C1181.02 179.125 1181.23 176.487 1181.58 174.552C1181.92 172.617 1182.43 171.207 1183.09 170.321ZM1185.91 172.707C1185.64 173.062 1185.4 173.681 1185.19 174.564C1184.98 175.447 1184.86 176.327 1184.83 177.203C1185.62 176.98 1186.39 176.67 1187.15 176.272C1187.91 175.875 1188.42 175.499 1188.68 175.146C1189 174.72 1189.15 174.233 1189.12 173.686C1189.1 173.139 1188.89 172.695 1188.49 172.353C1188.09 172.011 1187.64 171.878 1187.14 171.953C1186.63 172.028 1186.22 172.28 1185.91 172.707Z" fill="#FF8900"/>
</svg>
