<svg width="1338" height="755" viewBox="0 0 1338 755" fill="none" xmlns="http://www.w3.org/2000/svg">
<g filter="url(#filter0_d_373_396)">
<path d="M472.49 319.691C472.491 319.848 472.447 320.002 472.363 320.131C472.279 320.26 472.159 320.358 472.021 320.411L469.188 321.518L468.158 324.563C468.108 324.71 468.016 324.837 467.896 324.926C467.777 325.016 467.634 325.064 467.489 325.064C467.343 325.064 467.2 325.016 467.081 324.926C466.961 324.837 466.869 324.71 466.819 324.563L465.788 321.515L462.956 320.411C462.819 320.356 462.701 320.258 462.618 320.129C462.535 320.001 462.49 319.848 462.49 319.691C462.49 319.534 462.535 319.381 462.618 319.252C462.701 319.124 462.819 319.026 462.956 318.971L465.792 317.864L466.819 314.819C466.869 314.672 466.961 314.545 467.081 314.456C467.2 314.366 467.343 314.318 467.489 314.318C467.634 314.318 467.777 314.366 467.896 314.456C468.016 314.545 468.108 314.672 468.158 314.819L469.189 317.867L472.021 318.971C472.159 319.024 472.279 319.121 472.363 319.25C472.447 319.379 472.491 319.533 472.49 319.691Z" fill="white"/>
</g>
<g filter="url(#filter1_d_373_396)">
<path d="M435.268 415.913C435.406 415.966 435.525 416.064 435.609 416.194C435.693 416.323 435.737 416.477 435.735 416.635L435.726 419.875L438.029 421.964C438.14 422.065 438.219 422.201 438.256 422.353C438.293 422.505 438.286 422.665 438.236 422.812C438.185 422.959 438.094 423.086 437.975 423.176C437.855 423.266 437.713 423.315 437.567 423.315L434.55 423.304L432.61 425.781C432.515 425.9 432.388 425.985 432.247 426.025C432.106 426.065 431.957 426.057 431.82 426.003C431.683 425.949 431.565 425.851 431.481 425.723C431.398 425.594 431.353 425.441 431.352 425.285L431.363 422.042L429.058 419.956C428.947 419.854 428.868 419.718 428.831 419.566C428.794 419.414 428.801 419.254 428.852 419.107C428.902 418.96 428.993 418.833 429.113 418.743C429.232 418.653 429.374 418.604 429.52 418.604L432.537 418.615L434.478 416.138C434.572 416.017 434.698 415.93 434.84 415.89C434.981 415.85 435.131 415.858 435.268 415.913Z" fill="white"/>
</g>
<g filter="url(#filter2_d_373_396)">
<path d="M342.362 127.946C342.363 128.104 342.318 128.258 342.234 128.387C342.15 128.516 342.031 128.613 341.893 128.666L339.06 129.773L338.03 132.818C337.979 132.965 337.888 133.092 337.768 133.181C337.648 133.271 337.506 133.319 337.36 133.319C337.214 133.319 337.072 133.271 336.952 133.181C336.833 133.092 336.741 132.965 336.69 132.818L335.66 129.77L332.828 128.666C332.691 128.612 332.573 128.513 332.49 128.385C332.406 128.256 332.362 128.103 332.362 127.946C332.362 127.789 332.406 127.636 332.49 127.508C332.573 127.379 332.691 127.281 332.828 127.226L335.663 126.119L336.69 123.074C336.741 122.927 336.833 122.8 336.952 122.711C337.072 122.621 337.214 122.573 337.36 122.573C337.506 122.573 337.648 122.621 337.768 122.711C337.888 122.8 337.979 122.927 338.03 123.074L339.06 126.122L341.893 127.226C342.031 127.279 342.15 127.377 342.234 127.506C342.318 127.635 342.363 127.789 342.362 127.946Z" fill="white"/>
</g>
<g filter="url(#filter3_d_373_396)">
<path d="M305.14 224.168C305.278 224.221 305.397 224.319 305.481 224.448C305.564 224.578 305.609 224.732 305.607 224.889L305.597 228.129L307.901 230.218C308.012 230.32 308.091 230.456 308.128 230.608C308.165 230.759 308.158 230.919 308.107 231.067C308.057 231.214 307.966 231.341 307.847 231.431C307.727 231.521 307.585 231.569 307.439 231.57L304.422 231.558L302.481 234.036C302.387 234.155 302.26 234.24 302.119 234.279C301.978 234.319 301.829 234.311 301.692 234.257C301.555 234.203 301.437 234.105 301.353 233.977C301.269 233.849 301.224 233.696 301.224 233.539L301.235 230.296L298.93 228.21C298.819 228.108 298.74 227.972 298.703 227.821C298.666 227.669 298.673 227.509 298.723 227.362C298.774 227.214 298.865 227.087 298.984 226.997C299.104 226.907 299.246 226.859 299.392 226.858L302.409 226.87L304.35 224.393C304.443 224.272 304.57 224.185 304.711 224.145C304.853 224.104 305.003 224.112 305.14 224.168Z" fill="white"/>
</g>
<g filter="url(#filter4_d_373_396)">
<path d="M360.562 110.345C360.7 110.398 360.819 110.496 360.903 110.625C360.987 110.755 361.031 110.909 361.029 111.066L361.019 114.306L363.323 116.395C363.434 116.497 363.513 116.633 363.55 116.785C363.587 116.936 363.58 117.097 363.529 117.244C363.479 117.391 363.388 117.518 363.269 117.608C363.149 117.698 363.007 117.746 362.861 117.747L359.844 117.735L357.903 120.213C357.809 120.332 357.682 120.417 357.541 120.457C357.4 120.496 357.251 120.488 357.114 120.434C356.977 120.38 356.859 120.283 356.775 120.154C356.692 120.026 356.646 119.873 356.646 119.716L356.657 116.473L354.352 114.387C354.241 114.285 354.162 114.149 354.125 113.998C354.088 113.846 354.095 113.686 354.146 113.539C354.196 113.392 354.287 113.264 354.406 113.174C354.526 113.085 354.668 113.036 354.814 113.036L357.831 113.047L359.772 110.57C359.865 110.449 359.992 110.362 360.133 110.322C360.275 110.281 360.425 110.289 360.562 110.345Z" fill="white"/>
</g>
<g filter="url(#filter5_d_373_396)">
<path d="M1038 16.0521C1038 16.2096 1037.96 16.3636 1037.87 16.4927C1037.79 16.6217 1037.67 16.7194 1037.53 16.7721L1034.7 17.8795L1033.67 20.9241C1033.62 21.0711 1033.53 21.1978 1033.41 21.2874C1033.29 21.3769 1033.14 21.4249 1033 21.4249C1032.85 21.4249 1032.71 21.3769 1032.59 21.2874C1032.47 21.1978 1032.38 21.0711 1032.33 20.9241L1031.3 17.8761L1028.47 16.7721C1028.33 16.7176 1028.21 16.6194 1028.13 16.4906C1028.04 16.3619 1028 16.2089 1028 16.0521C1028 15.8954 1028.04 15.7424 1028.13 15.6136C1028.21 15.4849 1028.33 15.3867 1028.47 15.3322L1031.3 14.2248L1032.33 11.1802C1032.38 11.0332 1032.47 10.9065 1032.59 10.8169C1032.71 10.7274 1032.85 10.6794 1033 10.6794C1033.14 10.6794 1033.29 10.7274 1033.41 10.8169C1033.53 10.9065 1033.62 11.0332 1033.67 11.1802L1034.7 14.2282L1037.53 15.3322C1037.67 15.3849 1037.79 15.4826 1037.87 15.6116C1037.96 15.7407 1038 15.8946 1038 16.0521Z" fill="white"/>
</g>
<g filter="url(#filter6_d_373_396)">
<path d="M172.872 15.6336C172.873 15.7911 172.829 15.945 172.745 16.0741C172.661 16.2031 172.541 16.3008 172.403 16.3536L169.57 17.4609L168.541 20.5055C168.49 20.6525 168.398 20.7793 168.279 20.8688C168.159 20.9583 168.017 21.0063 167.871 21.0063C167.725 21.0063 167.583 20.9583 167.463 20.8688C167.343 20.7793 167.252 20.6525 167.201 20.5055L166.171 17.4576L163.338 16.3536C163.201 16.299 163.083 16.2008 163 16.0721C162.917 15.9434 162.872 15.7903 162.872 15.6336C162.872 15.4768 162.917 15.3238 163 15.1951C163.083 15.0664 163.201 14.9681 163.338 14.9136L166.174 13.8062L167.201 10.7616C167.252 10.6146 167.343 10.4879 167.463 10.3984C167.583 10.3088 167.725 10.2609 167.871 10.2609C168.017 10.2609 168.159 10.3088 168.279 10.3984C168.398 10.4879 168.49 10.6146 168.541 10.7616L169.571 13.8096L172.403 14.9136C172.541 14.9663 172.661 15.064 172.745 15.1931C172.829 15.3221 172.873 15.4761 172.872 15.6336Z" fill="white"/>
</g>
<g filter="url(#filter7_d_373_396)">
<path d="M17.14 95.1837C17.2779 95.2368 17.397 95.3349 17.4807 95.4641C17.5644 95.5934 17.6086 95.7475 17.6071 95.905L17.5973 99.1452L19.901 101.234C20.0119 101.336 20.0911 101.472 20.128 101.623C20.1649 101.775 20.1577 101.935 20.1074 102.082C20.0571 102.23 19.9661 102.357 19.8466 102.447C19.7272 102.537 19.585 102.585 19.4391 102.586L16.4221 102.574L14.4813 105.051C14.3866 105.171 14.2601 105.256 14.119 105.295C13.9779 105.335 13.8289 105.327 13.6919 105.273C13.555 105.219 13.4368 105.121 13.3531 104.993C13.2694 104.865 13.2243 104.712 13.2238 104.555L13.2345 101.312L10.9298 99.2259C10.819 99.124 10.7398 98.9881 10.7029 98.8365C10.666 98.6848 10.6732 98.5246 10.7235 98.3774C10.7738 98.2303 10.8648 98.1032 10.9842 98.0132C11.1037 97.9233 11.2459 97.8748 11.3917 97.8742L14.4087 97.8858L16.3495 95.4085C16.4432 95.2874 16.5697 95.2007 16.7113 95.1604C16.853 95.1201 17.0028 95.1282 17.14 95.1837Z" fill="white"/>
</g>
<g filter="url(#filter8_d_373_396)">
<path d="M975.627 468.373C975.596 468.527 975.52 468.666 975.412 468.772C975.303 468.878 975.167 468.945 975.021 468.963L972.03 469.366L970.397 472.089C970.317 472.22 970.202 472.322 970.066 472.381C969.931 472.439 969.782 472.452 969.64 472.417C969.498 472.382 969.369 472.302 969.271 472.186C969.172 472.07 969.11 471.924 969.09 471.769L968.716 468.551L966.182 466.798C966.06 466.713 965.966 466.589 965.911 466.443C965.856 466.298 965.844 466.138 965.877 465.985C965.909 465.832 965.984 465.694 966.092 465.588C966.2 465.483 966.335 465.415 966.48 465.394L969.474 464.992L971.104 462.269C971.184 462.137 971.299 462.036 971.435 461.977C971.57 461.918 971.719 461.905 971.861 461.94C972.003 461.975 972.132 462.056 972.23 462.172C972.328 462.288 972.391 462.433 972.41 462.588L972.785 465.806L975.319 467.559C975.442 467.643 975.539 467.767 975.594 467.913C975.649 468.059 975.661 468.22 975.627 468.373Z" fill="white"/>
</g>
<g filter="url(#filter9_d_373_396)">
<path d="M884.907 411.004C885.03 411.089 885.126 411.213 885.181 411.359C885.236 411.505 885.247 411.666 885.213 411.819L884.534 414.976L886.348 417.563C886.435 417.688 886.484 417.84 886.489 417.997C886.494 418.153 886.453 418.308 886.374 418.439C886.295 418.571 886.18 418.673 886.045 418.732C885.909 418.791 885.761 418.805 885.618 418.77L882.679 418.039L880.275 419.991C880.158 420.084 880.017 420.137 879.871 420.142C879.725 420.147 879.582 420.104 879.459 420.018C879.337 419.933 879.242 419.809 879.187 419.664C879.132 419.519 879.12 419.359 879.151 419.206L879.832 416.047L878.016 413.463C877.929 413.337 877.88 413.185 877.875 413.029C877.871 412.872 877.911 412.717 877.99 412.586C878.07 412.455 878.185 412.352 878.32 412.293C878.455 412.234 878.604 412.221 878.746 412.255L881.685 412.987L884.089 411.035C884.206 410.939 884.347 410.885 884.493 410.879C884.64 410.874 884.784 410.917 884.907 411.004Z" fill="white"/>
</g>
<g filter="url(#filter10_d_373_396)">
<path d="M720.097 290.723C720.221 290.808 720.316 290.932 720.371 291.078C720.426 291.224 720.437 291.385 720.403 291.538L719.724 294.695L721.539 297.282C721.626 297.407 721.675 297.559 721.679 297.716C721.684 297.872 721.644 298.027 721.565 298.158C721.485 298.29 721.37 298.392 721.235 298.451C721.1 298.51 720.951 298.524 720.809 298.489L717.87 297.758L715.465 299.71C715.348 299.803 715.208 299.856 715.062 299.861C714.916 299.866 714.772 299.823 714.65 299.737C714.528 299.652 714.433 299.528 714.378 299.383C714.322 299.238 714.31 299.078 714.342 298.925L715.023 295.766L713.207 293.182C713.12 293.056 713.071 292.904 713.066 292.748C713.061 292.591 713.101 292.436 713.181 292.305C713.26 292.174 713.375 292.071 713.51 292.012C713.645 291.953 713.794 291.94 713.936 291.974L716.876 292.706L719.28 290.754C719.396 290.658 719.538 290.604 719.684 290.598C719.83 290.593 719.975 290.636 720.097 290.723Z" fill="white"/>
</g>
<g filter="url(#filter11_d_373_396)">
<path d="M553.199 314.219C553.323 314.304 553.418 314.428 553.473 314.574C553.528 314.72 553.539 314.881 553.505 315.034L552.826 318.191L554.641 320.778C554.728 320.903 554.777 321.055 554.781 321.212C554.786 321.368 554.746 321.523 554.667 321.654C554.587 321.786 554.472 321.888 554.337 321.947C554.202 322.006 554.053 322.02 553.911 321.985L550.972 321.254L548.567 323.206C548.45 323.299 548.31 323.352 548.164 323.357C548.018 323.362 547.874 323.319 547.752 323.233C547.63 323.148 547.535 323.024 547.48 322.879C547.424 322.734 547.412 322.574 547.444 322.421L548.125 319.262L546.309 316.678C546.222 316.552 546.173 316.4 546.168 316.244C546.163 316.087 546.203 315.933 546.283 315.801C546.362 315.67 546.477 315.567 546.612 315.508C546.747 315.449 546.896 315.436 547.038 315.47L549.978 316.202L552.382 314.25C552.498 314.154 552.64 314.1 552.786 314.094C552.932 314.089 553.077 314.132 553.199 314.219Z" fill="white"/>
</g>
<g filter="url(#filter12_d_373_396)">
<path d="M634.233 55.8167C634.202 55.9705 634.127 56.11 634.018 56.2158C633.909 56.3215 633.773 56.3882 633.627 56.4067L630.636 56.8099L629.003 59.5326C628.923 59.6638 628.808 59.7655 628.673 59.8242C628.537 59.8829 628.389 59.8957 628.246 59.8609C628.104 59.8261 627.975 59.7453 627.877 59.6294C627.779 59.5135 627.716 59.3681 627.697 59.2127L627.322 55.9949L624.789 54.2421C624.667 54.1563 624.572 54.0324 624.517 53.887C624.463 53.7416 624.451 53.5817 624.483 53.4289C624.516 53.276 624.591 53.1375 624.699 53.0319C624.806 52.9263 624.942 52.8587 625.086 52.8381L628.08 52.4355L629.711 49.7123C629.79 49.5811 629.906 49.4793 630.041 49.4206C630.176 49.3619 630.325 49.3491 630.467 49.384C630.609 49.4188 630.738 49.4996 630.836 49.6154C630.935 49.7313 630.998 49.8767 631.017 50.0321L631.391 53.25L633.925 55.0027C634.049 55.0871 634.145 55.2109 634.2 55.3568C634.255 55.5026 634.267 55.6634 634.233 55.8167Z" fill="white"/>
</g>
<g filter="url(#filter13_d_373_396)">
<path d="M465.951 96.1934C466.075 96.2782 466.171 96.4022 466.225 96.5482C466.28 96.6943 466.292 96.855 466.258 97.0082L465.578 100.165L467.393 102.752C467.48 102.878 467.529 103.029 467.534 103.186C467.538 103.342 467.498 103.497 467.419 103.628C467.339 103.76 467.224 103.862 467.089 103.921C466.954 103.98 466.805 103.994 466.663 103.959L463.724 103.228L461.32 105.18C461.203 105.273 461.062 105.326 460.916 105.331C460.77 105.336 460.626 105.293 460.504 105.207C460.382 105.122 460.287 104.998 460.232 104.853C460.177 104.708 460.164 104.548 460.196 104.395L460.877 101.236L459.061 98.6518C458.974 98.526 458.925 98.3745 458.92 98.2178C458.915 98.0611 458.956 97.9067 459.035 97.7752C459.114 97.6437 459.229 97.5415 459.364 97.4824C459.5 97.4232 459.648 97.4099 459.791 97.4442L462.73 98.1758L465.134 96.2239C465.25 96.1281 465.392 96.0738 465.538 96.0683C465.685 96.0629 465.829 96.1066 465.951 96.1934Z" fill="white"/>
</g>
<g filter="url(#filter14_d_373_396)">
<path d="M462.243 476.161C462.1 476.125 461.972 476.043 461.874 475.925C461.777 475.807 461.716 475.66 461.701 475.503L461.358 472.284L458.842 470.499C458.721 470.412 458.628 470.287 458.575 470.141C458.521 469.995 458.511 469.835 458.545 469.682C458.579 469.53 458.655 469.392 458.764 469.288C458.873 469.184 459.009 469.118 459.154 469.099L462.151 468.731L463.809 466.026C463.89 465.896 464.007 465.795 464.142 465.738C464.278 465.681 464.427 465.67 464.569 465.707C464.711 465.743 464.839 465.825 464.936 465.942C465.033 466.059 465.094 466.205 465.112 466.361L465.455 469.583L467.971 471.365C468.092 471.452 468.185 471.577 468.238 471.723C468.291 471.869 468.302 472.029 468.268 472.181C468.234 472.334 468.157 472.472 468.049 472.576C467.94 472.68 467.804 472.746 467.659 472.765L464.661 473.133L463.004 475.838C462.924 475.97 462.808 476.072 462.671 476.13C462.535 476.188 462.386 476.198 462.243 476.161Z" fill="white"/>
</g>
<g filter="url(#filter15_d_373_396)">
<path d="M509.005 628.799C508.986 628.643 509.014 628.484 509.083 628.346C509.153 628.207 509.26 628.095 509.392 628.025L512.085 626.569L512.776 623.416C512.81 623.263 512.887 623.126 512.996 623.022C513.106 622.918 513.242 622.852 513.387 622.834C513.531 622.816 513.678 622.845 513.807 622.919C513.935 622.993 514.04 623.107 514.106 623.247L515.461 626.144L518.395 626.885C518.536 626.921 518.664 627.004 518.761 627.122C518.858 627.239 518.919 627.385 518.936 627.541C518.953 627.697 518.925 627.854 518.857 627.993C518.788 628.131 518.681 628.243 518.552 628.315L515.856 629.771L515.167 632.924C515.133 633.076 515.056 633.214 514.947 633.318C514.838 633.422 514.702 633.487 514.557 633.506C514.412 633.524 514.265 633.494 514.137 633.42C514.008 633.347 513.903 633.232 513.837 633.093L512.482 630.195L509.549 629.455C509.406 629.42 509.277 629.338 509.179 629.221C509.082 629.103 509.021 628.956 509.005 628.799Z" fill="white"/>
</g>
<g filter="url(#filter16_d_373_396)">
<path d="M655.004 530.202C654.861 530.167 654.732 530.085 654.635 529.967C654.537 529.849 654.477 529.701 654.461 529.545L654.118 526.326L651.603 524.541C651.481 524.454 651.388 524.329 651.335 524.183C651.282 524.037 651.271 523.877 651.305 523.724C651.339 523.572 651.416 523.434 651.525 523.33C651.633 523.225 651.769 523.159 651.914 523.141L654.912 522.772L656.569 520.068C656.651 519.938 656.767 519.837 656.903 519.78C657.039 519.723 657.187 519.712 657.329 519.748C657.471 519.785 657.599 519.867 657.696 519.984C657.793 520.101 657.855 520.247 657.872 520.403L658.215 523.625L660.731 525.407C660.852 525.494 660.946 525.619 660.999 525.765C661.052 525.911 661.062 526.071 661.028 526.223C660.994 526.376 660.918 526.513 660.809 526.618C660.7 526.722 660.564 526.788 660.419 526.807L657.422 527.175L655.764 529.88C655.684 530.012 655.568 530.114 655.432 530.172C655.296 530.229 655.146 530.24 655.004 530.202Z" fill="white"/>
</g>
<g filter="url(#filter17_d_373_396)">
<path d="M762.31 568.024C762.167 567.988 762.038 567.906 761.941 567.788C761.843 567.67 761.783 567.523 761.767 567.366L761.424 564.147L758.909 562.363C758.787 562.275 758.694 562.15 758.641 562.004C758.588 561.858 758.577 561.698 758.611 561.546C758.645 561.393 758.722 561.256 758.831 561.151C758.939 561.047 759.075 560.981 759.22 560.962L762.218 560.594L763.875 557.89C763.956 557.759 764.073 557.659 764.209 557.602C764.344 557.545 764.493 557.534 764.635 557.57C764.777 557.606 764.905 557.689 765.002 557.806C765.099 557.923 765.161 558.069 765.178 558.224L765.521 561.446L768.037 563.228C768.158 563.315 768.251 563.44 768.305 563.586C768.358 563.732 768.368 563.892 768.334 564.045C768.3 564.197 768.224 564.335 768.115 564.439C768.006 564.544 767.87 564.61 767.725 564.629L764.728 564.997L763.07 567.701C762.99 567.833 762.874 567.935 762.738 567.993C762.601 568.051 762.452 568.062 762.31 568.024Z" fill="white"/>
</g>
<g filter="url(#filter18_d_373_396)">
<path d="M928.582 722.309C928.564 722.153 928.592 721.995 928.661 721.856C928.73 721.717 928.838 721.605 928.97 721.535L931.663 720.079L932.354 716.926C932.388 716.774 932.465 716.636 932.574 716.532C932.683 716.428 932.82 716.363 932.964 716.344C933.109 716.326 933.256 716.356 933.385 716.43C933.513 716.503 933.618 716.618 933.684 716.757L935.039 719.655L937.972 720.395C938.114 720.432 938.242 720.514 938.339 720.632C938.435 720.749 938.496 720.895 938.514 721.051C938.531 721.207 938.503 721.364 938.434 721.503C938.366 721.641 938.259 721.753 938.129 721.825L935.434 723.281L934.745 726.434C934.711 726.587 934.634 726.724 934.525 726.828C934.416 726.932 934.279 726.997 934.135 727.016C933.99 727.034 933.843 727.004 933.714 726.931C933.586 726.857 933.481 726.742 933.415 726.603L932.06 723.705L929.126 722.965C928.984 722.93 928.854 722.848 928.757 722.731C928.659 722.613 928.598 722.466 928.582 722.309Z" fill="white"/>
</g>
<g filter="url(#filter19_d_373_396)">
<path d="M809.071 720.662C809.053 720.506 809.08 720.348 809.149 720.209C809.219 720.07 809.327 719.958 809.458 719.888L812.151 718.432L812.842 715.279C812.877 715.127 812.954 714.989 813.063 714.885C813.172 714.781 813.308 714.716 813.453 714.697C813.598 714.679 813.744 714.709 813.873 714.783C814.002 714.856 814.106 714.971 814.173 715.11L815.528 718.008L818.461 718.748C818.603 718.785 818.731 718.867 818.827 718.985C818.924 719.102 818.985 719.249 819.002 719.404C819.019 719.56 818.991 719.717 818.923 719.856C818.854 719.994 818.748 720.106 818.618 720.178L815.922 721.634L815.234 724.787C815.199 724.94 815.122 725.077 815.013 725.181C814.904 725.285 814.768 725.351 814.623 725.369C814.478 725.387 814.332 725.357 814.203 725.284C814.074 725.21 813.97 725.095 813.903 724.956L812.548 722.058L809.615 721.318C809.472 721.283 809.343 721.201 809.245 721.084C809.148 720.966 809.087 720.819 809.071 720.662Z" fill="white"/>
</g>
<g filter="url(#filter20_d_373_396)">
<path d="M955.07 622.066C954.927 622.03 954.798 621.948 954.701 621.83C954.604 621.712 954.543 621.565 954.527 621.408L954.184 618.189L951.669 616.404C951.548 616.317 951.454 616.192 951.401 616.046C951.348 615.9 951.338 615.74 951.372 615.588C951.405 615.435 951.482 615.298 951.591 615.193C951.7 615.089 951.836 615.023 951.98 615.004L954.978 614.636L956.636 611.931C956.717 611.801 956.833 611.701 956.969 611.644C957.105 611.586 957.254 611.575 957.395 611.612C957.537 611.648 957.665 611.731 957.762 611.848C957.86 611.965 957.921 612.111 957.939 612.266L958.281 615.488L960.797 617.27C960.918 617.357 961.012 617.482 961.065 617.628C961.118 617.774 961.128 617.934 961.094 618.087C961.06 618.239 960.984 618.377 960.875 618.481C960.766 618.586 960.63 618.652 960.486 618.671L957.488 619.039L955.83 621.743C955.75 621.875 955.634 621.977 955.498 622.035C955.362 622.093 955.212 622.104 955.07 622.066Z" fill="white"/>
</g>
<g filter="url(#filter21_d_373_396)">
<path d="M912.424 742.079C912.281 742.044 912.152 741.961 912.055 741.844C911.958 741.726 911.897 741.578 911.881 741.422L911.538 738.202L909.023 736.418C908.902 736.331 908.808 736.206 908.755 736.06C908.702 735.914 908.692 735.754 908.726 735.601C908.759 735.449 908.836 735.311 908.945 735.207C909.054 735.102 909.19 735.036 909.334 735.017L912.332 734.649L913.99 731.945C914.071 731.815 914.187 731.714 914.323 731.657C914.459 731.6 914.608 731.589 914.749 731.625C914.891 731.662 915.019 731.744 915.116 731.861C915.214 731.978 915.275 732.124 915.293 732.28L915.635 735.502L918.151 737.283C918.272 737.371 918.366 737.496 918.419 737.642C918.472 737.788 918.482 737.948 918.448 738.1C918.414 738.253 918.338 738.39 918.229 738.495C918.12 738.599 917.984 738.665 917.84 738.684L914.842 739.052L913.184 741.756C913.104 741.889 912.988 741.991 912.852 742.048C912.716 742.106 912.566 742.117 912.424 742.079Z" fill="white"/>
</g>
<g filter="url(#filter22_d_373_396)">
<path d="M78.7172 402.175C78.7317 402.018 78.7912 401.87 78.8875 401.752C78.9839 401.633 79.1122 401.549 79.2547 401.513L82.1813 400.736L83.5069 397.827C83.5719 397.686 83.6754 397.571 83.8033 397.495C83.9312 397.42 84.0775 397.389 84.2226 397.405C84.3676 397.422 84.5044 397.486 84.6146 397.589C84.7248 397.692 84.8031 397.828 84.839 397.98L85.5614 401.129L88.2684 402.55C88.399 402.62 88.5065 402.732 88.5766 402.869C88.6466 403.007 88.6758 403.164 88.6603 403.32C88.6448 403.476 88.5852 403.623 88.4897 403.741C88.3941 403.86 88.2671 403.944 88.1257 403.982L85.1965 404.759L83.8736 407.668C83.8085 407.809 83.7051 407.924 83.5772 408C83.4493 408.075 83.303 408.106 83.1579 408.09C83.0129 408.073 82.8761 408.009 82.7659 407.906C82.6557 407.804 82.5774 407.667 82.5415 407.515L81.8191 404.367L79.1121 402.945C78.98 402.876 78.871 402.766 78.8003 402.628C78.7295 402.49 78.7005 402.331 78.7172 402.175Z" fill="white"/>
</g>
<g filter="url(#filter23_d_373_396)">
<path d="M125.261 310.761C125.129 310.692 125.02 310.581 124.95 310.443C124.879 310.305 124.851 310.147 124.868 309.99L125.198 306.769L123.115 304.429C123.015 304.315 122.949 304.171 122.928 304.016C122.906 303.861 122.929 303.702 122.994 303.562C123.058 303.421 123.161 303.305 123.289 303.229C123.417 303.154 123.563 303.122 123.708 303.138L126.707 303.495L128.882 301.254C128.988 301.146 129.122 301.076 129.266 301.052C129.411 301.029 129.558 301.054 129.689 301.123C129.82 301.193 129.927 301.304 129.998 301.441C130.068 301.578 130.098 301.735 130.083 301.891L129.751 305.114L131.836 307.452C131.936 307.566 132.001 307.711 132.023 307.866C132.045 308.021 132.022 308.179 131.957 308.32C131.893 308.46 131.789 308.576 131.662 308.652C131.534 308.728 131.388 308.76 131.243 308.744L128.244 308.387L126.069 310.628C125.964 310.737 125.829 310.809 125.685 310.833C125.54 310.857 125.392 310.832 125.261 310.761Z" fill="white"/>
</g>
<g filter="url(#filter24_d_373_396)">
<path d="M189.108 607.725C189.122 607.569 189.182 607.421 189.278 607.302C189.374 607.183 189.503 607.1 189.645 607.063L192.572 606.286L193.897 603.377C193.962 603.237 194.066 603.121 194.194 603.046C194.322 602.971 194.468 602.939 194.613 602.956C194.758 602.973 194.895 603.037 195.005 603.139C195.115 603.242 195.193 603.378 195.229 603.53L195.952 606.679L198.659 608.101C198.789 608.171 198.897 608.282 198.967 608.419C199.037 608.557 199.066 608.714 199.051 608.87C199.035 609.026 198.976 609.173 198.88 609.291C198.784 609.41 198.658 609.494 198.516 609.533L195.587 610.309L194.264 613.219C194.199 613.359 194.096 613.475 193.968 613.55C193.84 613.625 193.693 613.657 193.548 613.64C193.403 613.623 193.266 613.559 193.156 613.457C193.046 613.354 192.968 613.217 192.932 613.066L192.21 609.917L189.502 608.495C189.37 608.427 189.261 608.316 189.191 608.178C189.12 608.04 189.091 607.882 189.108 607.725Z" fill="white"/>
</g>
<g filter="url(#filter25_d_373_396)">
<path d="M72.9228 577.583C72.9372 577.426 72.9968 577.278 73.0931 577.159C73.1895 577.041 73.3178 576.957 73.4603 576.921L76.3869 576.144L77.7125 573.234C77.7775 573.094 77.881 572.978 78.0089 572.903C78.1368 572.828 78.2831 572.796 78.4281 572.813C78.5732 572.83 78.71 572.894 78.8202 572.997C78.9304 573.099 79.0087 573.236 79.0446 573.388L79.7669 576.536L82.474 577.958C82.6046 578.028 82.7121 578.139 82.7821 578.277C82.8522 578.414 82.8814 578.572 82.8659 578.727C82.8503 578.883 82.7908 579.03 82.6952 579.149C82.5997 579.267 82.4727 579.351 82.3313 579.39L79.4021 580.166L78.0792 583.076C78.0141 583.217 77.9107 583.332 77.7828 583.407C77.6548 583.483 77.5085 583.514 77.3635 583.497C77.2185 583.481 77.0817 583.417 76.9715 583.314C76.8613 583.211 76.783 583.075 76.7471 582.923L76.0247 579.774L73.3177 578.352C73.1856 578.284 73.0766 578.173 73.0058 578.035C72.9351 577.897 72.906 577.739 72.9228 577.583Z" fill="white"/>
</g>
<g filter="url(#filter26_d_373_396)">
<path d="M352.3 563.393C352.314 563.236 352.374 563.088 352.47 562.97C352.566 562.851 352.695 562.767 352.837 562.731L355.764 561.954L357.089 559.045C357.155 558.904 357.258 558.789 357.386 558.713C357.514 558.638 357.66 558.607 357.805 558.623C357.95 558.64 358.087 558.704 358.197 558.807C358.307 558.909 358.386 559.046 358.422 559.198L359.144 562.346L361.851 563.768C361.982 563.838 362.089 563.949 362.159 564.087C362.229 564.224 362.258 564.382 362.243 564.538C362.227 564.693 362.168 564.841 362.072 564.959C361.977 565.077 361.85 565.162 361.708 565.2L358.779 565.977L357.456 568.886C357.391 569.027 357.288 569.142 357.16 569.218C357.032 569.293 356.886 569.324 356.74 569.308C356.595 569.291 356.459 569.227 356.348 569.124C356.238 569.021 356.16 568.885 356.124 568.733L355.402 565.584L352.695 564.162C352.563 564.094 352.454 563.983 352.383 563.846C352.312 563.708 352.283 563.549 352.3 563.393Z" fill="white"/>
</g>
<g filter="url(#filter27_d_373_396)">
<path d="M332.459 578.81C332.327 578.742 332.219 578.631 332.148 578.493C332.078 578.354 332.049 578.196 332.066 578.04L332.397 574.819L330.313 572.479C330.213 572.365 330.148 572.22 330.126 572.065C330.104 571.91 330.128 571.752 330.192 571.611C330.257 571.471 330.36 571.355 330.487 571.279C330.615 571.203 330.761 571.171 330.906 571.187L333.905 571.544L336.08 569.303C336.186 569.196 336.321 569.125 336.465 569.102C336.609 569.079 336.756 569.104 336.887 569.173C337.018 569.242 337.126 569.353 337.196 569.491C337.267 569.628 337.297 569.785 337.281 569.941L336.95 573.164L339.034 575.502C339.135 575.616 339.2 575.76 339.221 575.915C339.243 576.07 339.22 576.229 339.156 576.369C339.091 576.51 338.988 576.626 338.86 576.702C338.733 576.777 338.586 576.809 338.441 576.793L335.443 576.436L333.267 578.677C333.162 578.787 333.028 578.859 332.883 578.883C332.738 578.907 332.59 578.881 332.459 578.81Z" fill="white"/>
</g>
<g filter="url(#filter28_d_373_396)">
<path d="M346.505 738.801C346.52 738.644 346.579 738.496 346.676 738.377C346.772 738.258 346.901 738.175 347.043 738.138L349.97 737.362L351.295 734.452C351.36 734.312 351.464 734.196 351.592 734.121C351.72 734.046 351.866 734.014 352.011 734.031C352.156 734.048 352.293 734.112 352.403 734.214C352.513 734.317 352.591 734.454 352.627 734.605L353.35 737.754L356.057 739.176C356.187 739.246 356.295 739.357 356.365 739.495C356.435 739.632 356.464 739.789 356.449 739.945C356.433 740.101 356.374 740.248 356.278 740.367C356.182 740.485 356.055 740.569 355.914 740.608L352.985 741.384L351.662 744.294C351.597 744.434 351.493 744.55 351.365 744.625C351.238 744.7 351.091 744.732 350.946 744.715C350.801 744.698 350.664 744.634 350.554 744.532C350.444 744.429 350.366 744.293 350.33 744.141L349.607 740.992L346.9 739.57C346.768 739.502 346.659 739.391 346.589 739.253C346.518 739.115 346.489 738.957 346.505 738.801Z" fill="white"/>
</g>
<g filter="url(#filter29_d_373_396)">
<path d="M1090.53 83.9673C1090.55 83.8105 1090.61 83.6625 1090.7 83.5438C1090.8 83.4252 1090.93 83.3417 1091.07 83.305L1094 82.5283L1095.32 79.6188C1095.39 79.4785 1095.49 79.3629 1095.62 79.2876C1095.75 79.2123 1095.89 79.1809 1096.04 79.1976C1096.18 79.2143 1096.32 79.2783 1096.43 79.381C1096.54 79.4838 1096.62 79.6203 1096.65 79.7722L1097.38 82.9208L1100.08 84.3427C1100.21 84.4126 1100.32 84.5238 1100.39 84.6613C1100.46 84.7988 1100.49 84.9561 1100.48 85.112C1100.46 85.2678 1100.4 85.4149 1100.3 85.5333C1100.21 85.6518 1100.08 85.7359 1099.94 85.7745L1097.01 86.551L1095.69 89.4607C1095.62 89.601 1095.52 89.7166 1095.39 89.7919C1095.26 89.8672 1095.12 89.8986 1094.97 89.8819C1094.83 89.8652 1094.69 89.8012 1094.58 89.6985C1094.47 89.5958 1094.39 89.4593 1094.36 89.3074L1093.63 86.1588L1090.93 84.7368C1090.8 84.6686 1090.69 84.5578 1090.62 84.4198C1090.54 84.2819 1090.52 84.1237 1090.53 83.9673Z" fill="white"/>
</g>
<g filter="url(#filter30_d_373_396)">
<path d="M1186.88 129.528C1186.74 129.459 1186.64 129.348 1186.57 129.21C1186.5 129.072 1186.47 128.913 1186.48 128.757L1186.81 125.536L1184.73 123.196C1184.63 123.082 1184.57 122.937 1184.54 122.782C1184.52 122.627 1184.54 122.469 1184.61 122.328C1184.67 122.188 1184.78 122.072 1184.9 121.996C1185.03 121.92 1185.18 121.888 1185.32 121.905L1188.32 122.261L1190.5 120.02C1190.6 119.913 1190.74 119.843 1190.88 119.819C1191.03 119.796 1191.17 119.821 1191.3 119.89C1191.44 119.96 1191.54 120.07 1191.61 120.208C1191.68 120.345 1191.71 120.502 1191.7 120.658L1191.37 123.881L1193.45 126.219C1193.55 126.333 1193.62 126.477 1193.64 126.632C1193.66 126.788 1193.64 126.946 1193.57 127.087C1193.51 127.227 1193.41 127.343 1193.28 127.419C1193.15 127.495 1193 127.527 1192.86 127.51L1189.86 127.154L1187.68 129.395C1187.58 129.504 1187.45 129.576 1187.3 129.6C1187.16 129.624 1187.01 129.598 1186.88 129.528Z" fill="white"/>
</g>
<g filter="url(#filter31_d_373_396)">
<path d="M1317.11 319.66C1317.12 319.504 1317.18 319.356 1317.28 319.237C1317.37 319.118 1317.5 319.035 1317.65 318.998L1320.57 318.222L1321.9 315.312C1321.96 315.172 1322.07 315.056 1322.19 314.981C1322.32 314.906 1322.47 314.874 1322.61 314.891C1322.76 314.908 1322.89 314.972 1323 315.074C1323.12 315.177 1323.19 315.313 1323.23 315.465L1323.95 318.614L1326.66 320.036C1326.79 320.106 1326.9 320.217 1326.97 320.355C1327.04 320.492 1327.07 320.649 1327.05 320.805C1327.04 320.961 1326.98 321.108 1326.88 321.227C1326.78 321.345 1326.66 321.429 1326.52 321.468L1323.59 322.244L1322.26 325.154C1322.2 325.294 1322.1 325.41 1321.97 325.485C1321.84 325.56 1321.69 325.592 1321.55 325.575C1321.4 325.558 1321.27 325.494 1321.16 325.392C1321.05 325.289 1320.97 325.153 1320.93 325.001L1320.21 321.852L1317.5 320.43C1317.37 320.362 1317.26 320.251 1317.19 320.113C1317.12 319.975 1317.09 319.817 1317.11 319.66Z" fill="white"/>
</g>
<g filter="url(#filter32_d_373_396)">
<path d="M1200.92 289.518C1200.94 289.361 1201 289.213 1201.09 289.094C1201.19 288.976 1201.32 288.892 1201.46 288.855L1204.39 288.079L1205.71 285.169C1205.78 285.029 1205.88 284.913 1206.01 284.838C1206.14 284.763 1206.28 284.731 1206.43 284.748C1206.57 284.765 1206.71 284.829 1206.82 284.931C1206.93 285.034 1207.01 285.171 1207.04 285.323L1207.77 288.471L1210.47 289.893C1210.6 289.963 1210.71 290.074 1210.78 290.212C1210.85 290.349 1210.88 290.506 1210.87 290.662C1210.85 290.818 1210.79 290.965 1210.7 291.084C1210.6 291.202 1210.47 291.286 1210.33 291.325L1207.4 292.101L1206.08 295.011C1206.01 295.151 1205.91 295.267 1205.78 295.342C1205.65 295.418 1205.51 295.449 1205.36 295.432C1205.22 295.416 1205.08 295.352 1204.97 295.249C1204.86 295.146 1204.78 295.01 1204.75 294.858L1204.02 291.709L1201.32 290.287C1201.19 290.219 1201.08 290.108 1201.01 289.97C1200.94 289.832 1200.91 289.674 1200.92 289.518Z" fill="white"/>
</g>
<g filter="url(#filter33_d_373_396)">
<path d="M1297.27 335.078C1297.13 335.01 1297.03 334.898 1296.96 334.76C1296.89 334.622 1296.86 334.464 1296.87 334.307L1297.2 331.087L1295.12 328.746C1295.02 328.632 1294.96 328.488 1294.93 328.333C1294.91 328.178 1294.94 328.019 1295 327.879C1295.06 327.738 1295.17 327.622 1295.3 327.547C1295.42 327.471 1295.57 327.439 1295.71 327.455L1298.71 327.812L1300.89 325.571C1300.99 325.463 1301.13 325.393 1301.27 325.37C1301.42 325.347 1301.56 325.371 1301.69 325.441C1301.83 325.51 1301.93 325.621 1302 325.758C1302.07 325.895 1302.1 326.053 1302.09 326.209L1301.76 329.432L1303.84 331.77C1303.94 331.884 1304.01 332.028 1304.03 332.183C1304.05 332.338 1304.03 332.497 1303.96 332.637C1303.9 332.778 1303.8 332.894 1303.67 332.969C1303.54 333.045 1303.39 333.077 1303.25 333.061L1300.25 332.704L1298.07 334.945C1297.97 335.055 1297.84 335.127 1297.69 335.15C1297.55 335.174 1297.4 335.149 1297.27 335.078Z" fill="white"/>
</g>
<g filter="url(#filter34_d_373_396)">
<path d="M994.643 677.782C994.581 677.639 994.562 677.479 994.588 677.324C994.615 677.17 994.685 677.027 994.79 676.917L996.936 674.641L996.69 671.412C996.679 671.256 996.713 671.1 996.787 670.965C996.862 670.83 996.972 670.722 997.105 670.657C997.237 670.592 997.385 670.571 997.529 670.599C997.673 670.627 997.805 670.701 997.908 670.812L1000.03 673.12L1003.03 672.854C1003.18 672.842 1003.32 672.879 1003.45 672.958C1003.57 673.038 1003.67 673.157 1003.73 673.3C1003.79 673.442 1003.81 673.601 1003.79 673.756C1003.76 673.91 1003.69 674.052 1003.59 674.163L1001.44 676.44L1001.69 679.668C1001.7 679.824 1001.67 679.981 1001.59 680.116C1001.52 680.251 1001.41 680.358 1001.27 680.423C1001.14 680.489 1000.99 680.509 1000.85 680.481C1000.71 680.454 1000.57 680.379 1000.47 680.268L998.352 677.96L995.349 678.226C995.203 678.24 995.057 678.205 994.93 678.125C994.804 678.046 994.704 677.926 994.643 677.782Z" fill="white"/>
</g>
<g filter="url(#filter35_d_373_396)">
<path d="M991.143 573.642C990.997 573.655 990.851 573.619 990.724 573.54C990.598 573.46 990.498 573.339 990.438 573.195L989.19 570.246L986.286 569.38C986.146 569.337 986.021 569.249 985.929 569.128C985.836 569.007 985.781 568.858 985.769 568.701C985.758 568.545 985.791 568.389 985.865 568.254C985.939 568.118 986.049 568.01 986.181 567.945L988.928 566.603L989.731 563.481C989.771 563.33 989.853 563.196 989.966 563.097C990.079 562.998 990.217 562.938 990.362 562.926C990.508 562.914 990.653 562.949 990.779 563.029C990.905 563.108 991.005 563.227 991.067 563.369L992.315 566.321L995.219 567.184C995.359 567.227 995.484 567.315 995.576 567.436C995.669 567.558 995.724 567.706 995.736 567.863C995.747 568.019 995.714 568.175 995.64 568.311C995.566 568.446 995.456 568.554 995.324 568.62L992.577 569.962L991.774 573.083C991.736 573.235 991.655 573.371 991.542 573.471C991.428 573.571 991.289 573.631 991.143 573.642Z" fill="white"/>
</g>
<g filter="url(#filter36_d_373_396)">
<path d="M984.93 701.937C984.784 701.951 984.638 701.915 984.511 701.835C984.385 701.755 984.285 701.635 984.226 701.491L982.977 698.542L980.073 697.676C979.933 697.633 979.808 697.545 979.716 697.424C979.623 697.302 979.568 697.154 979.556 696.997C979.545 696.841 979.578 696.685 979.652 696.549C979.726 696.414 979.836 696.306 979.969 696.24L982.715 694.899L983.518 691.777C983.558 691.626 983.64 691.492 983.753 691.393C983.866 691.294 984.004 691.234 984.149 691.222C984.295 691.209 984.44 691.245 984.566 691.324C984.692 691.404 984.792 691.522 984.854 691.665L986.102 694.617L989.006 695.48C989.146 695.523 989.271 695.611 989.363 695.732C989.456 695.853 989.511 696.002 989.523 696.159C989.534 696.315 989.501 696.471 989.427 696.606C989.353 696.742 989.243 696.85 989.111 696.915L986.364 698.257L985.561 701.379C985.523 701.531 985.442 701.666 985.329 701.767C985.215 701.867 985.076 701.926 984.93 701.937Z" fill="white"/>
</g>
<defs>
<filter id="filter0_d_373_396" x="452.49" y="304.318" width="30" height="30.7454" filterUnits="userSpaceOnUse" color-interpolation-filters="sRGB">
<feFlood flood-opacity="0" result="BackgroundImageFix"/>
<feColorMatrix in="SourceAlpha" type="matrix" values="0 0 0 0 0 0 0 0 0 0 0 0 0 0 0 0 0 0 127 0" result="hardAlpha"/>
<feOffset/>
<feGaussianBlur stdDeviation="5"/>
<feComposite in2="hardAlpha" operator="out"/>
<feColorMatrix type="matrix" values="0 0 0 0 1 0 0 0 0 1 0 0 0 0 1 0 0 0 1 0"/>
<feBlend mode="normal" in2="BackgroundImageFix" result="effect1_dropShadow_373_396"/>
<feBlend mode="normal" in="SourceGraphic" in2="effect1_dropShadow_373_396" result="shape"/>
</filter>
<filter id="filter1_d_373_396" x="418.808" y="405.865" width="29.4715" height="30.1852" filterUnits="userSpaceOnUse" color-interpolation-filters="sRGB">
<feFlood flood-opacity="0" result="BackgroundImageFix"/>
<feColorMatrix in="SourceAlpha" type="matrix" values="0 0 0 0 0 0 0 0 0 0 0 0 0 0 0 0 0 0 127 0" result="hardAlpha"/>
<feOffset/>
<feGaussianBlur stdDeviation="5"/>
<feComposite in2="hardAlpha" operator="out"/>
<feColorMatrix type="matrix" values="0 0 0 0 1 0 0 0 0 1 0 0 0 0 1 0 0 0 1 0"/>
<feBlend mode="normal" in2="BackgroundImageFix" result="effect1_dropShadow_373_396"/>
<feBlend mode="normal" in="SourceGraphic" in2="effect1_dropShadow_373_396" result="shape"/>
</filter>
<filter id="filter2_d_373_396" x="322.362" y="112.573" width="30" height="30.7454" filterUnits="userSpaceOnUse" color-interpolation-filters="sRGB">
<feFlood flood-opacity="0" result="BackgroundImageFix"/>
<feColorMatrix in="SourceAlpha" type="matrix" values="0 0 0 0 0 0 0 0 0 0 0 0 0 0 0 0 0 0 127 0" result="hardAlpha"/>
<feOffset/>
<feGaussianBlur stdDeviation="5"/>
<feComposite in2="hardAlpha" operator="out"/>
<feColorMatrix type="matrix" values="0 0 0 0 1 0 0 0 0 1 0 0 0 0 1 0 0 0 1 0"/>
<feBlend mode="normal" in2="BackgroundImageFix" result="effect1_dropShadow_373_396"/>
<feBlend mode="normal" in="SourceGraphic" in2="effect1_dropShadow_373_396" result="shape"/>
</filter>
<filter id="filter3_d_373_396" x="288.68" y="214.119" width="29.4715" height="30.1852" filterUnits="userSpaceOnUse" color-interpolation-filters="sRGB">
<feFlood flood-opacity="0" result="BackgroundImageFix"/>
<feColorMatrix in="SourceAlpha" type="matrix" values="0 0 0 0 0 0 0 0 0 0 0 0 0 0 0 0 0 0 127 0" result="hardAlpha"/>
<feOffset/>
<feGaussianBlur stdDeviation="5"/>
<feComposite in2="hardAlpha" operator="out"/>
<feColorMatrix type="matrix" values="0 0 0 0 1 0 0 0 0 1 0 0 0 0 1 0 0 0 1 0"/>
<feBlend mode="normal" in2="BackgroundImageFix" result="effect1_dropShadow_373_396"/>
<feBlend mode="normal" in="SourceGraphic" in2="effect1_dropShadow_373_396" result="shape"/>
</filter>
<filter id="filter4_d_373_396" x="344.102" y="100.296" width="29.4715" height="30.1852" filterUnits="userSpaceOnUse" color-interpolation-filters="sRGB">
<feFlood flood-opacity="0" result="BackgroundImageFix"/>
<feColorMatrix in="SourceAlpha" type="matrix" values="0 0 0 0 0 0 0 0 0 0 0 0 0 0 0 0 0 0 127 0" result="hardAlpha"/>
<feOffset/>
<feGaussianBlur stdDeviation="5"/>
<feComposite in2="hardAlpha" operator="out"/>
<feColorMatrix type="matrix" values="0 0 0 0 1 0 0 0 0 1 0 0 0 0 1 0 0 0 1 0"/>
<feBlend mode="normal" in2="BackgroundImageFix" result="effect1_dropShadow_373_396"/>
<feBlend mode="normal" in="SourceGraphic" in2="effect1_dropShadow_373_396" result="shape"/>
</filter>
<filter id="filter5_d_373_396" x="1018" y="0.679443" width="30" height="30.7454" filterUnits="userSpaceOnUse" color-interpolation-filters="sRGB">
<feFlood flood-opacity="0" result="BackgroundImageFix"/>
<feColorMatrix in="SourceAlpha" type="matrix" values="0 0 0 0 0 0 0 0 0 0 0 0 0 0 0 0 0 0 127 0" result="hardAlpha"/>
<feOffset/>
<feGaussianBlur stdDeviation="5"/>
<feComposite in2="hardAlpha" operator="out"/>
<feColorMatrix type="matrix" values="0 0 0 0 1 0 0 0 0 1 0 0 0 0 1 0 0 0 1 0"/>
<feBlend mode="normal" in2="BackgroundImageFix" result="effect1_dropShadow_373_396"/>
<feBlend mode="normal" in="SourceGraphic" in2="effect1_dropShadow_373_396" result="shape"/>
</filter>
<filter id="filter6_d_373_396" x="152.872" y="0.260864" width="30" height="30.7454" filterUnits="userSpaceOnUse" color-interpolation-filters="sRGB">
<feFlood flood-opacity="0" result="BackgroundImageFix"/>
<feColorMatrix in="SourceAlpha" type="matrix" values="0 0 0 0 0 0 0 0 0 0 0 0 0 0 0 0 0 0 127 0" result="hardAlpha"/>
<feOffset/>
<feGaussianBlur stdDeviation="5"/>
<feComposite in2="hardAlpha" operator="out"/>
<feColorMatrix type="matrix" values="0 0 0 0 1 0 0 0 0 1 0 0 0 0 1 0 0 0 1 0"/>
<feBlend mode="normal" in2="BackgroundImageFix" result="effect1_dropShadow_373_396"/>
<feBlend mode="normal" in="SourceGraphic" in2="effect1_dropShadow_373_396" result="shape"/>
</filter>
<filter id="filter7_d_373_396" x="0.679672" y="85.1351" width="29.4715" height="30.1852" filterUnits="userSpaceOnUse" color-interpolation-filters="sRGB">
<feFlood flood-opacity="0" result="BackgroundImageFix"/>
<feColorMatrix in="SourceAlpha" type="matrix" values="0 0 0 0 0 0 0 0 0 0 0 0 0 0 0 0 0 0 127 0" result="hardAlpha"/>
<feOffset/>
<feGaussianBlur stdDeviation="5"/>
<feComposite in2="hardAlpha" operator="out"/>
<feColorMatrix type="matrix" values="0 0 0 0 1 0 0 0 0 1 0 0 0 0 1 0 0 0 1 0"/>
<feBlend mode="normal" in2="BackgroundImageFix" result="effect1_dropShadow_373_396"/>
<feBlend mode="normal" in="SourceGraphic" in2="effect1_dropShadow_373_396" result="shape"/>
</filter>
<filter id="filter8_d_373_396" x="955.859" y="451.921" width="29.7868" height="30.5154" filterUnits="userSpaceOnUse" color-interpolation-filters="sRGB">
<feFlood flood-opacity="0" result="BackgroundImageFix"/>
<feColorMatrix in="SourceAlpha" type="matrix" values="0 0 0 0 0 0 0 0 0 0 0 0 0 0 0 0 0 0 127 0" result="hardAlpha"/>
<feOffset/>
<feGaussianBlur stdDeviation="5"/>
<feComposite in2="hardAlpha" operator="out"/>
<feColorMatrix type="matrix" values="0 0 0 0 1 0 0 0 0 1 0 0 0 0 1 0 0 0 1 0"/>
<feBlend mode="normal" in2="BackgroundImageFix" result="effect1_dropShadow_373_396"/>
<feBlend mode="normal" in="SourceGraphic" in2="effect1_dropShadow_373_396" result="shape"/>
</filter>
<filter id="filter9_d_373_396" x="867.875" y="400.879" width="28.6143" height="29.2635" filterUnits="userSpaceOnUse" color-interpolation-filters="sRGB">
<feFlood flood-opacity="0" result="BackgroundImageFix"/>
<feColorMatrix in="SourceAlpha" type="matrix" values="0 0 0 0 0 0 0 0 0 0 0 0 0 0 0 0 0 0 127 0" result="hardAlpha"/>
<feOffset/>
<feGaussianBlur stdDeviation="5"/>
<feComposite in2="hardAlpha" operator="out"/>
<feColorMatrix type="matrix" values="0 0 0 0 1 0 0 0 0 1 0 0 0 0 1 0 0 0 1 0"/>
<feBlend mode="normal" in2="BackgroundImageFix" result="effect1_dropShadow_373_396"/>
<feBlend mode="normal" in="SourceGraphic" in2="effect1_dropShadow_373_396" result="shape"/>
</filter>
<filter id="filter10_d_373_396" x="703.066" y="280.598" width="28.6143" height="29.2635" filterUnits="userSpaceOnUse" color-interpolation-filters="sRGB">
<feFlood flood-opacity="0" result="BackgroundImageFix"/>
<feColorMatrix in="SourceAlpha" type="matrix" values="0 0 0 0 0 0 0 0 0 0 0 0 0 0 0 0 0 0 127 0" result="hardAlpha"/>
<feOffset/>
<feGaussianBlur stdDeviation="5"/>
<feComposite in2="hardAlpha" operator="out"/>
<feColorMatrix type="matrix" values="0 0 0 0 1 0 0 0 0 1 0 0 0 0 1 0 0 0 1 0"/>
<feBlend mode="normal" in2="BackgroundImageFix" result="effect1_dropShadow_373_396"/>
<feBlend mode="normal" in="SourceGraphic" in2="effect1_dropShadow_373_396" result="shape"/>
</filter>
<filter id="filter11_d_373_396" x="536.168" y="304.094" width="28.6143" height="29.2635" filterUnits="userSpaceOnUse" color-interpolation-filters="sRGB">
<feFlood flood-opacity="0" result="BackgroundImageFix"/>
<feColorMatrix in="SourceAlpha" type="matrix" values="0 0 0 0 0 0 0 0 0 0 0 0 0 0 0 0 0 0 127 0" result="hardAlpha"/>
<feOffset/>
<feGaussianBlur stdDeviation="5"/>
<feComposite in2="hardAlpha" operator="out"/>
<feColorMatrix type="matrix" values="0 0 0 0 1 0 0 0 0 1 0 0 0 0 1 0 0 0 1 0"/>
<feBlend mode="normal" in2="BackgroundImageFix" result="effect1_dropShadow_373_396"/>
<feBlend mode="normal" in="SourceGraphic" in2="effect1_dropShadow_373_396" result="shape"/>
</filter>
<filter id="filter12_d_373_396" x="614.465" y="39.3647" width="29.7868" height="30.5154" filterUnits="userSpaceOnUse" color-interpolation-filters="sRGB">
<feFlood flood-opacity="0" result="BackgroundImageFix"/>
<feColorMatrix in="SourceAlpha" type="matrix" values="0 0 0 0 0 0 0 0 0 0 0 0 0 0 0 0 0 0 127 0" result="hardAlpha"/>
<feOffset/>
<feGaussianBlur stdDeviation="5"/>
<feComposite in2="hardAlpha" operator="out"/>
<feColorMatrix type="matrix" values="0 0 0 0 1 0 0 0 0 1 0 0 0 0 1 0 0 0 1 0"/>
<feBlend mode="normal" in2="BackgroundImageFix" result="effect1_dropShadow_373_396"/>
<feBlend mode="normal" in="SourceGraphic" in2="effect1_dropShadow_373_396" result="shape"/>
</filter>
<filter id="filter13_d_373_396" x="448.92" y="86.0679" width="28.6143" height="29.2635" filterUnits="userSpaceOnUse" color-interpolation-filters="sRGB">
<feFlood flood-opacity="0" result="BackgroundImageFix"/>
<feColorMatrix in="SourceAlpha" type="matrix" values="0 0 0 0 0 0 0 0 0 0 0 0 0 0 0 0 0 0 127 0" result="hardAlpha"/>
<feOffset/>
<feGaussianBlur stdDeviation="5"/>
<feComposite in2="hardAlpha" operator="out"/>
<feColorMatrix type="matrix" values="0 0 0 0 1 0 0 0 0 1 0 0 0 0 1 0 0 0 1 0"/>
<feBlend mode="normal" in2="BackgroundImageFix" result="effect1_dropShadow_373_396"/>
<feBlend mode="normal" in="SourceGraphic" in2="effect1_dropShadow_373_396" result="shape"/>
</filter>
<filter id="filter14_d_373_396" x="448.525" y="455.686" width="29.7621" height="30.4972" filterUnits="userSpaceOnUse" color-interpolation-filters="sRGB">
<feFlood flood-opacity="0" result="BackgroundImageFix"/>
<feColorMatrix in="SourceAlpha" type="matrix" values="0 0 0 0 0 0 0 0 0 0 0 0 0 0 0 0 0 0 127 0" result="hardAlpha"/>
<feOffset/>
<feGaussianBlur stdDeviation="5"/>
<feComposite in2="hardAlpha" operator="out"/>
<feColorMatrix type="matrix" values="0 0 0 0 1 0 0 0 0 1 0 0 0 0 1 0 0 0 1 0"/>
<feBlend mode="normal" in2="BackgroundImageFix" result="effect1_dropShadow_373_396"/>
<feBlend mode="normal" in="SourceGraphic" in2="effect1_dropShadow_373_396" result="shape"/>
</filter>
<filter id="filter15_d_373_396" x="498.999" y="612.829" width="29.9417" height="30.6821" filterUnits="userSpaceOnUse" color-interpolation-filters="sRGB">
<feFlood flood-opacity="0" result="BackgroundImageFix"/>
<feColorMatrix in="SourceAlpha" type="matrix" values="0 0 0 0 0 0 0 0 0 0 0 0 0 0 0 0 0 0 127 0" result="hardAlpha"/>
<feOffset/>
<feGaussianBlur stdDeviation="5"/>
<feComposite in2="hardAlpha" operator="out"/>
<feColorMatrix type="matrix" values="0 0 0 0 1 0 0 0 0 1 0 0 0 0 1 0 0 0 1 0"/>
<feBlend mode="normal" in2="BackgroundImageFix" result="effect1_dropShadow_373_396"/>
<feBlend mode="normal" in="SourceGraphic" in2="effect1_dropShadow_373_396" result="shape"/>
</filter>
<filter id="filter16_d_373_396" x="641.286" y="509.727" width="29.762" height="30.4972" filterUnits="userSpaceOnUse" color-interpolation-filters="sRGB">
<feFlood flood-opacity="0" result="BackgroundImageFix"/>
<feColorMatrix in="SourceAlpha" type="matrix" values="0 0 0 0 0 0 0 0 0 0 0 0 0 0 0 0 0 0 127 0" result="hardAlpha"/>
<feOffset/>
<feGaussianBlur stdDeviation="5"/>
<feComposite in2="hardAlpha" operator="out"/>
<feColorMatrix type="matrix" values="0 0 0 0 1 0 0 0 0 1 0 0 0 0 1 0 0 0 1 0"/>
<feBlend mode="normal" in2="BackgroundImageFix" result="effect1_dropShadow_373_396"/>
<feBlend mode="normal" in="SourceGraphic" in2="effect1_dropShadow_373_396" result="shape"/>
</filter>
<filter id="filter17_d_373_396" x="748.592" y="547.549" width="29.762" height="30.4972" filterUnits="userSpaceOnUse" color-interpolation-filters="sRGB">
<feFlood flood-opacity="0" result="BackgroundImageFix"/>
<feColorMatrix in="SourceAlpha" type="matrix" values="0 0 0 0 0 0 0 0 0 0 0 0 0 0 0 0 0 0 127 0" result="hardAlpha"/>
<feOffset/>
<feGaussianBlur stdDeviation="5"/>
<feComposite in2="hardAlpha" operator="out"/>
<feColorMatrix type="matrix" values="0 0 0 0 1 0 0 0 0 1 0 0 0 0 1 0 0 0 1 0"/>
<feBlend mode="normal" in2="BackgroundImageFix" result="effect1_dropShadow_373_396"/>
<feBlend mode="normal" in="SourceGraphic" in2="effect1_dropShadow_373_396" result="shape"/>
</filter>
<filter id="filter18_d_373_396" x="918.577" y="706.339" width="29.9417" height="30.6821" filterUnits="userSpaceOnUse" color-interpolation-filters="sRGB">
<feFlood flood-opacity="0" result="BackgroundImageFix"/>
<feColorMatrix in="SourceAlpha" type="matrix" values="0 0 0 0 0 0 0 0 0 0 0 0 0 0 0 0 0 0 127 0" result="hardAlpha"/>
<feOffset/>
<feGaussianBlur stdDeviation="5"/>
<feComposite in2="hardAlpha" operator="out"/>
<feColorMatrix type="matrix" values="0 0 0 0 1 0 0 0 0 1 0 0 0 0 1 0 0 0 1 0"/>
<feBlend mode="normal" in2="BackgroundImageFix" result="effect1_dropShadow_373_396"/>
<feBlend mode="normal" in="SourceGraphic" in2="effect1_dropShadow_373_396" result="shape"/>
</filter>
<filter id="filter19_d_373_396" x="799.065" y="704.692" width="29.9417" height="30.6821" filterUnits="userSpaceOnUse" color-interpolation-filters="sRGB">
<feFlood flood-opacity="0" result="BackgroundImageFix"/>
<feColorMatrix in="SourceAlpha" type="matrix" values="0 0 0 0 0 0 0 0 0 0 0 0 0 0 0 0 0 0 127 0" result="hardAlpha"/>
<feOffset/>
<feGaussianBlur stdDeviation="5"/>
<feComposite in2="hardAlpha" operator="out"/>
<feColorMatrix type="matrix" values="0 0 0 0 1 0 0 0 0 1 0 0 0 0 1 0 0 0 1 0"/>
<feBlend mode="normal" in2="BackgroundImageFix" result="effect1_dropShadow_373_396"/>
<feBlend mode="normal" in="SourceGraphic" in2="effect1_dropShadow_373_396" result="shape"/>
</filter>
<filter id="filter20_d_373_396" x="941.352" y="601.591" width="29.762" height="30.4972" filterUnits="userSpaceOnUse" color-interpolation-filters="sRGB">
<feFlood flood-opacity="0" result="BackgroundImageFix"/>
<feColorMatrix in="SourceAlpha" type="matrix" values="0 0 0 0 0 0 0 0 0 0 0 0 0 0 0 0 0 0 127 0" result="hardAlpha"/>
<feOffset/>
<feGaussianBlur stdDeviation="5"/>
<feComposite in2="hardAlpha" operator="out"/>
<feColorMatrix type="matrix" values="0 0 0 0 1 0 0 0 0 1 0 0 0 0 1 0 0 0 1 0"/>
<feBlend mode="normal" in2="BackgroundImageFix" result="effect1_dropShadow_373_396"/>
<feBlend mode="normal" in="SourceGraphic" in2="effect1_dropShadow_373_396" result="shape"/>
</filter>
<filter id="filter21_d_373_396" x="898.706" y="721.604" width="29.762" height="30.4972" filterUnits="userSpaceOnUse" color-interpolation-filters="sRGB">
<feFlood flood-opacity="0" result="BackgroundImageFix"/>
<feColorMatrix in="SourceAlpha" type="matrix" values="0 0 0 0 0 0 0 0 0 0 0 0 0 0 0 0 0 0 127 0" result="hardAlpha"/>
<feOffset/>
<feGaussianBlur stdDeviation="5"/>
<feComposite in2="hardAlpha" operator="out"/>
<feColorMatrix type="matrix" values="0 0 0 0 1 0 0 0 0 1 0 0 0 0 1 0 0 0 1 0"/>
<feBlend mode="normal" in2="BackgroundImageFix" result="effect1_dropShadow_373_396"/>
<feBlend mode="normal" in="SourceGraphic" in2="effect1_dropShadow_373_396" result="shape"/>
</filter>
<filter id="filter22_d_373_396" x="68.7126" y="387.401" width="29.9518" height="30.6931" filterUnits="userSpaceOnUse" color-interpolation-filters="sRGB">
<feFlood flood-opacity="0" result="BackgroundImageFix"/>
<feColorMatrix in="SourceAlpha" type="matrix" values="0 0 0 0 0 0 0 0 0 0 0 0 0 0 0 0 0 0 127 0" result="hardAlpha"/>
<feOffset/>
<feGaussianBlur stdDeviation="5"/>
<feComposite in2="hardAlpha" operator="out"/>
<feColorMatrix type="matrix" values="0 0 0 0 1 0 0 0 0 1 0 0 0 0 1 0 0 0 1 0"/>
<feBlend mode="normal" in2="BackgroundImageFix" result="effect1_dropShadow_373_396"/>
<feBlend mode="normal" in="SourceGraphic" in2="effect1_dropShadow_373_396" result="shape"/>
</filter>
<filter id="filter23_d_373_396" x="112.92" y="291.044" width="29.1112" height="29.7979" filterUnits="userSpaceOnUse" color-interpolation-filters="sRGB">
<feFlood flood-opacity="0" result="BackgroundImageFix"/>
<feColorMatrix in="SourceAlpha" type="matrix" values="0 0 0 0 0 0 0 0 0 0 0 0 0 0 0 0 0 0 127 0" result="hardAlpha"/>
<feOffset/>
<feGaussianBlur stdDeviation="5"/>
<feComposite in2="hardAlpha" operator="out"/>
<feColorMatrix type="matrix" values="0 0 0 0 1 0 0 0 0 1 0 0 0 0 1 0 0 0 1 0"/>
<feBlend mode="normal" in2="BackgroundImageFix" result="effect1_dropShadow_373_396"/>
<feBlend mode="normal" in="SourceGraphic" in2="effect1_dropShadow_373_396" result="shape"/>
</filter>
<filter id="filter24_d_373_396" x="179.103" y="592.951" width="29.9518" height="30.6931" filterUnits="userSpaceOnUse" color-interpolation-filters="sRGB">
<feFlood flood-opacity="0" result="BackgroundImageFix"/>
<feColorMatrix in="SourceAlpha" type="matrix" values="0 0 0 0 0 0 0 0 0 0 0 0 0 0 0 0 0 0 127 0" result="hardAlpha"/>
<feOffset/>
<feGaussianBlur stdDeviation="5"/>
<feComposite in2="hardAlpha" operator="out"/>
<feColorMatrix type="matrix" values="0 0 0 0 1 0 0 0 0 1 0 0 0 0 1 0 0 0 1 0"/>
<feBlend mode="normal" in2="BackgroundImageFix" result="effect1_dropShadow_373_396"/>
<feBlend mode="normal" in="SourceGraphic" in2="effect1_dropShadow_373_396" result="shape"/>
</filter>
<filter id="filter25_d_373_396" x="62.9182" y="562.809" width="29.9518" height="30.6931" filterUnits="userSpaceOnUse" color-interpolation-filters="sRGB">
<feFlood flood-opacity="0" result="BackgroundImageFix"/>
<feColorMatrix in="SourceAlpha" type="matrix" values="0 0 0 0 0 0 0 0 0 0 0 0 0 0 0 0 0 0 127 0" result="hardAlpha"/>
<feOffset/>
<feGaussianBlur stdDeviation="5"/>
<feComposite in2="hardAlpha" operator="out"/>
<feColorMatrix type="matrix" values="0 0 0 0 1 0 0 0 0 1 0 0 0 0 1 0 0 0 1 0"/>
<feBlend mode="normal" in2="BackgroundImageFix" result="effect1_dropShadow_373_396"/>
<feBlend mode="normal" in="SourceGraphic" in2="effect1_dropShadow_373_396" result="shape"/>
</filter>
<filter id="filter26_d_373_396" x="342.295" y="548.619" width="29.9518" height="30.6931" filterUnits="userSpaceOnUse" color-interpolation-filters="sRGB">
<feFlood flood-opacity="0" result="BackgroundImageFix"/>
<feColorMatrix in="SourceAlpha" type="matrix" values="0 0 0 0 0 0 0 0 0 0 0 0 0 0 0 0 0 0 127 0" result="hardAlpha"/>
<feOffset/>
<feGaussianBlur stdDeviation="5"/>
<feComposite in2="hardAlpha" operator="out"/>
<feColorMatrix type="matrix" values="0 0 0 0 1 0 0 0 0 1 0 0 0 0 1 0 0 0 1 0"/>
<feBlend mode="normal" in2="BackgroundImageFix" result="effect1_dropShadow_373_396"/>
<feBlend mode="normal" in="SourceGraphic" in2="effect1_dropShadow_373_396" result="shape"/>
</filter>
<filter id="filter27_d_373_396" x="320.118" y="559.094" width="29.1112" height="29.7979" filterUnits="userSpaceOnUse" color-interpolation-filters="sRGB">
<feFlood flood-opacity="0" result="BackgroundImageFix"/>
<feColorMatrix in="SourceAlpha" type="matrix" values="0 0 0 0 0 0 0 0 0 0 0 0 0 0 0 0 0 0 127 0" result="hardAlpha"/>
<feOffset/>
<feGaussianBlur stdDeviation="5"/>
<feComposite in2="hardAlpha" operator="out"/>
<feColorMatrix type="matrix" values="0 0 0 0 1 0 0 0 0 1 0 0 0 0 1 0 0 0 1 0"/>
<feBlend mode="normal" in2="BackgroundImageFix" result="effect1_dropShadow_373_396"/>
<feBlend mode="normal" in="SourceGraphic" in2="effect1_dropShadow_373_396" result="shape"/>
</filter>
<filter id="filter28_d_373_396" x="336.501" y="724.026" width="29.9518" height="30.6931" filterUnits="userSpaceOnUse" color-interpolation-filters="sRGB">
<feFlood flood-opacity="0" result="BackgroundImageFix"/>
<feColorMatrix in="SourceAlpha" type="matrix" values="0 0 0 0 0 0 0 0 0 0 0 0 0 0 0 0 0 0 127 0" result="hardAlpha"/>
<feOffset/>
<feGaussianBlur stdDeviation="5"/>
<feComposite in2="hardAlpha" operator="out"/>
<feColorMatrix type="matrix" values="0 0 0 0 1 0 0 0 0 1 0 0 0 0 1 0 0 0 1 0"/>
<feBlend mode="normal" in2="BackgroundImageFix" result="effect1_dropShadow_373_396"/>
<feBlend mode="normal" in="SourceGraphic" in2="effect1_dropShadow_373_396" result="shape"/>
</filter>
<filter id="filter29_d_373_396" x="1080.53" y="69.1932" width="29.9518" height="30.6931" filterUnits="userSpaceOnUse" color-interpolation-filters="sRGB">
<feFlood flood-opacity="0" result="BackgroundImageFix"/>
<feColorMatrix in="SourceAlpha" type="matrix" values="0 0 0 0 0 0 0 0 0 0 0 0 0 0 0 0 0 0 127 0" result="hardAlpha"/>
<feOffset/>
<feGaussianBlur stdDeviation="5"/>
<feComposite in2="hardAlpha" operator="out"/>
<feColorMatrix type="matrix" values="0 0 0 0 1 0 0 0 0 1 0 0 0 0 1 0 0 0 1 0"/>
<feBlend mode="normal" in2="BackgroundImageFix" result="effect1_dropShadow_373_396"/>
<feBlend mode="normal" in="SourceGraphic" in2="effect1_dropShadow_373_396" result="shape"/>
</filter>
<filter id="filter30_d_373_396" x="1174.54" y="109.811" width="29.1111" height="29.7979" filterUnits="userSpaceOnUse" color-interpolation-filters="sRGB">
<feFlood flood-opacity="0" result="BackgroundImageFix"/>
<feColorMatrix in="SourceAlpha" type="matrix" values="0 0 0 0 0 0 0 0 0 0 0 0 0 0 0 0 0 0 127 0" result="hardAlpha"/>
<feOffset/>
<feGaussianBlur stdDeviation="5"/>
<feComposite in2="hardAlpha" operator="out"/>
<feColorMatrix type="matrix" values="0 0 0 0 1 0 0 0 0 1 0 0 0 0 1 0 0 0 1 0"/>
<feBlend mode="normal" in2="BackgroundImageFix" result="effect1_dropShadow_373_396"/>
<feBlend mode="normal" in="SourceGraphic" in2="effect1_dropShadow_373_396" result="shape"/>
</filter>
<filter id="filter31_d_373_396" x="1307.1" y="304.886" width="29.9518" height="30.6931" filterUnits="userSpaceOnUse" color-interpolation-filters="sRGB">
<feFlood flood-opacity="0" result="BackgroundImageFix"/>
<feColorMatrix in="SourceAlpha" type="matrix" values="0 0 0 0 0 0 0 0 0 0 0 0 0 0 0 0 0 0 127 0" result="hardAlpha"/>
<feOffset/>
<feGaussianBlur stdDeviation="5"/>
<feComposite in2="hardAlpha" operator="out"/>
<feColorMatrix type="matrix" values="0 0 0 0 1 0 0 0 0 1 0 0 0 0 1 0 0 0 1 0"/>
<feBlend mode="normal" in2="BackgroundImageFix" result="effect1_dropShadow_373_396"/>
<feBlend mode="normal" in="SourceGraphic" in2="effect1_dropShadow_373_396" result="shape"/>
</filter>
<filter id="filter32_d_373_396" x="1190.92" y="274.744" width="29.9518" height="30.6931" filterUnits="userSpaceOnUse" color-interpolation-filters="sRGB">
<feFlood flood-opacity="0" result="BackgroundImageFix"/>
<feColorMatrix in="SourceAlpha" type="matrix" values="0 0 0 0 0 0 0 0 0 0 0 0 0 0 0 0 0 0 127 0" result="hardAlpha"/>
<feOffset/>
<feGaussianBlur stdDeviation="5"/>
<feComposite in2="hardAlpha" operator="out"/>
<feColorMatrix type="matrix" values="0 0 0 0 1 0 0 0 0 1 0 0 0 0 1 0 0 0 1 0"/>
<feBlend mode="normal" in2="BackgroundImageFix" result="effect1_dropShadow_373_396"/>
<feBlend mode="normal" in="SourceGraphic" in2="effect1_dropShadow_373_396" result="shape"/>
</filter>
<filter id="filter33_d_373_396" x="1284.93" y="315.361" width="29.1111" height="29.7979" filterUnits="userSpaceOnUse" color-interpolation-filters="sRGB">
<feFlood flood-opacity="0" result="BackgroundImageFix"/>
<feColorMatrix in="SourceAlpha" type="matrix" values="0 0 0 0 0 0 0 0 0 0 0 0 0 0 0 0 0 0 127 0" result="hardAlpha"/>
<feOffset/>
<feGaussianBlur stdDeviation="5"/>
<feComposite in2="hardAlpha" operator="out"/>
<feColorMatrix type="matrix" values="0 0 0 0 1 0 0 0 0 1 0 0 0 0 1 0 0 0 1 0"/>
<feBlend mode="normal" in2="BackgroundImageFix" result="effect1_dropShadow_373_396"/>
<feBlend mode="normal" in="SourceGraphic" in2="effect1_dropShadow_373_396" result="shape"/>
</filter>
<filter id="filter34_d_373_396" x="984.577" y="660.587" width="29.2206" height="29.9064" filterUnits="userSpaceOnUse" color-interpolation-filters="sRGB">
<feFlood flood-opacity="0" result="BackgroundImageFix"/>
<feColorMatrix in="SourceAlpha" type="matrix" values="0 0 0 0 0 0 0 0 0 0 0 0 0 0 0 0 0 0 127 0" result="hardAlpha"/>
<feOffset/>
<feGaussianBlur stdDeviation="5"/>
<feComposite in2="hardAlpha" operator="out"/>
<feColorMatrix type="matrix" values="0 0 0 0 1 0 0 0 0 1 0 0 0 0 1 0 0 0 1 0"/>
<feBlend mode="normal" in2="BackgroundImageFix" result="effect1_dropShadow_373_396"/>
<feBlend mode="normal" in="SourceGraphic" in2="effect1_dropShadow_373_396" result="shape"/>
</filter>
<filter id="filter35_d_373_396" x="975.767" y="552.923" width="29.9708" height="30.7211" filterUnits="userSpaceOnUse" color-interpolation-filters="sRGB">
<feFlood flood-opacity="0" result="BackgroundImageFix"/>
<feColorMatrix in="SourceAlpha" type="matrix" values="0 0 0 0 0 0 0 0 0 0 0 0 0 0 0 0 0 0 127 0" result="hardAlpha"/>
<feOffset/>
<feGaussianBlur stdDeviation="5"/>
<feComposite in2="hardAlpha" operator="out"/>
<feColorMatrix type="matrix" values="0 0 0 0 1 0 0 0 0 1 0 0 0 0 1 0 0 0 1 0"/>
<feBlend mode="normal" in2="BackgroundImageFix" result="effect1_dropShadow_373_396"/>
<feBlend mode="normal" in="SourceGraphic" in2="effect1_dropShadow_373_396" result="shape"/>
</filter>
<filter id="filter36_d_373_396" x="969.554" y="681.219" width="29.9708" height="30.7211" filterUnits="userSpaceOnUse" color-interpolation-filters="sRGB">
<feFlood flood-opacity="0" result="BackgroundImageFix"/>
<feColorMatrix in="SourceAlpha" type="matrix" values="0 0 0 0 0 0 0 0 0 0 0 0 0 0 0 0 0 0 127 0" result="hardAlpha"/>
<feOffset/>
<feGaussianBlur stdDeviation="5"/>
<feComposite in2="hardAlpha" operator="out"/>
<feColorMatrix type="matrix" values="0 0 0 0 1 0 0 0 0 1 0 0 0 0 1 0 0 0 1 0"/>
<feBlend mode="normal" in2="BackgroundImageFix" result="effect1_dropShadow_373_396"/>
<feBlend mode="normal" in="SourceGraphic" in2="effect1_dropShadow_373_396" result="shape"/>
</filter>
</defs>
</svg>
