<svg width="1338" height="718" viewBox="0 0 1338 718" fill="none" xmlns="http://www.w3.org/2000/svg">
<g filter="url(#filter0_d_373_396)">
<path d="M472.49 304.03C472.491 304.18 472.447 304.326 472.363 304.448C472.279 304.57 472.159 304.663 472.021 304.713L469.188 305.763L468.158 308.65C468.108 308.79 468.016 308.91 467.896 308.995C467.777 309.08 467.634 309.125 467.489 309.125C467.343 309.125 467.2 309.08 467.081 308.995C466.961 308.91 466.869 308.79 466.819 308.65L465.788 305.76L462.956 304.713C462.819 304.661 462.701 304.568 462.618 304.446C462.535 304.324 462.49 304.179 462.49 304.03C462.49 303.882 462.535 303.737 462.618 303.614C462.701 303.492 462.819 303.399 462.956 303.348L465.792 302.297L466.819 299.41C466.869 299.271 466.961 299.151 467.081 299.066C467.2 298.981 467.343 298.936 467.489 298.936C467.634 298.936 467.777 298.981 467.896 299.066C468.016 299.151 468.108 299.271 468.158 299.41L469.189 302.301L472.021 303.348C472.159 303.398 472.279 303.49 472.363 303.613C472.447 303.735 472.491 303.881 472.49 304.03Z" fill="white"/>
</g>
<g filter="url(#filter1_d_373_396)">
<path d="M435.268 395.275C435.406 395.325 435.525 395.418 435.609 395.541C435.693 395.664 435.737 395.81 435.735 395.959L435.726 399.032L438.029 401.012C438.14 401.109 438.219 401.238 438.256 401.382C438.293 401.525 438.286 401.677 438.236 401.817C438.185 401.956 438.094 402.077 437.975 402.162C437.855 402.248 437.713 402.294 437.567 402.294L434.55 402.283L432.61 404.632C432.515 404.745 432.388 404.826 432.247 404.863C432.106 404.901 431.957 404.894 431.82 404.843C431.683 404.791 431.565 404.699 431.481 404.577C431.398 404.455 431.353 404.31 431.352 404.161L431.363 401.086L429.058 399.108C428.947 399.011 428.868 398.883 428.831 398.739C428.794 398.595 428.801 398.443 428.852 398.303C428.902 398.164 428.993 398.043 429.113 397.958C429.232 397.873 429.374 397.827 429.52 397.826L432.537 397.837L434.478 395.488C434.572 395.373 434.698 395.291 434.84 395.253C434.981 395.215 435.131 395.222 435.268 395.275Z" fill="white"/>
</g>
<g filter="url(#filter2_d_373_396)">
<path d="M342.362 122.205C342.363 122.354 342.318 122.5 342.234 122.623C342.15 122.745 342.031 122.838 341.893 122.888L339.06 123.938L338.03 126.825C337.979 126.964 337.888 127.084 337.768 127.169C337.648 127.254 337.506 127.3 337.36 127.3C337.214 127.3 337.072 127.254 336.952 127.169C336.832 127.084 336.741 126.964 336.69 126.825L335.66 123.934L332.828 122.888C332.691 122.836 332.573 122.743 332.49 122.621C332.406 122.499 332.362 122.354 332.362 122.205C332.362 122.056 332.406 121.911 332.49 121.789C332.573 121.667 332.691 121.574 332.828 121.522L335.663 120.472L336.69 117.585C336.741 117.446 336.832 117.325 336.952 117.24C337.072 117.156 337.214 117.11 337.36 117.11C337.506 117.11 337.648 117.156 337.768 117.24C337.888 117.325 337.979 117.446 338.03 117.585L339.06 120.475L341.893 121.522C342.031 121.572 342.15 121.665 342.234 121.787C342.318 121.91 342.363 122.056 342.362 122.205Z" fill="white"/>
</g>
<g filter="url(#filter3_d_373_396)">
<path d="M305.14 213.449C305.278 213.499 305.397 213.592 305.481 213.715C305.564 213.837 305.609 213.984 305.607 214.133L305.597 217.205L307.901 219.186C308.012 219.283 308.091 219.412 308.128 219.556C308.165 219.699 308.158 219.851 308.107 219.991C308.057 220.13 307.966 220.251 307.847 220.336C307.727 220.421 307.585 220.467 307.439 220.468L304.422 220.457L302.481 222.806C302.387 222.919 302.26 223 302.119 223.037C301.978 223.075 301.829 223.068 301.692 223.016C301.555 222.965 301.437 222.872 301.353 222.751C301.269 222.629 301.224 222.484 301.224 222.335L301.235 219.26L298.93 217.282C298.819 217.185 298.74 217.057 298.703 216.913C298.666 216.769 298.673 216.617 298.723 216.477C298.774 216.338 298.865 216.217 298.984 216.132C299.104 216.047 299.246 216.001 299.392 216L302.409 216.011L304.35 213.662C304.443 213.547 304.57 213.465 304.711 213.427C304.853 213.389 305.003 213.396 305.14 213.449Z" fill="white"/>
</g>
<g filter="url(#filter4_d_373_396)">
<path d="M360.562 105.514C360.7 105.565 360.819 105.658 360.903 105.78C360.987 105.903 361.031 106.049 361.029 106.198L361.019 109.271L363.323 111.252C363.434 111.348 363.513 111.477 363.55 111.621C363.587 111.765 363.58 111.917 363.529 112.056C363.479 112.196 363.388 112.316 363.269 112.402C363.149 112.487 363.007 112.533 362.861 112.533L359.844 112.522L357.903 114.872C357.809 114.985 357.682 115.065 357.541 115.103C357.4 115.14 357.251 115.133 357.114 115.082C356.977 115.031 356.859 114.938 356.775 114.816C356.692 114.694 356.646 114.549 356.646 114.401L356.657 111.326L354.352 109.347C354.241 109.251 354.162 109.122 354.125 108.978C354.088 108.834 354.095 108.682 354.146 108.543C354.196 108.403 354.287 108.283 354.406 108.198C354.526 108.112 354.668 108.066 354.814 108.066L357.831 108.077L359.772 105.728C359.865 105.613 359.992 105.53 360.133 105.492C360.275 105.454 360.425 105.462 360.562 105.514Z" fill="white"/>
</g>
<g filter="url(#filter5_d_373_396)">
<path d="M1038 16.0995C1038 16.2489 1037.96 16.3949 1037.87 16.5172C1037.79 16.6396 1037.67 16.7322 1037.53 16.7823L1034.7 17.8323L1033.67 20.7194C1033.62 20.8588 1033.53 20.979 1033.41 21.0639C1033.29 21.1488 1033.14 21.1943 1033 21.1943C1032.85 21.1943 1032.71 21.1488 1032.59 21.0639C1032.47 20.979 1032.38 20.8588 1032.33 20.7194L1031.3 17.8291L1028.47 16.7823C1028.33 16.7305 1028.21 16.6374 1028.13 16.5153C1028.04 16.3933 1028 16.2482 1028 16.0995C1028 15.9509 1028.04 15.8058 1028.13 15.6837C1028.21 15.5617 1028.33 15.4685 1028.47 15.4168L1031.3 14.3667L1032.33 11.4796C1032.38 11.3402 1032.47 11.22 1032.59 11.1351C1032.71 11.0503 1032.85 11.0048 1033 11.0048C1033.14 11.0048 1033.29 11.0503 1033.41 11.1351C1033.53 11.22 1033.62 11.3402 1033.67 11.4796L1034.7 14.3699L1037.53 15.4168C1037.67 15.4668 1037.79 15.5594 1037.87 15.6818C1037.96 15.8042 1038 15.9502 1038 16.0995Z" fill="white"/>
</g>
<g filter="url(#filter6_d_373_396)">
<path d="M172.872 15.7027C172.873 15.852 172.829 15.998 172.745 16.1204C172.661 16.2427 172.541 16.3354 172.403 16.3854L169.57 17.4355L168.541 20.3226C168.49 20.462 168.398 20.5822 168.279 20.667C168.159 20.7519 168.017 20.7974 167.871 20.7974C167.725 20.7974 167.583 20.7519 167.463 20.667C167.343 20.5822 167.252 20.462 167.201 20.3226L166.171 17.4323L163.338 16.3854C163.201 16.3337 163.083 16.2405 163 16.1185C162.917 15.9964 162.872 15.8513 162.872 15.7027C162.872 15.554 162.917 15.4089 163 15.2869C163.083 15.1648 163.201 15.0717 163.338 15.0199L166.174 13.9699L167.201 11.0827C167.252 10.9434 167.343 10.8232 167.463 10.7383C167.583 10.6534 167.725 10.6079 167.871 10.6079C168.017 10.6079 168.159 10.6534 168.279 10.7383C168.398 10.8232 168.49 10.9434 168.541 11.0827L169.571 13.973L172.403 15.0199C172.541 15.07 172.661 15.1626 172.745 15.285C172.829 15.4073 172.873 15.5533 172.872 15.7027Z" fill="white"/>
</g>
<g filter="url(#filter7_d_373_396)">
<path d="M17.14 91.1375C17.2779 91.1879 17.397 91.2809 17.4807 91.4035C17.5644 91.5261 17.6086 91.6722 17.6071 91.8215L17.5973 94.8941L19.901 96.8748C20.0119 96.9714 20.0911 97.1003 20.128 97.2441C20.1649 97.388 20.1577 97.5399 20.1074 97.6794C20.0571 97.819 19.9661 97.9395 19.8466 98.0248C19.7272 98.1101 19.585 98.1561 19.4391 98.1566L16.4221 98.1457L14.4813 100.495C14.3866 100.608 14.2601 100.688 14.119 100.726C13.9779 100.764 13.8289 100.756 13.6919 100.705C13.555 100.654 13.4368 100.561 13.3531 100.439C13.2694 100.318 13.2243 100.173 13.2238 100.024L13.2345 96.9488L10.9298 94.9706C10.819 94.874 10.7398 94.7451 10.7029 94.6013C10.666 94.4575 10.6732 94.3056 10.7235 94.166C10.7738 94.0265 10.8648 93.906 10.9842 93.8207C11.1037 93.7354 11.2459 93.6894 11.3917 93.6889L14.4087 93.6998L16.3495 91.3507C16.4432 91.2359 16.5697 91.1536 16.7113 91.1154C16.853 91.0772 17.0028 91.0849 17.14 91.1375Z" fill="white"/>
</g>
<g filter="url(#filter8_d_373_396)">
<path d="M975.627 445.021C975.596 445.167 975.52 445.299 975.412 445.399C975.303 445.499 975.167 445.563 975.021 445.58L972.03 445.963L970.397 448.544C970.317 448.669 970.202 448.765 970.066 448.821C969.931 448.877 969.782 448.889 969.64 448.856C969.498 448.823 969.369 448.746 969.271 448.636C969.172 448.526 969.11 448.388 969.09 448.241L968.716 445.19L966.182 443.528C966.06 443.446 965.966 443.329 965.911 443.191C965.856 443.053 965.844 442.901 965.877 442.756C965.909 442.611 965.984 442.48 966.092 442.38C966.2 442.28 966.335 442.216 966.48 442.196L969.474 441.814L971.104 439.232C971.184 439.108 971.299 439.011 971.435 438.955C971.57 438.9 971.719 438.888 971.861 438.921C972.003 438.954 972.132 439.03 972.23 439.14C972.328 439.25 972.391 439.388 972.41 439.535L972.785 442.587L975.319 444.249C975.442 444.329 975.539 444.446 975.594 444.585C975.649 444.723 975.661 444.875 975.627 445.021Z" fill="white"/>
</g>
<g filter="url(#filter9_d_373_396)">
<path d="M884.907 390.62C885.03 390.7 885.126 390.818 885.181 390.956C885.236 391.095 885.247 391.247 885.213 391.392L884.534 394.386L886.348 396.839C886.435 396.958 886.484 397.102 886.489 397.25C886.494 397.399 886.453 397.545 886.374 397.67C886.295 397.795 886.18 397.892 886.045 397.948C885.909 398.004 885.761 398.017 885.618 397.984L882.679 397.29L880.275 399.141C880.158 399.23 880.017 399.28 879.871 399.285C879.725 399.289 879.582 399.248 879.459 399.168C879.337 399.087 879.242 398.969 879.187 398.832C879.132 398.694 879.12 398.542 879.151 398.397L879.832 395.402L878.016 392.951C877.929 392.832 877.88 392.688 877.875 392.539C877.871 392.391 877.911 392.244 877.99 392.12C878.07 391.995 878.185 391.898 878.32 391.842C878.455 391.786 878.604 391.773 878.746 391.806L881.685 392.5L884.089 390.649C884.206 390.558 884.347 390.506 884.493 390.501C884.64 390.496 884.784 390.537 884.907 390.62Z" fill="white"/>
</g>
<g filter="url(#filter10_d_373_396)">
<path d="M720.097 276.561C720.221 276.642 720.316 276.759 720.371 276.898C720.426 277.036 720.437 277.189 720.403 277.334L719.724 280.327L721.539 282.78C721.626 282.9 721.675 283.043 721.679 283.192C721.684 283.34 721.644 283.487 721.565 283.612C721.485 283.736 721.37 283.833 721.235 283.889C721.1 283.945 720.951 283.958 720.809 283.925L717.87 283.232L715.465 285.083C715.348 285.171 715.208 285.221 715.062 285.226C714.916 285.231 714.772 285.19 714.65 285.109C714.528 285.028 714.433 284.911 714.378 284.773C714.322 284.635 714.31 284.484 714.342 284.339L715.023 281.343L713.207 278.892C713.12 278.773 713.071 278.629 713.066 278.481C713.061 278.332 713.101 278.186 713.181 278.061C713.26 277.936 713.375 277.84 713.51 277.783C713.645 277.727 713.794 277.715 713.936 277.747L716.876 278.441L719.28 276.59C719.396 276.499 719.538 276.448 719.684 276.443C719.83 276.437 719.975 276.479 720.097 276.561Z" fill="white"/>
</g>
<g filter="url(#filter11_d_373_396)">
<path d="M553.199 298.842C553.323 298.922 553.418 299.04 553.473 299.178C553.528 299.317 553.539 299.469 553.505 299.614L552.826 302.608L554.641 305.061C554.728 305.18 554.777 305.324 554.781 305.472C554.786 305.621 554.746 305.767 554.667 305.892C554.587 306.017 554.472 306.114 554.337 306.17C554.202 306.226 554.053 306.238 553.911 306.206L550.972 305.512L548.567 307.363C548.45 307.452 548.31 307.502 548.164 307.507C548.018 307.511 547.874 307.47 547.752 307.389C547.63 307.308 547.535 307.191 547.48 307.054C547.424 306.916 547.412 306.764 547.444 306.619L548.125 303.623L546.309 301.173C546.222 301.054 546.173 300.91 546.168 300.761C546.163 300.613 546.203 300.466 546.283 300.342C546.362 300.217 546.477 300.12 546.612 300.064C546.747 300.008 546.896 299.995 547.038 300.028L549.978 300.722L552.382 298.871C552.498 298.78 552.64 298.728 552.786 298.723C552.932 298.718 553.077 298.759 553.199 298.842Z" fill="white"/>
</g>
<g filter="url(#filter12_d_373_396)">
<path d="M634.233 53.807C634.202 53.9529 634.127 54.0852 634.018 54.1855C633.909 54.2857 633.773 54.349 633.627 54.3666L630.636 54.7489L629.003 57.3307C628.923 57.4551 628.808 57.5516 628.673 57.6073C628.537 57.6629 628.389 57.675 628.246 57.642C628.104 57.609 627.975 57.5324 627.877 57.4225C627.779 57.3126 627.716 57.1748 627.697 57.0274L627.322 53.976L624.789 52.3139C624.667 52.2325 624.572 52.115 624.517 51.9772C624.463 51.8393 624.451 51.6877 624.483 51.5428C624.516 51.3978 624.591 51.2665 624.699 51.1663C624.806 51.0662 624.942 51.002 625.086 50.9826L628.08 50.6008L629.711 48.0184C629.79 47.894 629.906 47.7975 630.041 47.7419C630.176 47.6862 630.325 47.6741 630.467 47.7071C630.609 47.7401 630.738 47.8167 630.836 47.9266C630.935 48.0365 630.998 48.1744 631.017 48.3218L631.391 51.3731L633.925 53.0352C634.049 53.1152 634.145 53.2326 634.2 53.3709C634.255 53.5092 634.267 53.6617 634.233 53.807Z" fill="white"/>
</g>
<g filter="url(#filter13_d_373_396)">
<path d="M465.951 92.095C466.075 92.1754 466.171 92.293 466.225 92.4315C466.28 92.5699 466.292 92.7224 466.258 92.8677L465.578 95.8612L467.393 98.3141C467.48 98.4334 467.529 98.577 467.534 98.7256C467.538 98.8742 467.498 99.0207 467.419 99.1453C467.339 99.27 467.224 99.3669 467.089 99.423C466.954 99.4791 466.805 99.4918 466.663 99.4592L463.724 98.7655L461.32 100.616C461.203 100.705 461.062 100.755 460.916 100.76C460.77 100.765 460.626 100.724 460.504 100.643C460.382 100.562 460.287 100.445 460.232 100.307C460.177 100.169 460.164 100.018 460.196 99.8726L460.877 96.8768L459.061 94.4262C458.974 94.3069 458.925 94.1633 458.92 94.0147C458.915 93.8661 458.956 93.7196 459.035 93.595C459.114 93.4703 459.229 93.3734 459.364 93.3173C459.5 93.2612 459.648 93.2485 459.791 93.2811L462.73 93.9748L465.134 92.1239C465.25 92.0331 465.392 91.9816 465.538 91.9764C465.685 91.9712 465.829 92.0127 465.951 92.095Z" fill="white"/>
</g>
<g filter="url(#filter14_d_373_396)">
<path d="M462.243 452.405C462.1 452.372 461.972 452.294 461.874 452.182C461.777 452.07 461.716 451.93 461.701 451.782L461.358 448.729L458.842 447.037C458.721 446.954 458.628 446.836 458.575 446.697C458.521 446.559 458.511 446.407 458.545 446.263C458.579 446.118 458.655 445.987 458.764 445.888C458.873 445.789 459.009 445.727 459.154 445.709L462.151 445.36L463.809 442.795C463.89 442.672 464.007 442.577 464.142 442.522C464.278 442.468 464.427 442.458 464.569 442.492C464.711 442.527 464.839 442.605 464.936 442.716C465.033 442.827 465.094 442.965 465.112 443.113L465.455 446.168L467.971 447.858C468.092 447.94 468.185 448.059 468.238 448.197C468.291 448.336 468.302 448.488 468.268 448.632C468.234 448.777 468.157 448.907 468.049 449.006C467.94 449.105 467.804 449.168 467.659 449.186L464.661 449.535L463.004 452.099C462.924 452.225 462.808 452.321 462.671 452.376C462.535 452.431 462.386 452.441 462.243 452.405Z" fill="white"/>
</g>
<g filter="url(#filter15_d_373_396)">
<path d="M509.005 597.147C508.986 596.999 509.014 596.849 509.083 596.717C509.153 596.586 509.26 596.48 509.392 596.413L512.085 595.033L512.776 592.043C512.81 591.898 512.887 591.768 512.996 591.669C513.106 591.571 513.242 591.508 513.387 591.491C513.531 591.474 513.678 591.502 513.807 591.572C513.935 591.642 514.04 591.75 514.106 591.883L515.461 594.63L518.395 595.332C518.536 595.367 518.664 595.445 518.761 595.557C518.858 595.668 518.919 595.807 518.936 595.954C518.953 596.102 518.925 596.251 518.857 596.383C518.788 596.514 518.681 596.62 518.552 596.688L515.856 598.069L515.167 601.059C515.133 601.203 515.056 601.334 514.947 601.432C514.838 601.531 514.702 601.593 514.557 601.61C514.412 601.628 514.265 601.6 514.137 601.53C514.008 601.46 513.903 601.351 513.837 601.219L512.482 598.471L509.549 597.77C509.406 597.736 509.277 597.659 509.179 597.547C509.082 597.436 509.021 597.296 509.005 597.147Z" fill="white"/>
</g>
<g filter="url(#filter16_d_373_396)">
<path d="M655.004 503.652C654.861 503.618 654.732 503.54 654.635 503.428C654.537 503.316 654.477 503.176 654.461 503.028L654.118 499.975L651.603 498.283C651.481 498.2 651.388 498.082 651.335 497.943C651.282 497.805 651.271 497.653 651.305 497.509C651.339 497.364 651.416 497.233 651.525 497.135C651.633 497.036 651.769 496.973 651.914 496.955L654.912 496.606L656.569 494.041C656.651 493.918 656.767 493.823 656.903 493.768C657.039 493.714 657.187 493.704 657.329 493.738C657.471 493.773 657.599 493.851 657.696 493.962C657.793 494.073 657.855 494.211 657.872 494.359L658.215 497.414L660.731 499.104C660.852 499.187 660.946 499.305 660.999 499.444C661.052 499.582 661.062 499.734 661.028 499.878C660.994 500.023 660.918 500.153 660.809 500.252C660.7 500.351 660.564 500.414 660.419 500.432L657.422 500.781L655.764 503.345C655.684 503.471 655.568 503.567 655.432 503.622C655.296 503.677 655.146 503.687 655.004 503.652Z" fill="white"/>
</g>
<g filter="url(#filter17_d_373_396)">
<path d="M762.31 539.516C762.167 539.483 762.038 539.405 761.941 539.293C761.843 539.181 761.783 539.041 761.767 538.893L761.424 535.84L758.909 534.148C758.787 534.065 758.694 533.947 758.641 533.808C758.588 533.67 758.577 533.518 758.611 533.373C758.645 533.229 758.722 533.098 758.831 532.999C758.939 532.9 759.075 532.838 759.22 532.82L762.218 532.471L763.875 529.906C763.956 529.783 764.073 529.688 764.209 529.633C764.344 529.579 764.493 529.569 764.635 529.603C764.777 529.638 764.905 529.716 765.002 529.827C765.099 529.938 765.161 530.076 765.178 530.224L765.521 533.279L768.037 534.969C768.158 535.051 768.251 535.17 768.305 535.308C768.358 535.447 768.368 535.599 768.334 535.743C768.3 535.888 768.224 536.018 768.115 536.117C768.006 536.216 767.87 536.279 767.725 536.297L764.728 536.646L763.07 539.21C762.99 539.336 762.874 539.432 762.738 539.487C762.601 539.542 762.452 539.552 762.31 539.516Z" fill="white"/>
</g>
<g filter="url(#filter18_d_373_396)">
<path d="M928.582 685.82C928.564 685.672 928.592 685.522 928.661 685.39C928.73 685.259 928.838 685.152 928.97 685.086L931.663 683.705L932.354 680.715C932.388 680.571 932.465 680.44 932.574 680.342C932.683 680.243 932.82 680.181 932.964 680.164C933.109 680.146 933.256 680.175 933.385 680.245C933.513 680.315 933.618 680.423 933.684 680.555L935.039 683.303L937.972 684.005C938.114 684.04 938.242 684.118 938.339 684.229C938.435 684.341 938.496 684.48 938.514 684.627C938.531 684.775 938.503 684.924 938.434 685.055C938.366 685.187 938.259 685.293 938.129 685.361L935.434 686.742L934.745 689.732C934.711 689.876 934.634 690.006 934.525 690.105C934.416 690.204 934.279 690.266 934.135 690.283C933.99 690.301 933.843 690.272 933.714 690.202C933.586 690.132 933.481 690.024 933.415 689.892L932.06 687.144L929.126 686.442C928.984 686.409 928.854 686.331 928.757 686.22C928.659 686.108 928.598 685.969 928.582 685.82Z" fill="white"/>
</g>
<g filter="url(#filter19_d_373_396)">
<path d="M809.071 684.258C809.053 684.11 809.08 683.96 809.149 683.828C809.219 683.697 809.327 683.591 809.458 683.524L812.151 682.144L812.842 679.153C812.877 679.009 812.954 678.879 813.063 678.78C813.172 678.682 813.308 678.619 813.453 678.602C813.598 678.585 813.744 678.613 813.873 678.683C814.002 678.753 814.106 678.861 814.173 678.994L815.528 681.741L818.461 682.443C818.603 682.478 818.731 682.556 818.827 682.668C818.924 682.779 818.985 682.918 819.002 683.065C819.019 683.213 818.991 683.362 818.923 683.494C818.854 683.625 818.748 683.731 818.618 683.799L815.922 685.18L815.234 688.17C815.199 688.314 815.122 688.445 815.013 688.543C814.904 688.642 814.768 688.704 814.623 688.721C814.478 688.739 814.332 688.711 814.203 688.641C814.074 688.571 813.97 688.462 813.903 688.33L812.548 685.582L809.615 684.881C809.472 684.847 809.343 684.77 809.245 684.658C809.148 684.547 809.087 684.407 809.071 684.258Z" fill="white"/>
</g>
<g filter="url(#filter20_d_373_396)">
<path d="M955.07 590.762C954.927 590.729 954.798 590.651 954.701 590.539C954.604 590.427 954.543 590.287 954.527 590.139L954.184 587.086L951.669 585.394C951.548 585.311 951.454 585.193 951.401 585.054C951.348 584.916 951.338 584.764 951.372 584.62C951.405 584.475 951.482 584.344 951.591 584.245C951.7 584.147 951.836 584.084 951.98 584.066L954.978 583.717L956.636 581.152C956.717 581.029 956.833 580.934 956.969 580.879C957.105 580.825 957.254 580.815 957.395 580.849C957.537 580.884 957.665 580.962 957.762 581.073C957.86 581.184 957.921 581.322 957.939 581.47L958.281 584.525L960.797 586.215C960.918 586.298 961.012 586.416 961.065 586.555C961.118 586.693 961.128 586.845 961.094 586.989C961.06 587.134 960.984 587.264 960.875 587.363C960.766 587.462 960.63 587.525 960.486 587.543L957.488 587.892L955.83 590.456C955.75 590.582 955.634 590.678 955.498 590.733C955.362 590.788 955.212 590.798 955.07 590.762Z" fill="white"/>
</g>
<g filter="url(#filter21_d_373_396)">
<path d="M912.424 704.567C912.281 704.534 912.152 704.456 912.055 704.344C911.958 704.232 911.897 704.092 911.881 703.944L911.538 700.891L909.023 699.199C908.902 699.116 908.808 698.998 908.755 698.859C908.702 698.721 908.692 698.569 908.726 698.424C908.759 698.28 908.836 698.149 908.945 698.05C909.054 697.951 909.19 697.889 909.334 697.871L912.332 697.522L913.99 694.957C914.071 694.834 914.187 694.738 914.323 694.684C914.459 694.63 914.608 694.62 914.749 694.654C914.891 694.689 915.019 694.767 915.116 694.878C915.214 694.989 915.275 695.127 915.293 695.275L915.635 698.33L918.151 700.02C918.272 700.102 918.366 700.221 918.419 700.359C918.472 700.498 918.482 700.649 918.448 700.794C918.414 700.939 918.338 701.069 918.229 701.168C918.12 701.267 917.984 701.33 917.84 701.348L914.842 701.697L913.184 704.261C913.104 704.386 912.988 704.483 912.852 704.538C912.716 704.593 912.566 704.603 912.424 704.567Z" fill="white"/>
</g>
<g filter="url(#filter22_d_373_396)">
<path d="M78.7172 382.247C78.7317 382.099 78.7912 381.958 78.8875 381.846C78.9839 381.733 79.1122 381.654 79.2547 381.619L82.1813 380.883L83.5069 378.124C83.5719 377.991 83.6754 377.881 83.8033 377.81C83.9312 377.738 84.0775 377.709 84.2226 377.724C84.3676 377.74 84.5044 377.801 84.6146 377.898C84.7248 377.996 84.8031 378.125 84.839 378.269L85.5614 381.255L88.2684 382.603C88.399 382.67 88.5065 382.775 88.5766 382.905C88.6466 383.036 88.6758 383.185 88.6603 383.333C88.6448 383.481 88.5852 383.62 88.4897 383.732C88.3941 383.845 88.2671 383.924 88.1257 383.961L85.1965 384.697L83.8736 387.457C83.8085 387.59 83.7051 387.699 83.5772 387.771C83.4493 387.842 83.303 387.872 83.1579 387.856C83.0129 387.84 82.8761 387.779 82.7659 387.682C82.6557 387.585 82.5774 387.455 82.5415 387.311L81.8191 384.325L79.1121 382.977C78.98 382.912 78.871 382.807 78.8003 382.676C78.7295 382.546 78.7005 382.396 78.7172 382.247Z" fill="white"/>
</g>
<g filter="url(#filter23_d_373_396)">
<path d="M125.261 295.562C125.129 295.497 125.02 295.392 124.95 295.261C124.879 295.13 124.851 294.98 124.868 294.831L125.198 291.777L123.115 289.558C123.015 289.45 122.949 289.313 122.928 289.166C122.906 289.019 122.929 288.869 122.994 288.735C123.058 288.602 123.161 288.492 123.289 288.42C123.417 288.348 123.563 288.318 123.708 288.333L126.707 288.672L128.882 286.547C128.988 286.445 129.122 286.378 129.266 286.356C129.411 286.334 129.558 286.357 129.689 286.423C129.82 286.489 129.927 286.594 129.998 286.724C130.068 286.854 130.098 287.003 130.083 287.151L129.751 290.208L131.836 292.425C131.936 292.533 132.001 292.67 132.023 292.817C132.045 292.964 132.022 293.114 131.957 293.247C131.893 293.381 131.789 293.49 131.662 293.562C131.534 293.634 131.388 293.664 131.243 293.649L128.244 293.311L126.069 295.436C125.964 295.54 125.829 295.608 125.685 295.631C125.54 295.653 125.392 295.629 125.261 295.562Z" fill="white"/>
</g>
<g filter="url(#filter24_d_373_396)">
<path d="M189.108 577.164C189.122 577.015 189.182 576.875 189.278 576.763C189.374 576.65 189.503 576.571 189.645 576.536L192.572 575.8L193.897 573.041C193.962 572.908 194.066 572.798 194.194 572.727C194.322 572.655 194.468 572.625 194.613 572.641C194.758 572.657 194.895 572.718 195.005 572.815C195.115 572.912 195.193 573.042 195.229 573.186L195.952 576.172L198.659 577.52C198.789 577.586 198.897 577.692 198.967 577.822C199.037 577.953 199.066 578.102 199.051 578.25C199.035 578.397 198.976 578.537 198.88 578.649C198.784 578.761 198.658 578.841 198.516 578.878L195.587 579.614L194.264 582.373C194.199 582.506 194.096 582.616 193.968 582.687C193.84 582.759 193.693 582.789 193.548 582.773C193.403 582.757 193.266 582.696 193.156 582.599C193.046 582.501 192.968 582.372 192.932 582.228L192.21 579.242L189.502 577.894C189.37 577.829 189.261 577.724 189.191 577.593C189.12 577.462 189.091 577.312 189.108 577.164Z" fill="white"/>
</g>
<g filter="url(#filter25_d_373_396)">
<path d="M72.9228 548.581C72.9372 548.432 72.9968 548.292 73.0931 548.179C73.1895 548.067 73.3178 547.987 73.4603 547.953L76.3869 547.216L77.7125 544.457C77.7775 544.324 77.881 544.215 78.0089 544.143C78.1368 544.072 78.2831 544.042 78.4281 544.058C78.5732 544.074 78.71 544.134 78.8202 544.232C78.9304 544.329 79.0087 544.459 79.0446 544.603L79.7669 547.588L82.474 548.937C82.6046 549.003 82.7121 549.108 82.7821 549.239C82.8522 549.369 82.8814 549.518 82.8659 549.666C82.8503 549.814 82.7908 549.953 82.6952 550.066C82.5997 550.178 82.4727 550.258 82.3313 550.294L79.4021 551.031L78.0792 553.79C78.0141 553.923 77.9107 554.033 77.7828 554.104C77.6548 554.175 77.5085 554.205 77.3635 554.189C77.2185 554.174 77.0817 554.113 76.9715 554.015C76.8613 553.918 76.783 553.789 76.7471 553.645L76.0247 550.659L73.3177 549.31C73.1856 549.246 73.0766 549.141 73.0058 549.01C72.9351 548.879 72.906 548.729 72.9228 548.581Z" fill="white"/>
</g>
<g filter="url(#filter26_d_373_396)">
<path d="M352.3 535.125C352.314 534.976 352.374 534.836 352.47 534.723C352.566 534.611 352.695 534.532 352.837 534.497L355.764 533.76L357.089 531.002C357.155 530.868 357.258 530.759 357.386 530.687C357.514 530.616 357.66 530.586 357.805 530.602C357.95 530.618 358.087 530.679 358.197 530.776C358.307 530.873 358.386 531.003 358.422 531.147L359.144 534.133L361.851 535.481C361.982 535.547 362.089 535.653 362.159 535.783C362.229 535.914 362.258 536.063 362.243 536.21C362.227 536.358 362.168 536.498 362.072 536.61C361.977 536.722 361.85 536.802 361.708 536.839L358.779 537.575L357.456 540.334C357.391 540.467 357.288 540.577 357.16 540.648C357.032 540.72 356.886 540.75 356.74 540.734C356.595 540.718 356.459 540.657 356.348 540.56C356.238 540.462 356.16 540.333 356.124 540.189L355.402 537.203L352.695 535.855C352.563 535.79 352.454 535.685 352.383 535.554C352.312 535.423 352.283 535.273 352.3 535.125Z" fill="white"/>
</g>
<g filter="url(#filter27_d_373_396)">
<path d="M332.459 549.745C332.327 549.68 332.219 549.574 332.148 549.443C332.078 549.313 332.049 549.162 332.066 549.014L332.397 545.96L330.313 543.741C330.213 543.632 330.148 543.496 330.126 543.349C330.104 543.202 330.128 543.051 330.192 542.918C330.257 542.785 330.36 542.675 330.487 542.603C330.615 542.531 330.761 542.501 330.906 542.516L333.905 542.855L336.08 540.729C336.186 540.627 336.321 540.561 336.465 540.539C336.609 540.517 336.756 540.54 336.887 540.606C337.018 540.672 337.126 540.777 337.196 540.907C337.267 541.037 337.297 541.186 337.281 541.334L336.95 544.391L339.034 546.608C339.135 546.716 339.2 546.853 339.221 547C339.243 547.147 339.22 547.297 339.156 547.43C339.091 547.563 338.988 547.673 338.86 547.745C338.733 547.817 338.586 547.847 338.441 547.832L335.443 547.494L333.267 549.619C333.162 549.723 333.028 549.791 332.883 549.813C332.738 549.836 332.59 549.812 332.459 549.745Z" fill="white"/>
</g>
<g filter="url(#filter28_d_373_396)">
<path d="M346.505 701.458C346.52 701.31 346.579 701.169 346.676 701.057C346.772 700.944 346.901 700.865 347.043 700.83L349.97 700.094L351.295 697.335C351.36 697.202 351.464 697.092 351.592 697.021C351.72 696.949 351.866 696.92 352.011 696.935C352.156 696.951 352.293 697.012 352.403 697.109C352.513 697.207 352.591 697.336 352.627 697.48L353.35 700.466L356.057 701.814C356.187 701.881 356.295 701.986 356.365 702.116C356.435 702.247 356.464 702.396 356.449 702.544C356.433 702.692 356.374 702.831 356.278 702.943C356.182 703.056 356.055 703.136 355.914 703.172L352.985 703.908L351.662 706.668C351.597 706.801 351.493 706.91 351.365 706.982C351.238 707.053 351.091 707.083 350.946 707.067C350.801 707.051 350.664 706.991 350.554 706.893C350.444 706.796 350.366 706.666 350.33 706.522L349.607 703.537L346.9 702.188C346.768 702.123 346.659 702.018 346.589 701.888C346.518 701.757 346.489 701.607 346.505 701.458Z" fill="white"/>
</g>
<g filter="url(#filter29_d_373_396)">
<path d="M1090.53 80.5013C1090.55 80.3527 1090.61 80.2124 1090.7 80.0998C1090.8 79.9873 1090.93 79.9081 1091.07 79.8734L1094 79.1368L1095.32 76.3779C1095.39 76.2448 1095.49 76.1352 1095.62 76.0638C1095.75 75.9924 1095.89 75.9626 1096.04 75.9784C1096.18 75.9943 1096.32 76.055 1096.43 76.1524C1096.54 76.2498 1096.62 76.3792 1096.65 76.5233L1097.38 79.509L1100.08 80.8574C1100.21 80.9237 1100.32 81.0291 1100.39 81.1595C1100.46 81.2899 1100.49 81.439 1100.48 81.5868C1100.46 81.7346 1100.4 81.8741 1100.3 81.9864C1100.21 82.0987 1100.08 82.1785 1099.94 82.2151L1097.01 82.9514L1095.69 85.7106C1095.62 85.8437 1095.52 85.9533 1095.39 86.0247C1095.26 86.0961 1095.12 86.1258 1094.97 86.11C1094.83 86.0942 1094.69 86.0335 1094.58 85.9361C1094.47 85.8387 1094.39 85.7093 1094.36 85.5652L1093.63 82.5795L1090.93 81.2311C1090.8 81.1664 1090.69 81.0613 1090.62 80.9305C1090.54 80.7997 1090.52 80.6497 1090.53 80.5013Z" fill="white"/>
</g>
<g filter="url(#filter30_d_373_396)">
<path d="M1186.88 123.705C1186.74 123.64 1186.64 123.534 1186.57 123.403C1186.5 123.272 1186.47 123.122 1186.48 122.974L1186.81 119.92L1184.73 117.7C1184.63 117.592 1184.57 117.455 1184.54 117.308C1184.52 117.161 1184.54 117.011 1184.61 116.878C1184.67 116.745 1184.78 116.635 1184.9 116.563C1185.03 116.491 1185.18 116.461 1185.32 116.476L1188.32 116.814L1190.5 114.689C1190.6 114.587 1190.74 114.521 1190.88 114.499C1191.03 114.476 1191.17 114.5 1191.3 114.566C1191.44 114.632 1191.54 114.737 1191.61 114.867C1191.68 114.997 1191.71 115.146 1191.7 115.294L1191.37 118.35L1193.45 120.567C1193.55 120.675 1193.62 120.812 1193.64 120.959C1193.66 121.106 1193.64 121.257 1193.57 121.39C1193.51 121.523 1193.41 121.633 1193.28 121.705C1193.15 121.777 1193 121.807 1192.86 121.792L1189.86 121.453L1187.68 123.578C1187.58 123.682 1187.45 123.751 1187.3 123.773C1187.16 123.796 1187.01 123.772 1186.88 123.705Z" fill="white"/>
</g>
<g filter="url(#filter31_d_373_396)">
<path d="M1317.11 304.002C1317.12 303.853 1317.18 303.713 1317.28 303.6C1317.37 303.488 1317.5 303.408 1317.65 303.374L1320.57 302.637L1321.9 299.878C1321.96 299.745 1322.07 299.635 1322.19 299.564C1322.32 299.493 1322.47 299.463 1322.61 299.479C1322.76 299.495 1322.89 299.555 1323 299.653C1323.12 299.75 1323.19 299.879 1323.23 300.024L1323.95 303.009L1326.66 304.358C1326.79 304.424 1326.9 304.529 1326.97 304.66C1327.04 304.79 1327.07 304.939 1327.05 305.087C1327.04 305.235 1326.98 305.374 1326.88 305.487C1326.78 305.599 1326.66 305.679 1326.52 305.715L1323.59 306.452L1322.26 309.211C1322.2 309.344 1322.1 309.453 1321.97 309.525C1321.84 309.596 1321.69 309.626 1321.55 309.61C1321.4 309.594 1321.27 309.534 1321.16 309.436C1321.05 309.339 1320.97 309.209 1320.93 309.065L1320.21 306.08L1317.5 304.731C1317.37 304.667 1317.26 304.562 1317.19 304.431C1317.12 304.3 1317.09 304.15 1317.11 304.002Z" fill="white"/>
</g>
<g filter="url(#filter32_d_373_396)">
<path d="M1200.92 275.418C1200.94 275.269 1201 275.129 1201.09 275.017C1201.19 274.904 1201.32 274.825 1201.46 274.79L1204.39 274.054L1205.71 271.295C1205.78 271.162 1205.88 271.052 1206.01 270.981C1206.14 270.909 1206.28 270.879 1206.43 270.895C1206.57 270.911 1206.71 270.972 1206.82 271.069C1206.93 271.167 1207.01 271.296 1207.04 271.44L1207.77 274.426L1210.47 275.774C1210.6 275.84 1210.71 275.946 1210.78 276.076C1210.85 276.207 1210.88 276.356 1210.87 276.504C1210.85 276.651 1210.79 276.791 1210.7 276.903C1210.6 277.015 1210.47 277.095 1210.33 277.132L1207.4 277.868L1206.08 280.627C1206.01 280.76 1205.91 280.87 1205.78 280.941C1205.65 281.013 1205.51 281.043 1205.36 281.027C1205.22 281.011 1205.08 280.95 1204.97 280.853C1204.86 280.755 1204.78 280.626 1204.75 280.482L1204.02 277.496L1201.32 276.148C1201.19 276.083 1201.08 275.978 1201.01 275.847C1200.94 275.716 1200.91 275.566 1200.92 275.418Z" fill="white"/>
</g>
<g filter="url(#filter33_d_373_396)">
<path d="M1297.27 318.622C1297.13 318.557 1297.03 318.451 1296.96 318.32C1296.89 318.189 1296.86 318.039 1296.87 317.891L1297.2 314.837L1295.12 312.617C1295.02 312.509 1294.96 312.372 1294.93 312.225C1294.91 312.078 1294.94 311.928 1295 311.795C1295.06 311.662 1295.17 311.552 1295.3 311.48C1295.42 311.408 1295.57 311.378 1295.71 311.393L1298.71 311.731L1300.89 309.606C1300.99 309.504 1301.13 309.438 1301.27 309.416C1301.42 309.393 1301.56 309.417 1301.69 309.483C1301.83 309.549 1301.93 309.654 1302 309.784C1302.07 309.914 1302.1 310.063 1302.09 310.211L1301.76 313.267L1303.84 315.484C1303.94 315.592 1304.01 315.729 1304.03 315.876C1304.05 316.023 1304.03 316.174 1303.96 316.307C1303.9 316.44 1303.8 316.55 1303.67 316.622C1303.54 316.694 1303.39 316.724 1303.25 316.709L1300.25 316.37L1298.07 318.495C1297.97 318.599 1297.84 318.668 1297.69 318.69C1297.55 318.713 1297.4 318.689 1297.27 318.622Z" fill="white"/>
</g>
<g filter="url(#filter34_d_373_396)">
<path d="M994.643 643.596C994.581 643.461 994.562 643.309 994.588 643.162C994.615 643.016 994.685 642.881 994.79 642.776L996.936 640.618L996.69 637.556C996.679 637.408 996.713 637.26 996.787 637.132C996.862 637.004 996.972 636.902 997.105 636.84C997.237 636.778 997.385 636.759 997.529 636.785C997.673 636.811 997.805 636.882 997.908 636.987L1000.03 639.176L1003.03 638.923C1003.18 638.912 1003.32 638.947 1003.45 639.022C1003.57 639.098 1003.67 639.211 1003.73 639.346C1003.79 639.481 1003.81 639.632 1003.79 639.778C1003.76 639.924 1003.69 640.059 1003.59 640.164L1001.44 642.324L1001.69 645.385C1001.7 645.533 1001.67 645.681 1001.59 645.809C1001.52 645.937 1001.41 646.039 1001.27 646.101C1001.14 646.163 1000.99 646.182 1000.85 646.156C1000.71 646.13 1000.57 646.059 1000.47 645.954L998.352 643.765L995.349 644.018C995.203 644.031 995.057 643.997 994.93 643.922C994.804 643.846 994.704 643.733 994.643 643.596Z" fill="white"/>
</g>
<g filter="url(#filter35_d_373_396)">
<path d="M991.143 544.844C990.997 544.856 990.851 544.823 990.724 544.747C990.598 544.671 990.498 544.557 990.438 544.42L989.19 541.624L986.286 540.803C986.146 540.762 986.021 540.678 985.929 540.563C985.836 540.448 985.781 540.307 985.769 540.159C985.758 540.011 985.791 539.863 985.865 539.734C985.939 539.606 986.049 539.504 986.181 539.441L988.928 538.169L989.731 535.209C989.771 535.066 989.853 534.939 989.966 534.845C990.079 534.75 990.217 534.694 990.362 534.682C990.508 534.67 990.653 534.705 990.779 534.78C990.905 534.855 991.005 534.967 991.067 535.102L992.315 537.902L995.219 538.72C995.359 538.761 995.484 538.844 995.576 538.959C995.669 539.074 995.724 539.215 995.736 539.364C995.747 539.512 995.714 539.66 995.64 539.788C995.566 539.917 995.456 540.019 995.324 540.081L992.577 541.354L991.774 544.314C991.736 544.458 991.655 544.587 991.542 544.681C991.428 544.776 991.289 544.833 991.143 544.844Z" fill="white"/>
</g>
<g filter="url(#filter36_d_373_396)">
<path d="M984.93 666.502C984.784 666.515 984.638 666.481 984.511 666.405C984.385 666.33 984.285 666.216 984.226 666.079L982.977 663.282L980.073 662.461C979.933 662.421 979.808 662.337 979.716 662.222C979.623 662.107 979.568 661.966 979.556 661.818C979.545 661.669 979.578 661.521 979.652 661.393C979.726 661.265 979.836 661.162 979.969 661.1L982.715 659.827L983.518 656.867C983.558 656.724 983.64 656.597 983.753 656.503C983.866 656.409 984.004 656.352 984.149 656.341C984.295 656.329 984.44 656.363 984.566 656.438C984.692 656.513 984.792 656.626 984.854 656.761L986.102 659.56L989.006 660.379C989.146 660.419 989.271 660.503 989.363 660.618C989.456 660.733 989.511 660.874 989.523 661.022C989.534 661.171 989.501 661.319 989.427 661.447C989.353 661.575 989.243 661.678 989.111 661.74L986.364 663.013L985.561 665.973C985.523 666.117 985.442 666.245 985.329 666.34C985.215 666.435 985.076 666.492 984.93 666.502Z" fill="white"/>
</g>
<defs>
<filter id="filter0_d_373_396" x="452.49" y="288.936" width="30" height="30.1896" filterUnits="userSpaceOnUse" color-interpolation-filters="sRGB">
<feFlood flood-opacity="0" result="BackgroundImageFix"/>
<feColorMatrix in="SourceAlpha" type="matrix" values="0 0 0 0 0 0 0 0 0 0 0 0 0 0 0 0 0 0 127 0" result="hardAlpha"/>
<feOffset/>
<feGaussianBlur stdDeviation="5"/>
<feComposite in2="hardAlpha" operator="out"/>
<feColorMatrix type="matrix" values="0 0 0 0 1 0 0 0 0 1 0 0 0 0 1 0 0 0 1 0"/>
<feBlend mode="normal" in2="BackgroundImageFix" result="effect1_dropShadow_373_396"/>
<feBlend mode="normal" in="SourceGraphic" in2="effect1_dropShadow_373_396" result="shape"/>
</filter>
<filter id="filter1_d_373_396" x="418.808" y="385.229" width="29.4715" height="29.6582" filterUnits="userSpaceOnUse" color-interpolation-filters="sRGB">
<feFlood flood-opacity="0" result="BackgroundImageFix"/>
<feColorMatrix in="SourceAlpha" type="matrix" values="0 0 0 0 0 0 0 0 0 0 0 0 0 0 0 0 0 0 127 0" result="hardAlpha"/>
<feOffset/>
<feGaussianBlur stdDeviation="5"/>
<feComposite in2="hardAlpha" operator="out"/>
<feColorMatrix type="matrix" values="0 0 0 0 1 0 0 0 0 1 0 0 0 0 1 0 0 0 1 0"/>
<feBlend mode="normal" in2="BackgroundImageFix" result="effect1_dropShadow_373_396"/>
<feBlend mode="normal" in="SourceGraphic" in2="effect1_dropShadow_373_396" result="shape"/>
</filter>
<filter id="filter2_d_373_396" x="322.362" y="107.11" width="30" height="30.1896" filterUnits="userSpaceOnUse" color-interpolation-filters="sRGB">
<feFlood flood-opacity="0" result="BackgroundImageFix"/>
<feColorMatrix in="SourceAlpha" type="matrix" values="0 0 0 0 0 0 0 0 0 0 0 0 0 0 0 0 0 0 127 0" result="hardAlpha"/>
<feOffset/>
<feGaussianBlur stdDeviation="5"/>
<feComposite in2="hardAlpha" operator="out"/>
<feColorMatrix type="matrix" values="0 0 0 0 1 0 0 0 0 1 0 0 0 0 1 0 0 0 1 0"/>
<feBlend mode="normal" in2="BackgroundImageFix" result="effect1_dropShadow_373_396"/>
<feBlend mode="normal" in="SourceGraphic" in2="effect1_dropShadow_373_396" result="shape"/>
</filter>
<filter id="filter3_d_373_396" x="288.68" y="203.403" width="29.4715" height="29.6582" filterUnits="userSpaceOnUse" color-interpolation-filters="sRGB">
<feFlood flood-opacity="0" result="BackgroundImageFix"/>
<feColorMatrix in="SourceAlpha" type="matrix" values="0 0 0 0 0 0 0 0 0 0 0 0 0 0 0 0 0 0 127 0" result="hardAlpha"/>
<feOffset/>
<feGaussianBlur stdDeviation="5"/>
<feComposite in2="hardAlpha" operator="out"/>
<feColorMatrix type="matrix" values="0 0 0 0 1 0 0 0 0 1 0 0 0 0 1 0 0 0 1 0"/>
<feBlend mode="normal" in2="BackgroundImageFix" result="effect1_dropShadow_373_396"/>
<feBlend mode="normal" in="SourceGraphic" in2="effect1_dropShadow_373_396" result="shape"/>
</filter>
<filter id="filter4_d_373_396" x="344.102" y="95.4684" width="29.4715" height="29.6582" filterUnits="userSpaceOnUse" color-interpolation-filters="sRGB">
<feFlood flood-opacity="0" result="BackgroundImageFix"/>
<feColorMatrix in="SourceAlpha" type="matrix" values="0 0 0 0 0 0 0 0 0 0 0 0 0 0 0 0 0 0 127 0" result="hardAlpha"/>
<feOffset/>
<feGaussianBlur stdDeviation="5"/>
<feComposite in2="hardAlpha" operator="out"/>
<feColorMatrix type="matrix" values="0 0 0 0 1 0 0 0 0 1 0 0 0 0 1 0 0 0 1 0"/>
<feBlend mode="normal" in2="BackgroundImageFix" result="effect1_dropShadow_373_396"/>
<feBlend mode="normal" in="SourceGraphic" in2="effect1_dropShadow_373_396" result="shape"/>
</filter>
<filter id="filter5_d_373_396" x="1018" y="1.00476" width="30" height="30.1896" filterUnits="userSpaceOnUse" color-interpolation-filters="sRGB">
<feFlood flood-opacity="0" result="BackgroundImageFix"/>
<feColorMatrix in="SourceAlpha" type="matrix" values="0 0 0 0 0 0 0 0 0 0 0 0 0 0 0 0 0 0 127 0" result="hardAlpha"/>
<feOffset/>
<feGaussianBlur stdDeviation="5"/>
<feComposite in2="hardAlpha" operator="out"/>
<feColorMatrix type="matrix" values="0 0 0 0 1 0 0 0 0 1 0 0 0 0 1 0 0 0 1 0"/>
<feBlend mode="normal" in2="BackgroundImageFix" result="effect1_dropShadow_373_396"/>
<feBlend mode="normal" in="SourceGraphic" in2="effect1_dropShadow_373_396" result="shape"/>
</filter>
<filter id="filter6_d_373_396" x="152.872" y="0.60791" width="30" height="30.1896" filterUnits="userSpaceOnUse" color-interpolation-filters="sRGB">
<feFlood flood-opacity="0" result="BackgroundImageFix"/>
<feColorMatrix in="SourceAlpha" type="matrix" values="0 0 0 0 0 0 0 0 0 0 0 0 0 0 0 0 0 0 127 0" result="hardAlpha"/>
<feOffset/>
<feGaussianBlur stdDeviation="5"/>
<feComposite in2="hardAlpha" operator="out"/>
<feColorMatrix type="matrix" values="0 0 0 0 1 0 0 0 0 1 0 0 0 0 1 0 0 0 1 0"/>
<feBlend mode="normal" in2="BackgroundImageFix" result="effect1_dropShadow_373_396"/>
<feBlend mode="normal" in="SourceGraphic" in2="effect1_dropShadow_373_396" result="shape"/>
</filter>
<filter id="filter7_d_373_396" x="0.679672" y="81.0916" width="29.4715" height="29.6582" filterUnits="userSpaceOnUse" color-interpolation-filters="sRGB">
<feFlood flood-opacity="0" result="BackgroundImageFix"/>
<feColorMatrix in="SourceAlpha" type="matrix" values="0 0 0 0 0 0 0 0 0 0 0 0 0 0 0 0 0 0 127 0" result="hardAlpha"/>
<feOffset/>
<feGaussianBlur stdDeviation="5"/>
<feComposite in2="hardAlpha" operator="out"/>
<feColorMatrix type="matrix" values="0 0 0 0 1 0 0 0 0 1 0 0 0 0 1 0 0 0 1 0"/>
<feBlend mode="normal" in2="BackgroundImageFix" result="effect1_dropShadow_373_396"/>
<feBlend mode="normal" in="SourceGraphic" in2="effect1_dropShadow_373_396" result="shape"/>
</filter>
<filter id="filter8_d_373_396" x="955.859" y="428.903" width="29.7868" height="29.9713" filterUnits="userSpaceOnUse" color-interpolation-filters="sRGB">
<feFlood flood-opacity="0" result="BackgroundImageFix"/>
<feColorMatrix in="SourceAlpha" type="matrix" values="0 0 0 0 0 0 0 0 0 0 0 0 0 0 0 0 0 0 127 0" result="hardAlpha"/>
<feOffset/>
<feGaussianBlur stdDeviation="5"/>
<feComposite in2="hardAlpha" operator="out"/>
<feColorMatrix type="matrix" values="0 0 0 0 1 0 0 0 0 1 0 0 0 0 1 0 0 0 1 0"/>
<feBlend mode="normal" in2="BackgroundImageFix" result="effect1_dropShadow_373_396"/>
<feBlend mode="normal" in="SourceGraphic" in2="effect1_dropShadow_373_396" result="shape"/>
</filter>
<filter id="filter9_d_373_396" x="867.875" y="380.501" width="28.6143" height="28.7843" filterUnits="userSpaceOnUse" color-interpolation-filters="sRGB">
<feFlood flood-opacity="0" result="BackgroundImageFix"/>
<feColorMatrix in="SourceAlpha" type="matrix" values="0 0 0 0 0 0 0 0 0 0 0 0 0 0 0 0 0 0 127 0" result="hardAlpha"/>
<feOffset/>
<feGaussianBlur stdDeviation="5"/>
<feComposite in2="hardAlpha" operator="out"/>
<feColorMatrix type="matrix" values="0 0 0 0 1 0 0 0 0 1 0 0 0 0 1 0 0 0 1 0"/>
<feBlend mode="normal" in2="BackgroundImageFix" result="effect1_dropShadow_373_396"/>
<feBlend mode="normal" in="SourceGraphic" in2="effect1_dropShadow_373_396" result="shape"/>
</filter>
<filter id="filter10_d_373_396" x="703.066" y="266.442" width="28.6143" height="28.7843" filterUnits="userSpaceOnUse" color-interpolation-filters="sRGB">
<feFlood flood-opacity="0" result="BackgroundImageFix"/>
<feColorMatrix in="SourceAlpha" type="matrix" values="0 0 0 0 0 0 0 0 0 0 0 0 0 0 0 0 0 0 127 0" result="hardAlpha"/>
<feOffset/>
<feGaussianBlur stdDeviation="5"/>
<feComposite in2="hardAlpha" operator="out"/>
<feColorMatrix type="matrix" values="0 0 0 0 1 0 0 0 0 1 0 0 0 0 1 0 0 0 1 0"/>
<feBlend mode="normal" in2="BackgroundImageFix" result="effect1_dropShadow_373_396"/>
<feBlend mode="normal" in="SourceGraphic" in2="effect1_dropShadow_373_396" result="shape"/>
</filter>
<filter id="filter11_d_373_396" x="536.168" y="288.723" width="28.6143" height="28.7843" filterUnits="userSpaceOnUse" color-interpolation-filters="sRGB">
<feFlood flood-opacity="0" result="BackgroundImageFix"/>
<feColorMatrix in="SourceAlpha" type="matrix" values="0 0 0 0 0 0 0 0 0 0 0 0 0 0 0 0 0 0 127 0" result="hardAlpha"/>
<feOffset/>
<feGaussianBlur stdDeviation="5"/>
<feComposite in2="hardAlpha" operator="out"/>
<feColorMatrix type="matrix" values="0 0 0 0 1 0 0 0 0 1 0 0 0 0 1 0 0 0 1 0"/>
<feBlend mode="normal" in2="BackgroundImageFix" result="effect1_dropShadow_373_396"/>
<feBlend mode="normal" in="SourceGraphic" in2="effect1_dropShadow_373_396" result="shape"/>
</filter>
<filter id="filter12_d_373_396" x="614.465" y="37.689" width="29.7868" height="29.9713" filterUnits="userSpaceOnUse" color-interpolation-filters="sRGB">
<feFlood flood-opacity="0" result="BackgroundImageFix"/>
<feColorMatrix in="SourceAlpha" type="matrix" values="0 0 0 0 0 0 0 0 0 0 0 0 0 0 0 0 0 0 127 0" result="hardAlpha"/>
<feOffset/>
<feGaussianBlur stdDeviation="5"/>
<feComposite in2="hardAlpha" operator="out"/>
<feColorMatrix type="matrix" values="0 0 0 0 1 0 0 0 0 1 0 0 0 0 1 0 0 0 1 0"/>
<feBlend mode="normal" in2="BackgroundImageFix" result="effect1_dropShadow_373_396"/>
<feBlend mode="normal" in="SourceGraphic" in2="effect1_dropShadow_373_396" result="shape"/>
</filter>
<filter id="filter13_d_373_396" x="448.92" y="81.976" width="28.6143" height="28.7843" filterUnits="userSpaceOnUse" color-interpolation-filters="sRGB">
<feFlood flood-opacity="0" result="BackgroundImageFix"/>
<feColorMatrix in="SourceAlpha" type="matrix" values="0 0 0 0 0 0 0 0 0 0 0 0 0 0 0 0 0 0 127 0" result="hardAlpha"/>
<feOffset/>
<feGaussianBlur stdDeviation="5"/>
<feComposite in2="hardAlpha" operator="out"/>
<feColorMatrix type="matrix" values="0 0 0 0 1 0 0 0 0 1 0 0 0 0 1 0 0 0 1 0"/>
<feBlend mode="normal" in2="BackgroundImageFix" result="effect1_dropShadow_373_396"/>
<feBlend mode="normal" in="SourceGraphic" in2="effect1_dropShadow_373_396" result="shape"/>
</filter>
<filter id="filter14_d_373_396" x="448.525" y="432.472" width="29.7621" height="29.9541" filterUnits="userSpaceOnUse" color-interpolation-filters="sRGB">
<feFlood flood-opacity="0" result="BackgroundImageFix"/>
<feColorMatrix in="SourceAlpha" type="matrix" values="0 0 0 0 0 0 0 0 0 0 0 0 0 0 0 0 0 0 127 0" result="hardAlpha"/>
<feOffset/>
<feGaussianBlur stdDeviation="5"/>
<feComposite in2="hardAlpha" operator="out"/>
<feColorMatrix type="matrix" values="0 0 0 0 1 0 0 0 0 1 0 0 0 0 1 0 0 0 1 0"/>
<feBlend mode="normal" in2="BackgroundImageFix" result="effect1_dropShadow_373_396"/>
<feBlend mode="normal" in="SourceGraphic" in2="effect1_dropShadow_373_396" result="shape"/>
</filter>
<filter id="filter15_d_373_396" x="498.999" y="581.486" width="29.9417" height="30.1295" filterUnits="userSpaceOnUse" color-interpolation-filters="sRGB">
<feFlood flood-opacity="0" result="BackgroundImageFix"/>
<feColorMatrix in="SourceAlpha" type="matrix" values="0 0 0 0 0 0 0 0 0 0 0 0 0 0 0 0 0 0 127 0" result="hardAlpha"/>
<feOffset/>
<feGaussianBlur stdDeviation="5"/>
<feComposite in2="hardAlpha" operator="out"/>
<feColorMatrix type="matrix" values="0 0 0 0 1 0 0 0 0 1 0 0 0 0 1 0 0 0 1 0"/>
<feBlend mode="normal" in2="BackgroundImageFix" result="effect1_dropShadow_373_396"/>
<feBlend mode="normal" in="SourceGraphic" in2="effect1_dropShadow_373_396" result="shape"/>
</filter>
<filter id="filter16_d_373_396" x="641.286" y="483.718" width="29.762" height="29.9541" filterUnits="userSpaceOnUse" color-interpolation-filters="sRGB">
<feFlood flood-opacity="0" result="BackgroundImageFix"/>
<feColorMatrix in="SourceAlpha" type="matrix" values="0 0 0 0 0 0 0 0 0 0 0 0 0 0 0 0 0 0 127 0" result="hardAlpha"/>
<feOffset/>
<feGaussianBlur stdDeviation="5"/>
<feComposite in2="hardAlpha" operator="out"/>
<feColorMatrix type="matrix" values="0 0 0 0 1 0 0 0 0 1 0 0 0 0 1 0 0 0 1 0"/>
<feBlend mode="normal" in2="BackgroundImageFix" result="effect1_dropShadow_373_396"/>
<feBlend mode="normal" in="SourceGraphic" in2="effect1_dropShadow_373_396" result="shape"/>
</filter>
<filter id="filter17_d_373_396" x="748.592" y="519.583" width="29.762" height="29.9541" filterUnits="userSpaceOnUse" color-interpolation-filters="sRGB">
<feFlood flood-opacity="0" result="BackgroundImageFix"/>
<feColorMatrix in="SourceAlpha" type="matrix" values="0 0 0 0 0 0 0 0 0 0 0 0 0 0 0 0 0 0 127 0" result="hardAlpha"/>
<feOffset/>
<feGaussianBlur stdDeviation="5"/>
<feComposite in2="hardAlpha" operator="out"/>
<feColorMatrix type="matrix" values="0 0 0 0 1 0 0 0 0 1 0 0 0 0 1 0 0 0 1 0"/>
<feBlend mode="normal" in2="BackgroundImageFix" result="effect1_dropShadow_373_396"/>
<feBlend mode="normal" in="SourceGraphic" in2="effect1_dropShadow_373_396" result="shape"/>
</filter>
<filter id="filter18_d_373_396" x="918.577" y="670.159" width="29.9417" height="30.1295" filterUnits="userSpaceOnUse" color-interpolation-filters="sRGB">
<feFlood flood-opacity="0" result="BackgroundImageFix"/>
<feColorMatrix in="SourceAlpha" type="matrix" values="0 0 0 0 0 0 0 0 0 0 0 0 0 0 0 0 0 0 127 0" result="hardAlpha"/>
<feOffset/>
<feGaussianBlur stdDeviation="5"/>
<feComposite in2="hardAlpha" operator="out"/>
<feColorMatrix type="matrix" values="0 0 0 0 1 0 0 0 0 1 0 0 0 0 1 0 0 0 1 0"/>
<feBlend mode="normal" in2="BackgroundImageFix" result="effect1_dropShadow_373_396"/>
<feBlend mode="normal" in="SourceGraphic" in2="effect1_dropShadow_373_396" result="shape"/>
</filter>
<filter id="filter19_d_373_396" x="799.065" y="668.597" width="29.9417" height="30.1295" filterUnits="userSpaceOnUse" color-interpolation-filters="sRGB">
<feFlood flood-opacity="0" result="BackgroundImageFix"/>
<feColorMatrix in="SourceAlpha" type="matrix" values="0 0 0 0 0 0 0 0 0 0 0 0 0 0 0 0 0 0 127 0" result="hardAlpha"/>
<feOffset/>
<feGaussianBlur stdDeviation="5"/>
<feComposite in2="hardAlpha" operator="out"/>
<feColorMatrix type="matrix" values="0 0 0 0 1 0 0 0 0 1 0 0 0 0 1 0 0 0 1 0"/>
<feBlend mode="normal" in2="BackgroundImageFix" result="effect1_dropShadow_373_396"/>
<feBlend mode="normal" in="SourceGraphic" in2="effect1_dropShadow_373_396" result="shape"/>
</filter>
<filter id="filter20_d_373_396" x="941.352" y="570.829" width="29.762" height="29.9541" filterUnits="userSpaceOnUse" color-interpolation-filters="sRGB">
<feFlood flood-opacity="0" result="BackgroundImageFix"/>
<feColorMatrix in="SourceAlpha" type="matrix" values="0 0 0 0 0 0 0 0 0 0 0 0 0 0 0 0 0 0 127 0" result="hardAlpha"/>
<feOffset/>
<feGaussianBlur stdDeviation="5"/>
<feComposite in2="hardAlpha" operator="out"/>
<feColorMatrix type="matrix" values="0 0 0 0 1 0 0 0 0 1 0 0 0 0 1 0 0 0 1 0"/>
<feBlend mode="normal" in2="BackgroundImageFix" result="effect1_dropShadow_373_396"/>
<feBlend mode="normal" in="SourceGraphic" in2="effect1_dropShadow_373_396" result="shape"/>
</filter>
<filter id="filter21_d_373_396" x="898.706" y="684.634" width="29.762" height="29.9541" filterUnits="userSpaceOnUse" color-interpolation-filters="sRGB">
<feFlood flood-opacity="0" result="BackgroundImageFix"/>
<feColorMatrix in="SourceAlpha" type="matrix" values="0 0 0 0 0 0 0 0 0 0 0 0 0 0 0 0 0 0 127 0" result="hardAlpha"/>
<feOffset/>
<feGaussianBlur stdDeviation="5"/>
<feComposite in2="hardAlpha" operator="out"/>
<feColorMatrix type="matrix" values="0 0 0 0 1 0 0 0 0 1 0 0 0 0 1 0 0 0 1 0"/>
<feBlend mode="normal" in2="BackgroundImageFix" result="effect1_dropShadow_373_396"/>
<feBlend mode="normal" in="SourceGraphic" in2="effect1_dropShadow_373_396" result="shape"/>
</filter>
<filter id="filter22_d_373_396" x="68.7126" y="367.72" width="29.9518" height="30.1399" filterUnits="userSpaceOnUse" color-interpolation-filters="sRGB">
<feFlood flood-opacity="0" result="BackgroundImageFix"/>
<feColorMatrix in="SourceAlpha" type="matrix" values="0 0 0 0 0 0 0 0 0 0 0 0 0 0 0 0 0 0 127 0" result="hardAlpha"/>
<feOffset/>
<feGaussianBlur stdDeviation="5"/>
<feComposite in2="hardAlpha" operator="out"/>
<feColorMatrix type="matrix" values="0 0 0 0 1 0 0 0 0 1 0 0 0 0 1 0 0 0 1 0"/>
<feBlend mode="normal" in2="BackgroundImageFix" result="effect1_dropShadow_373_396"/>
<feBlend mode="normal" in="SourceGraphic" in2="effect1_dropShadow_373_396" result="shape"/>
</filter>
<filter id="filter23_d_373_396" x="112.92" y="276.348" width="29.1112" height="29.2909" filterUnits="userSpaceOnUse" color-interpolation-filters="sRGB">
<feFlood flood-opacity="0" result="BackgroundImageFix"/>
<feColorMatrix in="SourceAlpha" type="matrix" values="0 0 0 0 0 0 0 0 0 0 0 0 0 0 0 0 0 0 127 0" result="hardAlpha"/>
<feOffset/>
<feGaussianBlur stdDeviation="5"/>
<feComposite in2="hardAlpha" operator="out"/>
<feColorMatrix type="matrix" values="0 0 0 0 1 0 0 0 0 1 0 0 0 0 1 0 0 0 1 0"/>
<feBlend mode="normal" in2="BackgroundImageFix" result="effect1_dropShadow_373_396"/>
<feBlend mode="normal" in="SourceGraphic" in2="effect1_dropShadow_373_396" result="shape"/>
</filter>
<filter id="filter24_d_373_396" x="179.103" y="562.637" width="29.9518" height="30.1399" filterUnits="userSpaceOnUse" color-interpolation-filters="sRGB">
<feFlood flood-opacity="0" result="BackgroundImageFix"/>
<feColorMatrix in="SourceAlpha" type="matrix" values="0 0 0 0 0 0 0 0 0 0 0 0 0 0 0 0 0 0 127 0" result="hardAlpha"/>
<feOffset/>
<feGaussianBlur stdDeviation="5"/>
<feComposite in2="hardAlpha" operator="out"/>
<feColorMatrix type="matrix" values="0 0 0 0 1 0 0 0 0 1 0 0 0 0 1 0 0 0 1 0"/>
<feBlend mode="normal" in2="BackgroundImageFix" result="effect1_dropShadow_373_396"/>
<feBlend mode="normal" in="SourceGraphic" in2="effect1_dropShadow_373_396" result="shape"/>
</filter>
<filter id="filter25_d_373_396" x="62.9182" y="534.054" width="29.9518" height="30.1399" filterUnits="userSpaceOnUse" color-interpolation-filters="sRGB">
<feFlood flood-opacity="0" result="BackgroundImageFix"/>
<feColorMatrix in="SourceAlpha" type="matrix" values="0 0 0 0 0 0 0 0 0 0 0 0 0 0 0 0 0 0 127 0" result="hardAlpha"/>
<feOffset/>
<feGaussianBlur stdDeviation="5"/>
<feComposite in2="hardAlpha" operator="out"/>
<feColorMatrix type="matrix" values="0 0 0 0 1 0 0 0 0 1 0 0 0 0 1 0 0 0 1 0"/>
<feBlend mode="normal" in2="BackgroundImageFix" result="effect1_dropShadow_373_396"/>
<feBlend mode="normal" in="SourceGraphic" in2="effect1_dropShadow_373_396" result="shape"/>
</filter>
<filter id="filter26_d_373_396" x="342.295" y="520.598" width="29.9518" height="30.1399" filterUnits="userSpaceOnUse" color-interpolation-filters="sRGB">
<feFlood flood-opacity="0" result="BackgroundImageFix"/>
<feColorMatrix in="SourceAlpha" type="matrix" values="0 0 0 0 0 0 0 0 0 0 0 0 0 0 0 0 0 0 127 0" result="hardAlpha"/>
<feOffset/>
<feGaussianBlur stdDeviation="5"/>
<feComposite in2="hardAlpha" operator="out"/>
<feColorMatrix type="matrix" values="0 0 0 0 1 0 0 0 0 1 0 0 0 0 1 0 0 0 1 0"/>
<feBlend mode="normal" in2="BackgroundImageFix" result="effect1_dropShadow_373_396"/>
<feBlend mode="normal" in="SourceGraphic" in2="effect1_dropShadow_373_396" result="shape"/>
</filter>
<filter id="filter27_d_373_396" x="320.118" y="530.531" width="29.1112" height="29.2909" filterUnits="userSpaceOnUse" color-interpolation-filters="sRGB">
<feFlood flood-opacity="0" result="BackgroundImageFix"/>
<feColorMatrix in="SourceAlpha" type="matrix" values="0 0 0 0 0 0 0 0 0 0 0 0 0 0 0 0 0 0 127 0" result="hardAlpha"/>
<feOffset/>
<feGaussianBlur stdDeviation="5"/>
<feComposite in2="hardAlpha" operator="out"/>
<feColorMatrix type="matrix" values="0 0 0 0 1 0 0 0 0 1 0 0 0 0 1 0 0 0 1 0"/>
<feBlend mode="normal" in2="BackgroundImageFix" result="effect1_dropShadow_373_396"/>
<feBlend mode="normal" in="SourceGraphic" in2="effect1_dropShadow_373_396" result="shape"/>
</filter>
<filter id="filter28_d_373_396" x="336.501" y="686.931" width="29.9518" height="30.1399" filterUnits="userSpaceOnUse" color-interpolation-filters="sRGB">
<feFlood flood-opacity="0" result="BackgroundImageFix"/>
<feColorMatrix in="SourceAlpha" type="matrix" values="0 0 0 0 0 0 0 0 0 0 0 0 0 0 0 0 0 0 127 0" result="hardAlpha"/>
<feOffset/>
<feGaussianBlur stdDeviation="5"/>
<feComposite in2="hardAlpha" operator="out"/>
<feColorMatrix type="matrix" values="0 0 0 0 1 0 0 0 0 1 0 0 0 0 1 0 0 0 1 0"/>
<feBlend mode="normal" in2="BackgroundImageFix" result="effect1_dropShadow_373_396"/>
<feBlend mode="normal" in="SourceGraphic" in2="effect1_dropShadow_373_396" result="shape"/>
</filter>
<filter id="filter29_d_373_396" x="1080.53" y="65.9742" width="29.9518" height="30.1399" filterUnits="userSpaceOnUse" color-interpolation-filters="sRGB">
<feFlood flood-opacity="0" result="BackgroundImageFix"/>
<feColorMatrix in="SourceAlpha" type="matrix" values="0 0 0 0 0 0 0 0 0 0 0 0 0 0 0 0 0 0 127 0" result="hardAlpha"/>
<feOffset/>
<feGaussianBlur stdDeviation="5"/>
<feComposite in2="hardAlpha" operator="out"/>
<feColorMatrix type="matrix" values="0 0 0 0 1 0 0 0 0 1 0 0 0 0 1 0 0 0 1 0"/>
<feBlend mode="normal" in2="BackgroundImageFix" result="effect1_dropShadow_373_396"/>
<feBlend mode="normal" in="SourceGraphic" in2="effect1_dropShadow_373_396" result="shape"/>
</filter>
<filter id="filter30_d_373_396" x="1174.54" y="104.49" width="29.1111" height="29.2909" filterUnits="userSpaceOnUse" color-interpolation-filters="sRGB">
<feFlood flood-opacity="0" result="BackgroundImageFix"/>
<feColorMatrix in="SourceAlpha" type="matrix" values="0 0 0 0 0 0 0 0 0 0 0 0 0 0 0 0 0 0 127 0" result="hardAlpha"/>
<feOffset/>
<feGaussianBlur stdDeviation="5"/>
<feComposite in2="hardAlpha" operator="out"/>
<feColorMatrix type="matrix" values="0 0 0 0 1 0 0 0 0 1 0 0 0 0 1 0 0 0 1 0"/>
<feBlend mode="normal" in2="BackgroundImageFix" result="effect1_dropShadow_373_396"/>
<feBlend mode="normal" in="SourceGraphic" in2="effect1_dropShadow_373_396" result="shape"/>
</filter>
<filter id="filter31_d_373_396" x="1307.1" y="289.474" width="29.9518" height="30.1399" filterUnits="userSpaceOnUse" color-interpolation-filters="sRGB">
<feFlood flood-opacity="0" result="BackgroundImageFix"/>
<feColorMatrix in="SourceAlpha" type="matrix" values="0 0 0 0 0 0 0 0 0 0 0 0 0 0 0 0 0 0 127 0" result="hardAlpha"/>
<feOffset/>
<feGaussianBlur stdDeviation="5"/>
<feComposite in2="hardAlpha" operator="out"/>
<feColorMatrix type="matrix" values="0 0 0 0 1 0 0 0 0 1 0 0 0 0 1 0 0 0 1 0"/>
<feBlend mode="normal" in2="BackgroundImageFix" result="effect1_dropShadow_373_396"/>
<feBlend mode="normal" in="SourceGraphic" in2="effect1_dropShadow_373_396" result="shape"/>
</filter>
<filter id="filter32_d_373_396" x="1190.92" y="260.891" width="29.9518" height="30.1399" filterUnits="userSpaceOnUse" color-interpolation-filters="sRGB">
<feFlood flood-opacity="0" result="BackgroundImageFix"/>
<feColorMatrix in="SourceAlpha" type="matrix" values="0 0 0 0 0 0 0 0 0 0 0 0 0 0 0 0 0 0 127 0" result="hardAlpha"/>
<feOffset/>
<feGaussianBlur stdDeviation="5"/>
<feComposite in2="hardAlpha" operator="out"/>
<feColorMatrix type="matrix" values="0 0 0 0 1 0 0 0 0 1 0 0 0 0 1 0 0 0 1 0"/>
<feBlend mode="normal" in2="BackgroundImageFix" result="effect1_dropShadow_373_396"/>
<feBlend mode="normal" in="SourceGraphic" in2="effect1_dropShadow_373_396" result="shape"/>
</filter>
<filter id="filter33_d_373_396" x="1284.93" y="299.407" width="29.1111" height="29.2909" filterUnits="userSpaceOnUse" color-interpolation-filters="sRGB">
<feFlood flood-opacity="0" result="BackgroundImageFix"/>
<feColorMatrix in="SourceAlpha" type="matrix" values="0 0 0 0 0 0 0 0 0 0 0 0 0 0 0 0 0 0 127 0" result="hardAlpha"/>
<feOffset/>
<feGaussianBlur stdDeviation="5"/>
<feComposite in2="hardAlpha" operator="out"/>
<feColorMatrix type="matrix" values="0 0 0 0 1 0 0 0 0 1 0 0 0 0 1 0 0 0 1 0"/>
<feBlend mode="normal" in2="BackgroundImageFix" result="effect1_dropShadow_373_396"/>
<feBlend mode="normal" in="SourceGraphic" in2="effect1_dropShadow_373_396" result="shape"/>
</filter>
<filter id="filter34_d_373_396" x="984.577" y="626.773" width="29.2206" height="29.3939" filterUnits="userSpaceOnUse" color-interpolation-filters="sRGB">
<feFlood flood-opacity="0" result="BackgroundImageFix"/>
<feColorMatrix in="SourceAlpha" type="matrix" values="0 0 0 0 0 0 0 0 0 0 0 0 0 0 0 0 0 0 127 0" result="hardAlpha"/>
<feOffset/>
<feGaussianBlur stdDeviation="5"/>
<feComposite in2="hardAlpha" operator="out"/>
<feColorMatrix type="matrix" values="0 0 0 0 1 0 0 0 0 1 0 0 0 0 1 0 0 0 1 0"/>
<feBlend mode="normal" in2="BackgroundImageFix" result="effect1_dropShadow_373_396"/>
<feBlend mode="normal" in="SourceGraphic" in2="effect1_dropShadow_373_396" result="shape"/>
</filter>
<filter id="filter35_d_373_396" x="975.767" y="524.68" width="29.9708" height="30.1664" filterUnits="userSpaceOnUse" color-interpolation-filters="sRGB">
<feFlood flood-opacity="0" result="BackgroundImageFix"/>
<feColorMatrix in="SourceAlpha" type="matrix" values="0 0 0 0 0 0 0 0 0 0 0 0 0 0 0 0 0 0 127 0" result="hardAlpha"/>
<feOffset/>
<feGaussianBlur stdDeviation="5"/>
<feComposite in2="hardAlpha" operator="out"/>
<feColorMatrix type="matrix" values="0 0 0 0 1 0 0 0 0 1 0 0 0 0 1 0 0 0 1 0"/>
<feBlend mode="normal" in2="BackgroundImageFix" result="effect1_dropShadow_373_396"/>
<feBlend mode="normal" in="SourceGraphic" in2="effect1_dropShadow_373_396" result="shape"/>
</filter>
<filter id="filter36_d_373_396" x="969.554" y="646.339" width="29.9708" height="30.1664" filterUnits="userSpaceOnUse" color-interpolation-filters="sRGB">
<feFlood flood-opacity="0" result="BackgroundImageFix"/>
<feColorMatrix in="SourceAlpha" type="matrix" values="0 0 0 0 0 0 0 0 0 0 0 0 0 0 0 0 0 0 127 0" result="hardAlpha"/>
<feOffset/>
<feGaussianBlur stdDeviation="5"/>
<feComposite in2="hardAlpha" operator="out"/>
<feColorMatrix type="matrix" values="0 0 0 0 1 0 0 0 0 1 0 0 0 0 1 0 0 0 1 0"/>
<feBlend mode="normal" in2="BackgroundImageFix" result="effect1_dropShadow_373_396"/>
<feBlend mode="normal" in="SourceGraphic" in2="effect1_dropShadow_373_396" result="shape"/>
</filter>
</defs>
</svg>
