<svg width="459" height="334" viewBox="0 0 459 334" fill="none" xmlns="http://www.w3.org/2000/svg">
<path d="M114.583 333.333C82.9861 333.333 55.9896 322.396 33.5938 300.521C11.1979 278.646 0 251.91 0 220.313C0 193.229 8.15972 169.097 24.4792 147.917C40.7986 126.736 62.1528 113.194 88.5417 107.292C97.2222 75.3472 114.583 49.4792 140.625 29.6875C166.667 9.89584 196.181 0 229.167 0C269.792 0 304.253 14.1493 332.552 42.4479C360.851 70.7465 375 105.208 375 145.833C398.958 148.611 418.837 158.941 434.635 176.823C450.434 194.705 458.333 215.625 458.333 239.583C458.333 265.625 449.219 287.76 430.99 305.99C412.76 324.219 390.625 333.333 364.583 333.333H114.583Z" fill="#152039"/>
<path d="M260.641 118.685C260.641 115.149 262.189 111.758 264.943 109.258C267.697 106.758 271.432 105.353 275.327 105.353H294.907C298.802 105.353 302.537 106.758 305.291 109.258C308.045 111.758 309.592 115.149 309.592 118.685V252.004C309.592 255.54 308.045 258.931 305.291 261.431C302.537 263.932 298.802 265.336 294.907 265.336H275.327C271.432 265.336 267.697 263.932 264.943 261.431C262.189 258.931 260.641 255.54 260.641 252.004V118.685ZM197.006 172.013C197.006 168.477 198.553 165.086 201.307 162.586C204.061 160.086 207.796 158.681 211.691 158.681H231.271C235.166 158.681 238.901 160.086 241.655 162.586C244.409 165.086 245.956 168.477 245.956 172.013V252.004C245.956 255.54 244.409 258.931 241.655 261.431C238.901 263.932 235.166 265.336 231.271 265.336H211.691C207.796 265.336 204.061 263.932 201.307 261.431C198.553 258.931 197.006 255.54 197.006 252.004V172.013ZM148.055 212.009C144.161 212.009 140.425 213.413 137.671 215.913C134.917 218.414 133.37 221.805 133.37 225.34V252.004C133.37 255.54 134.917 258.931 137.671 261.431C140.425 263.932 144.161 265.336 148.055 265.336H167.635C171.53 265.336 175.265 263.932 178.019 261.431C180.773 258.931 182.321 255.54 182.321 252.004V225.34C182.321 221.805 180.773 218.414 178.019 215.913C175.265 213.413 171.53 212.009 167.635 212.009H148.055Z" fill="white"/>
<path d="M326.179 137.29L292.757 86.8342C288.491 80.3886 281.509 80.3886 277.243 86.8342L243.821 137.29C239.555 143.735 243.045 149 251.578 149H318.422C326.955 149 330.445 143.726 326.179 137.29Z" fill="white"/>
<rect x="129" y="270" width="200" height="9" rx="4.5" fill="white"/>
</svg>
