<svg width="459" height="334" viewBox="0 0 459 334" fill="none" xmlns="http://www.w3.org/2000/svg">
<path d="M114.583 333.333C82.9861 333.333 55.9896 322.396 33.5938 300.521C11.1979 278.646 0 251.91 0 220.313C0 193.229 8.15972 169.097 24.4792 147.917C40.7986 126.736 62.1528 113.194 88.5417 107.292C97.2222 75.3472 114.583 49.4792 140.625 29.6875C166.667 9.89584 196.181 0 229.167 0C269.792 0 304.253 14.1493 332.552 42.4479C360.851 70.7465 375 105.208 375 145.833C398.958 148.611 418.837 158.941 434.635 176.823C450.434 194.705 458.333 215.625 458.333 239.583C458.333 265.625 449.219 287.76 430.99 305.99C412.76 324.219 390.625 333.333 364.583 333.333H114.583Z" fill="#152039"/>
<mask id="mask0_664_471" style="mask-type:alpha" maskUnits="userSpaceOnUse" x="104" y="62" width="250" height="250">
<rect x="104" y="62" width="250" height="250" fill="#D9D9D9"/>
</mask>
<g mask="url(#mask0_664_471)">
<path d="M166.5 291.167C157.819 291.167 150.441 288.129 144.365 282.052C138.288 275.976 135.25 268.597 135.25 259.917V228.667H166.5V82.8334H322.75V177.625C319.278 176.757 315.762 176.497 312.203 176.844C308.644 177.191 305.215 178.059 301.917 179.448V103.667H187.333V228.667H249.833L229 249.5H156.083V259.917C156.083 262.868 157.082 265.342 159.078 267.339C161.075 269.335 163.549 270.333 166.5 270.333H229V291.167H166.5ZM249.833 291.167V258.094L294.625 213.302L305.823 224.5L265.458 264.604V275.542H276.396L316.76 235.438L327.698 246.375L282.906 291.167H249.833ZM327.698 246.375L294.625 213.302L307.646 200.281C309.556 198.372 311.986 197.417 314.937 197.417C317.889 197.417 320.319 198.372 322.229 200.281L340.719 218.771C342.628 220.681 343.583 223.111 343.583 226.063C343.583 229.014 342.628 231.444 340.719 233.354L327.698 246.375ZM197.75 155.75V134.917H291.5V155.75H197.75ZM197.75 187V166.167H291.5V187H197.75Z" fill="white"/>
</g>
</svg>
