<svg width="459" height="334" viewBox="0 0 459 334" fill="none" xmlns="http://www.w3.org/2000/svg">
<path d="M114.583 333.333C82.9861 333.333 55.9896 322.396 33.5938 300.521C11.1979 278.646 0 251.91 0 220.313C0 193.229 8.15972 169.097 24.4792 147.917C40.7986 126.736 62.1528 113.194 88.5417 107.292C97.2222 75.3472 114.583 49.4792 140.625 29.6875C166.667 9.89584 196.181 0 229.167 0C269.792 0 304.253 14.1493 332.552 42.4479C360.851 70.7465 375 105.208 375 145.833C398.958 148.611 418.837 158.941 434.635 176.823C450.434 194.705 458.333 215.625 458.333 239.583C458.333 265.625 449.219 287.76 430.99 305.99C412.76 324.219 390.625 333.333 364.583 333.333H114.583Z" fill="#152039"/>
<path opacity="0.2" d="M299.312 231.438L260.25 270.5L197.75 254.875L143.062 215.812L174.312 153.312L229 137.688L283.688 153.312H244.625L200.035 196.564C199.206 197.393 198.574 198.397 198.186 199.503C197.798 200.609 197.664 201.788 197.793 202.953C197.923 204.118 198.313 205.238 198.934 206.232C199.555 207.226 200.392 208.067 201.383 208.693C218.482 219.621 241.695 218.869 260.25 200.188L299.312 231.438Z" fill="white"/>
<path d="M220.953 295.832C220.53 297.522 219.555 299.023 218.182 300.095C216.809 301.167 215.117 301.75 213.375 301.75C212.717 301.753 212.06 301.674 211.422 301.516L180.172 293.703C179.302 293.485 178.476 293.118 177.73 292.619L154.293 276.994C152.569 275.844 151.373 274.057 150.967 272.025C150.562 269.993 150.98 267.883 152.13 266.159C153.28 264.435 155.067 263.239 157.099 262.834C159.131 262.428 161.241 262.846 162.965 263.996L185.269 278.869L215.211 286.359C216.211 286.602 217.154 287.04 217.984 287.648C218.815 288.256 219.517 289.022 220.051 289.902C220.584 290.782 220.939 291.759 221.094 292.777C221.248 293.795 221.201 294.833 220.953 295.832ZM350.533 201.633C349.892 203.58 348.871 205.381 347.531 206.931C346.19 208.482 344.555 209.751 342.72 210.666L319.595 222.228L265.806 276.027C264.852 276.981 263.666 277.671 262.366 278.031C261.065 278.39 259.693 278.406 258.385 278.078L195.885 262.453C194.934 262.214 194.037 261.8 193.238 261.232L139.019 222.521L115.308 210.666C111.603 208.813 108.784 205.565 107.473 201.635C106.162 197.705 106.465 193.415 108.316 189.709L132.584 141.184C134.436 137.478 137.685 134.66 141.615 133.348C145.545 132.037 149.834 132.34 153.541 134.191L175.084 144.934L226.842 130.148C228.246 129.747 229.734 129.747 231.138 130.148L282.896 144.934L304.439 134.191C308.146 132.34 312.435 132.037 316.365 133.348C320.295 134.66 323.544 137.478 325.396 141.184L349.664 189.709C350.589 191.54 351.143 193.537 351.292 195.584C351.441 197.631 351.183 199.686 350.533 201.633ZM305.435 214.269L278.863 161.125H247.789L205.562 202.141C217.926 210.041 237.31 212.219 254.703 194.689C256.061 193.32 257.878 192.502 259.804 192.392C261.729 192.282 263.627 192.888 265.133 194.094L298.736 221.018L305.435 214.269ZM122.291 196.691L139.566 205.334L163.834 156.809L146.558 148.166L122.291 196.691ZM287.594 232.082L260.533 210.412C241.451 226.037 217.222 228.098 197.144 215.295C195.169 214.039 193.502 212.355 192.265 210.367C191.028 208.38 190.254 206.14 189.999 203.813C189.744 201.486 190.015 199.132 190.792 196.924C191.569 194.716 192.832 192.711 194.488 191.057C194.512 191.028 194.538 191.002 194.566 190.978L238.375 148.488L229 145.812L179.761 159.885L153.033 213.332L201.08 247.658L257.857 261.848L287.594 232.082ZM335.679 196.691L311.441 148.166L294.166 156.809L318.433 205.334L335.679 196.691Z" fill="white"/>
</svg>
