<svg width="33" height="58" viewBox="0 0 33 58" fill="none" xmlns="http://www.w3.org/2000/svg">
<path d="M4.34771 35.292L8.26162 33.6727C7.93319 32.6668 7.64 31.6729 7.38206 30.691C7.12412 29.709 6.90145 28.6911 6.71405 27.6372L4.35123 29.2556L4.34771 35.292ZM12.2806 33.1672L20.2829 33.1265C20.8947 31.7368 21.3774 30.0717 21.7311 28.1312C22.0847 26.1907 22.2622 24.2144 22.2633 22.2022C22.2653 18.8487 21.7266 15.6751 20.6473 12.6815C19.568 9.68791 18.124 7.38921 16.3153 5.78538C14.5048 7.3914 13.0522 9.69785 11.9577 12.7047C10.8631 15.7116 10.3148 18.8918 10.3129 22.2454C10.3117 24.2575 10.4868 26.2336 10.8382 28.1737C11.1896 30.1138 11.6704 31.7783 12.2806 33.1672ZM16.2692 24.4336C15.1881 24.4342 14.2542 24.0336 13.4674 23.2316C12.6805 22.4296 12.2874 21.4777 12.2881 20.3758C12.2887 19.2739 12.6888 18.3155 13.4883 17.5006C14.2879 16.6857 15.2281 16.2779 16.3092 16.2772C17.3903 16.2766 18.3242 16.6772 19.111 17.4792C19.8979 18.2812 20.2909 19.2331 20.2903 20.335C20.2897 21.4369 19.8896 22.3953 19.0901 23.2102C18.2905 24.0251 17.3503 24.4329 16.2692 24.4336ZM28.2485 35.2775L28.2521 29.2411L25.8911 27.6256C25.7025 28.6797 25.4728 29.6919 25.2019 30.6622C24.9311 31.6325 24.6309 32.6208 24.3013 33.6271L28.2485 35.2775ZM16.2831 0.575411C19.5719 3.01673 22.0612 6.11726 23.7511 9.87702C25.441 13.6368 26.2845 18.0079 26.2816 22.9903L30.4749 25.8263C31.0387 26.2092 31.4732 26.7 31.7784 27.2987C32.0836 27.8973 32.2359 28.532 32.2356 29.2027L32.2285 41.2756L22.3251 37.2214L10.2689 37.2287L0.360744 41.2948L0.332503 29.258C0.332895 28.5873 0.491901 27.9464 0.809525 27.3354C1.12715 26.7244 1.56809 26.2271 2.13234 25.8435L6.32898 23.0024C6.33188 18.0199 7.16872 13.6478 8.83951 9.88604C10.5103 6.12425 12.9915 3.02071 16.2831 0.575411ZM10.2989 46.3192C10.2998 44.6424 10.8882 43.1928 12.064 41.9705C13.2398 40.7481 14.6502 40.1364 16.2953 40.1354C17.9404 40.1344 19.3501 40.7444 20.5245 41.9653C21.6988 43.1863 22.2855 44.6351 22.2845 46.3119C22.2838 47.5096 21.8071 49.025 20.8542 50.8581C19.9013 52.6911 18.3783 55.0096 16.285 57.8135C14.195 55.0121 12.6747 52.6955 11.7239 50.8636C10.7732 49.0317 10.2982 47.5169 10.2989 46.3192ZM14.2824 46.2808C14.2821 46.7599 14.4756 47.4365 14.8628 48.3106C15.2501 49.1847 15.7138 49.9928 16.2539 50.7351C16.7948 49.9922 17.2653 49.1894 17.6654 48.3268C18.0654 47.4643 18.2655 46.7934 18.2658 46.3144C18.2661 45.7395 18.0784 45.2365 17.7027 44.8056C17.3269 44.3746 16.857 44.1593 16.293 44.1597C15.7289 44.16 15.2529 44.3699 14.8649 44.7893C14.4769 45.2088 14.2827 45.7059 14.2824 46.2808Z" fill="white"/>
</svg>
