<?xml version="1.0" encoding="utf-8"?>
<!-- Generator: Adobe Illustrator 27.0.0, SVG Export Plug-In . SVG Version: 6.00 Build 0)  -->
<svg version="1.1" id="Camada_1" xmlns="http://www.w3.org/2000/svg" xmlns:xlink="http://www.w3.org/1999/xlink" x="0px" y="0px"
	 viewBox="0 0 827.6 437" style="enable-background:new 0 0 827.6 437;" xml:space="preserve">
<style type="text/css">
	.st0{fill:none;stroke:#FFFFFF;stroke-width:4;stroke-linecap:round;stroke-opacity:0.5;stroke-dasharray:10,10;}
	.st1{fill:#FF8900;}
</style>
<path class="st0" d="M785.8,54.8C702.3,131.3,674,424.6,535.4,265c-92.5-106.5,87-200.5,97.5-64c17.6,228-952.5-119.5-523,236"/>
<path class="st1" d="M799.3,22.1l3.6,1.1c0.3-0.9,0.7-1.8,1-2.6c0.4-0.8,0.8-1.7,1.2-2.5l-2.6-0.2L799.3,22.1z M806.1,25.2l5.6,4.6
	c1.2-0.6,2.5-1.5,3.8-2.7c1.3-1.2,2.5-2.4,3.6-3.9c1.9-2.4,3.2-4.9,4.1-7.6c0.9-2.7,1.2-5.2,0.8-7.3c-2.2,0.1-4.5,0.9-6.9,2.4
	c-2.4,1.5-4.6,3.4-6.4,5.8c-1.1,1.4-2.1,2.9-2.9,4.5C807,22.4,806.4,23.8,806.1,25.2z M813.7,21.3c-0.8-0.6-1.2-1.4-1.3-2.5
	c-0.1-1,0.1-1.9,0.7-2.7c0.6-0.8,1.4-1.2,2.4-1.3c1-0.1,1.9,0.1,2.7,0.8c0.8,0.6,1.2,1.4,1.3,2.5c0.1,1-0.1,1.9-0.8,2.7
	c-0.6,0.8-1.4,1.2-2.4,1.3C815.3,22.2,814.4,21.9,813.7,21.3z M816.1,35.8l3.3-4.2l-0.8-2.5c-0.7,0.6-1.4,1.2-2.2,1.7
	c-0.7,0.5-1.5,1-2.3,1.6L816.1,35.8z M826.9,4.6c1,3.6,1,7.2,0.1,10.8c-0.9,3.6-2.7,7.2-5.5,10.7l1.4,4.4c0.2,0.6,0.2,1.2,0.1,1.8
	c-0.1,0.6-0.4,1.1-0.7,1.6l-6.7,8.5l-4.7-8.5l-8.5-6.9l-9.2-2.8l6.6-8.5c0.4-0.5,0.8-0.8,1.4-1.1c0.6-0.2,1.1-0.3,1.8-0.3l4.5,0.4
	c2.8-3.5,5.8-6.1,9-7.8C819.7,5.1,823.2,4.4,826.9,4.6z M797.4,33.3c0.9-1.2,2.1-1.9,3.6-2c1.5-0.2,2.8,0.2,4,1.1
	c1.2,0.9,1.8,2.2,2,3.7c0.2,1.5-0.2,2.9-1.2,4.1c-0.7,0.8-1.8,1.6-3.5,2.4c-1.7,0.7-4,1.5-7.1,2.3c0.1-3.2,0.3-5.7,0.6-7.5
	C796.2,35.5,796.7,34.1,797.4,33.3z M800.2,35.5c-0.3,0.3-0.5,0.9-0.7,1.8c-0.2,0.8-0.3,1.7-0.4,2.5c0.8-0.2,1.6-0.5,2.3-0.9
	c0.8-0.4,1.3-0.7,1.5-1.1c0.3-0.4,0.5-0.9,0.4-1.4c0-0.5-0.2-0.9-0.6-1.3c-0.4-0.3-0.8-0.4-1.4-0.4
	C800.9,34.9,800.5,35.1,800.2,35.5z"/>
</svg>
